<svg width="412" height="712" viewBox="0 0 412 712" fill="none" xmlns="http://www.w3.org/2000/svg">
<rect width="412" height="712" fill="white"/>
<g style="mix-blend-mode:color-dodge">
<path d="M0 0H412V130.12C412 146.689 398.569 160.12 382 160.12H30C13.4315 160.12 0 146.688 0 130.12V0Z" fill="white"/>
</g>
<path d="M50.712 75.0512C51.656 75.2272 52.432 75.6992 53.04 76.4672C53.648 77.2352 53.952 78.1152 53.952 79.1072C53.952 80.0032 53.728 80.7952 53.28 81.4832C52.848 82.1552 52.216 82.6832 51.384 83.0672C50.552 83.4512 49.568 83.6432 48.432 83.6432H41.208V66.8912H48.12C49.256 66.8912 50.232 67.0752 51.048 67.4432C51.88 67.8112 52.504 68.3232 52.92 68.9792C53.352 69.6352 53.568 70.3792 53.568 71.2112C53.568 72.1872 53.304 73.0032 52.776 73.6592C52.264 74.3152 51.576 74.7792 50.712 75.0512ZM44.568 73.8032H47.64C48.44 73.8032 49.056 73.6272 49.488 73.2752C49.92 72.9072 50.136 72.3872 50.136 71.7152C50.136 71.0432 49.92 70.5232 49.488 70.1552C49.056 69.7872 48.44 69.6032 47.64 69.6032H44.568V73.8032ZM47.952 80.9072C48.768 80.9072 49.4 80.7152 49.848 80.3312C50.312 79.9472 50.544 79.4032 50.544 78.6992C50.544 77.9792 50.304 77.4192 49.824 77.0192C49.344 76.6032 48.696 76.3952 47.88 76.3952H44.568V80.9072H47.952ZM55.7659 76.9472C55.7659 75.6032 56.0299 74.4112 56.5579 73.3712C57.1019 72.3312 57.8299 71.5312 58.7419 70.9712C59.6699 70.4112 60.7019 70.1312 61.8379 70.1312C62.8299 70.1312 63.6939 70.3312 64.4299 70.7312C65.1819 71.1312 65.7819 71.6352 66.2299 72.2432V70.3472H69.6139V83.6432H66.2299V81.6992C65.7979 82.3232 65.1979 82.8432 64.4299 83.2592C63.6779 83.6592 62.8059 83.8592 61.8139 83.8592C60.6939 83.8592 59.6699 83.5712 58.7419 82.9952C57.8299 82.4192 57.1019 81.6112 56.5579 80.5712C56.0299 79.5152 55.7659 78.3072 55.7659 76.9472ZM66.2299 76.9952C66.2299 76.1792 66.0699 75.4832 65.7499 74.9072C65.4299 74.3152 64.9979 73.8672 64.4539 73.5632C63.9099 73.2432 63.3259 73.0832 62.7019 73.0832C62.0779 73.0832 61.5019 73.2352 60.9739 73.5392C60.4459 73.8432 60.0139 74.2912 59.6779 74.8832C59.3579 75.4592 59.1979 76.1472 59.1979 76.9472C59.1979 77.7472 59.3579 78.4512 59.6779 79.0592C60.0139 79.6512 60.4459 80.1072 60.9739 80.4272C61.5179 80.7472 62.0939 80.9072 62.7019 80.9072C63.3259 80.9072 63.9099 80.7552 64.4539 80.4512C64.9979 80.1312 65.4299 79.6832 65.7499 79.1072C66.0699 78.5152 66.2299 77.8112 66.2299 76.9952ZM76.8075 73.1072V79.5392C76.8075 79.9872 76.9115 80.3152 77.1195 80.5232C77.3435 80.7152 77.7115 80.8112 78.2235 80.8112H79.7835V83.6432H77.6715C74.8395 83.6432 73.4235 82.2672 73.4235 79.5152V73.1072H71.8395V70.3472H73.4235V67.0592H76.8075V70.3472H79.7835V73.1072H76.8075ZM89.6882 70.1552C90.6962 70.1552 91.5922 70.3792 92.3762 70.8272C93.1602 71.2592 93.7682 71.9072 94.2002 72.7712C94.6482 73.6192 94.8722 74.6432 94.8722 75.8432V83.6432H91.5122V76.2992C91.5122 75.2432 91.2482 74.4352 90.7202 73.8752C90.1922 73.2992 89.4722 73.0112 88.5602 73.0112C87.6322 73.0112 86.8962 73.2992 86.3522 73.8752C85.8242 74.4352 85.5602 75.2432 85.5602 76.2992V83.6432H82.2002V65.8832H85.5602V72.0032C85.9922 71.4272 86.5682 70.9792 87.2882 70.6592C88.0082 70.3232 88.8082 70.1552 89.6882 70.1552ZM100.443 72.6272C100.827 71.8752 101.371 71.2912 102.075 70.8752C102.795 70.4592 103.667 70.2512 104.691 70.2512V72.5072H104.115C101.667 72.5072 100.443 73.8352 100.443 76.4912V83.6432H98.2594V70.4912H100.443V72.6272ZM112.949 83.8592C111.717 83.8592 110.597 83.5792 109.589 83.0192C108.597 82.4592 107.813 81.6672 107.237 80.6432C106.677 79.6032 106.397 78.4032 106.397 77.0432C106.397 75.6992 106.685 74.5152 107.261 73.4912C107.853 72.4512 108.653 71.6592 109.661 71.1152C110.669 70.5552 111.797 70.2752 113.045 70.2752C114.293 70.2752 115.421 70.5552 116.429 71.1152C117.437 71.6592 118.229 72.4432 118.805 73.4672C119.397 74.4912 119.693 75.6832 119.693 77.0432C119.693 78.4032 119.389 79.6032 118.781 80.6432C118.189 81.6672 117.381 82.4592 116.357 83.0192C115.333 83.5792 114.197 83.8592 112.949 83.8592ZM112.949 81.9392C113.733 81.9392 114.469 81.7552 115.157 81.3872C115.845 81.0192 116.397 80.4672 116.813 79.7312C117.245 78.9952 117.461 78.0992 117.461 77.0432C117.461 75.9872 117.253 75.0912 116.837 74.3552C116.421 73.6192 115.877 73.0752 115.205 72.7232C114.533 72.3552 113.805 72.1712 113.021 72.1712C112.221 72.1712 111.485 72.3552 110.813 72.7232C110.157 73.0752 109.629 73.6192 109.229 74.3552C108.829 75.0912 108.629 75.9872 108.629 77.0432C108.629 78.1152 108.821 79.0192 109.205 79.7552C109.605 80.4912 110.133 81.0432 110.789 81.4112C111.445 81.7632 112.165 81.9392 112.949 81.9392ZM128.3 83.8592C127.068 83.8592 125.948 83.5792 124.94 83.0192C123.948 82.4592 123.164 81.6672 122.588 80.6432C122.028 79.6032 121.748 78.4032 121.748 77.0432C121.748 75.6992 122.036 74.5152 122.612 73.4912C123.204 72.4512 124.004 71.6592 125.012 71.1152C126.02 70.5552 127.148 70.2752 128.396 70.2752C129.644 70.2752 130.772 70.5552 131.78 71.1152C132.788 71.6592 133.58 72.4432 134.156 73.4672C134.748 74.4912 135.044 75.6832 135.044 77.0432C135.044 78.4032 134.74 79.6032 134.132 80.6432C133.54 81.6672 132.732 82.4592 131.708 83.0192C130.684 83.5792 129.548 83.8592 128.3 83.8592ZM128.3 81.9392C129.084 81.9392 129.82 81.7552 130.508 81.3872C131.196 81.0192 131.748 80.4672 132.164 79.7312C132.596 78.9952 132.812 78.0992 132.812 77.0432C132.812 75.9872 132.604 75.0912 132.188 74.3552C131.772 73.6192 131.228 73.0752 130.556 72.7232C129.884 72.3552 129.156 72.1712 128.372 72.1712C127.572 72.1712 126.836 72.3552 126.164 72.7232C125.508 73.0752 124.98 73.6192 124.58 74.3552C124.18 75.0912 123.98 75.9872 123.98 77.0432C123.98 78.1152 124.172 79.0192 124.556 79.7552C124.956 80.4912 125.484 81.0432 126.14 81.4112C126.796 81.7632 127.516 81.9392 128.3 81.9392ZM153.732 70.2512C154.756 70.2512 155.668 70.4672 156.468 70.8992C157.268 71.3152 157.9 71.9472 158.364 72.7952C158.828 73.6432 159.06 74.6752 159.06 75.8912V83.6432H156.9V76.2032C156.9 74.8912 156.572 73.8912 155.916 73.2032C155.276 72.4992 154.404 72.1472 153.3 72.1472C152.164 72.1472 151.26 72.5152 150.588 73.2512C149.916 73.9712 149.58 75.0192 149.58 76.3952V83.6432H147.42V76.2032C147.42 74.8912 147.092 73.8912 146.436 73.2032C145.796 72.4992 144.924 72.1472 143.82 72.1472C142.684 72.1472 141.78 72.5152 141.108 73.2512C140.436 73.9712 140.1 75.0192 140.1 76.3952V83.6432H137.916V70.4912H140.1V72.3872C140.532 71.6992 141.108 71.1712 141.828 70.8032C142.564 70.4352 143.372 70.2512 144.252 70.2512C145.356 70.2512 146.332 70.4992 147.18 70.9952C148.028 71.4912 148.66 72.2192 149.076 73.1792C149.444 72.2512 150.052 71.5312 150.9 71.0192C151.748 70.5072 152.692 70.2512 153.732 70.2512Z" fill="black"/>
<g clip-path="url(#clip0)">
<path d="M345.839 61.733C347.171 64.6458 346.241 68.9837 343.243 70.2774C340.244 71.5764 336.308 69.3413 334.976 66.4265C333.644 63.5123 334.361 58.7154 337.36 57.4184C340.359 56.1228 344.507 58.8201 345.842 61.733" fill="#FBBF67"/>
<path d="M344.048 58.2689C344.048 58.2689 344.478 58.5437 341.974 59.6866C339.463 60.8288 339.873 60.9969 339.873 60.9969C339.873 60.9969 339.673 60.8248 340.113 62.4173L339.31 63.9058L338.63 62.2098C338.63 62.2098 336.888 64.1213 337.006 66.1541C337.009 66.2408 337.018 66.3262 337.03 66.413C337.324 68.5399 335.935 66.413 335.935 66.413L334.758 66.5164L334.836 65.6684C334.836 65.6684 332.988 61.8042 335.328 58.8693C337.67 55.9331 337.936 55.9972 340.205 56.6657C342.474 57.3328 344.427 57.4096 344.051 58.2689" fill="#59595C"/>
<path d="M341.466 85.5507C341.466 85.7809 341.419 86.0088 341.328 86.2214C341.238 86.434 341.105 86.6271 340.937 86.7898C340.769 86.9525 340.571 87.0815 340.352 87.1695C340.133 87.2575 339.898 87.3028 339.661 87.3027H338.311C337.833 87.3025 337.375 87.1178 337.037 86.7893C336.699 86.4608 336.509 86.0152 336.509 85.5507V84.7761C336.509 84.3116 336.699 83.8662 337.037 83.5378C337.375 83.2093 337.833 83.0248 338.311 83.0248H339.661C339.898 83.0245 340.133 83.0697 340.352 83.1575C340.571 83.2454 340.77 83.3744 340.937 83.5371C341.105 83.6997 341.238 83.8929 341.328 84.1055C341.419 84.3181 341.466 84.546 341.466 84.7761V85.5507Z" fill="#59595C"/>
<path d="M367.779 85.5507C367.779 86.0154 367.589 86.461 367.25 86.7895C366.912 87.1181 366.454 87.3027 365.975 87.3027H364.625C364.147 87.3025 363.689 87.1179 363.351 86.7893C363.012 86.4608 362.822 86.0153 362.822 85.5507V84.7761C362.822 84.3116 363.013 83.8661 363.351 83.5377C363.689 83.2093 364.147 83.0248 364.625 83.0248H365.975C366.212 83.0247 366.447 83.07 366.665 83.1579C366.884 83.2459 367.083 83.3749 367.25 83.5375C367.418 83.7002 367.551 83.8932 367.641 84.1058C367.732 84.3183 367.779 84.5461 367.779 84.7761V85.5507Z" fill="#59595C"/>
<path d="M372.62 68.0843C354.705 71.3955 337.388 65.898 335.617 65.4236C335.385 65.403 333.564 64.4129 333.334 64.3722C333.33 64.3795 333.222 65.2295 333.218 65.2362C318.736 88.1467 352.402 87.2727 352.402 87.2727C380.116 85.8976 372.62 68.085 372.62 68.085" fill="#AEACAC"/>
<path d="M343.348 67.3665C339.117 66.5078 336.281 65.6278 335.617 65.4497C335.385 65.429 333.564 64.4376 333.334 64.3969C333.33 64.4043 333.222 65.2556 333.218 65.2622C318.736 88.1727 352.402 87.2987 352.402 87.2987C357.808 87.0312 361.876 86.1365 364.92 84.8722C356.516 84.101 339.065 80.8753 343.348 67.3658" fill="#969696"/>
<path d="M362.745 52.538L362.76 52.5134L362.662 52.1024C362.662 52.1024 360.588 51.8896 360.514 51.8796C360.438 51.8695 358.227 52.0157 358.181 52.0157C358.138 52.0157 356.994 52.2658 356.994 52.2658L357.184 52.6261C357.043 52.5468 356.91 52.4557 356.785 52.3539C356.881 52.8298 357.144 53.2585 357.53 53.5667C357.915 53.8748 358.399 54.0433 358.898 54.0432H360.891C361.39 54.0429 361.874 53.8744 362.259 53.5662C362.644 53.2581 362.907 52.8296 363.003 52.3539C362.921 52.4206 362.834 52.4807 362.745 52.538" fill="#AEACAC"/>
<path d="M368.51 62.9739C368.51 63.501 368.07 63.928 367.528 63.928H366.796C366.667 63.9281 366.539 63.9036 366.42 63.8557C366.301 63.8078 366.192 63.7376 366.101 63.649C366.01 63.5604 365.937 63.4551 365.888 63.3393C365.838 63.2235 365.813 63.0993 365.813 62.9739V62.5529C365.813 62.0272 366.252 61.5989 366.796 61.5989H367.528C368.07 61.5989 368.51 62.0272 368.51 62.5529V62.9739Z" fill="#59595C"/>
<path d="M367.538 48.1487C366.739 47.3655 365.654 46.9685 364.31 46.9685C360.734 46.9685 359.538 49.9668 359.403 51.5539L360.846 51.6667C360.857 51.5319 361.16 48.3742 364.313 48.3742C365.614 48.3742 366.493 48.8419 367 49.802C367.251 50.295 367.391 50.8346 367.41 51.3845V71.3021H368.857V51.3898C368.859 51.3118 368.859 49.4424 367.541 48.1487" fill="#AEACAC"/>
<path d="M373.543 68.0002C373.314 67.1535 372.349 66.9187 371.676 66.9607C371.334 67.0188 370.994 67.0735 370.653 67.1248C351.975 69.9476 334.108 64.5055 332.256 64.0192C332.052 64.002 331.848 63.9784 331.646 63.9485C331.622 63.9618 331.596 63.9718 331.573 63.9818C331.749 63.9078 331.543 64.1152 331.567 64.0732C331.489 64.2066 331.409 64.3394 331.351 64.4815C331.307 64.5903 331.333 64.9639 331.451 65.2067C331.463 65.2341 331.477 65.2628 331.488 65.2921C331.585 65.3222 331.684 65.3542 331.782 65.3922C334.259 66.07 351.75 71.2039 370.269 68.7187C370.607 68.676 370.943 68.628 371.284 68.5773C371.985 68.3257 372.71 68.3257 373.385 68.1983C373.428 68.1323 373.48 68.0655 373.541 68.0002" fill="#59595C"/>
<path d="M358.118 52.5479H361.668C362.567 52.5473 363.438 52.8549 364.128 53.4166C363.997 52.7688 363.638 52.1854 363.113 51.7659C362.589 51.3464 361.93 51.1167 361.251 51.1162H358.534C357.855 51.1163 357.197 51.3458 356.672 51.7654C356.148 52.1851 355.79 52.7688 355.659 53.4166C356.348 52.8545 357.219 52.5469 358.118 52.5479" fill="#59595C"/>
<path d="M358.049 55.5189C358.049 55.7911 358.236 56.0126 358.467 56.0126C358.696 56.0126 358.884 55.7911 358.884 55.5189C358.884 55.2467 358.696 54.5735 358.467 54.5735C358.236 54.5735 358.049 55.2474 358.049 55.5189Z" fill="#58C5E8"/>
<path d="M359.402 57.6405C359.402 57.9154 359.588 58.1356 359.82 58.1356C360.051 58.1356 360.237 57.9154 360.237 57.6405C360.237 57.3683 360.051 56.6965 359.82 56.6965C359.588 56.6965 359.402 57.3703 359.402 57.6405" fill="#58C5E8"/>
<path d="M358.474 60.5473C358.474 60.8209 358.66 61.041 358.89 61.041C359.121 61.041 359.309 60.8209 359.309 60.5473C359.309 60.2751 359.121 59.6033 358.89 59.6033C358.66 59.6033 358.474 60.2771 358.474 60.5473Z" fill="#58C5E8"/>
<path d="M360.569 62.8117C360.569 63.0839 360.755 63.3068 360.986 63.3068C361.219 63.3068 361.404 63.0839 361.404 62.8117C361.404 62.5382 361.218 61.8677 360.986 61.8677C360.755 61.8677 360.569 62.5348 360.569 62.8117Z" fill="#58C5E8"/>
<path d="M360.842 55.5189C360.842 55.7911 361.032 56.0126 361.262 56.0126C361.493 56.0126 361.679 55.7911 361.679 55.5189C361.679 55.2467 361.493 54.5735 361.262 54.5735C361.032 54.5735 360.842 55.2474 360.842 55.5189Z" fill="#58C5E8"/>
<path d="M360.699 60.0783C360.699 60.3518 360.886 60.5733 361.118 60.5733C361.348 60.5733 361.536 60.3518 361.536 60.0783C361.536 59.8061 361.348 59.1342 361.118 59.1342C360.885 59.1342 360.699 59.8081 360.699 60.0783Z" fill="#58C5E8"/>
<path d="M357.635 63.3054C357.635 63.5789 357.822 63.7991 358.052 63.7991C358.282 63.7991 358.472 63.5789 358.472 63.3054C358.472 63.0318 358.282 62.36 358.052 62.36C357.822 62.36 357.635 63.0338 357.635 63.3054Z" fill="#58C5E8"/>
<path d="M359.333 66.1609C359.333 66.4331 359.519 66.6546 359.75 66.6546C359.979 66.6546 360.166 66.4331 360.166 66.1609C360.166 65.8874 359.979 65.2155 359.75 65.2155C359.519 65.2155 359.333 65.8894 359.333 66.1609Z" fill="#58C5E8"/>
</g>
<rect y="123.826" width="412" height="588.174" fill="#C4C4C4" fill-opacity="0.2"/>
<g clip-path="url(#clip1)">
<path d="M367.504 654.392L368.242 653.554C368.036 653.383 367.775 653.289 367.504 653.289C367.233 653.289 366.972 653.383 366.766 653.554L367.504 654.392ZM351.61 667.629L350.872 666.791L350.475 667.122V667.629H351.61ZM362.963 685.278V686.381C363.264 686.381 363.553 686.265 363.766 686.058C363.978 685.851 364.098 685.57 364.098 685.278H362.963ZM372.045 685.278H370.91C370.91 685.57 371.029 685.851 371.242 686.058C371.455 686.265 371.744 686.381 372.045 686.381V685.278ZM383.398 667.629H384.533V667.122L384.136 666.791L383.398 667.629V667.629ZM353.88 686.381H362.963V684.175H353.88V686.381ZM384.136 666.791L368.242 653.554L366.766 655.231L382.66 668.467L384.136 666.791ZM366.766 653.554L350.872 666.791L352.348 668.467L368.242 655.231L366.766 653.554V653.554ZM364.098 685.278V678.659H361.827V685.278H364.098ZM370.91 678.659V685.278H373.18V678.659H370.91ZM372.045 686.381H381.127V684.175H372.045V686.381ZM384.533 683.072V667.629H382.263V683.072H384.533ZM350.475 667.629V683.072H352.745V667.629H350.475ZM367.504 675.35C368.407 675.35 369.274 675.699 369.912 676.32C370.551 676.94 370.91 677.782 370.91 678.659H373.18C373.18 677.197 372.582 675.794 371.518 674.76C370.453 673.725 369.009 673.144 367.504 673.144V675.35ZM367.504 673.144C365.998 673.144 364.555 673.725 363.49 674.76C362.426 675.794 361.827 677.197 361.827 678.659H364.098C364.098 677.782 364.457 676.94 365.096 676.32C365.734 675.699 366.601 675.35 367.504 675.35V673.144ZM381.127 686.381C382.031 686.381 382.897 686.032 383.536 685.412C384.174 684.791 384.533 683.949 384.533 683.072H382.263C382.263 683.364 382.143 683.645 381.93 683.852C381.717 684.059 381.429 684.175 381.127 684.175V686.381ZM353.88 684.175C353.579 684.175 353.291 684.059 353.078 683.852C352.865 683.645 352.745 683.364 352.745 683.072H350.475C350.475 683.949 350.833 684.791 351.472 685.412C352.111 686.032 352.977 686.381 353.88 686.381V684.175Z" fill="black"/>
</g>
<g filter="url(#filter0_d)">
<circle cx="206.248" cy="489.84" r="81" fill="white"/>
</g>
<path fill-rule="evenodd" clip-rule="evenodd" d="M207.343 427.574C207.343 427.282 207.227 427.002 207.022 426.795C206.817 426.588 206.538 426.472 206.248 426.472C205.958 426.472 205.679 426.588 205.474 426.795C205.269 427.002 205.153 427.282 205.153 427.574V428.676C205.153 428.969 205.269 429.249 205.474 429.456C205.679 429.662 205.958 429.778 206.248 429.778C206.538 429.778 206.817 429.662 207.022 429.456C207.227 429.249 207.343 428.969 207.343 428.676V427.574ZM199.907 429.55C199.701 429.349 199.424 429.238 199.137 429.241C198.85 429.243 198.575 429.359 198.373 429.564C198.17 429.768 198.054 430.044 198.052 430.333C198.049 430.622 198.16 430.901 198.359 431.109L199.454 432.211C199.66 432.411 199.937 432.522 200.224 432.52C200.511 432.517 200.785 432.401 200.988 432.197C201.191 431.993 201.306 431.716 201.309 431.427C201.311 431.138 201.201 430.86 201.002 430.652L199.907 429.55ZM214.137 431.109C214.336 430.901 214.446 430.622 214.444 430.333C214.441 430.044 214.326 429.768 214.123 429.564C213.92 429.359 213.646 429.243 213.359 429.241C213.072 429.238 212.795 429.349 212.589 429.55L211.494 430.652C211.295 430.86 211.185 431.138 211.187 431.427C211.19 431.716 211.305 431.993 211.508 432.197C211.711 432.401 211.985 432.517 212.272 432.52C212.559 432.522 212.836 432.411 213.042 432.211L214.137 431.109ZM206.248 430.88C204.837 430.88 203.464 431.338 202.331 432.185C201.198 433.032 200.367 434.224 199.96 435.584C199.552 436.944 199.591 438.4 200.069 439.736C200.548 441.072 201.441 442.218 202.617 443.003H209.879C211.054 442.218 211.948 441.072 212.426 439.736C212.905 438.4 212.944 436.944 212.536 435.584C212.129 434.224 211.297 433.032 210.165 432.185C209.032 431.338 207.659 430.88 206.248 430.88V430.88ZM209.532 444.105H202.964V445.207C202.964 446.084 203.31 446.925 203.926 447.545C204.542 448.165 205.377 448.513 206.248 448.513C207.119 448.513 207.954 448.165 208.57 447.545C209.186 446.925 209.532 446.084 209.532 445.207V444.105ZM196.397 436.391C196.106 436.391 195.828 436.507 195.623 436.713C195.417 436.92 195.302 437.2 195.302 437.493C195.302 437.785 195.417 438.065 195.623 438.272C195.828 438.479 196.106 438.595 196.397 438.595H197.491C197.781 438.595 198.06 438.479 198.265 438.272C198.47 438.065 198.586 437.785 198.586 437.493C198.586 437.2 198.47 436.92 198.265 436.713C198.06 436.507 197.781 436.391 197.491 436.391H196.397ZM215.005 436.391C214.714 436.391 214.436 436.507 214.231 436.713C214.025 436.92 213.91 437.2 213.91 437.493C213.91 437.785 214.025 438.065 214.231 438.272C214.436 438.479 214.714 438.595 215.005 438.595H216.099C216.39 438.595 216.668 438.479 216.873 438.272C217.079 438.065 217.194 437.785 217.194 437.493C217.194 437.2 217.079 436.92 216.873 436.713C216.668 436.507 216.39 436.391 216.099 436.391H215.005Z" fill="#22B754"/>
<path d="M163.982 471.531H167.496V472.329H163.002V462.543H163.982V471.531ZM169.385 463.243C169.189 463.243 169.021 463.173 168.881 463.033C168.741 462.893 168.671 462.721 168.671 462.515C168.671 462.31 168.741 462.142 168.881 462.011C169.021 461.871 169.189 461.801 169.385 461.801C169.581 461.801 169.749 461.871 169.889 462.011C170.029 462.142 170.099 462.31 170.099 462.515C170.099 462.721 170.029 462.893 169.889 463.033C169.749 463.173 169.581 463.243 169.385 463.243ZM169.875 464.685V472.329H168.895V464.685H169.875ZM175.3 464.573C176.019 464.573 176.644 464.741 177.176 465.077C177.708 465.413 178.091 465.838 178.324 466.351V464.685H179.304V472.525C179.304 473.225 179.15 473.846 178.842 474.387C178.543 474.929 178.123 475.344 177.582 475.633C177.041 475.932 176.425 476.081 175.734 476.081C174.754 476.081 173.937 475.848 173.284 475.381C172.64 474.915 172.239 474.28 172.08 473.477H173.046C173.214 474.009 173.531 474.434 173.998 474.751C174.474 475.069 175.053 475.227 175.734 475.227C176.229 475.227 176.672 475.12 177.064 474.905C177.456 474.7 177.764 474.392 177.988 473.981C178.212 473.571 178.324 473.085 178.324 472.525V470.635C178.081 471.158 177.694 471.592 177.162 471.937C176.639 472.273 176.019 472.441 175.3 472.441C174.6 472.441 173.97 472.278 173.41 471.951C172.859 471.625 172.425 471.163 172.108 470.565C171.8 469.968 171.646 469.277 171.646 468.493C171.646 467.709 171.8 467.023 172.108 466.435C172.425 465.838 172.859 465.381 173.41 465.063C173.97 464.737 174.6 464.573 175.3 464.573ZM178.324 468.507C178.324 467.891 178.198 467.35 177.946 466.883C177.694 466.417 177.349 466.057 176.91 465.805C176.481 465.553 176.005 465.427 175.482 465.427C174.941 465.427 174.455 465.549 174.026 465.791C173.597 466.034 173.256 466.389 173.004 466.855C172.761 467.313 172.64 467.859 172.64 468.493C172.64 469.119 172.761 469.669 173.004 470.145C173.256 470.612 173.597 470.971 174.026 471.223C174.455 471.466 174.941 471.587 175.482 471.587C176.005 471.587 176.481 471.461 176.91 471.209C177.349 470.957 177.694 470.598 177.946 470.131C178.198 469.665 178.324 469.123 178.324 468.507ZM185.181 464.545C185.76 464.545 186.278 464.667 186.735 464.909C187.202 465.152 187.566 465.525 187.827 466.029C188.098 466.524 188.233 467.131 188.233 467.849V472.329H187.267V467.961C187.267 467.131 187.057 466.496 186.637 466.057C186.227 465.619 185.662 465.399 184.943 465.399C184.206 465.399 183.618 465.633 183.179 466.099C182.741 466.566 182.521 467.252 182.521 468.157V472.329H181.541V461.969H182.521V465.987C182.764 465.53 183.119 465.175 183.585 464.923C184.061 464.671 184.593 464.545 185.181 464.545ZM191.675 465.511V470.257C191.675 470.724 191.763 471.046 191.941 471.223C192.118 471.401 192.431 471.489 192.879 471.489H193.775V472.329H192.725C192.034 472.329 191.521 472.171 191.185 471.853C190.849 471.527 190.681 470.995 190.681 470.257V465.511H189.617V464.685H190.681V462.767H191.675V464.685H193.775V465.511H191.675ZM195.517 462.543H196.651L195.419 465.567H194.705L195.517 462.543ZM200.785 472.441C199.907 472.441 199.189 472.241 198.629 471.839C198.078 471.429 197.77 470.873 197.705 470.173H198.713C198.759 470.603 198.96 470.953 199.315 471.223C199.679 471.485 200.164 471.615 200.771 471.615C201.303 471.615 201.718 471.489 202.017 471.237C202.325 470.985 202.479 470.673 202.479 470.299C202.479 470.038 202.395 469.823 202.227 469.655C202.059 469.487 201.844 469.357 201.583 469.263C201.331 469.161 200.985 469.053 200.547 468.941C199.977 468.792 199.515 468.643 199.161 468.493C198.806 468.344 198.503 468.125 198.251 467.835C198.008 467.537 197.887 467.14 197.887 466.645C197.887 466.272 197.999 465.927 198.223 465.609C198.447 465.292 198.764 465.04 199.175 464.853C199.585 464.667 200.052 464.573 200.575 464.573C201.396 464.573 202.059 464.783 202.563 465.203C203.067 465.614 203.337 466.183 203.375 466.911H202.395C202.367 466.463 202.189 466.104 201.863 465.833C201.545 465.553 201.107 465.413 200.547 465.413C200.052 465.413 199.651 465.53 199.343 465.763C199.035 465.997 198.881 466.286 198.881 466.631C198.881 466.93 198.969 467.177 199.147 467.373C199.333 467.56 199.562 467.709 199.833 467.821C200.103 467.924 200.467 468.041 200.925 468.171C201.475 468.321 201.914 468.465 202.241 468.605C202.567 468.745 202.847 468.951 203.081 469.221C203.314 469.492 203.435 469.851 203.445 470.299C203.445 470.71 203.333 471.079 203.109 471.405C202.885 471.723 202.572 471.975 202.171 472.161C201.769 472.348 201.307 472.441 200.785 472.441ZM216.397 462.543V472.329H215.417V467.751H210.111V472.329H209.131V462.543H210.111V466.939H215.417V462.543H216.397ZM225.549 468.115C225.549 468.451 225.54 468.708 225.521 468.885H219.179C219.207 469.464 219.347 469.959 219.599 470.369C219.851 470.78 220.182 471.093 220.593 471.307C221.004 471.513 221.452 471.615 221.937 471.615C222.572 471.615 223.104 471.461 223.533 471.153C223.972 470.845 224.261 470.43 224.401 469.907H225.437C225.25 470.654 224.849 471.265 224.233 471.741C223.626 472.208 222.861 472.441 221.937 472.441C221.218 472.441 220.574 472.283 220.005 471.965C219.436 471.639 218.988 471.181 218.661 470.593C218.344 469.996 218.185 469.301 218.185 468.507C218.185 467.714 218.344 467.019 218.661 466.421C218.978 465.824 219.422 465.367 219.991 465.049C220.56 464.732 221.209 464.573 221.937 464.573C222.665 464.573 223.3 464.732 223.841 465.049C224.392 465.367 224.812 465.796 225.101 466.337C225.4 466.869 225.549 467.462 225.549 468.115ZM224.555 468.087C224.564 467.518 224.448 467.033 224.205 466.631C223.972 466.23 223.65 465.927 223.239 465.721C222.828 465.516 222.38 465.413 221.895 465.413C221.167 465.413 220.546 465.647 220.033 466.113C219.52 466.58 219.235 467.238 219.179 468.087H224.555ZM226.894 468.493C226.894 467.709 227.048 467.023 227.356 466.435C227.673 465.838 228.107 465.381 228.658 465.063C229.218 464.737 229.848 464.573 230.548 464.573C231.276 464.573 231.901 464.741 232.424 465.077C232.956 465.413 233.339 465.843 233.572 466.365V464.685H234.552V472.329H233.572V470.635C233.329 471.158 232.942 471.592 232.41 471.937C231.887 472.273 231.262 472.441 230.534 472.441C229.843 472.441 229.218 472.278 228.658 471.951C228.107 471.625 227.673 471.163 227.356 470.565C227.048 469.968 226.894 469.277 226.894 468.493ZM233.572 468.507C233.572 467.891 233.446 467.35 233.194 466.883C232.942 466.417 232.597 466.057 232.158 465.805C231.729 465.553 231.253 465.427 230.73 465.427C230.189 465.427 229.703 465.549 229.274 465.791C228.845 466.034 228.504 466.389 228.252 466.855C228.009 467.313 227.888 467.859 227.888 468.493C227.888 469.119 228.009 469.669 228.252 470.145C228.504 470.612 228.845 470.971 229.274 471.223C229.703 471.466 230.189 471.587 230.73 471.587C231.253 471.587 231.729 471.461 232.158 471.209C232.597 470.957 232.942 470.598 233.194 470.131C233.446 469.665 233.572 469.123 233.572 468.507ZM238.063 465.511V470.257C238.063 470.724 238.152 471.046 238.329 471.223C238.507 471.401 238.819 471.489 239.267 471.489H240.163V472.329H239.113C238.423 472.329 237.909 472.171 237.573 471.853C237.237 471.527 237.069 470.995 237.069 470.257V465.511H236.005V464.685H237.069V462.767H238.063V464.685H240.163V465.511H238.063ZM245.42 464.545C245.998 464.545 246.516 464.667 246.974 464.909C247.44 465.152 247.804 465.525 248.066 466.029C248.336 466.524 248.472 467.131 248.472 467.849V472.329H247.506V467.961C247.506 467.131 247.296 466.496 246.876 466.057C246.465 465.619 245.9 465.399 245.182 465.399C244.444 465.399 243.856 465.633 243.418 466.099C242.979 466.566 242.76 467.252 242.76 468.157V472.329H241.78V461.969H242.76V465.987C243.002 465.53 243.357 465.175 243.824 464.923C244.3 464.671 244.832 464.545 245.42 464.545Z" fill="black"/>
<path d="M193.617 509.481C193.337 508.837 192.907 508.333 192.329 507.969C191.759 507.596 191.087 507.409 190.313 507.409C189.585 507.409 188.931 507.577 188.353 507.913C187.774 508.249 187.317 508.73 186.981 509.355C186.645 509.971 186.477 510.69 186.477 511.511C186.477 512.332 186.645 513.056 186.981 513.681C187.317 514.306 187.774 514.787 188.353 515.123C188.931 515.459 189.585 515.627 190.313 515.627C190.994 515.627 191.605 515.482 192.147 515.193C192.697 514.894 193.136 514.474 193.463 513.933C193.799 513.382 193.99 512.743 194.037 512.015H189.921V511.217H195.073V511.931C195.026 512.79 194.793 513.569 194.373 514.269C193.953 514.96 193.388 515.506 192.679 515.907C191.979 516.308 191.19 516.509 190.313 516.509C189.407 516.509 188.586 516.299 187.849 515.879C187.111 515.45 186.528 514.857 186.099 514.101C185.679 513.336 185.469 512.472 185.469 511.511C185.469 510.55 185.679 509.691 186.099 508.935C186.528 508.17 187.111 507.577 187.849 507.157C188.586 506.728 189.407 506.513 190.313 506.513C191.358 506.513 192.273 506.774 193.057 507.297C193.841 507.82 194.41 508.548 194.765 509.481H193.617ZM201.264 516.509C200.359 516.509 199.537 516.299 198.8 515.879C198.063 515.45 197.479 514.857 197.05 514.101C196.63 513.336 196.42 512.472 196.42 511.511C196.42 510.55 196.63 509.691 197.05 508.935C197.479 508.17 198.063 507.577 198.8 507.157C199.537 506.728 200.359 506.513 201.264 506.513C202.179 506.513 203.005 506.728 203.742 507.157C204.479 507.577 205.058 508.17 205.478 508.935C205.898 509.691 206.108 510.55 206.108 511.511C206.108 512.472 205.898 513.336 205.478 514.101C205.058 514.857 204.479 515.45 203.742 515.879C203.005 516.299 202.179 516.509 201.264 516.509ZM201.264 515.655C201.992 515.655 202.645 515.487 203.224 515.151C203.803 514.815 204.26 514.334 204.596 513.709C204.932 513.074 205.1 512.342 205.1 511.511C205.1 510.68 204.932 509.952 204.596 509.327C204.26 508.702 203.803 508.221 203.224 507.885C202.645 507.549 201.992 507.381 201.264 507.381C200.536 507.381 199.883 507.549 199.304 507.885C198.725 508.221 198.268 508.702 197.932 509.327C197.596 509.952 197.428 510.68 197.428 511.511C197.428 512.342 197.596 513.074 197.932 513.709C198.268 514.334 198.725 514.815 199.304 515.151C199.883 515.487 200.536 515.655 201.264 515.655ZM212.297 516.509C211.392 516.509 210.57 516.299 209.833 515.879C209.096 515.45 208.512 514.857 208.083 514.101C207.663 513.336 207.453 512.472 207.453 511.511C207.453 510.55 207.663 509.691 208.083 508.935C208.512 508.17 209.096 507.577 209.833 507.157C210.57 506.728 211.392 506.513 212.297 506.513C213.212 506.513 214.038 506.728 214.775 507.157C215.512 507.577 216.091 508.17 216.511 508.935C216.931 509.691 217.141 510.55 217.141 511.511C217.141 512.472 216.931 513.336 216.511 514.101C216.091 514.857 215.512 515.45 214.775 515.879C214.038 516.299 213.212 516.509 212.297 516.509ZM212.297 515.655C213.025 515.655 213.678 515.487 214.257 515.151C214.836 514.815 215.293 514.334 215.629 513.709C215.965 513.074 216.133 512.342 216.133 511.511C216.133 510.68 215.965 509.952 215.629 509.327C215.293 508.702 214.836 508.221 214.257 507.885C213.678 507.549 213.025 507.381 212.297 507.381C211.569 507.381 210.916 507.549 210.337 507.885C209.758 508.221 209.301 508.702 208.965 509.327C208.629 509.952 208.461 510.68 208.461 511.511C208.461 512.342 208.629 513.074 208.965 513.709C209.301 514.334 209.758 514.815 210.337 515.151C210.916 515.487 211.569 515.655 212.297 515.655ZM221.832 506.625C222.915 506.625 223.844 506.821 224.618 507.213C225.393 507.605 225.986 508.17 226.396 508.907C226.807 509.644 227.012 510.522 227.012 511.539C227.012 512.547 226.807 513.42 226.396 514.157C225.986 514.885 225.393 515.445 224.618 515.837C223.844 516.22 222.915 516.411 221.832 516.411H218.934V506.625H221.832ZM221.832 515.599C223.195 515.599 224.231 515.244 224.94 514.535C225.659 513.816 226.018 512.818 226.018 511.539C226.018 510.251 225.659 509.248 224.94 508.529C224.231 507.801 223.195 507.437 221.832 507.437H219.914V515.599H221.832Z" fill="#22B754"/>
<g filter="url(#filter1_d)">
<circle cx="206" cy="266" r="81" fill="white"/>
</g>
<g clip-path="url(#clip2)">
<path d="M191.65 276.469L194.725 273.399L197.09 275.761L194.015 278.831L191.65 276.469ZM204.186 283.003V278.044H207.577V283.003H204.186ZM192.438 262.93V266.315H187.392V262.93H192.438ZM210.967 255.924C212.492 256.816 213.714 258.023 214.634 259.545C215.554 261.067 216.014 262.746 216.014 264.583C216.014 267.364 215.028 269.739 213.057 271.707C211.086 273.675 208.707 274.659 205.921 274.659C203.135 274.659 200.757 273.675 198.785 271.707C196.814 269.739 195.829 267.364 195.829 264.583C195.829 262.746 196.275 261.067 197.169 259.545C198.063 258.023 199.298 256.816 200.875 255.924V247.816H210.967V255.924ZM219.325 262.93H224.372V266.315H219.325V262.93ZM214.673 275.761L217.039 273.478L220.114 276.469L217.748 278.831L214.673 275.761Z" fill="black"/>
</g>
<defs>
<filter id="filter0_d" x="121.248" y="408.84" width="170" height="170" filterUnits="userSpaceOnUse" color-interpolation-filters="sRGB">
<feFlood flood-opacity="0" result="BackgroundImageFix"/>
<feColorMatrix in="SourceAlpha" type="matrix" values="0 0 0 0 0 0 0 0 0 0 0 0 0 0 0 0 0 0 127 0"/>
<feOffset dy="4"/>
<feGaussianBlur stdDeviation="2"/>
<feColorMatrix type="matrix" values="0 0 0 0 0 0 0 0 0 0 0 0 0 0 0 0 0 0 0.25 0"/>
<feBlend mode="normal" in2="BackgroundImageFix" result="effect1_dropShadow"/>
<feBlend mode="normal" in="SourceGraphic" in2="effect1_dropShadow" result="shape"/>
</filter>
<filter id="filter1_d" x="121" y="185" width="170" height="170" filterUnits="userSpaceOnUse" color-interpolation-filters="sRGB">
<feFlood flood-opacity="0" result="BackgroundImageFix"/>
<feColorMatrix in="SourceAlpha" type="matrix" values="0 0 0 0 0 0 0 0 0 0 0 0 0 0 0 0 0 0 127 0"/>
<feOffset dy="4"/>
<feGaussianBlur stdDeviation="2"/>
<feColorMatrix type="matrix" values="0 0 0 0 0 0 0 0 0 0 0 0 0 0 0 0 0 0 0.25 0"/>
<feBlend mode="normal" in2="BackgroundImageFix" result="effect1_dropShadow"/>
<feBlend mode="normal" in="SourceGraphic" in2="effect1_dropShadow" result="shape"/>
</filter>
<clipPath id="clip0">
<rect width="43.9467" height="42.6987" fill="white" transform="translate(329.6 46.9685)"/>
</clipPath>
<clipPath id="clip1">
<rect width="34.0587" height="33.0915" fill="white" transform="translate(350.475 653.289)"/>
</clipPath>
<clipPath id="clip2">
<rect width="37.2162" height="35.2653" fill="white" transform="translate(187.392 247.816)"/>
</clipPath>
</defs>
</svg>
