<svg width="412" height="712" viewBox="0 0 412 712" fill="none" xmlns="http://www.w3.org/2000/svg">
<rect width="412" height="712" fill="white"/>
<g style="mix-blend-mode:color-dodge">
<path d="M0 0H412V130.12C412 146.689 398.569 160.12 382 160.12H30C13.4315 160.12 0 146.688 0 130.12V0Z" fill="white"/>
</g>
<path d="M50.712 75.0512C51.656 75.2272 52.432 75.6992 53.04 76.4672C53.648 77.2352 53.952 78.1152 53.952 79.1072C53.952 80.0032 53.728 80.7952 53.28 81.4832C52.848 82.1552 52.216 82.6832 51.384 83.0672C50.552 83.4512 49.568 83.6432 48.432 83.6432H41.208V66.8912H48.12C49.256 66.8912 50.232 67.0752 51.048 67.4432C51.88 67.8112 52.504 68.3232 52.92 68.9792C53.352 69.6352 53.568 70.3792 53.568 71.2112C53.568 72.1872 53.304 73.0032 52.776 73.6592C52.264 74.3152 51.576 74.7792 50.712 75.0512ZM44.568 73.8032H47.64C48.44 73.8032 49.056 73.6272 49.488 73.2752C49.92 72.9072 50.136 72.3872 50.136 71.7152C50.136 71.0432 49.92 70.5232 49.488 70.1552C49.056 69.7872 48.44 69.6032 47.64 69.6032H44.568V73.8032ZM47.952 80.9072C48.768 80.9072 49.4 80.7152 49.848 80.3312C50.312 79.9472 50.544 79.4032 50.544 78.6992C50.544 77.9792 50.304 77.4192 49.824 77.0192C49.344 76.6032 48.696 76.3952 47.88 76.3952H44.568V80.9072H47.952ZM68.9899 76.7072C68.9899 77.1872 68.9579 77.6192 68.8939 78.0032H59.1739C59.2539 78.9632 59.5899 79.7152 60.1819 80.2592C60.7739 80.8032 61.5019 81.0752 62.3659 81.0752C63.6139 81.0752 64.5019 80.5392 65.0299 79.4672H68.6539C68.2699 80.7472 67.5339 81.8032 66.4459 82.6352C65.3579 83.4512 64.0219 83.8592 62.4379 83.8592C61.1579 83.8592 60.0059 83.5792 58.9819 83.0192C57.9739 82.4432 57.1819 81.6352 56.6059 80.5952C56.0459 79.5552 55.7659 78.3552 55.7659 76.9952C55.7659 75.6192 56.0459 74.4112 56.6059 73.3712C57.1659 72.3312 57.9499 71.5312 58.9579 70.9712C59.9659 70.4112 61.1259 70.1312 62.4379 70.1312C63.7019 70.1312 64.8299 70.4032 65.8219 70.9472C66.8299 71.4912 67.6059 72.2672 68.1499 73.2752C68.7099 74.2672 68.9899 75.4112 68.9899 76.7072ZM65.5099 75.7472C65.4939 74.8832 65.1819 74.1952 64.5739 73.6832C63.9659 73.1552 63.2219 72.8912 62.3419 72.8912C61.5099 72.8912 60.8059 73.1472 60.2299 73.6592C59.6699 74.1552 59.3259 74.8512 59.1979 75.7472H65.5099ZM70.5784 76.9472C70.5784 75.6032 70.8424 74.4112 71.3704 73.3712C71.9144 72.3312 72.6504 71.5312 73.5784 70.9712C74.5064 70.4112 75.5384 70.1312 76.6744 70.1312C77.5384 70.1312 78.3624 70.3232 79.1464 70.7072C79.9304 71.0752 80.5544 71.5712 81.0184 72.1952V65.8832H84.4264V83.6432H81.0184V81.6752C80.6024 82.3312 80.0184 82.8592 79.2664 83.2592C78.5144 83.6592 77.6424 83.8592 76.6504 83.8592C75.5304 83.8592 74.5064 83.5712 73.5784 82.9952C72.6504 82.4192 71.9144 81.6112 71.3704 80.5712C70.8424 79.5152 70.5784 78.3072 70.5784 76.9472ZM81.0424 76.9952C81.0424 76.1792 80.8824 75.4832 80.5624 74.9072C80.2424 74.3152 79.8104 73.8672 79.2664 73.5632C78.7224 73.2432 78.1384 73.0832 77.5144 73.0832C76.8904 73.0832 76.3144 73.2352 75.7864 73.5392C75.2584 73.8432 74.8264 74.2912 74.4904 74.8832C74.1704 75.4592 74.0104 76.1472 74.0104 76.9472C74.0104 77.7472 74.1704 78.4512 74.4904 79.0592C74.8264 79.6512 75.2584 80.1072 75.7864 80.4272C76.3304 80.7472 76.9064 80.9072 77.5144 80.9072C78.1384 80.9072 78.7224 80.7552 79.2664 80.4512C79.8104 80.1312 80.2424 79.6832 80.5624 79.1072C80.8824 78.5152 81.0424 77.8112 81.0424 76.9952ZM90.084 72.6272C90.468 71.8752 91.012 71.2912 91.716 70.8752C92.436 70.4592 93.308 70.2512 94.332 70.2512V72.5072H93.756C91.308 72.5072 90.084 73.8352 90.084 76.4912V83.6432H87.9V70.4912H90.084V72.6272ZM102.589 83.8592C101.357 83.8592 100.237 83.5792 99.2291 83.0192C98.2371 82.4592 97.4531 81.6672 96.8771 80.6432C96.3171 79.6032 96.0371 78.4032 96.0371 77.0432C96.0371 75.6992 96.3251 74.5152 96.9011 73.4912C97.4931 72.4512 98.2931 71.6592 99.3011 71.1152C100.309 70.5552 101.437 70.2752 102.685 70.2752C103.933 70.2752 105.061 70.5552 106.069 71.1152C107.077 71.6592 107.869 72.4432 108.445 73.4672C109.037 74.4912 109.333 75.6832 109.333 77.0432C109.333 78.4032 109.029 79.6032 108.421 80.6432C107.829 81.6672 107.021 82.4592 105.997 83.0192C104.973 83.5792 103.837 83.8592 102.589 83.8592ZM102.589 81.9392C103.373 81.9392 104.109 81.7552 104.797 81.3872C105.485 81.0192 106.037 80.4672 106.453 79.7312C106.885 78.9952 107.101 78.0992 107.101 77.0432C107.101 75.9872 106.893 75.0912 106.477 74.3552C106.061 73.6192 105.517 73.0752 104.845 72.7232C104.173 72.3552 103.445 72.1712 102.661 72.1712C101.861 72.1712 101.125 72.3552 100.453 72.7232C99.7971 73.0752 99.2691 73.6192 98.8691 74.3552C98.4691 75.0912 98.2691 75.9872 98.2691 77.0432C98.2691 78.1152 98.4611 79.0192 98.8451 79.7552C99.2451 80.4912 99.7731 81.0432 100.429 81.4112C101.085 81.7632 101.805 81.9392 102.589 81.9392ZM117.941 83.8592C116.709 83.8592 115.589 83.5792 114.581 83.0192C113.589 82.4592 112.805 81.6672 112.229 80.6432C111.669 79.6032 111.389 78.4032 111.389 77.0432C111.389 75.6992 111.677 74.5152 112.253 73.4912C112.845 72.4512 113.645 71.6592 114.653 71.1152C115.661 70.5552 116.789 70.2752 118.037 70.2752C119.285 70.2752 120.413 70.5552 121.421 71.1152C122.429 71.6592 123.221 72.4432 123.797 73.4672C124.389 74.4912 124.685 75.6832 124.685 77.0432C124.685 78.4032 124.381 79.6032 123.773 80.6432C123.181 81.6672 122.373 82.4592 121.349 83.0192C120.325 83.5792 119.189 83.8592 117.941 83.8592ZM117.941 81.9392C118.725 81.9392 119.461 81.7552 120.149 81.3872C120.837 81.0192 121.389 80.4672 121.805 79.7312C122.237 78.9952 122.453 78.0992 122.453 77.0432C122.453 75.9872 122.245 75.0912 121.829 74.3552C121.413 73.6192 120.869 73.0752 120.197 72.7232C119.525 72.3552 118.797 72.1712 118.013 72.1712C117.213 72.1712 116.477 72.3552 115.805 72.7232C115.149 73.0752 114.621 73.6192 114.221 74.3552C113.821 75.0912 113.621 75.9872 113.621 77.0432C113.621 78.1152 113.813 79.0192 114.197 79.7552C114.597 80.4912 115.125 81.0432 115.781 81.4112C116.437 81.7632 117.157 81.9392 117.941 81.9392ZM143.372 70.2512C144.396 70.2512 145.308 70.4672 146.108 70.8992C146.908 71.3152 147.54 71.9472 148.004 72.7952C148.468 73.6432 148.7 74.6752 148.7 75.8912V83.6432H146.54V76.2032C146.54 74.8912 146.212 73.8912 145.556 73.2032C144.916 72.4992 144.044 72.1472 142.94 72.1472C141.804 72.1472 140.9 72.5152 140.228 73.2512C139.556 73.9712 139.22 75.0192 139.22 76.3952V83.6432H137.06V76.2032C137.06 74.8912 136.732 73.8912 136.076 73.2032C135.436 72.4992 134.564 72.1472 133.46 72.1472C132.324 72.1472 131.42 72.5152 130.748 73.2512C130.076 73.9712 129.74 75.0192 129.74 76.3952V83.6432H127.556V70.4912H129.74V72.3872C130.172 71.6992 130.748 71.1712 131.468 70.8032C132.204 70.4352 133.012 70.2512 133.892 70.2512C134.996 70.2512 135.972 70.4992 136.82 70.9952C137.668 71.4912 138.3 72.2192 138.716 73.1792C139.084 72.2512 139.692 71.5312 140.54 71.0192C141.388 70.5072 142.332 70.2512 143.372 70.2512Z" fill="black"/>
<path d="M355.611 68.8202C357.381 68.8201 359.083 69.491 360.372 70.6961C361.661 71.9012 362.439 73.5497 362.547 75.3053L362.56 75.7273V92.0533C362.56 92.5305 362.377 92.99 362.05 93.3387C361.722 93.6875 361.273 93.8995 360.794 93.9321C360.315 93.9646 359.841 93.8152 359.469 93.514C359.096 93.2128 358.853 92.7823 358.787 92.3095L358.77 92.0533V86.402H315.812V92.0533C315.812 92.5085 315.646 92.9483 315.345 93.2913C315.044 93.6344 314.628 93.8575 314.174 93.9194L313.917 93.937C313.459 93.937 313.016 93.7722 312.671 93.4729C312.326 93.1737 312.101 92.7604 312.039 92.3095L312.021 92.0533V75.7273C312.021 73.9684 312.696 72.2757 313.909 70.9945C315.121 69.7134 316.78 68.9402 318.546 68.8327L318.97 68.8202H355.611ZM324.024 51.2384H350.557C352.327 51.2383 354.03 51.9092 355.319 53.1143C356.608 54.3194 357.385 55.9679 357.494 57.7235L357.506 58.1455V66.3085H349.925L349.908 66.0146C349.841 65.454 349.587 64.9319 349.185 64.5328C348.783 64.1336 348.258 63.8805 347.694 63.8144L347.398 63.7968H342.345C341.726 63.7969 341.128 64.0227 340.666 64.4315C340.203 64.8403 339.908 65.4036 339.835 66.0146L339.818 66.3085H334.764L334.746 66.0146C334.68 65.454 334.425 64.9319 334.023 64.5328C333.622 64.1336 333.097 63.8805 332.532 63.8144L332.237 63.7968H327.183C326.564 63.7969 325.967 64.0227 325.504 64.4315C325.042 64.8403 324.746 65.4036 324.674 66.0146L324.656 66.3085H317.075V58.1455C317.075 56.3866 317.75 54.6939 318.963 53.4127C320.175 52.1316 321.833 51.3584 323.6 51.2509L324.024 51.2384Z" fill="black"/>
<rect y="123.826" width="412" height="588.174" fill="#C4C4C4" fill-opacity="0.2"/>
<g clip-path="url(#clip0)">
<path d="M367.504 654.392L368.242 653.554C368.036 653.383 367.775 653.289 367.504 653.289C367.233 653.289 366.972 653.383 366.766 653.554L367.504 654.392ZM351.61 667.629L350.872 666.791L350.475 667.122V667.629H351.61ZM362.963 685.278V686.381C363.264 686.381 363.553 686.265 363.766 686.058C363.978 685.851 364.098 685.57 364.098 685.278H362.963ZM372.045 685.278H370.91C370.91 685.57 371.029 685.851 371.242 686.058C371.455 686.265 371.744 686.381 372.045 686.381V685.278ZM383.398 667.629H384.533V667.122L384.136 666.791L383.398 667.629V667.629ZM353.88 686.381H362.963V684.175H353.88V686.381ZM384.136 666.791L368.242 653.554L366.766 655.231L382.66 668.467L384.136 666.791ZM366.766 653.554L350.872 666.791L352.348 668.467L368.242 655.231L366.766 653.554V653.554ZM364.098 685.278V678.659H361.827V685.278H364.098ZM370.91 678.659V685.278H373.18V678.659H370.91ZM372.045 686.381H381.127V684.175H372.045V686.381ZM384.533 683.072V667.629H382.263V683.072H384.533ZM350.475 667.629V683.072H352.745V667.629H350.475ZM367.504 675.35C368.407 675.35 369.274 675.699 369.912 676.32C370.551 676.94 370.91 677.782 370.91 678.659H373.18C373.18 677.197 372.582 675.794 371.518 674.76C370.453 673.725 369.009 673.144 367.504 673.144V675.35ZM367.504 673.144C365.998 673.144 364.555 673.725 363.49 674.76C362.426 675.794 361.827 677.197 361.827 678.659H364.098C364.098 677.782 364.457 676.94 365.096 676.32C365.734 675.699 366.601 675.35 367.504 675.35V673.144ZM381.127 686.381C382.031 686.381 382.897 686.032 383.536 685.412C384.174 684.791 384.533 683.949 384.533 683.072H382.263C382.263 683.364 382.143 683.645 381.93 683.852C381.717 684.059 381.429 684.175 381.127 684.175V686.381ZM353.88 684.175C353.579 684.175 353.291 684.059 353.078 683.852C352.865 683.645 352.745 683.364 352.745 683.072H350.475C350.475 683.949 350.833 684.791 351.472 685.412C352.111 686.032 352.977 686.381 353.88 686.381V684.175Z" fill="black"/>
</g>
<g filter="url(#filter0_d)">
<rect x="232.76" y="439.796" width="140.629" height="136.636" rx="20" fill="white"/>
</g>
<path d="M252.85 461.755C252.517 461.755 252.198 461.884 251.962 462.113C251.727 462.342 251.595 462.652 251.595 462.975C251.595 463.299 251.727 463.609 251.962 463.838C252.198 464.067 252.517 464.195 252.85 464.195C253.183 464.195 253.503 464.067 253.738 463.838C253.974 463.609 254.106 463.299 254.106 462.975C254.106 462.652 253.974 462.342 253.738 462.113C253.503 461.884 253.183 461.755 252.85 461.755ZM253.478 450.776C259.128 450.776 259.266 455.131 256.303 456.571C255.06 457.168 254.508 458.449 254.269 459.584C254.872 459.828 255.399 460.206 255.801 460.694C260.447 458.254 265.444 459.218 265.444 463.585C265.444 469.075 260.962 469.197 259.48 466.306C258.852 465.098 257.521 464.561 256.353 464.33C256.102 464.915 255.713 465.415 255.211 465.83C257.71 470.332 256.718 475.175 252.222 475.175C246.572 475.175 246.459 470.808 249.422 469.368C250.653 468.77 251.205 467.501 251.457 466.379C250.841 466.135 250.301 465.745 249.9 465.257C245.266 467.672 240.294 466.721 240.294 462.365C240.294 456.876 244.764 456.741 246.246 459.633C246.874 460.84 248.192 461.365 249.36 461.597C249.598 461.011 250 460.499 250.515 460.108C248.016 455.607 249.008 450.776 253.478 450.776Z" fill="black"/>
<path d="M246.888 513.356V514.392H242.646V517.682H246.09V518.718H242.646V523.114H241.372V513.356H246.888ZM247.951 519.25C247.951 518.466 248.11 517.78 248.427 517.192C248.744 516.595 249.178 516.133 249.729 515.806C250.289 515.479 250.91 515.316 251.591 515.316C252.263 515.316 252.846 515.461 253.341 515.75C253.836 516.039 254.204 516.403 254.447 516.842V515.442H255.735V523.114H254.447V521.686C254.195 522.134 253.817 522.507 253.313 522.806C252.818 523.095 252.24 523.24 251.577 523.24C250.896 523.24 250.28 523.072 249.729 522.736C249.178 522.4 248.744 521.929 248.427 521.322C248.11 520.715 247.951 520.025 247.951 519.25ZM254.447 519.264C254.447 518.685 254.33 518.181 254.097 517.752C253.864 517.323 253.546 516.996 253.145 516.772C252.753 516.539 252.319 516.422 251.843 516.422C251.367 516.422 250.933 516.534 250.541 516.758C250.149 516.982 249.836 517.309 249.603 517.738C249.37 518.167 249.253 518.671 249.253 519.25C249.253 519.838 249.37 520.351 249.603 520.79C249.836 521.219 250.149 521.551 250.541 521.784C250.933 522.008 251.367 522.12 251.843 522.12C252.319 522.12 252.753 522.008 253.145 521.784C253.546 521.551 253.864 521.219 254.097 520.79C254.33 520.351 254.447 519.843 254.447 519.264ZM261.626 515.302C262.559 515.302 263.315 515.587 263.894 516.156C264.472 516.716 264.762 517.528 264.762 518.592V523.114H263.502V518.774C263.502 518.009 263.31 517.425 262.928 517.024C262.545 516.613 262.022 516.408 261.36 516.408C260.688 516.408 260.151 516.618 259.75 517.038C259.358 517.458 259.162 518.069 259.162 518.872V523.114H257.888V515.442H259.162V516.534C259.414 516.142 259.754 515.839 260.184 515.624C260.622 515.409 261.103 515.302 261.626 515.302Z" fill="black"/>
<g filter="url(#filter1_d)">
<rect x="40.6506" y="439.796" width="140.629" height="136.636" rx="20" fill="white"/>
</g>
<path d="M77.0636 453.216H56.9737C55.5925 453.216 54.4625 454.314 54.4625 455.656V475.175C54.4625 476.517 55.5925 477.615 56.9737 477.615H77.0636C78.4448 477.615 79.5748 476.517 79.5748 475.175V455.656C79.5748 454.314 78.4448 453.216 77.0636 453.216ZM77.0636 464.195H68.2743V455.656H77.0636V464.195ZM65.763 455.656V464.195H56.9737V455.656H65.763ZM56.9737 466.635H65.763V475.175H56.9737V466.635ZM68.2743 475.175V466.635H77.0636V475.175H68.2743Z" fill="black"/>
<g clip-path="url(#clip1)">
<path d="M58.9925 461.58L59.6517 460.926C59.4182 460.873 59.1985 460.793 59.0062 460.659L58.9925 461.58" fill="#FFCE31"/>
<path d="M61.1349 456.536L60.4757 457.19C60.7092 457.243 60.9289 457.324 61.1212 457.457L61.1349 456.536Z" fill="#FFCE31"/>
<path d="M57.4681 460.099L58.4157 460.086C58.2921 459.899 58.1959 459.685 58.141 459.458L57.4681 460.099" fill="#FFCE31"/>
<path d="M62.6593 458.017L61.7117 458.031C61.8353 458.218 61.9314 458.431 61.9863 458.658L62.6593 458.017Z" fill="#FFCE31"/>
<path d="M57.4681 458.017L58.141 458.658C58.1959 458.431 58.2783 458.218 58.4157 458.031L57.4681 458.017" fill="#FFCE31"/>
<path d="M62.6593 460.099L61.9863 459.458C61.9314 459.685 61.849 459.899 61.7117 460.086L62.6593 460.099Z" fill="#FFCE31"/>
<path d="M58.9925 456.536L59.0062 457.457C59.1985 457.337 59.4182 457.243 59.6517 457.19L58.9925 456.536Z" fill="#FFCE31"/>
<path d="M61.1349 461.58L61.1212 460.659C60.9289 460.779 60.7092 460.873 60.4757 460.926L61.1349 461.58Z" fill="#FFCE31"/>
<path d="M58.4431 460.152L58.0723 460.993L58.9375 460.633C58.7453 460.499 58.5805 460.339 58.4431 460.152" fill="#FFCE31"/>
<path d="M61.6842 457.964L62.055 457.123L61.1898 457.484C61.3821 457.617 61.5469 457.777 61.6842 457.964Z" fill="#FFCE31"/>
<path d="M58.1273 458.711L57.2484 459.058L58.1273 459.405C58.1136 459.298 58.0998 459.178 58.0998 459.058C58.0861 458.938 58.0998 458.831 58.1273 458.711Z" fill="#FFCE31"/>
<path d="M62.0001 459.405L62.8791 459.058L62.0001 458.711C62.0276 458.818 62.0276 458.938 62.0276 459.058C62.0276 459.178 62.0276 459.285 62.0001 459.405Z" fill="#FFCE31"/>
<path d="M58.9375 457.484L58.0723 457.123L58.4431 457.964C58.5805 457.777 58.7453 457.617 58.9375 457.484" fill="#FFCE31"/>
<path d="M61.1898 460.633L62.055 460.993L61.6842 460.152C61.5469 460.339 61.3821 460.499 61.1898 460.633" fill="#FFCE31"/>
<path d="M60.4207 457.177L60.0637 456.323L59.7066 457.177C59.8165 457.163 59.9401 457.15 60.0637 457.15C60.1873 457.137 60.2971 457.15 60.4207 457.177Z" fill="#FFCE31"/>
<path d="M59.7066 460.94L60.0637 461.794L60.4207 460.94C60.3109 460.953 60.1873 460.966 60.0637 460.966C59.9401 460.966 59.8302 460.966 59.7066 460.94Z" fill="#FFCE31"/>
<path d="M60.0637 460.793C61.0497 460.793 61.849 460.016 61.849 459.058C61.849 458.1 61.0497 457.324 60.0637 457.324C59.0777 457.324 58.2784 458.1 58.2784 459.058C58.2784 460.016 59.0777 460.793 60.0637 460.793Z" fill="#FFCE31"/>
<path d="M59.3359 463.275C59.1985 463.275 59.0612 463.248 58.9376 463.208C58.4157 463.034 58.0587 462.554 58.0587 462.007C58.0587 461.647 58.2235 461.287 58.4981 461.046C58.5668 460.98 58.6492 460.926 58.7316 460.886L58.814 460.593C59.02 459.859 59.7067 459.352 60.4757 459.352C60.5581 459.352 60.6268 459.352 60.7229 459.365L60.9289 459.405L60.9564 459.338C61.2723 458.778 61.8628 458.444 62.4945 458.444C63.4696 458.444 64.2524 459.232 64.2524 460.192V460.366C64.3211 460.393 64.4035 460.433 64.4721 460.473C64.9391 460.739 65.2275 461.246 65.2275 461.78C65.2275 462.487 64.7468 463.088 64.0464 463.248C63.9365 463.275 63.8129 463.288 63.7031 463.288H59.3359V463.275Z" fill="white"/>
<path d="M62.5082 458.698C63.3322 458.698 64.0051 459.365 64.0051 460.192V460.312C63.6618 460.339 63.3459 460.473 63.0987 460.686C63.2773 460.579 63.497 460.526 63.7305 460.526C63.8129 460.526 63.8953 460.539 63.9777 460.553C64.115 460.579 64.2386 460.633 64.3622 460.699C64.733 460.913 64.9939 461.313 64.9939 461.78C64.9939 462.367 64.5819 462.874 64.0189 462.994C63.9227 463.021 63.8403 463.021 63.7305 463.021H59.3358C59.2259 463.021 59.1161 463.008 59.0199 462.968C58.6079 462.834 58.3195 462.447 58.3195 462.007C58.3195 461.7 58.4569 461.433 58.6766 461.246C58.7727 461.166 58.8826 461.1 59.0062 461.046C59.1161 461.006 59.2259 460.993 59.3495 460.993C59.6791 460.993 59.9675 461.153 60.1598 461.393H60.1735C59.9538 460.993 59.5555 460.713 59.0749 460.673C59.2534 460.059 59.8165 459.605 60.4894 459.605C60.5581 459.605 60.6267 459.619 60.6954 459.619C60.8327 459.632 60.9563 459.672 61.0799 459.725C61.5331 459.925 61.8627 460.352 61.9451 460.86V460.846C61.9451 460.272 61.643 459.765 61.2035 459.472C61.4507 459.005 61.9314 458.698 62.5082 458.698V458.698ZM62.5082 458.191C61.8215 458.191 61.1761 458.538 60.8053 459.125H60.7641C60.6542 459.112 60.5718 459.098 60.4757 459.098C59.5967 459.098 58.8002 459.685 58.5667 460.526L58.4981 460.726C58.4294 460.766 58.3745 460.806 58.3195 460.86C57.9899 461.14 57.7977 461.567 57.7977 462.007C57.7977 462.661 58.2234 463.248 58.8551 463.448C59.0062 463.501 59.171 463.528 59.3358 463.528H63.7167C63.8541 463.528 63.9777 463.515 64.115 463.488C64.9253 463.301 65.4883 462.594 65.4883 461.78C65.4883 461.153 65.145 460.566 64.5957 460.259L64.5133 460.219V460.206C64.5133 459.085 63.6206 458.191 62.5082 458.191V458.191Z" fill="#75D6FF"/>
</g>
<path d="M65.2932 513.356L62.4652 523.114H61.0372L58.7692 515.26L56.4172 523.114L55.0032 523.128L52.2732 513.356H53.6312L55.7592 521.63L58.1112 513.356H59.5392L61.7792 521.602L63.9212 513.356H65.2932ZM67.3454 514.196C67.1028 514.196 66.8974 514.112 66.7294 513.944C66.5614 513.776 66.4774 513.571 66.4774 513.328C66.4774 513.085 66.5614 512.88 66.7294 512.712C66.8974 512.544 67.1028 512.46 67.3454 512.46C67.5788 512.46 67.7748 512.544 67.9334 512.712C68.1014 512.88 68.1854 513.085 68.1854 513.328C68.1854 513.571 68.1014 513.776 67.9334 513.944C67.7748 514.112 67.5788 514.196 67.3454 514.196ZM67.9614 515.442V523.114H66.6874V515.442H67.9614ZM73.8707 515.302C74.8041 515.302 75.5601 515.587 76.1387 516.156C76.7174 516.716 77.0067 517.528 77.0067 518.592V523.114H75.7467V518.774C75.7467 518.009 75.5554 517.425 75.1727 517.024C74.7901 516.613 74.2674 516.408 73.6047 516.408C72.9327 516.408 72.3961 516.618 71.9947 517.038C71.6027 517.458 71.4067 518.069 71.4067 518.872V523.114H70.1327V515.442H71.4067V516.534C71.6587 516.142 71.9994 515.839 72.4287 515.624C72.8674 515.409 73.3481 515.302 73.8707 515.302ZM78.6118 519.25C78.6118 518.466 78.7705 517.78 79.0878 517.192C79.4052 516.595 79.8392 516.133 80.3898 515.806C80.9498 515.479 81.5752 515.316 82.2658 515.316C82.8632 515.316 83.4185 515.456 83.9318 515.736C84.4452 516.007 84.8372 516.366 85.1078 516.814V512.754H86.3958V523.114H85.1078V521.672C84.8558 522.129 84.4825 522.507 83.9878 522.806C83.4932 523.095 82.9145 523.24 82.2518 523.24C81.5705 523.24 80.9498 523.072 80.3898 522.736C79.8392 522.4 79.4052 521.929 79.0878 521.322C78.7705 520.715 78.6118 520.025 78.6118 519.25ZM85.1078 519.264C85.1078 518.685 84.9912 518.181 84.7578 517.752C84.5245 517.323 84.2072 516.996 83.8058 516.772C83.4138 516.539 82.9798 516.422 82.5038 516.422C82.0278 516.422 81.5938 516.534 81.2018 516.758C80.8098 516.982 80.4972 517.309 80.2638 517.738C80.0305 518.167 79.9138 518.671 79.9138 519.25C79.9138 519.838 80.0305 520.351 80.2638 520.79C80.4972 521.219 80.8098 521.551 81.2018 521.784C81.5938 522.008 82.0278 522.12 82.5038 522.12C82.9798 522.12 83.4138 522.008 83.8058 521.784C84.2072 521.551 84.5245 521.219 84.7578 520.79C84.9912 520.351 85.1078 519.843 85.1078 519.264ZM91.8948 523.24C91.1761 523.24 90.5228 523.077 89.9348 522.75C89.3561 522.423 88.8988 521.961 88.5628 521.364C88.2361 520.757 88.0728 520.057 88.0728 519.264C88.0728 518.48 88.2408 517.789 88.5768 517.192C88.9221 516.585 89.3888 516.123 89.9768 515.806C90.5648 515.479 91.2228 515.316 91.9508 515.316C92.6788 515.316 93.3368 515.479 93.9248 515.806C94.5128 516.123 94.9748 516.581 95.3108 517.178C95.6561 517.775 95.8288 518.471 95.8288 519.264C95.8288 520.057 95.6514 520.757 95.2968 521.364C94.9514 521.961 94.4801 522.423 93.8828 522.75C93.2854 523.077 92.6228 523.24 91.8948 523.24ZM91.8948 522.12C92.3521 522.12 92.7814 522.013 93.1828 521.798C93.5841 521.583 93.9061 521.261 94.1488 520.832C94.4008 520.403 94.5268 519.88 94.5268 519.264C94.5268 518.648 94.4054 518.125 94.1628 517.696C93.9201 517.267 93.6028 516.949 93.2108 516.744C92.8188 516.529 92.3941 516.422 91.9368 516.422C91.4701 516.422 91.0408 516.529 90.6488 516.744C90.2661 516.949 89.9581 517.267 89.7248 517.696C89.4914 518.125 89.3748 518.648 89.3748 519.264C89.3748 519.889 89.4868 520.417 89.7108 520.846C89.9441 521.275 90.2521 521.597 90.6348 521.812C91.0174 522.017 91.4374 522.12 91.8948 522.12ZM107.724 515.442L105.33 523.114H104.014L102.166 517.024L100.318 523.114H99.0018L96.5938 515.442H97.8958L99.6598 521.882L101.564 515.442H102.866L104.728 521.896L106.464 515.442H107.724Z" fill="black"/>
<rect x="331" y="455" width="30" height="15" rx="7.5" fill="black"/>
<circle cx="338.5" cy="462.5" r="7.5" fill="#FFCA28"/>
<path d="M349.19 466.08C348.677 466.08 348.213 465.967 347.8 465.74C347.393 465.507 347.07 465.18 346.83 464.76C346.597 464.333 346.48 463.837 346.48 463.27C346.48 462.703 346.6 462.21 346.84 461.79C347.08 461.363 347.407 461.037 347.82 460.81C348.233 460.577 348.697 460.46 349.21 460.46C349.723 460.46 350.187 460.577 350.6 460.81C351.02 461.037 351.347 461.363 351.58 461.79C351.82 462.21 351.94 462.703 351.94 463.27C351.94 463.83 351.82 464.323 351.58 464.75C351.34 465.177 351.01 465.507 350.59 465.74C350.17 465.967 349.703 466.08 349.19 466.08ZM349.19 465.47C349.55 465.47 349.883 465.39 350.19 465.23C350.497 465.063 350.743 464.817 350.93 464.49C351.123 464.157 351.22 463.75 351.22 463.27C351.22 462.79 351.127 462.387 350.94 462.06C350.753 461.727 350.507 461.48 350.2 461.32C349.893 461.153 349.56 461.07 349.2 461.07C348.84 461.07 348.507 461.153 348.2 461.32C347.893 461.48 347.647 461.727 347.46 462.06C347.28 462.387 347.19 462.79 347.19 463.27C347.19 463.75 347.28 464.157 347.46 464.49C347.647 464.817 347.89 465.063 348.19 465.23C348.497 465.39 348.83 465.47 349.19 465.47ZM355.366 461.13H354.096V466H353.396V461.13H352.636V460.54H353.396V460.16C353.396 459.567 353.546 459.13 353.846 458.85C354.153 458.57 354.646 458.43 355.326 458.43V459.03C354.873 459.03 354.553 459.117 354.366 459.29C354.186 459.463 354.096 459.753 354.096 460.16V460.54H355.366V461.13ZM358.618 461.13H357.348V466H356.648V461.13H355.888V460.54H356.648V460.16C356.648 459.567 356.798 459.13 357.098 458.85C357.405 458.57 357.898 458.43 358.578 458.43V459.03C358.125 459.03 357.805 459.117 357.618 459.29C357.438 459.463 357.348 459.753 357.348 460.16V460.54H358.618V461.13Z" fill="white"/>
<rect x="134" y="455" width="30" height="15" rx="7.5" fill="black"/>
<circle cx="141.5" cy="462.5" r="7.5" fill="#FFCA28"/>
<path d="M152.19 466.08C151.677 466.08 151.213 465.967 150.8 465.74C150.393 465.507 150.07 465.18 149.83 464.76C149.597 464.333 149.48 463.837 149.48 463.27C149.48 462.703 149.6 462.21 149.84 461.79C150.08 461.363 150.407 461.037 150.82 460.81C151.233 460.577 151.697 460.46 152.21 460.46C152.723 460.46 153.187 460.577 153.6 460.81C154.02 461.037 154.347 461.363 154.58 461.79C154.82 462.21 154.94 462.703 154.94 463.27C154.94 463.83 154.82 464.323 154.58 464.75C154.34 465.177 154.01 465.507 153.59 465.74C153.17 465.967 152.703 466.08 152.19 466.08ZM152.19 465.47C152.55 465.47 152.883 465.39 153.19 465.23C153.497 465.063 153.743 464.817 153.93 464.49C154.123 464.157 154.22 463.75 154.22 463.27C154.22 462.79 154.127 462.387 153.94 462.06C153.753 461.727 153.507 461.48 153.2 461.32C152.893 461.153 152.56 461.07 152.2 461.07C151.84 461.07 151.507 461.153 151.2 461.32C150.893 461.48 150.647 461.727 150.46 462.06C150.28 462.387 150.19 462.79 150.19 463.27C150.19 463.75 150.28 464.157 150.46 464.49C150.647 464.817 150.89 465.063 151.19 465.23C151.497 465.39 151.83 465.47 152.19 465.47ZM158.366 461.13H157.096V466H156.396V461.13H155.636V460.54H156.396V460.16C156.396 459.567 156.546 459.13 156.846 458.85C157.153 458.57 157.646 458.43 158.326 458.43V459.03C157.873 459.03 157.553 459.117 157.366 459.29C157.186 459.463 157.096 459.753 157.096 460.16V460.54H158.366V461.13ZM161.618 461.13H160.348V466H159.648V461.13H158.888V460.54H159.648V460.16C159.648 459.567 159.798 459.13 160.098 458.85C160.405 458.57 160.898 458.43 161.578 458.43V459.03C161.125 459.03 160.805 459.117 160.618 459.29C160.438 459.463 160.348 459.753 160.348 460.16V460.54H161.618V461.13Z" fill="white"/>
<g filter="url(#filter2_d)">
<circle cx="206" cy="266" r="81" fill="white"/>
</g>
<g clip-path="url(#clip2)">
<path d="M191.65 276.469L194.725 273.399L197.09 275.761L194.015 278.831L191.65 276.469ZM204.186 283.003V278.044H207.577V283.003H204.186ZM192.438 262.93V266.315H187.392V262.93H192.438ZM210.967 255.924C212.492 256.816 213.714 258.023 214.634 259.545C215.554 261.067 216.014 262.746 216.014 264.583C216.014 267.364 215.028 269.739 213.057 271.707C211.086 273.675 208.707 274.659 205.921 274.659C203.135 274.659 200.757 273.675 198.785 271.707C196.814 269.739 195.829 267.364 195.829 264.583C195.829 262.746 196.275 261.067 197.169 259.545C198.063 258.023 199.298 256.816 200.875 255.924V247.816H210.967V255.924ZM219.325 262.93H224.372V266.315H219.325V262.93ZM214.673 275.761L217.039 273.478L220.114 276.469L217.748 278.831L214.673 275.761Z" fill="black"/>
</g>
<defs>
<filter id="filter0_d" x="228.76" y="439.796" width="148.629" height="144.636" filterUnits="userSpaceOnUse" color-interpolation-filters="sRGB">
<feFlood flood-opacity="0" result="BackgroundImageFix"/>
<feColorMatrix in="SourceAlpha" type="matrix" values="0 0 0 0 0 0 0 0 0 0 0 0 0 0 0 0 0 0 127 0"/>
<feOffset dy="4"/>
<feGaussianBlur stdDeviation="2"/>
<feColorMatrix type="matrix" values="0 0 0 0 0 0 0 0 0 0 0 0 0 0 0 0 0 0 0.25 0"/>
<feBlend mode="normal" in2="BackgroundImageFix" result="effect1_dropShadow"/>
<feBlend mode="normal" in="SourceGraphic" in2="effect1_dropShadow" result="shape"/>
</filter>
<filter id="filter1_d" x="36.6506" y="439.796" width="148.629" height="144.636" filterUnits="userSpaceOnUse" color-interpolation-filters="sRGB">
<feFlood flood-opacity="0" result="BackgroundImageFix"/>
<feColorMatrix in="SourceAlpha" type="matrix" values="0 0 0 0 0 0 0 0 0 0 0 0 0 0 0 0 0 0 127 0"/>
<feOffset dy="4"/>
<feGaussianBlur stdDeviation="2"/>
<feColorMatrix type="matrix" values="0 0 0 0 0 0 0 0 0 0 0 0 0 0 0 0 0 0 0.25 0"/>
<feBlend mode="normal" in2="BackgroundImageFix" result="effect1_dropShadow"/>
<feBlend mode="normal" in="SourceGraphic" in2="effect1_dropShadow" result="shape"/>
</filter>
<filter id="filter2_d" x="121" y="185" width="170" height="170" filterUnits="userSpaceOnUse" color-interpolation-filters="sRGB">
<feFlood flood-opacity="0" result="BackgroundImageFix"/>
<feColorMatrix in="SourceAlpha" type="matrix" values="0 0 0 0 0 0 0 0 0 0 0 0 0 0 0 0 0 0 127 0"/>
<feOffset dy="4"/>
<feGaussianBlur stdDeviation="2"/>
<feColorMatrix type="matrix" values="0 0 0 0 0 0 0 0 0 0 0 0 0 0 0 0 0 0 0.25 0"/>
<feBlend mode="normal" in2="BackgroundImageFix" result="effect1_dropShadow"/>
<feBlend mode="normal" in="SourceGraphic" in2="effect1_dropShadow" result="shape"/>
</filter>
<clipPath id="clip0">
<rect width="34.0587" height="33.0915" fill="white" transform="translate(350.475 653.289)"/>
</clipPath>
<clipPath id="clip1">
<rect width="8.78933" height="8.53973" fill="white" transform="translate(56.9737 455.656)"/>
</clipPath>
<clipPath id="clip2">
<rect width="37.2162" height="35.2653" fill="white" transform="translate(187.392 247.816)"/>
</clipPath>
</defs>
</svg>
