<svg width="30" height="30" viewBox="0 0 30 30" fill="none" xmlns="http://www.w3.org/2000/svg">
<rect width="30" height="30" fill="white"/>
<path d="M8.49114 7.6245L7.14523 6.2755C4 9.38485 4 11.6382 4 14.55H4.95455L5.90909 14.4901C5.90909 11.7085 5.90909 10.1762 8.49114 7.6245ZM21.8538 6.2755L20.5098 7.6245C23.0909 10.1762 23.0909 11.7085 23.0909 14.55L25 14.4901C25 11.6382 25 9.38485 21.8538 6.2755V6.2755ZM14.5 25C15.0911 25.0007 15.6678 24.8182 16.1499 24.4777C16.632 24.1371 16.9955 23.6556 17.1899 23.1H11.8101C12.0045 23.6556 12.368 24.1371 12.8501 24.4777C13.3322 24.8182 13.9089 25.0007 14.5 25V25ZM21.1818 17.9567V13.6C21.1818 10.5438 19.0961 7.96935 16.2707 7.1951C15.991 6.494 15.3075 6 14.5 6C13.6925 6 13.009 6.494 12.7293 7.1951C9.90291 7.96935 7.81818 10.5438 7.81818 13.6V17.9567L6.18877 19.5783C6.09996 19.6664 6.02953 19.7711 5.98153 19.8864C5.93353 20.0016 5.90891 20.1252 5.90909 20.25V21.2C5.90909 21.452 6.00966 21.6936 6.18867 21.8718C6.36768 22.0499 6.61048 22.15 6.86364 22.15H22.1364C22.3895 22.15 22.6323 22.0499 22.8113 21.8718C22.9903 21.6936 23.0909 21.452 23.0909 21.2V20.25C23.0911 20.1252 23.0665 20.0016 23.0185 19.8864C22.9705 19.7711 22.9 19.6664 22.8112 19.5783L21.1818 17.9567Z" fill="#E31313"/>
</svg>
