<svg width="30" height="30" viewBox="0 0 30 30" fill="none" xmlns="http://www.w3.org/2000/svg">
<rect width="30" height="30" fill="white"/>
<path d="M15 25C15.6193 25.0008 16.2235 24.8086 16.7285 24.4502C17.2335 24.0917 17.6143 23.5849 17.818 23H12.182C12.3857 23.5849 12.7665 24.0917 13.2715 24.4502C13.7765 24.8086 14.3807 25.0008 15 25ZM22 17.586V13C22 9.783 19.815 7.073 16.855 6.258C16.562 5.52 15.846 5 15 5C14.154 5 13.438 5.52 13.145 6.258C10.185 7.074 8 9.783 8 13V17.586L6.293 19.293C6.19996 19.3857 6.12617 19.4959 6.07589 19.6172C6.0256 19.7386 5.99981 19.8687 6 20V21C6 21.2652 6.10536 21.5196 6.29289 21.7071C6.48043 21.8946 6.73478 22 7 22H23C23.2652 22 23.5196 21.8946 23.7071 21.7071C23.8946 21.5196 24 21.2652 24 21V20C24.0002 19.8687 23.9744 19.7386 23.9241 19.6172C23.8738 19.4959 23.8 19.3857 23.707 19.293L22 17.586Z" fill="black"/>
</svg>
