<svg width="393" height="712" viewBox="0 0 393 712" fill="none" xmlns="http://www.w3.org/2000/svg">
<g clip-path="url(#clip0)">
<path d="M121.587 226.432C119.595 226.432 117.663 226.168 115.791 225.64C113.943 225.088 112.455 224.38 111.327 223.516L113.307 219.124C114.387 219.916 115.671 220.552 117.159 221.032C118.647 221.512 120.135 221.752 121.623 221.752C123.279 221.752 124.503 221.512 125.295 221.032C126.087 220.528 126.483 219.868 126.483 219.052C126.483 218.452 126.243 217.96 125.763 217.576C125.307 217.168 124.707 216.844 123.963 216.604C123.243 216.364 122.259 216.1 121.011 215.812C119.091 215.356 117.519 214.9 116.295 214.444C115.071 213.988 114.015 213.256 113.127 212.248C112.263 211.24 111.831 209.896 111.831 208.216C111.831 206.752 112.227 205.432 113.019 204.256C113.811 203.056 114.999 202.108 116.583 201.412C118.191 200.716 120.147 200.368 122.451 200.368C124.059 200.368 125.631 200.56 127.167 200.944C128.703 201.328 130.047 201.88 131.199 202.6L129.399 207.028C127.071 205.708 124.743 205.048 122.415 205.048C120.783 205.048 119.571 205.312 118.779 205.84C118.011 206.368 117.627 207.064 117.627 207.928C117.627 208.792 118.071 209.44 118.959 209.872C119.871 210.28 121.251 210.688 123.099 211.096C125.019 211.552 126.591 212.008 127.815 212.464C129.039 212.92 130.083 213.64 130.947 214.624C131.835 215.608 132.279 216.94 132.279 218.62C132.279 220.06 131.871 221.38 131.055 222.58C130.263 223.756 129.063 224.692 127.455 225.388C125.847 226.084 123.891 226.432 121.587 226.432ZM174.352 200.8L166.108 226H159.844L154.3 208.936L148.576 226H142.348L134.068 200.8H140.116L145.804 218.512L151.744 200.8H157.144L162.904 218.656L168.772 200.8H174.352ZM197.12 221.32V226H177.608V200.8H196.652V205.48H183.404V210.952H195.104V215.488H183.404V221.32H197.12ZM221.272 221.32V226H201.76V200.8H220.804V205.48H207.556V210.952H219.256V215.488H207.556V221.32H221.272ZM231.133 205.552H223.069V200.8H245.029V205.552H236.965V226H231.133V205.552ZM277.73 226.432L274.706 223.624C272.306 225.496 269.498 226.432 266.282 226.432C264.458 226.432 262.814 226.144 261.35 225.568C259.886 224.968 258.734 224.14 257.894 223.084C257.078 222.028 256.67 220.84 256.67 219.52C256.67 217.96 257.102 216.592 257.966 215.416C258.854 214.216 260.27 213.076 262.214 211.996C261.302 211.06 260.642 210.172 260.234 209.332C259.826 208.468 259.622 207.58 259.622 206.668C259.622 205.444 259.946 204.364 260.594 203.428C261.242 202.492 262.154 201.772 263.33 201.268C264.53 200.74 265.91 200.476 267.47 200.476C269.654 200.476 271.406 201.004 272.726 202.06C274.046 203.092 274.706 204.496 274.706 206.272C274.706 207.568 274.31 208.72 273.518 209.728C272.75 210.736 271.502 211.708 269.774 212.644L274.382 216.928C274.934 215.776 275.354 214.468 275.642 213.004L280.142 214.408C279.662 216.64 278.894 218.548 277.838 220.132L280.79 222.868L277.73 226.432ZM267.47 204.292C266.63 204.292 265.958 204.508 265.454 204.94C264.974 205.372 264.734 205.924 264.734 206.596C264.734 207.1 264.866 207.58 265.13 208.036C265.394 208.468 265.91 209.056 266.678 209.8C267.902 209.152 268.754 208.576 269.234 208.072C269.714 207.544 269.954 206.98 269.954 206.38C269.954 205.756 269.738 205.252 269.306 204.868C268.874 204.484 268.262 204.292 267.47 204.292ZM266.678 222.04C268.43 222.04 270.002 221.548 271.394 220.564L265.31 214.876C264.182 215.524 263.378 216.16 262.898 216.784C262.418 217.408 262.178 218.116 262.178 218.908C262.178 219.844 262.586 220.6 263.402 221.176C264.218 221.752 265.31 222.04 266.678 222.04ZM81.5794 275.432C79.5874 275.432 77.6554 275.168 75.7834 274.64C73.9354 274.088 72.4474 273.38 71.3194 272.516L73.2994 268.124C74.3794 268.916 75.6634 269.552 77.1514 270.032C78.6394 270.512 80.1274 270.752 81.6154 270.752C83.2714 270.752 84.4954 270.512 85.2874 270.032C86.0794 269.528 86.4754 268.868 86.4754 268.052C86.4754 267.452 86.2354 266.96 85.7554 266.576C85.2994 266.168 84.6994 265.844 83.9554 265.604C83.2354 265.364 82.2514 265.1 81.0034 264.812C79.0834 264.356 77.5114 263.9 76.2874 263.444C75.0634 262.988 74.0074 262.256 73.1194 261.248C72.2554 260.24 71.8234 258.896 71.8234 257.216C71.8234 255.752 72.2194 254.432 73.0114 253.256C73.8034 252.056 74.9914 251.108 76.5754 250.412C78.1834 249.716 80.1394 249.368 82.4434 249.368C84.0514 249.368 85.6234 249.56 87.1594 249.944C88.6954 250.328 90.0394 250.88 91.1914 251.6L89.3914 256.028C87.0634 254.708 84.7354 254.048 82.4074 254.048C80.7754 254.048 79.5634 254.312 78.7714 254.84C78.0034 255.368 77.6194 256.064 77.6194 256.928C77.6194 257.792 78.0634 258.44 78.9514 258.872C79.8634 259.28 81.2434 259.688 83.0914 260.096C85.0114 260.552 86.5834 261.008 87.8074 261.464C89.0314 261.92 90.0754 262.64 90.9394 263.624C91.8274 264.608 92.2714 265.94 92.2714 267.62C92.2714 269.06 91.8634 270.38 91.0474 271.58C90.2554 272.756 89.0554 273.692 87.4474 274.388C85.8394 275.084 83.8834 275.432 81.5794 275.432ZM119.188 275L119.152 259.88L111.736 272.336H109.108L101.728 260.204V275H96.2565V249.8H101.08L110.512 265.46L119.8 249.8H124.588L124.66 275H119.188ZM147.235 269.6H135.535L133.303 275H127.327L138.559 249.8H144.319L155.587 275H149.467L147.235 269.6ZM145.399 265.172L141.403 255.524L137.407 265.172H145.399ZM174.258 275L169.398 267.98H169.11H164.034V275H158.202V249.8H169.11C171.342 249.8 173.274 250.172 174.906 250.916C176.562 251.66 177.834 252.716 178.722 254.084C179.61 255.452 180.054 257.072 180.054 258.944C180.054 260.816 179.598 262.436 178.686 263.804C177.798 265.148 176.526 266.18 174.87 266.9L180.522 275H174.258ZM174.15 258.944C174.15 257.528 173.694 256.448 172.782 255.704C171.87 254.936 170.538 254.552 168.786 254.552H164.034V263.336H168.786C170.538 263.336 171.87 262.952 172.782 262.184C173.694 261.416 174.15 260.336 174.15 258.944ZM189.543 254.552H181.479V249.8H203.439V254.552H195.375V275H189.543V254.552ZM229.689 249.8V275H223.857V264.668H212.409V275H206.577V249.8H212.409V259.736H223.857V249.8H229.689ZM247.855 275.432C245.239 275.432 242.875 274.868 240.763 273.74C238.675 272.612 237.031 271.064 235.831 269.096C234.655 267.104 234.067 264.872 234.067 262.4C234.067 259.928 234.655 257.708 235.831 255.74C237.031 253.748 238.675 252.188 240.763 251.06C242.875 249.932 245.239 249.368 247.855 249.368C250.471 249.368 252.823 249.932 254.911 251.06C256.999 252.188 258.643 253.748 259.843 255.74C261.043 257.708 261.643 259.928 261.643 262.4C261.643 264.872 261.043 267.104 259.843 269.096C258.643 271.064 256.999 272.612 254.911 273.74C252.823 274.868 250.471 275.432 247.855 275.432ZM247.855 270.464C249.343 270.464 250.687 270.128 251.887 269.456C253.087 268.76 254.023 267.8 254.695 266.576C255.391 265.352 255.739 263.96 255.739 262.4C255.739 260.84 255.391 259.448 254.695 258.224C254.023 257 253.087 256.052 251.887 255.38C250.687 254.684 249.343 254.336 247.855 254.336C246.367 254.336 245.023 254.684 243.823 255.38C242.623 256.052 241.675 257 240.979 258.224C240.307 259.448 239.971 260.84 239.971 262.4C239.971 263.96 240.307 265.352 240.979 266.576C241.675 267.8 242.623 268.76 243.823 269.456C245.023 270.128 246.367 270.464 247.855 270.464ZM288.958 275L288.922 259.88L281.506 272.336H278.878L271.498 260.204V275H266.026V249.8H270.85L280.282 265.46L289.57 249.8H294.358L294.43 275H288.958ZM319.921 270.32V275H300.409V249.8H319.453V254.48H306.205V259.952H317.905V264.488H306.205V270.32H319.921Z" fill="black"/>
<path d="M72.0778 338.108C71.1418 338.108 70.2418 337.958 69.3778 337.658C68.5258 337.358 67.8658 336.962 67.3978 336.47L67.9198 335.444C68.3758 335.9 68.9818 336.272 69.7378 336.56C70.4938 336.836 71.2738 336.974 72.0778 336.974C73.2058 336.974 74.0518 336.77 74.6158 336.362C75.1798 335.942 75.4618 335.402 75.4618 334.742C75.4618 334.238 75.3058 333.836 74.9938 333.536C74.6938 333.236 74.3218 333.008 73.8778 332.852C73.4338 332.684 72.8158 332.504 72.0238 332.312C71.0758 332.072 70.3198 331.844 69.7558 331.628C69.1918 331.4 68.7058 331.058 68.2978 330.602C67.9018 330.146 67.7038 329.528 67.7038 328.748C67.7038 328.112 67.8718 327.536 68.2078 327.02C68.5438 326.492 69.0598 326.072 69.7558 325.76C70.4518 325.448 71.3158 325.292 72.3478 325.292C73.0678 325.292 73.7698 325.394 74.4538 325.598C75.1498 325.79 75.7498 326.06 76.2538 326.408L75.8038 327.47C75.2758 327.122 74.7118 326.864 74.1118 326.696C73.5118 326.516 72.9238 326.426 72.3478 326.426C71.2438 326.426 70.4098 326.642 69.8458 327.074C69.2938 327.494 69.0178 328.04 69.0178 328.712C69.0178 329.216 69.1678 329.624 69.4678 329.936C69.7798 330.236 70.1638 330.47 70.6198 330.638C71.0878 330.794 71.7118 330.968 72.4918 331.16C73.4158 331.388 74.1598 331.616 74.7238 331.844C75.2998 332.06 75.7858 332.396 76.1818 332.852C76.5778 333.296 76.7758 333.902 76.7758 334.67C76.7758 335.306 76.6018 335.888 76.2538 336.416C75.9178 336.932 75.3958 337.346 74.6878 337.658C73.9798 337.958 73.1098 338.108 72.0778 338.108ZM91.216 328.46C92.404 328.46 93.334 328.802 94.006 329.486C94.69 330.17 95.032 331.178 95.032 332.51V338H93.754V332.636C93.754 331.652 93.514 330.902 93.034 330.386C92.566 329.87 91.9 329.612 91.036 329.612C90.052 329.612 89.278 329.918 88.714 330.53C88.15 331.13 87.868 331.964 87.868 333.032V338H86.59V332.636C86.59 331.652 86.35 330.902 85.87 330.386C85.402 329.87 84.73 329.612 83.854 329.612C82.882 329.612 82.108 329.918 81.532 330.53C80.968 331.13 80.686 331.964 80.686 333.032V338H79.408V328.532H80.632V330.26C80.968 329.684 81.436 329.24 82.036 328.928C82.636 328.616 83.326 328.46 84.106 328.46C84.898 328.46 85.582 328.628 86.158 328.964C86.746 329.3 87.184 329.798 87.472 330.458C87.82 329.834 88.318 329.348 88.966 329C89.626 328.64 90.376 328.46 91.216 328.46ZM101.81 328.46C103.046 328.46 103.994 328.772 104.654 329.396C105.314 330.008 105.644 330.92 105.644 332.132V338H104.42V336.524C104.132 337.016 103.706 337.4 103.142 337.676C102.59 337.952 101.93 338.09 101.162 338.09C100.106 338.09 99.2658 337.838 98.6418 337.334C98.0178 336.83 97.7058 336.164 97.7058 335.336C97.7058 334.532 97.9938 333.884 98.5698 333.392C99.1578 332.9 100.088 332.654 101.36 332.654H104.366V332.078C104.366 331.262 104.138 330.644 103.682 330.224C103.226 329.792 102.56 329.576 101.684 329.576C101.084 329.576 100.508 329.678 99.9558 329.882C99.4038 330.074 98.9298 330.344 98.5338 330.692L97.9578 329.738C98.4378 329.33 99.0138 329.018 99.6858 328.802C100.358 328.574 101.066 328.46 101.81 328.46ZM101.36 337.082C102.08 337.082 102.698 336.92 103.214 336.596C103.73 336.26 104.114 335.78 104.366 335.156V333.608H101.396C99.7758 333.608 98.9658 334.172 98.9658 335.3C98.9658 335.852 99.1758 336.29 99.5958 336.614C100.016 336.926 100.604 337.082 101.36 337.082ZM110.339 330.386C110.639 329.75 111.083 329.27 111.671 328.946C112.271 328.622 113.009 328.46 113.885 328.46V329.702L113.579 329.684C112.583 329.684 111.803 329.99 111.239 330.602C110.675 331.214 110.393 332.072 110.393 333.176V338H109.115V328.532H110.339V330.386ZM121.589 337.424C121.349 337.64 121.049 337.808 120.689 337.928C120.341 338.036 119.975 338.09 119.591 338.09C118.703 338.09 118.019 337.85 117.539 337.37C117.059 336.89 116.819 336.212 116.819 335.336V329.612H115.127V328.532H116.819V326.462H118.097V328.532H120.977V329.612H118.097V335.264C118.097 335.828 118.235 336.26 118.511 336.56C118.799 336.848 119.207 336.992 119.735 336.992C119.999 336.992 120.251 336.95 120.491 336.866C120.743 336.782 120.959 336.662 121.139 336.506L121.589 337.424ZM139.427 325.4V338H138.113V332.186H130.229V338H128.897V325.4H130.229V331.016H138.113V325.4H139.427ZM147.139 338.09C146.227 338.09 145.405 337.886 144.673 337.478C143.941 337.058 143.365 336.482 142.945 335.75C142.525 335.018 142.315 334.19 142.315 333.266C142.315 332.342 142.525 331.514 142.945 330.782C143.365 330.05 143.941 329.48 144.673 329.072C145.405 328.664 146.227 328.46 147.139 328.46C148.051 328.46 148.873 328.664 149.605 329.072C150.337 329.48 150.907 330.05 151.315 330.782C151.735 331.514 151.945 332.342 151.945 333.266C151.945 334.19 151.735 335.018 151.315 335.75C150.907 336.482 150.337 337.058 149.605 337.478C148.873 337.886 148.051 338.09 147.139 338.09ZM147.139 336.956C147.811 336.956 148.411 336.806 148.939 336.506C149.479 336.194 149.899 335.756 150.199 335.192C150.499 334.628 150.649 333.986 150.649 333.266C150.649 332.546 150.499 331.904 150.199 331.34C149.899 330.776 149.479 330.344 148.939 330.044C148.411 329.732 147.811 329.576 147.139 329.576C146.467 329.576 145.861 329.732 145.321 330.044C144.793 330.344 144.373 330.776 144.061 331.34C143.761 331.904 143.611 332.546 143.611 333.266C143.611 333.986 143.761 334.628 144.061 335.192C144.373 335.756 144.793 336.194 145.321 336.506C145.861 336.806 146.467 336.956 147.139 336.956ZM166.362 328.46C167.55 328.46 168.48 328.802 169.152 329.486C169.836 330.17 170.178 331.178 170.178 332.51V338H168.9V332.636C168.9 331.652 168.66 330.902 168.18 330.386C167.712 329.87 167.046 329.612 166.182 329.612C165.198 329.612 164.424 329.918 163.86 330.53C163.296 331.13 163.014 331.964 163.014 333.032V338H161.736V332.636C161.736 331.652 161.496 330.902 161.016 330.386C160.548 329.87 159.876 329.612 159 329.612C158.028 329.612 157.254 329.918 156.678 330.53C156.114 331.13 155.832 331.964 155.832 333.032V338H154.554V328.532H155.778V330.26C156.114 329.684 156.582 329.24 157.182 328.928C157.782 328.616 158.472 328.46 159.252 328.46C160.044 328.46 160.728 328.628 161.304 328.964C161.892 329.3 162.33 329.798 162.618 330.458C162.966 329.834 163.464 329.348 164.112 329C164.772 328.64 165.522 328.46 166.362 328.46ZM181.923 333.662H174.003C174.075 334.646 174.453 335.444 175.137 336.056C175.821 336.656 176.685 336.956 177.729 336.956C178.317 336.956 178.857 336.854 179.349 336.65C179.841 336.434 180.267 336.122 180.627 335.714L181.347 336.542C180.927 337.046 180.399 337.43 179.763 337.694C179.139 337.958 178.449 338.09 177.693 338.09C176.721 338.09 175.857 337.886 175.101 337.478C174.357 337.058 173.775 336.482 173.355 335.75C172.935 335.018 172.725 334.19 172.725 333.266C172.725 332.342 172.923 331.514 173.319 330.782C173.727 330.05 174.279 329.48 174.975 329.072C175.683 328.664 176.475 328.46 177.351 328.46C178.227 328.46 179.013 328.664 179.709 329.072C180.405 329.48 180.951 330.05 181.347 330.782C181.743 331.502 181.941 332.33 181.941 333.266L181.923 333.662ZM177.351 329.558C176.439 329.558 175.671 329.852 175.047 330.44C174.435 331.016 174.087 331.772 174.003 332.708H180.717C180.633 331.772 180.279 331.016 179.655 330.44C179.043 329.852 178.275 329.558 177.351 329.558ZM193.178 338.09C192.242 338.09 191.402 337.886 190.658 337.478C189.926 337.07 189.35 336.5 188.93 335.768C188.51 335.024 188.3 334.19 188.3 333.266C188.3 332.342 188.51 331.514 188.93 330.782C189.35 330.05 189.926 329.48 190.658 329.072C191.402 328.664 192.242 328.46 193.178 328.46C193.994 328.46 194.72 328.622 195.356 328.946C196.004 329.258 196.514 329.72 196.886 330.332L195.932 330.98C195.62 330.512 195.224 330.164 194.744 329.936C194.264 329.696 193.742 329.576 193.178 329.576C192.494 329.576 191.876 329.732 191.324 330.044C190.784 330.344 190.358 330.776 190.046 331.34C189.746 331.904 189.596 332.546 189.596 333.266C189.596 333.998 189.746 334.646 190.046 335.21C190.358 335.762 190.784 336.194 191.324 336.506C191.876 336.806 192.494 336.956 193.178 336.956C193.742 336.956 194.264 336.842 194.744 336.614C195.224 336.386 195.62 336.038 195.932 335.57L196.886 336.218C196.514 336.83 196.004 337.298 195.356 337.622C194.708 337.934 193.982 338.09 193.178 338.09ZM202.708 328.46C203.944 328.46 204.892 328.772 205.552 329.396C206.212 330.008 206.542 330.92 206.542 332.132V338H205.318V336.524C205.03 337.016 204.604 337.4 204.04 337.676C203.488 337.952 202.828 338.09 202.06 338.09C201.004 338.09 200.164 337.838 199.54 337.334C198.916 336.83 198.604 336.164 198.604 335.336C198.604 334.532 198.892 333.884 199.468 333.392C200.056 332.9 200.986 332.654 202.258 332.654H205.264V332.078C205.264 331.262 205.036 330.644 204.58 330.224C204.124 329.792 203.458 329.576 202.582 329.576C201.982 329.576 201.406 329.678 200.854 329.882C200.302 330.074 199.828 330.344 199.432 330.692L198.856 329.738C199.336 329.33 199.912 329.018 200.584 328.802C201.256 328.574 201.964 328.46 202.708 328.46ZM202.258 337.082C202.978 337.082 203.596 336.92 204.112 336.596C204.628 336.26 205.012 335.78 205.264 335.156V333.608H202.294C200.674 333.608 199.864 334.172 199.864 335.3C199.864 335.852 200.074 336.29 200.494 336.614C200.914 336.926 201.502 337.082 202.258 337.082ZM214.837 328.46C216.025 328.46 216.967 328.808 217.663 329.504C218.371 330.188 218.725 331.19 218.725 332.51V338H217.447V332.636C217.447 331.652 217.201 330.902 216.709 330.386C216.217 329.87 215.515 329.612 214.603 329.612C213.583 329.612 212.773 329.918 212.173 330.53C211.585 331.13 211.291 331.964 211.291 333.032V338H210.013V328.532H211.237V330.278C211.585 329.702 212.065 329.258 212.677 328.946C213.301 328.622 214.021 328.46 214.837 328.46ZM230.83 338.09C229.894 338.09 229.054 337.886 228.31 337.478C227.578 337.07 227.002 336.5 226.582 335.768C226.162 335.024 225.952 334.19 225.952 333.266C225.952 332.342 226.162 331.514 226.582 330.782C227.002 330.05 227.578 329.48 228.31 329.072C229.054 328.664 229.894 328.46 230.83 328.46C231.646 328.46 232.372 328.622 233.008 328.946C233.656 329.258 234.166 329.72 234.538 330.332L233.584 330.98C233.272 330.512 232.876 330.164 232.396 329.936C231.916 329.696 231.394 329.576 230.83 329.576C230.146 329.576 229.528 329.732 228.976 330.044C228.436 330.344 228.01 330.776 227.698 331.34C227.398 331.904 227.248 332.546 227.248 333.266C227.248 333.998 227.398 334.646 227.698 335.21C228.01 335.762 228.436 336.194 228.976 336.506C229.528 336.806 230.146 336.956 230.83 336.956C231.394 336.956 231.916 336.842 232.396 336.614C232.876 336.386 233.272 336.038 233.584 335.57L234.538 336.218C234.166 336.83 233.656 337.298 233.008 337.622C232.36 337.934 231.634 338.09 230.83 338.09ZM241.732 328.46C242.92 328.46 243.862 328.808 244.558 329.504C245.266 330.188 245.62 331.19 245.62 332.51V338H244.342V332.636C244.342 331.652 244.096 330.902 243.604 330.386C243.112 329.87 242.41 329.612 241.498 329.612C240.478 329.612 239.668 329.918 239.068 330.53C238.48 331.13 238.186 331.964 238.186 333.032V338H236.908V324.644H238.186V330.188C238.534 329.636 239.014 329.21 239.626 328.91C240.238 328.61 240.94 328.46 241.732 328.46ZM252.402 328.46C253.638 328.46 254.586 328.772 255.246 329.396C255.906 330.008 256.236 330.92 256.236 332.132V338H255.012V336.524C254.724 337.016 254.298 337.4 253.734 337.676C253.182 337.952 252.522 338.09 251.754 338.09C250.698 338.09 249.858 337.838 249.234 337.334C248.61 336.83 248.298 336.164 248.298 335.336C248.298 334.532 248.586 333.884 249.162 333.392C249.75 332.9 250.68 332.654 251.952 332.654H254.958V332.078C254.958 331.262 254.73 330.644 254.274 330.224C253.818 329.792 253.152 329.576 252.276 329.576C251.676 329.576 251.1 329.678 250.548 329.882C249.996 330.074 249.522 330.344 249.126 330.692L248.55 329.738C249.03 329.33 249.606 329.018 250.278 328.802C250.95 328.574 251.658 328.46 252.402 328.46ZM251.952 337.082C252.672 337.082 253.29 336.92 253.806 336.596C254.322 336.26 254.706 335.78 254.958 335.156V333.608H251.988C250.368 333.608 249.558 334.172 249.558 335.3C249.558 335.852 249.768 336.29 250.188 336.614C250.608 336.926 251.196 337.082 251.952 337.082ZM264.531 328.46C265.719 328.46 266.661 328.808 267.357 329.504C268.065 330.188 268.419 331.19 268.419 332.51V338H267.141V332.636C267.141 331.652 266.895 330.902 266.403 330.386C265.911 329.87 265.209 329.612 264.297 329.612C263.277 329.612 262.467 329.918 261.867 330.53C261.279 331.13 260.985 331.964 260.985 333.032V338H259.707V328.532H260.931V330.278C261.279 329.702 261.759 329.258 262.371 328.946C262.995 328.622 263.715 328.46 264.531 328.46ZM280.69 328.532V336.848C280.69 338.456 280.294 339.644 279.502 340.412C278.722 341.192 277.54 341.582 275.956 341.582C275.08 341.582 274.246 341.45 273.454 341.186C272.674 340.934 272.038 340.58 271.546 340.124L272.194 339.152C272.65 339.56 273.202 339.878 273.85 340.106C274.51 340.334 275.2 340.448 275.92 340.448C277.12 340.448 278.002 340.166 278.566 339.602C279.13 339.05 279.412 338.186 279.412 337.01V335.804C279.016 336.404 278.494 336.86 277.846 337.172C277.21 337.484 276.502 337.64 275.722 337.64C274.834 337.64 274.024 337.448 273.292 337.064C272.572 336.668 272.002 336.122 271.582 335.426C271.174 334.718 270.97 333.92 270.97 333.032C270.97 332.144 271.174 331.352 271.582 330.656C272.002 329.96 272.572 329.42 273.292 329.036C274.012 328.652 274.822 328.46 275.722 328.46C276.526 328.46 277.252 328.622 277.9 328.946C278.548 329.27 279.07 329.738 279.466 330.35V328.532H280.69ZM275.848 336.506C276.532 336.506 277.15 336.362 277.702 336.074C278.254 335.774 278.68 335.36 278.98 334.832C279.292 334.304 279.448 333.704 279.448 333.032C279.448 332.36 279.292 331.766 278.98 331.25C278.68 330.722 278.254 330.314 277.702 330.026C277.162 329.726 276.544 329.576 275.848 329.576C275.164 329.576 274.546 329.72 273.994 330.008C273.454 330.296 273.028 330.704 272.716 331.232C272.416 331.76 272.266 332.36 272.266 333.032C272.266 333.704 272.416 334.304 272.716 334.832C273.028 335.36 273.454 335.774 273.994 336.074C274.546 336.362 275.164 336.506 275.848 336.506ZM292.507 333.662H284.587C284.659 334.646 285.037 335.444 285.721 336.056C286.405 336.656 287.269 336.956 288.313 336.956C288.901 336.956 289.441 336.854 289.933 336.65C290.425 336.434 290.851 336.122 291.211 335.714L291.931 336.542C291.511 337.046 290.983 337.43 290.347 337.694C289.723 337.958 289.033 338.09 288.277 338.09C287.305 338.09 286.441 337.886 285.685 337.478C284.941 337.058 284.359 336.482 283.939 335.75C283.519 335.018 283.309 334.19 283.309 333.266C283.309 332.342 283.507 331.514 283.903 330.782C284.311 330.05 284.863 329.48 285.559 329.072C286.267 328.664 287.059 328.46 287.935 328.46C288.811 328.46 289.597 328.664 290.293 329.072C290.989 329.48 291.535 330.05 291.931 330.782C292.327 331.502 292.525 332.33 292.525 333.266L292.507 333.662ZM287.935 329.558C287.023 329.558 286.255 329.852 285.631 330.44C285.019 331.016 284.671 331.772 284.587 332.708H291.301C291.217 331.772 290.863 331.016 290.239 330.44C289.627 329.852 288.859 329.558 287.935 329.558ZM304.824 337.424C304.584 337.64 304.284 337.808 303.924 337.928C303.576 338.036 303.21 338.09 302.826 338.09C301.938 338.09 301.254 337.85 300.774 337.37C300.294 336.89 300.054 336.212 300.054 335.336V329.612H298.362V328.532H300.054V326.462H301.332V328.532H304.212V329.612H301.332V335.264C301.332 335.828 301.47 336.26 301.746 336.56C302.034 336.848 302.442 336.992 302.97 336.992C303.234 336.992 303.486 336.95 303.726 336.866C303.978 336.782 304.194 336.662 304.374 336.506L304.824 337.424ZM311.974 328.46C313.162 328.46 314.104 328.808 314.8 329.504C315.508 330.188 315.862 331.19 315.862 332.51V338H314.584V332.636C314.584 331.652 314.338 330.902 313.846 330.386C313.354 329.87 312.652 329.612 311.74 329.612C310.72 329.612 309.91 329.918 309.31 330.53C308.722 331.13 308.428 331.964 308.428 333.032V338H307.15V324.644H308.428V330.188C308.776 329.636 309.256 329.21 309.868 328.91C310.48 328.61 311.182 328.46 311.974 328.46ZM327.611 333.662H319.691C319.763 334.646 320.141 335.444 320.825 336.056C321.509 336.656 322.373 336.956 323.417 336.956C324.005 336.956 324.545 336.854 325.037 336.65C325.529 336.434 325.955 336.122 326.315 335.714L327.035 336.542C326.615 337.046 326.087 337.43 325.451 337.694C324.827 337.958 324.137 338.09 323.381 338.09C322.409 338.09 321.545 337.886 320.789 337.478C320.045 337.058 319.463 336.482 319.043 335.75C318.623 335.018 318.413 334.19 318.413 333.266C318.413 332.342 318.611 331.514 319.007 330.782C319.415 330.05 319.967 329.48 320.663 329.072C321.371 328.664 322.163 328.46 323.039 328.46C323.915 328.46 324.701 328.664 325.397 329.072C326.093 329.48 326.639 330.05 327.035 330.782C327.431 331.502 327.629 332.33 327.629 333.266L327.611 333.662ZM323.039 329.558C322.127 329.558 321.359 329.852 320.735 330.44C320.123 331.016 319.775 331.772 319.691 332.708H326.405C326.321 331.772 325.967 331.016 325.343 330.44C324.731 329.852 323.963 329.558 323.039 329.558ZM102.981 360.532L99.3987 370H98.1927L95.2047 362.242L92.2167 370H91.0107L87.4467 360.532H88.6707L91.6407 368.578L94.6827 360.532H95.7807L98.8047 368.578L101.811 360.532H102.981ZM107.936 360.46C109.172 360.46 110.12 360.772 110.78 361.396C111.44 362.008 111.77 362.92 111.77 364.132V370H110.546V368.524C110.258 369.016 109.832 369.4 109.268 369.676C108.716 369.952 108.056 370.09 107.288 370.09C106.232 370.09 105.392 369.838 104.768 369.334C104.144 368.83 103.832 368.164 103.832 367.336C103.832 366.532 104.12 365.884 104.696 365.392C105.284 364.9 106.214 364.654 107.486 364.654H110.492V364.078C110.492 363.262 110.264 362.644 109.808 362.224C109.352 361.792 108.686 361.576 107.81 361.576C107.21 361.576 106.634 361.678 106.082 361.882C105.53 362.074 105.056 362.344 104.66 362.692L104.084 361.738C104.564 361.33 105.14 361.018 105.812 360.802C106.484 360.574 107.192 360.46 107.936 360.46ZM107.486 369.082C108.206 369.082 108.824 368.92 109.34 368.596C109.856 368.26 110.24 367.78 110.492 367.156V365.608H107.522C105.902 365.608 105.092 366.172 105.092 367.3C105.092 367.852 105.302 368.29 105.722 368.614C106.142 368.926 106.73 369.082 107.486 369.082ZM123.021 360.532L118.287 371.134C117.903 372.022 117.459 372.652 116.955 373.024C116.451 373.396 115.845 373.582 115.137 373.582C114.681 373.582 114.255 373.51 113.859 373.366C113.463 373.222 113.121 373.006 112.833 372.718L113.427 371.764C113.907 372.244 114.483 372.484 115.155 372.484C115.587 372.484 115.953 372.364 116.253 372.124C116.565 371.884 116.853 371.476 117.117 370.9L117.531 369.982L113.301 360.532H114.633L118.197 368.578L121.761 360.532H123.021ZM137.488 360.532L132.754 371.134C132.37 372.022 131.926 372.652 131.422 373.024C130.918 373.396 130.312 373.582 129.604 373.582C129.148 373.582 128.722 373.51 128.326 373.366C127.93 373.222 127.588 373.006 127.3 372.718L127.894 371.764C128.374 372.244 128.95 372.484 129.622 372.484C130.054 372.484 130.42 372.364 130.72 372.124C131.032 371.884 131.32 371.476 131.584 370.9L131.998 369.982L127.768 360.532H129.1L132.664 368.578L136.228 360.532H137.488ZM142.894 370.09C141.982 370.09 141.16 369.886 140.428 369.478C139.696 369.058 139.12 368.482 138.7 367.75C138.28 367.018 138.07 366.19 138.07 365.266C138.07 364.342 138.28 363.514 138.7 362.782C139.12 362.05 139.696 361.48 140.428 361.072C141.16 360.664 141.982 360.46 142.894 360.46C143.806 360.46 144.628 360.664 145.36 361.072C146.092 361.48 146.662 362.05 147.07 362.782C147.49 363.514 147.7 364.342 147.7 365.266C147.7 366.19 147.49 367.018 147.07 367.75C146.662 368.482 146.092 369.058 145.36 369.478C144.628 369.886 143.806 370.09 142.894 370.09ZM142.894 368.956C143.566 368.956 144.166 368.806 144.694 368.506C145.234 368.194 145.654 367.756 145.954 367.192C146.254 366.628 146.404 365.986 146.404 365.266C146.404 364.546 146.254 363.904 145.954 363.34C145.654 362.776 145.234 362.344 144.694 362.044C144.166 361.732 143.566 361.576 142.894 361.576C142.222 361.576 141.616 361.732 141.076 362.044C140.548 362.344 140.128 362.776 139.816 363.34C139.516 363.904 139.366 364.546 139.366 365.266C139.366 365.986 139.516 366.628 139.816 367.192C140.128 367.756 140.548 368.194 141.076 368.506C141.616 368.806 142.222 368.956 142.894 368.956ZM158.841 360.532V370H157.617V368.272C157.281 368.848 156.819 369.298 156.231 369.622C155.643 369.934 154.971 370.09 154.215 370.09C152.979 370.09 152.001 369.748 151.281 369.064C150.573 368.368 150.219 367.354 150.219 366.022V360.532H151.497V365.896C151.497 366.892 151.743 367.648 152.235 368.164C152.727 368.68 153.429 368.938 154.341 368.938C155.337 368.938 156.123 368.638 156.699 368.038C157.275 367.426 157.563 366.58 157.563 365.5V360.532H158.841ZM167.132 356.644H168.41V370H167.132V356.644ZM171.966 360.532H173.244V370H171.966V360.532ZM172.614 358.462C172.35 358.462 172.128 358.372 171.948 358.192C171.768 358.012 171.678 357.796 171.678 357.544C171.678 357.304 171.768 357.094 171.948 356.914C172.128 356.734 172.35 356.644 172.614 356.644C172.878 356.644 173.1 356.734 173.28 356.914C173.46 357.082 173.55 357.286 173.55 357.526C173.55 357.79 173.46 358.012 173.28 358.192C173.1 358.372 172.878 358.462 172.614 358.462ZM184.756 360.532L180.544 370H179.23L175.036 360.532H176.368L179.914 368.596L183.496 360.532H184.756ZM194.536 365.662H186.616C186.688 366.646 187.066 367.444 187.75 368.056C188.434 368.656 189.298 368.956 190.342 368.956C190.93 368.956 191.47 368.854 191.962 368.65C192.454 368.434 192.88 368.122 193.24 367.714L193.96 368.542C193.54 369.046 193.012 369.43 192.376 369.694C191.752 369.958 191.062 370.09 190.306 370.09C189.334 370.09 188.47 369.886 187.714 369.478C186.97 369.058 186.388 368.482 185.968 367.75C185.548 367.018 185.338 366.19 185.338 365.266C185.338 364.342 185.536 363.514 185.932 362.782C186.34 362.05 186.892 361.48 187.588 361.072C188.296 360.664 189.088 360.46 189.964 360.46C190.84 360.46 191.626 360.664 192.322 361.072C193.018 361.48 193.564 362.05 193.96 362.782C194.356 363.502 194.554 364.33 194.554 365.266L194.536 365.662ZM189.964 361.558C189.052 361.558 188.284 361.852 187.66 362.44C187.048 363.016 186.7 363.772 186.616 364.708H193.33C193.246 363.772 192.892 363.016 192.268 362.44C191.656 361.852 190.888 361.558 189.964 361.558ZM201.866 360.532H203.144V370H201.866V360.532ZM202.514 358.462C202.25 358.462 202.028 358.372 201.848 358.192C201.668 358.012 201.578 357.796 201.578 357.544C201.578 357.304 201.668 357.094 201.848 356.914C202.028 356.734 202.25 356.644 202.514 356.644C202.778 356.644 203 356.734 203.18 356.914C203.36 357.082 203.45 357.286 203.45 357.526C203.45 357.79 203.36 358.012 203.18 358.192C203 358.372 202.778 358.462 202.514 358.462ZM211.524 360.46C212.712 360.46 213.654 360.808 214.35 361.504C215.058 362.188 215.412 363.19 215.412 364.51V370H214.134V364.636C214.134 363.652 213.888 362.902 213.396 362.386C212.904 361.87 212.202 361.612 211.29 361.612C210.27 361.612 209.46 361.918 208.86 362.53C208.272 363.13 207.978 363.964 207.978 365.032V370H206.7V360.532H207.924V362.278C208.272 361.702 208.752 361.258 209.364 360.946C209.988 360.622 210.708 360.46 211.524 360.46ZM228.579 369.424C228.339 369.64 228.039 369.808 227.679 369.928C227.331 370.036 226.965 370.09 226.581 370.09C225.693 370.09 225.009 369.85 224.529 369.37C224.049 368.89 223.809 368.212 223.809 367.336V361.612H222.117V360.532H223.809V358.462H225.087V360.532H227.967V361.612H225.087V367.264C225.087 367.828 225.225 368.26 225.501 368.56C225.789 368.848 226.197 368.992 226.725 368.992C226.989 368.992 227.241 368.95 227.481 368.866C227.733 368.782 227.949 368.662 228.129 368.506L228.579 369.424ZM235.729 360.46C236.917 360.46 237.859 360.808 238.555 361.504C239.263 362.188 239.617 363.19 239.617 364.51V370H238.339V364.636C238.339 363.652 238.093 362.902 237.601 362.386C237.109 361.87 236.407 361.612 235.495 361.612C234.475 361.612 233.665 361.918 233.065 362.53C232.477 363.13 232.183 363.964 232.183 365.032V370H230.905V356.644H232.183V362.188C232.531 361.636 233.011 361.21 233.623 360.91C234.235 360.61 234.937 360.46 235.729 360.46ZM251.366 365.662H243.446C243.518 366.646 243.896 367.444 244.58 368.056C245.264 368.656 246.128 368.956 247.172 368.956C247.76 368.956 248.3 368.854 248.792 368.65C249.284 368.434 249.71 368.122 250.07 367.714L250.79 368.542C250.37 369.046 249.842 369.43 249.206 369.694C248.582 369.958 247.892 370.09 247.136 370.09C246.164 370.09 245.3 369.886 244.544 369.478C243.8 369.058 243.218 368.482 242.798 367.75C242.378 367.018 242.168 366.19 242.168 365.266C242.168 364.342 242.366 363.514 242.762 362.782C243.17 362.05 243.722 361.48 244.418 361.072C245.126 360.664 245.918 360.46 246.794 360.46C247.67 360.46 248.456 360.664 249.152 361.072C249.848 361.48 250.394 362.05 250.79 362.782C251.186 363.502 251.384 364.33 251.384 365.266L251.366 365.662ZM246.794 361.558C245.882 361.558 245.114 361.852 244.49 362.44C243.878 363.016 243.53 363.772 243.446 364.708H250.16C250.076 363.772 249.722 363.016 249.098 362.44C248.486 361.852 247.718 361.558 246.794 361.558ZM261.828 357.634C261.276 357.634 260.856 357.784 260.568 358.084C260.292 358.384 260.154 358.828 260.154 359.416V360.532H263.07V361.612H260.19V370H258.912V361.612H257.22V360.532H258.912V359.362C258.912 358.498 259.158 357.814 259.65 357.31C260.154 356.806 260.862 356.554 261.774 356.554C262.134 356.554 262.482 356.608 262.818 356.716C263.154 356.812 263.436 356.956 263.664 357.148L263.232 358.102C262.86 357.79 262.392 357.634 261.828 357.634ZM273.328 360.532V370H272.104V368.272C271.768 368.848 271.306 369.298 270.718 369.622C270.13 369.934 269.458 370.09 268.702 370.09C267.466 370.09 266.488 369.748 265.768 369.064C265.06 368.368 264.706 367.354 264.706 366.022V360.532H265.984V365.896C265.984 366.892 266.23 367.648 266.722 368.164C267.214 368.68 267.916 368.938 268.828 368.938C269.824 368.938 270.61 368.638 271.186 368.038C271.762 367.426 272.05 366.58 272.05 365.5V360.532H273.328ZM281.893 369.424C281.653 369.64 281.353 369.808 280.993 369.928C280.645 370.036 280.279 370.09 279.895 370.09C279.007 370.09 278.323 369.85 277.843 369.37C277.363 368.89 277.123 368.212 277.123 367.336V361.612H275.431V360.532H277.123V358.462H278.401V360.532H281.281V361.612H278.401V367.264C278.401 367.828 278.539 368.26 278.815 368.56C279.103 368.848 279.511 368.992 280.039 368.992C280.303 368.992 280.555 368.95 280.795 368.866C281.047 368.782 281.263 368.662 281.443 368.506L281.893 369.424ZM292.752 360.532V370H291.527V368.272C291.192 368.848 290.73 369.298 290.142 369.622C289.554 369.934 288.882 370.09 288.126 370.09C286.89 370.09 285.912 369.748 285.192 369.064C284.484 368.368 284.13 367.354 284.13 366.022V360.532H285.408V365.896C285.408 366.892 285.654 367.648 286.146 368.164C286.638 368.68 287.34 368.938 288.252 368.938C289.248 368.938 290.034 368.638 290.61 368.038C291.186 367.426 291.474 366.58 291.474 365.5V360.532H292.752ZM297.555 362.386C297.855 361.75 298.299 361.27 298.887 360.946C299.487 360.622 300.225 360.46 301.101 360.46V361.702L300.795 361.684C299.799 361.684 299.019 361.99 298.455 362.602C297.891 363.214 297.609 364.072 297.609 365.176V370H296.331V360.532H297.555V362.386ZM311.571 365.662H303.651C303.723 366.646 304.101 367.444 304.785 368.056C305.469 368.656 306.333 368.956 307.377 368.956C307.965 368.956 308.505 368.854 308.997 368.65C309.489 368.434 309.915 368.122 310.275 367.714L310.995 368.542C310.575 369.046 310.047 369.43 309.411 369.694C308.787 369.958 308.097 370.09 307.341 370.09C306.369 370.09 305.505 369.886 304.749 369.478C304.005 369.058 303.423 368.482 303.003 367.75C302.583 367.018 302.373 366.19 302.373 365.266C302.373 364.342 302.571 363.514 302.967 362.782C303.375 362.05 303.927 361.48 304.623 361.072C305.331 360.664 306.123 360.46 306.999 360.46C307.875 360.46 308.661 360.664 309.357 361.072C310.053 361.48 310.599 362.05 310.995 362.782C311.391 363.502 311.589 364.33 311.589 365.266L311.571 365.662ZM306.999 361.558C306.087 361.558 305.319 361.852 304.695 362.44C304.083 363.016 303.735 363.772 303.651 364.708H310.365C310.281 363.772 309.927 363.016 309.303 362.44C308.691 361.852 307.923 361.558 306.999 361.558Z" fill="black"/>
<path d="M121 634.574C121 625.42 128.42 618 137.574 618H255.708C264.862 618 272.282 625.42 272.282 634.574V634.574C272.282 643.727 264.862 651.147 255.708 651.147H137.574C128.42 651.147 121 643.727 121 634.574V634.574Z" fill="white"/>
<path d="M164.18 639.015C163.33 639.015 162.589 638.877 161.957 638.599C161.324 638.313 160.8 637.932 160.384 637.455C159.976 636.979 159.673 636.454 159.474 635.882C159.274 635.302 159.175 634.717 159.175 634.127V633.841C159.175 633.243 159.274 632.658 159.474 632.086C159.673 631.514 159.972 630.994 160.371 630.526C160.778 630.058 161.281 629.686 161.879 629.408C162.485 629.131 163.183 628.992 163.972 628.992C164.821 628.992 165.575 629.153 166.234 629.473C166.892 629.794 167.421 630.236 167.82 630.799C168.218 631.354 168.452 631.995 168.522 632.723H166.39C166.303 632.203 166.039 631.783 165.597 631.462C165.155 631.142 164.613 630.981 163.972 630.981C163.417 630.981 162.94 631.111 162.542 631.371C162.152 631.623 161.853 631.978 161.645 632.437C161.437 632.888 161.333 633.408 161.333 633.997C161.333 634.925 161.58 635.67 162.074 636.233C162.576 636.797 163.278 637.078 164.18 637.078C164.665 637.078 165.098 636.996 165.48 636.831C165.861 636.658 166.164 636.433 166.39 636.155V635.362H163.907V633.828H169.133V635.362H168.353V636.974C167.945 637.633 167.382 638.14 166.663 638.495C165.943 638.842 165.116 639.015 164.18 639.015ZM170.511 638.768V629.278H176.387V631.046H172.591V633.061H176.179V634.829H172.591V637H176.478V638.768H170.511ZM180.114 638.768V631.137H177.449V629.278H184.924V631.137H182.246V638.768H180.114ZM192.297 639.015C191.439 639.015 190.711 638.881 190.113 638.612C189.524 638.344 189.077 637.971 188.774 637.494C188.479 637.018 188.332 636.472 188.332 635.856H190.399C190.399 636.22 190.546 636.541 190.841 636.818C191.144 637.087 191.63 637.221 192.297 637.221C192.886 637.221 193.337 637.109 193.649 636.883C193.961 636.649 194.117 636.35 194.117 635.986C194.117 635.683 193.987 635.445 193.727 635.271C193.467 635.089 193.047 634.972 192.466 634.92L191.751 634.855C190.806 634.777 190.052 634.487 189.489 633.984C188.926 633.473 188.644 632.793 188.644 631.943C188.644 631.337 188.787 630.812 189.073 630.37C189.368 629.928 189.775 629.59 190.295 629.356C190.815 629.114 191.43 628.992 192.141 628.992C192.886 628.992 193.523 629.122 194.052 629.382C194.589 629.642 195.001 630.006 195.287 630.474C195.573 630.934 195.716 631.471 195.716 632.086H193.636C193.636 631.74 193.51 631.436 193.259 631.176C193.008 630.916 192.635 630.786 192.141 630.786C191.664 630.786 191.309 630.903 191.075 631.137C190.841 631.363 190.724 631.631 190.724 631.943C190.724 632.212 190.815 632.446 190.997 632.645C191.188 632.845 191.504 632.962 191.946 632.996L192.674 633.061C193.367 633.122 193.978 633.274 194.507 633.516C195.036 633.75 195.447 634.075 195.742 634.491C196.045 634.899 196.197 635.397 196.197 635.986C196.197 636.593 196.037 637.126 195.716 637.585C195.404 638.036 194.958 638.387 194.377 638.638C193.796 638.89 193.103 639.015 192.297 639.015ZM197.666 638.768V629.278H200.604L202.775 634.608H203.022L205.167 629.278H208.157V638.768H206.051V631.449L203.841 636.844H201.813L199.616 631.501V638.768H197.666ZM209.388 638.768L212.521 629.278H215.966L219.216 638.768H217.006L216.239 636.415H212.274L211.52 638.768H209.388ZM212.833 634.647H215.654L214.471 631.02H213.99L212.833 634.647ZM220.454 638.768V629.2H224.185C225.372 629.2 226.313 629.469 227.006 630.006C227.699 630.535 228.046 631.328 228.046 632.385V632.593C228.046 633.287 227.886 633.867 227.565 634.335C227.253 634.795 226.815 635.141 226.252 635.375L228.683 638.768H226.213L224.133 635.726H222.586V638.768H220.454ZM224.354 631.007H222.586V634.049H224.354C224.813 634.049 225.182 633.911 225.459 633.633C225.745 633.356 225.888 632.988 225.888 632.528C225.888 632.078 225.745 631.714 225.459 631.436C225.182 631.15 224.813 631.007 224.354 631.007ZM231.581 638.768V631.137H228.916V629.278H236.391V631.137H233.713V638.768H231.581Z" fill="black"/>
</g>
<defs>
<clipPath id="clip0">
<rect width="393" height="712" fill="white"/>
</clipPath>
</defs>
</svg>
