<svg width="24" height="24" viewBox="0 0 24 24" fill="none" xmlns="http://www.w3.org/2000/svg">
<path d="M12.223 11.641L12 11.861L11.776 11.641C11.3598 11.2301 10.7984 10.9997 10.2135 10.9997C9.62859 10.9997 9.06723 11.2301 8.651 11.641C8.44442 11.8397 8.28008 12.0781 8.16783 12.3419C8.05557 12.6057 7.99771 12.8894 7.99771 13.176C7.99771 13.4627 8.05557 13.7464 8.16783 14.0101C8.28008 14.2739 8.44442 14.5123 8.651 14.711L12 18L15.349 14.711C15.5556 14.5123 15.7199 14.2739 15.8322 14.0101C15.9444 13.7464 16.0023 13.4627 16.0023 13.176C16.0023 12.8894 15.9444 12.6057 15.8322 12.3419C15.7199 12.0781 15.5556 11.8397 15.349 11.641C14.9326 11.23 14.3711 10.9996 13.786 10.9996C13.2009 10.9996 12.6394 11.23 12.223 11.641Z" fill="black"/>
<path d="M21.707 11.293L12.707 2.29299C12.6142 2.20004 12.504 2.1263 12.3827 2.07599C12.2614 2.02568 12.1313 1.99979 12 1.99979C11.8687 1.99979 11.7386 2.02568 11.6173 2.07599C11.496 2.1263 11.3858 2.20004 11.293 2.29299L2.293 11.293C2.15319 11.4328 2.05798 11.611 2.01942 11.805C1.98085 11.9989 2.00065 12.1999 2.07632 12.3826C2.15199 12.5653 2.28013 12.7215 2.44454 12.8314C2.60895 12.9413 2.80225 12.9999 3 13H4V20C4 21.103 4.897 22 6 22H18C19.103 22 20 21.103 20 20V13H21C21.1978 12.9999 21.391 12.9413 21.5555 12.8314C21.7199 12.7215 21.848 12.5653 21.9237 12.3826C21.9993 12.1999 22.0192 11.9989 21.9806 11.805C21.942 11.611 21.8468 11.4328 21.707 11.293ZM18.001 20H6V10.415L12 4.41499L18 10.415V15L18.001 20Z" fill="black"/>
</svg>
