<svg width="30" height="30" viewBox="0 0 30 30" fill="none" xmlns="http://www.w3.org/2000/svg">
<circle cx="15" cy="15" r="15" fill="#75D6FF"/>
<circle cx="15" cy="15" r="15" fill="url(#paint0_linear)"/>
<path d="M13.6517 19H12.3917L9.53871 14.689V19H8.27871V12.709H9.53871L12.3917 17.029V12.709H13.6517V19ZM17.8129 19.063C17.2249 19.063 16.6849 18.925 16.1929 18.649C15.7009 18.373 15.3109 17.992 15.0229 17.506C14.7349 17.014 14.5909 16.459 14.5909 15.841C14.5909 15.229 14.7349 14.68 15.0229 14.194C15.3109 13.702 15.7009 13.318 16.1929 13.042C16.6849 12.766 17.2249 12.628 17.8129 12.628C18.4069 12.628 18.9469 12.766 19.4329 13.042C19.9249 13.318 20.3119 13.702 20.5939 14.194C20.8819 14.68 21.0259 15.229 21.0259 15.841C21.0259 16.459 20.8819 17.014 20.5939 17.506C20.3119 17.992 19.9249 18.373 19.4329 18.649C18.9409 18.925 18.4009 19.063 17.8129 19.063ZM17.8129 17.938C18.1909 17.938 18.5239 17.854 18.8119 17.686C19.0999 17.512 19.3249 17.266 19.4869 16.948C19.6489 16.63 19.7299 16.261 19.7299 15.841C19.7299 15.421 19.6489 15.055 19.4869 14.743C19.3249 14.425 19.0999 14.182 18.8119 14.014C18.5239 13.846 18.1909 13.762 17.8129 13.762C17.4349 13.762 17.0989 13.846 16.8049 14.014C16.5169 14.182 16.2919 14.425 16.1299 14.743C15.9679 15.055 15.8869 15.421 15.8869 15.841C15.8869 16.261 15.9679 16.63 16.1299 16.948C16.2919 17.266 16.5169 17.512 16.8049 17.686C17.0989 17.854 17.4349 17.938 17.8129 17.938Z" fill="black"/>
<defs>
<linearGradient id="paint0_linear" x1="15" y1="0" x2="15" y2="30" gradientUnits="userSpaceOnUse">
<stop stop-color="white"/>
<stop offset="1" stop-color="white" stop-opacity="0"/>
</linearGradient>
</defs>
</svg>
