<svg width="412" height="712" viewBox="0 0 412 712" fill="none" xmlns="http://www.w3.org/2000/svg">
<rect width="412" height="712" fill="white"/>
<g style="mix-blend-mode:color-dodge">
<path d="M0 0H412V130.12C412 146.689 398.569 160.12 382 160.12H30C13.4315 160.12 0 146.688 0 130.12V0Z" fill="white"/>
</g>
<path d="M50.664 83.6432L44.568 76.1792V83.6432H41.208V66.8912H44.568V74.4032L50.664 66.8912H54.72L47.808 75.1952L54.912 83.6432H50.664ZM58.8261 68.7632C58.2341 68.7632 57.7381 68.5792 57.3381 68.2112C56.9541 67.8272 56.7621 67.3552 56.7621 66.7952C56.7621 66.2352 56.9541 65.7712 57.3381 65.4032C57.7381 65.0192 58.2341 64.8272 58.8261 64.8272C59.4181 64.8272 59.9061 65.0192 60.2901 65.4032C60.6901 65.7712 60.8901 66.2352 60.8901 66.7952C60.8901 67.3552 60.6901 67.8272 60.2901 68.2112C59.9061 68.5792 59.4181 68.7632 58.8261 68.7632ZM60.4821 70.3472V83.6432H57.1221V70.3472H60.4821ZM67.7138 73.1072V79.5392C67.7138 79.9872 67.8178 80.3152 68.0258 80.5232C68.2498 80.7152 68.6178 80.8112 69.1298 80.8112H70.6898V83.6432H68.5778C65.7458 83.6432 64.3298 82.2672 64.3298 79.5152V73.1072H62.7458V70.3472H64.3298V67.0592H67.7138V70.3472H70.6898V73.1072H67.7138ZM72.2424 76.9952C72.2424 75.6192 72.5224 74.4192 73.0824 73.3952C73.6424 72.3552 74.4184 71.5552 75.4104 70.9952C76.4024 70.4192 77.5384 70.1312 78.8184 70.1312C80.4664 70.1312 81.8264 70.5472 82.8984 71.3792C83.9864 72.1952 84.7144 73.3472 85.0824 74.8352H81.4584C81.2664 74.2592 80.9384 73.8112 80.4744 73.4912C80.0264 73.1552 79.4664 72.9872 78.7944 72.9872C77.8344 72.9872 77.0744 73.3392 76.5144 74.0432C75.9544 74.7312 75.6744 75.7152 75.6744 76.9952C75.6744 78.2592 75.9544 79.2432 76.5144 79.9472C77.0744 80.6352 77.8344 80.9792 78.7944 80.9792C80.1544 80.9792 81.0424 80.3712 81.4584 79.1552H85.0824C84.7144 80.5952 83.9864 81.7392 82.8984 82.5872C81.8104 83.4352 80.4504 83.8592 78.8184 83.8592C77.5384 83.8592 76.4024 83.5792 75.4104 83.0192C74.4184 82.4432 73.6424 81.6432 73.0824 80.6192C72.5224 79.5792 72.2424 78.3712 72.2424 76.9952ZM95.0319 70.1552C96.0399 70.1552 96.9359 70.3792 97.7199 70.8272C98.5039 71.2592 99.1119 71.9072 99.5439 72.7712C99.9919 73.6192 100.216 74.6432 100.216 75.8432V83.6432H96.8559V76.2992C96.8559 75.2432 96.5919 74.4352 96.0639 73.8752C95.5359 73.2992 94.8159 73.0112 93.9039 73.0112C92.9759 73.0112 92.2399 73.2992 91.6959 73.8752C91.1679 74.4352 90.9039 75.2432 90.9039 76.2992V83.6432H87.5439V65.8832H90.9039V72.0032C91.3359 71.4272 91.9119 70.9792 92.6319 70.6592C93.3519 70.3232 94.1519 70.1552 95.0319 70.1552ZM115.771 76.7072C115.771 77.1872 115.739 77.6192 115.675 78.0032H105.955C106.035 78.9632 106.371 79.7152 106.963 80.2592C107.555 80.8032 108.283 81.0752 109.147 81.0752C110.395 81.0752 111.283 80.5392 111.811 79.4672H115.435C115.051 80.7472 114.315 81.8032 113.227 82.6352C112.139 83.4512 110.803 83.8592 109.219 83.8592C107.939 83.8592 106.787 83.5792 105.763 83.0192C104.755 82.4432 103.963 81.6352 103.387 80.5952C102.827 79.5552 102.547 78.3552 102.547 76.9952C102.547 75.6192 102.827 74.4112 103.387 73.3712C103.947 72.3312 104.731 71.5312 105.739 70.9712C106.747 70.4112 107.907 70.1312 109.219 70.1312C110.483 70.1312 111.611 70.4032 112.603 70.9472C113.611 71.4912 114.387 72.2672 114.931 73.2752C115.491 74.2672 115.771 75.4112 115.771 76.7072ZM112.291 75.7472C112.275 74.8832 111.963 74.1952 111.355 73.6832C110.747 73.1552 110.003 72.8912 109.123 72.8912C108.291 72.8912 107.587 73.1472 107.011 73.6592C106.451 74.1552 106.107 74.8512 105.979 75.7472H112.291ZM125.592 70.1552C127.176 70.1552 128.456 70.6592 129.432 71.6672C130.408 72.6592 130.896 74.0512 130.896 75.8432V83.6432H127.536V76.2992C127.536 75.2432 127.272 74.4352 126.744 73.8752C126.216 73.2992 125.496 73.0112 124.584 73.0112C123.656 73.0112 122.92 73.2992 122.376 73.8752C121.848 74.4352 121.584 75.2432 121.584 76.2992V83.6432H118.224V70.3472H121.584V72.0032C122.032 71.4272 122.6 70.9792 123.288 70.6592C123.992 70.3232 124.76 70.1552 125.592 70.1552Z" fill="black"/>
<path d="M346.135 88.02C353.112 88.02 358.781 82.8202 359.022 76.3239C358.781 69.8275 353.112 64.6278 346.135 64.6278C339.158 64.6278 333.488 69.8275 333.25 76.3239C333.487 82.8202 339.157 88.02 346.135 88.02Z" fill="black"/>
<path d="M346.136 59.0776C336.333 59.0776 328.385 66.7992 328.385 76.3238C328.385 85.8477 336.334 93.5701 346.136 93.5701C355.938 93.5701 363.886 85.8477 363.886 76.3238C363.886 66.7992 355.938 59.0776 346.136 59.0776ZM346.135 88.8666C339.005 88.8666 333.225 83.441 333.225 76.7464C333.225 76.6037 333.245 76.4649 333.25 76.3238C333.245 76.1827 333.225 76.0432 333.225 75.9013C333.225 69.2066 339.006 63.7811 346.135 63.7811C353.265 63.7811 359.044 69.2066 359.044 75.9013C359.044 76.0432 359.027 76.1827 359.023 76.3238C359.028 76.4649 359.044 76.6037 359.044 76.7464C359.044 83.441 353.265 88.8666 346.135 88.8666Z" fill="black"/>
<path d="M322.521 57.0559C322.714 56.3182 323.097 57.0473 323.097 57.0473C323.097 57.0473 323.231 64.6827 324.103 64.7658C324.974 64.8489 324.303 56.9093 325.334 56.7572C326.293 56.6091 325.745 64.892 326.618 64.8081C327.488 64.7187 327.635 57.0865 327.635 57.0865C327.635 57.0865 328.022 56.3582 328.214 57.0904C330.576 66.1133 328.665 69.8017 328.665 69.8017C328.665 69.8017 328.342 70.577 327.575 70.5809C327.504 70.577 327.558 92.0101 327.553 94.8918C327.554 96.2927 323.115 96.2496 323.118 94.855C323.121 91.9733 323.207 70.5425 323.138 70.544C322.369 70.544 322.047 69.7695 322.047 69.7695C322.047 69.7695 320.143 66.0835 322.521 57.0559" fill="black"/>
<path d="M364.588 56.7258C365.587 56.7235 369.731 59.6263 369.736 70.4147C369.741 73.8647 367.803 73.8639 367.807 76.022C367.81 78.1762 367.822 95.3112 367.822 95.3112C367.822 95.3112 365.697 96.7277 364.117 95.2453L364.088 57.0323C364.09 57.0331 364.084 56.725 364.588 56.7258Z" fill="black"/>
<rect y="123.826" width="412" height="588.174" fill="#C4C4C4" fill-opacity="0.2"/>
<g clip-path="url(#clip0)">
<path d="M367.504 654.392L368.242 653.554C368.036 653.383 367.775 653.289 367.504 653.289C367.233 653.289 366.972 653.383 366.766 653.554L367.504 654.392ZM351.61 667.629L350.872 666.791L350.475 667.122V667.629H351.61ZM362.963 685.278V686.381C363.264 686.381 363.553 686.265 363.766 686.058C363.978 685.851 364.098 685.57 364.098 685.278H362.963ZM372.045 685.278H370.91C370.91 685.57 371.029 685.851 371.242 686.058C371.455 686.265 371.744 686.381 372.045 686.381V685.278ZM383.398 667.629H384.533V667.122L384.136 666.791L383.398 667.629V667.629ZM353.88 686.381H362.963V684.175H353.88V686.381ZM384.136 666.791L368.242 653.554L366.766 655.231L382.66 668.467L384.136 666.791ZM366.766 653.554L350.872 666.791L352.348 668.467L368.242 655.231L366.766 653.554V653.554ZM364.098 685.278V678.659H361.827V685.278H364.098ZM370.91 678.659V685.278H373.18V678.659H370.91ZM372.045 686.381H381.127V684.175H372.045V686.381ZM384.533 683.072V667.629H382.263V683.072H384.533ZM350.475 667.629V683.072H352.745V667.629H350.475ZM367.504 675.35C368.407 675.35 369.274 675.699 369.912 676.32C370.551 676.94 370.91 677.782 370.91 678.659H373.18C373.18 677.197 372.582 675.794 371.518 674.76C370.453 673.725 369.009 673.144 367.504 673.144V675.35ZM367.504 673.144C365.998 673.144 364.555 673.725 363.49 674.76C362.426 675.794 361.827 677.197 361.827 678.659H364.098C364.098 677.782 364.457 676.94 365.096 676.32C365.734 675.699 366.601 675.35 367.504 675.35V673.144ZM381.127 686.381C382.031 686.381 382.897 686.032 383.536 685.412C384.174 684.791 384.533 683.949 384.533 683.072H382.263C382.263 683.364 382.143 683.645 381.93 683.852C381.717 684.059 381.429 684.175 381.127 684.175V686.381ZM353.88 684.175C353.579 684.175 353.291 684.059 353.078 683.852C352.865 683.645 352.745 683.364 352.745 683.072H350.475C350.475 683.949 350.833 684.791 351.472 685.412C352.111 686.032 352.977 686.381 353.88 686.381V684.175Z" fill="black"/>
</g>
<g filter="url(#filter0_d)">
<rect x="227.424" y="434.459" width="140.629" height="136.636" rx="20" fill="white"/>
</g>
<path d="M252.536 457.638C252.203 457.638 251.884 457.767 251.648 457.995C251.413 458.224 251.281 458.534 251.281 458.858C251.281 459.182 251.413 459.492 251.648 459.721C251.884 459.949 252.203 460.078 252.536 460.078C252.869 460.078 253.189 459.949 253.424 459.721C253.66 459.492 253.792 459.182 253.792 458.858C253.792 458.534 253.66 458.224 253.424 457.995C253.189 457.767 252.869 457.638 252.536 457.638ZM253.164 446.658C258.814 446.658 258.953 451.014 255.989 452.453C254.746 453.051 254.194 454.332 253.955 455.467C254.558 455.71 255.085 456.089 255.487 456.577C260.133 454.137 265.13 455.101 265.13 459.468C265.13 464.958 260.648 465.08 259.166 462.188C258.538 460.981 257.207 460.444 256.039 460.212C255.788 460.798 255.399 461.298 254.897 461.713C257.396 466.214 256.404 471.058 251.908 471.058C246.258 471.058 246.145 466.69 249.108 465.251C250.339 464.653 250.891 463.384 251.143 462.262C250.527 462.018 249.987 461.627 249.586 461.139C244.952 463.555 239.98 462.603 239.98 458.248C239.98 452.758 244.45 452.624 245.932 455.515C246.56 456.723 247.878 457.248 249.046 457.479C249.284 456.894 249.686 456.381 250.201 455.991C247.702 451.489 248.694 446.658 253.164 446.658Z" fill="black"/>
<path d="M244.063 508.019V509.055H239.821V512.345H243.265V513.381H239.821V517.777H238.547V508.019H244.063ZM245.126 513.913C245.126 513.129 245.284 512.443 245.602 511.855C245.919 511.257 246.353 510.795 246.904 510.469C247.464 510.142 248.084 509.979 248.766 509.979C249.438 509.979 250.021 510.123 250.516 510.413C251.01 510.702 251.379 511.066 251.622 511.505V510.105H252.91V517.777H251.622V516.349C251.37 516.797 250.992 517.17 250.488 517.469C249.993 517.758 249.414 517.903 248.752 517.903C248.07 517.903 247.454 517.735 246.904 517.399C246.353 517.063 245.919 516.591 245.602 515.985C245.284 515.378 245.126 514.687 245.126 513.913ZM251.622 513.927C251.622 513.348 251.505 512.844 251.272 512.415C251.038 511.985 250.721 511.659 250.32 511.435C249.928 511.201 249.494 511.085 249.018 511.085C248.542 511.085 248.108 511.197 247.716 511.421C247.324 511.645 247.011 511.971 246.778 512.401C246.544 512.83 246.428 513.334 246.428 513.913C246.428 514.501 246.544 515.014 246.778 515.453C247.011 515.882 247.324 516.213 247.716 516.447C248.108 516.671 248.542 516.783 249.018 516.783C249.494 516.783 249.928 516.671 250.32 516.447C250.721 516.213 251.038 515.882 251.272 515.453C251.505 515.014 251.622 514.505 251.622 513.927ZM258.8 509.965C259.734 509.965 260.49 510.249 261.068 510.819C261.647 511.379 261.936 512.191 261.936 513.255V517.777H260.676V513.437C260.676 512.671 260.485 512.088 260.102 511.687C259.72 511.276 259.197 511.071 258.534 511.071C257.862 511.071 257.326 511.281 256.924 511.701C256.532 512.121 256.336 512.732 256.336 513.535V517.777H255.062V510.105H256.336V511.197C256.588 510.805 256.929 510.501 257.358 510.287C257.797 510.072 258.278 509.965 258.8 509.965Z" fill="black"/>
<g filter="url(#filter1_d)">
<rect x="36.256" y="434.459" width="140.629" height="136.636" rx="20" fill="white"/>
</g>
<path d="M72.669 447.878H52.5791C51.1979 447.878 50.0679 448.976 50.0679 450.318V469.838C50.0679 471.18 51.1979 472.278 52.5791 472.278H72.669C74.0502 472.278 75.1803 471.18 75.1803 469.838V450.318C75.1803 448.976 74.0502 447.878 72.669 447.878ZM72.669 458.858H63.8797V450.318H72.669V458.858ZM61.3684 450.318V458.858H52.5791V450.318H61.3684ZM52.5791 461.298H61.3684V469.838H52.5791V461.298ZM63.8797 469.838V461.298H72.669V469.838H63.8797Z" fill="black"/>
<path d="M60.8986 508.019L58.0706 517.777H56.6426L54.3746 509.923L52.0226 517.777L50.6086 517.791L47.8786 508.019H49.2366L51.3646 516.293L53.7166 508.019H55.1446L57.3846 516.265L59.5266 508.019H60.8986ZM62.9508 508.859C62.7082 508.859 62.5028 508.775 62.3348 508.607C62.1668 508.439 62.0828 508.233 62.0828 507.991C62.0828 507.748 62.1668 507.543 62.3348 507.375C62.5028 507.207 62.7082 507.123 62.9508 507.123C63.1842 507.123 63.3802 507.207 63.5388 507.375C63.7068 507.543 63.7908 507.748 63.7908 507.991C63.7908 508.233 63.7068 508.439 63.5388 508.607C63.3802 508.775 63.1842 508.859 62.9508 508.859ZM63.5668 510.105V517.777H62.2928V510.105H63.5668ZM69.4762 509.965C70.4095 509.965 71.1655 510.249 71.7442 510.819C72.3228 511.379 72.6122 512.191 72.6122 513.255V517.777H71.3522V513.437C71.3522 512.671 71.1608 512.088 70.7782 511.687C70.3955 511.276 69.8728 511.071 69.2102 511.071C68.5382 511.071 68.0015 511.281 67.6002 511.701C67.2082 512.121 67.0122 512.732 67.0122 513.535V517.777H65.7382V510.105H67.0122V511.197C67.2642 510.805 67.6048 510.501 68.0342 510.287C68.4728 510.072 68.9535 509.965 69.4762 509.965ZM74.2172 513.913C74.2172 513.129 74.3759 512.443 74.6932 511.855C75.0106 511.257 75.4446 510.795 75.9952 510.469C76.5552 510.142 77.1806 509.979 77.8712 509.979C78.4686 509.979 79.0239 510.119 79.5372 510.399C80.0506 510.669 80.4426 511.029 80.7132 511.477V507.417H82.0012V517.777H80.7132V516.335C80.4612 516.792 80.0879 517.17 79.5932 517.469C79.0986 517.758 78.5199 517.903 77.8572 517.903C77.1759 517.903 76.5552 517.735 75.9952 517.399C75.4446 517.063 75.0106 516.591 74.6932 515.985C74.3759 515.378 74.2172 514.687 74.2172 513.913ZM80.7132 513.927C80.7132 513.348 80.5966 512.844 80.3632 512.415C80.1299 511.985 79.8126 511.659 79.4112 511.435C79.0192 511.201 78.5852 511.085 78.1092 511.085C77.6332 511.085 77.1992 511.197 76.8072 511.421C76.4152 511.645 76.1026 511.971 75.8692 512.401C75.6359 512.83 75.5192 513.334 75.5192 513.913C75.5192 514.501 75.6359 515.014 75.8692 515.453C76.1026 515.882 76.4152 516.213 76.8072 516.447C77.1992 516.671 77.6332 516.783 78.1092 516.783C78.5852 516.783 79.0192 516.671 79.4112 516.447C79.8126 516.213 80.1299 515.882 80.3632 515.453C80.5966 515.014 80.7132 514.505 80.7132 513.927ZM87.5002 517.903C86.7815 517.903 86.1282 517.739 85.5402 517.413C84.9615 517.086 84.5042 516.624 84.1682 516.027C83.8415 515.42 83.6782 514.72 83.6782 513.927C83.6782 513.143 83.8462 512.452 84.1822 511.855C84.5275 511.248 84.9942 510.786 85.5822 510.469C86.1702 510.142 86.8282 509.979 87.5562 509.979C88.2842 509.979 88.9422 510.142 89.5302 510.469C90.1182 510.786 90.5802 511.243 90.9162 511.841C91.2615 512.438 91.4342 513.133 91.4342 513.927C91.4342 514.72 91.2568 515.42 90.9022 516.027C90.5568 516.624 90.0855 517.086 89.4882 517.413C88.8908 517.739 88.2282 517.903 87.5002 517.903ZM87.5002 516.783C87.9575 516.783 88.3868 516.675 88.7882 516.461C89.1895 516.246 89.5115 515.924 89.7542 515.495C90.0062 515.065 90.1322 514.543 90.1322 513.927C90.1322 513.311 90.0108 512.788 89.7682 512.359C89.5255 511.929 89.2082 511.612 88.8162 511.407C88.4242 511.192 87.9995 511.085 87.5422 511.085C87.0755 511.085 86.6462 511.192 86.2542 511.407C85.8715 511.612 85.5635 511.929 85.3302 512.359C85.0968 512.788 84.9802 513.311 84.9802 513.927C84.9802 514.552 85.0922 515.079 85.3162 515.509C85.5495 515.938 85.8575 516.26 86.2402 516.475C86.6228 516.68 87.0428 516.783 87.5002 516.783ZM103.329 510.105L100.935 517.777H99.6193L97.7713 511.687L95.9233 517.777H94.6073L92.1993 510.105H93.5013L95.2653 516.545L97.1693 510.105H98.4713L100.333 516.559L102.069 510.105H103.329Z" fill="black"/>
<rect x="323" y="451" width="30" height="15" rx="7.5" fill="black"/>
<circle cx="330.5" cy="458.5" r="7.5" fill="#FFCA28"/>
<path d="M341.19 462.08C340.677 462.08 340.213 461.967 339.8 461.74C339.393 461.507 339.07 461.18 338.83 460.76C338.597 460.333 338.48 459.837 338.48 459.27C338.48 458.703 338.6 458.21 338.84 457.79C339.08 457.363 339.407 457.037 339.82 456.81C340.233 456.577 340.697 456.46 341.21 456.46C341.723 456.46 342.187 456.577 342.6 456.81C343.02 457.037 343.347 457.363 343.58 457.79C343.82 458.21 343.94 458.703 343.94 459.27C343.94 459.83 343.82 460.323 343.58 460.75C343.34 461.177 343.01 461.507 342.59 461.74C342.17 461.967 341.703 462.08 341.19 462.08ZM341.19 461.47C341.55 461.47 341.883 461.39 342.19 461.23C342.497 461.063 342.743 460.817 342.93 460.49C343.123 460.157 343.22 459.75 343.22 459.27C343.22 458.79 343.127 458.387 342.94 458.06C342.753 457.727 342.507 457.48 342.2 457.32C341.893 457.153 341.56 457.07 341.2 457.07C340.84 457.07 340.507 457.153 340.2 457.32C339.893 457.48 339.647 457.727 339.46 458.06C339.28 458.387 339.19 458.79 339.19 459.27C339.19 459.75 339.28 460.157 339.46 460.49C339.647 460.817 339.89 461.063 340.19 461.23C340.497 461.39 340.83 461.47 341.19 461.47ZM347.366 457.13H346.096V462H345.396V457.13H344.636V456.54H345.396V456.16C345.396 455.567 345.546 455.13 345.846 454.85C346.153 454.57 346.646 454.43 347.326 454.43V455.03C346.873 455.03 346.553 455.117 346.366 455.29C346.186 455.463 346.096 455.753 346.096 456.16V456.54H347.366V457.13ZM350.618 457.13H349.348V462H348.648V457.13H347.888V456.54H348.648V456.16C348.648 455.567 348.798 455.13 349.098 454.85C349.405 454.57 349.898 454.43 350.578 454.43V455.03C350.125 455.03 349.805 455.117 349.618 455.29C349.438 455.463 349.348 455.753 349.348 456.16V456.54H350.618V457.13Z" fill="white"/>
<rect x="130" y="451" width="30" height="15" rx="7.5" fill="black"/>
<circle cx="137.5" cy="458.5" r="7.5" fill="#FFCA28"/>
<path d="M148.19 462.08C147.677 462.08 147.213 461.967 146.8 461.74C146.393 461.507 146.07 461.18 145.83 460.76C145.597 460.333 145.48 459.837 145.48 459.27C145.48 458.703 145.6 458.21 145.84 457.79C146.08 457.363 146.407 457.037 146.82 456.81C147.233 456.577 147.697 456.46 148.21 456.46C148.723 456.46 149.187 456.577 149.6 456.81C150.02 457.037 150.347 457.363 150.58 457.79C150.82 458.21 150.94 458.703 150.94 459.27C150.94 459.83 150.82 460.323 150.58 460.75C150.34 461.177 150.01 461.507 149.59 461.74C149.17 461.967 148.703 462.08 148.19 462.08ZM148.19 461.47C148.55 461.47 148.883 461.39 149.19 461.23C149.497 461.063 149.743 460.817 149.93 460.49C150.123 460.157 150.22 459.75 150.22 459.27C150.22 458.79 150.127 458.387 149.94 458.06C149.753 457.727 149.507 457.48 149.2 457.32C148.893 457.153 148.56 457.07 148.2 457.07C147.84 457.07 147.507 457.153 147.2 457.32C146.893 457.48 146.647 457.727 146.46 458.06C146.28 458.387 146.19 458.79 146.19 459.27C146.19 459.75 146.28 460.157 146.46 460.49C146.647 460.817 146.89 461.063 147.19 461.23C147.497 461.39 147.83 461.47 148.19 461.47ZM154.366 457.13H153.096V462H152.396V457.13H151.636V456.54H152.396V456.16C152.396 455.567 152.546 455.13 152.846 454.85C153.153 454.57 153.646 454.43 154.326 454.43V455.03C153.873 455.03 153.553 455.117 153.366 455.29C153.186 455.463 153.096 455.753 153.096 456.16V456.54H154.366V457.13ZM157.618 457.13H156.348V462H155.648V457.13H154.888V456.54H155.648V456.16C155.648 455.567 155.798 455.13 156.098 454.85C156.405 454.57 156.898 454.43 157.578 454.43V455.03C157.125 455.03 156.805 455.117 156.618 455.29C156.438 455.463 156.348 455.753 156.348 456.16V456.54H157.618V457.13Z" fill="white"/>
<g filter="url(#filter2_d)">
<circle cx="206" cy="266" r="81" fill="white"/>
</g>
<g clip-path="url(#clip1)">
<path d="M191.65 276.469L194.725 273.399L197.09 275.761L194.015 278.831L191.65 276.469ZM204.186 283.003V278.044H207.577V283.003H204.186ZM192.438 262.93V266.315H187.392V262.93H192.438ZM210.967 255.924C212.492 256.816 213.714 258.023 214.634 259.545C215.554 261.067 216.014 262.746 216.014 264.583C216.014 267.364 215.028 269.739 213.057 271.707C211.086 273.675 208.707 274.659 205.921 274.659C203.135 274.659 200.757 273.675 198.785 271.707C196.814 269.739 195.829 267.364 195.829 264.583C195.829 262.746 196.275 261.067 197.169 259.545C198.063 258.023 199.298 256.816 200.875 255.924V247.816H210.967V255.924ZM219.325 262.93H224.372V266.315H219.325V262.93ZM214.673 275.761L217.039 273.478L220.114 276.469L217.748 278.831L214.673 275.761Z" fill="black"/>
</g>
<defs>
<filter id="filter0_d" x="223.424" y="434.459" width="148.629" height="144.636" filterUnits="userSpaceOnUse" color-interpolation-filters="sRGB">
<feFlood flood-opacity="0" result="BackgroundImageFix"/>
<feColorMatrix in="SourceAlpha" type="matrix" values="0 0 0 0 0 0 0 0 0 0 0 0 0 0 0 0 0 0 127 0"/>
<feOffset dy="4"/>
<feGaussianBlur stdDeviation="2"/>
<feColorMatrix type="matrix" values="0 0 0 0 0 0 0 0 0 0 0 0 0 0 0 0 0 0 0.25 0"/>
<feBlend mode="normal" in2="BackgroundImageFix" result="effect1_dropShadow"/>
<feBlend mode="normal" in="SourceGraphic" in2="effect1_dropShadow" result="shape"/>
</filter>
<filter id="filter1_d" x="32.256" y="434.459" width="148.629" height="144.636" filterUnits="userSpaceOnUse" color-interpolation-filters="sRGB">
<feFlood flood-opacity="0" result="BackgroundImageFix"/>
<feColorMatrix in="SourceAlpha" type="matrix" values="0 0 0 0 0 0 0 0 0 0 0 0 0 0 0 0 0 0 127 0"/>
<feOffset dy="4"/>
<feGaussianBlur stdDeviation="2"/>
<feColorMatrix type="matrix" values="0 0 0 0 0 0 0 0 0 0 0 0 0 0 0 0 0 0 0.25 0"/>
<feBlend mode="normal" in2="BackgroundImageFix" result="effect1_dropShadow"/>
<feBlend mode="normal" in="SourceGraphic" in2="effect1_dropShadow" result="shape"/>
</filter>
<filter id="filter2_d" x="121" y="185" width="170" height="170" filterUnits="userSpaceOnUse" color-interpolation-filters="sRGB">
<feFlood flood-opacity="0" result="BackgroundImageFix"/>
<feColorMatrix in="SourceAlpha" type="matrix" values="0 0 0 0 0 0 0 0 0 0 0 0 0 0 0 0 0 0 127 0"/>
<feOffset dy="4"/>
<feGaussianBlur stdDeviation="2"/>
<feColorMatrix type="matrix" values="0 0 0 0 0 0 0 0 0 0 0 0 0 0 0 0 0 0 0.25 0"/>
<feBlend mode="normal" in2="BackgroundImageFix" result="effect1_dropShadow"/>
<feBlend mode="normal" in="SourceGraphic" in2="effect1_dropShadow" result="shape"/>
</filter>
<clipPath id="clip0">
<rect width="34.0587" height="33.0915" fill="white" transform="translate(350.475 653.289)"/>
</clipPath>
<clipPath id="clip1">
<rect width="37.2162" height="35.2653" fill="white" transform="translate(187.392 247.816)"/>
</clipPath>
</defs>
</svg>
