<svg width="170" height="170" viewBox="0 0 170 170" fill="none" xmlns="http://www.w3.org/2000/svg">
<g filter="url(#filter0_d)">
<circle cx="85" cy="81" r="81" fill="white"/>
</g>
<path fill-rule="evenodd" clip-rule="evenodd" d="M86.0945 18.7347C86.0945 18.4424 85.9792 18.1621 85.7739 17.9554C85.5686 17.7488 85.2902 17.6327 84.9999 17.6327C84.7096 17.6327 84.4312 17.7488 84.2259 17.9554C84.0206 18.1621 83.9053 18.4424 83.9053 18.7347V19.8367C83.9053 20.129 84.0206 20.4093 84.2259 20.616C84.4312 20.8227 84.7096 20.9388 84.9999 20.9388C85.2902 20.9388 85.5686 20.8227 85.7739 20.616C85.9792 20.4093 86.0945 20.129 86.0945 19.8367V18.7347ZM78.6589 20.7107C78.4525 20.5099 78.176 20.3988 77.889 20.4013C77.602 20.4039 77.3274 20.5198 77.1245 20.7241C76.9215 20.9284 76.8064 21.2048 76.8039 21.4938C76.8014 21.7827 76.9118 22.0611 77.1112 22.2689L78.2058 23.371C78.4122 23.5717 78.6887 23.6828 78.9757 23.6803C79.2627 23.6778 79.5372 23.5619 79.7402 23.3576C79.9431 23.1532 80.0582 22.8768 80.0607 22.5879C80.0632 22.2989 79.9529 22.0206 79.7535 21.8127L78.6589 20.7107ZM92.8886 22.2689C93.088 22.0611 93.1984 21.7827 93.1959 21.4938C93.1934 21.2048 93.0783 20.9284 92.8753 20.7241C92.6724 20.5198 92.3978 20.4039 92.1108 20.4013C91.8238 20.3988 91.5473 20.5099 91.3409 20.7107L90.2463 21.8127C90.0469 22.0206 89.9366 22.2989 89.9391 22.5879C89.9416 22.8768 90.0567 23.1532 90.2596 23.3576C90.4626 23.5619 90.7371 23.6778 91.0241 23.6803C91.3111 23.6828 91.5876 23.5717 91.7941 23.371L92.8886 22.2689ZM84.9999 22.0408C83.589 22.0407 82.2156 22.4981 81.083 23.3452C79.9504 24.1923 79.1189 25.3841 78.7116 26.7441C78.3042 28.1041 78.3428 29.56 78.8214 30.8963C79.3 32.2325 80.1934 33.3781 81.3691 34.1633H88.6307C89.8064 33.3781 90.6998 32.2325 91.1784 30.8963C91.657 29.56 91.6956 28.1041 91.2882 26.7441C90.8809 25.3841 90.0494 24.1923 88.9168 23.3452C87.7842 22.4981 86.4108 22.0407 84.9999 22.0408V22.0408ZM88.2837 35.2653H81.7161V36.3674C81.7161 37.2442 82.0621 38.0851 82.6779 38.7051C83.2937 39.3252 84.129 39.6735 84.9999 39.6735C85.8708 39.6735 86.7061 39.3252 87.3219 38.7051C87.9377 38.0851 88.2837 37.2442 88.2837 36.3674V35.2653ZM75.1485 27.551C74.8582 27.551 74.5798 27.6671 74.3746 27.8738C74.1693 28.0805 74.054 28.3608 74.054 28.6531C74.054 28.9454 74.1693 29.2257 74.3746 29.4323C74.5798 29.639 74.8582 29.7551 75.1485 29.7551H76.2431C76.5334 29.7551 76.8119 29.639 77.0171 29.4323C77.2224 29.2257 77.3377 28.9454 77.3377 28.6531C77.3377 28.3608 77.2224 28.0805 77.0171 27.8738C76.8119 27.6671 76.5334 27.551 76.2431 27.551H75.1485ZM93.7567 27.551C93.4664 27.551 93.1879 27.6671 92.9827 27.8738C92.7774 28.0805 92.6621 28.3608 92.6621 28.6531C92.6621 28.9454 92.7774 29.2257 92.9827 29.4323C93.1879 29.639 93.4664 29.7551 93.7567 29.7551H94.8513C95.1416 29.7551 95.42 29.639 95.6253 29.4323C95.8305 29.2257 95.9458 28.9454 95.9458 28.6531C95.9458 28.3608 95.8305 28.0805 95.6253 27.8738C95.42 27.6671 95.1416 27.551 94.8513 27.551H93.7567Z" fill="#E31313"/>
<path d="M42.7341 62.6918H46.2481V63.4898H41.7541V53.7038H42.7341V62.6918ZM48.1367 54.4038C47.9407 54.4038 47.7727 54.3338 47.6327 54.1938C47.4927 54.0538 47.4227 53.8811 47.4227 53.6758C47.4227 53.4705 47.4927 53.3025 47.6327 53.1718C47.7727 53.0318 47.9407 52.9618 48.1367 52.9618C48.3327 52.9618 48.5007 53.0318 48.6407 53.1718C48.7807 53.3025 48.8507 53.4705 48.8507 53.6758C48.8507 53.8811 48.7807 54.0538 48.6407 54.1938C48.5007 54.3338 48.3327 54.4038 48.1367 54.4038ZM48.6267 55.8458V63.4898H47.6467V55.8458H48.6267ZM54.0519 55.7338C54.7706 55.7338 55.3959 55.9018 55.9279 56.2378C56.4599 56.5738 56.8426 56.9985 57.0759 57.5118V55.8458H58.0559V63.6858C58.0559 64.3858 57.9019 65.0065 57.5939 65.5478C57.2952 66.0891 56.8752 66.5045 56.3339 66.7938C55.7926 67.0925 55.1766 67.2418 54.4859 67.2418C53.5059 67.2418 52.6892 67.0085 52.0359 66.5418C51.3919 66.0751 50.9906 65.4405 50.8319 64.6378H51.7979C51.9659 65.1698 52.2832 65.5945 52.7499 65.9118C53.2259 66.2291 53.8046 66.3878 54.4859 66.3878C54.9806 66.3878 55.4239 66.2805 55.8159 66.0658C56.2079 65.8605 56.5159 65.5525 56.7399 65.1418C56.9639 64.7311 57.0759 64.2458 57.0759 63.6858V61.7958C56.8332 62.3185 56.4459 62.7525 55.9139 63.0978C55.3912 63.4338 54.7706 63.6018 54.0519 63.6018C53.3519 63.6018 52.7219 63.4385 52.1619 63.1118C51.6112 62.7851 51.1772 62.3231 50.8599 61.7258C50.5519 61.1285 50.3979 60.4378 50.3979 59.6538C50.3979 58.8698 50.5519 58.1838 50.8599 57.5958C51.1772 56.9985 51.6112 56.5411 52.1619 56.2238C52.7219 55.8971 53.3519 55.7338 54.0519 55.7338ZM57.0759 59.6678C57.0759 59.0518 56.9499 58.5105 56.6979 58.0438C56.4459 57.5771 56.1006 57.2178 55.6619 56.9658C55.2326 56.7138 54.7566 56.5878 54.2339 56.5878C53.6926 56.5878 53.2072 56.7091 52.7779 56.9518C52.3486 57.1945 52.0079 57.5491 51.7559 58.0158C51.5132 58.4731 51.3919 59.0191 51.3919 59.6538C51.3919 60.2791 51.5132 60.8298 51.7559 61.3058C52.0079 61.7725 52.3486 62.1318 52.7779 62.3838C53.2072 62.6265 53.6926 62.7478 54.2339 62.7478C54.7566 62.7478 55.2326 62.6218 55.6619 62.3698C56.1006 62.1178 56.4459 61.7585 56.6979 61.2918C56.9499 60.8251 57.0759 60.2838 57.0759 59.6678ZM63.9332 55.7058C64.5118 55.7058 65.0298 55.8271 65.4872 56.0698C65.9538 56.3125 66.3178 56.6858 66.5792 57.1898C66.8498 57.6845 66.9852 58.2911 66.9852 59.0098V63.4898H66.0192V59.1218C66.0192 58.2911 65.8092 57.6565 65.3892 57.2178C64.9785 56.7791 64.4138 56.5598 63.6952 56.5598C62.9578 56.5598 62.3698 56.7931 61.9312 57.2598C61.4925 57.7265 61.2732 58.4125 61.2732 59.3178V63.4898H60.2932V53.1298H61.2732V57.1478C61.5158 56.6905 61.8705 56.3358 62.3372 56.0838C62.8132 55.8318 63.3452 55.7058 63.9332 55.7058ZM70.4266 56.6718V61.4178C70.4266 61.8845 70.5152 62.2065 70.6926 62.3838C70.8699 62.5611 71.1826 62.6498 71.6306 62.6498H72.5266V63.4898H71.4766C70.7859 63.4898 70.2726 63.3311 69.9366 63.0138C69.6006 62.6871 69.4326 62.1551 69.4326 61.4178V56.6718H68.3686V55.8458H69.4326V53.9278H70.4266V55.8458H72.5266V56.6718H70.4266ZM74.2688 53.7038H75.4028L74.1708 56.7278H73.4568L74.2688 53.7038ZM79.5365 63.6018C78.6592 63.6018 77.9405 63.4011 77.3805 62.9998C76.8298 62.5891 76.5218 62.0338 76.4565 61.3338H77.4645C77.5112 61.7631 77.7118 62.1131 78.0665 62.3838C78.4305 62.6451 78.9158 62.7758 79.5225 62.7758C80.0545 62.7758 80.4698 62.6498 80.7685 62.3978C81.0765 62.1458 81.2305 61.8331 81.2305 61.4598C81.2305 61.1985 81.1465 60.9838 80.9785 60.8158C80.8105 60.6478 80.5958 60.5171 80.3345 60.4238C80.0825 60.3211 79.7372 60.2138 79.2985 60.1018C78.7292 59.9525 78.2672 59.8031 77.9125 59.6538C77.5578 59.5045 77.2545 59.2851 77.0025 58.9958C76.7598 58.6971 76.6385 58.3005 76.6385 57.8058C76.6385 57.4325 76.7505 57.0871 76.9745 56.7698C77.1985 56.4525 77.5158 56.2005 77.9265 56.0138C78.3372 55.8271 78.8038 55.7338 79.3265 55.7338C80.1478 55.7338 80.8105 55.9438 81.3145 56.3638C81.8185 56.7745 82.0892 57.3438 82.1265 58.0718H81.1465C81.1185 57.6238 80.9412 57.2645 80.6145 56.9938C80.2972 56.7138 79.8585 56.5738 79.2985 56.5738C78.8038 56.5738 78.4025 56.6905 78.0945 56.9238C77.7865 57.1571 77.6325 57.4465 77.6325 57.7918C77.6325 58.0905 77.7212 58.3378 77.8985 58.5338C78.0852 58.7205 78.3138 58.8698 78.5845 58.9818C78.8552 59.0845 79.2192 59.2011 79.6765 59.3318C80.2272 59.4811 80.6658 59.6258 80.9925 59.7658C81.3192 59.9058 81.5992 60.1111 81.8325 60.3818C82.0658 60.6525 82.1872 61.0118 82.1965 61.4598C82.1965 61.8705 82.0845 62.2391 81.8605 62.5658C81.6365 62.8831 81.3238 63.1351 80.9225 63.3218C80.5212 63.5085 80.0592 63.6018 79.5365 63.6018ZM95.149 53.7038V63.4898H94.169V58.9118H88.863V63.4898H87.883V53.7038H88.863V58.0998H94.169V53.7038H95.149ZM104.301 59.2758C104.301 59.6118 104.292 59.8685 104.273 60.0458H97.931C97.959 60.6245 98.099 61.1191 98.351 61.5298C98.603 61.9405 98.9343 62.2531 99.345 62.4678C99.7556 62.6731 100.204 62.7758 100.689 62.7758C101.324 62.7758 101.856 62.6218 102.285 62.3138C102.724 62.0058 103.013 61.5905 103.153 61.0678H104.189C104.002 61.8145 103.601 62.4258 102.985 62.9018C102.378 63.3685 101.613 63.6018 100.689 63.6018C99.9703 63.6018 99.3263 63.4431 98.757 63.1258C98.1876 62.7991 97.7396 62.3418 97.413 61.7538C97.0956 61.1565 96.937 60.4611 96.937 59.6678C96.937 58.8745 97.0956 58.1791 97.413 57.5818C97.7303 56.9845 98.1736 56.5271 98.743 56.2098C99.3123 55.8925 99.961 55.7338 100.689 55.7338C101.417 55.7338 102.052 55.8925 102.593 56.2098C103.144 56.5271 103.564 56.9565 103.853 57.4978C104.152 58.0298 104.301 58.6225 104.301 59.2758ZM103.307 59.2478C103.316 58.6785 103.2 58.1931 102.957 57.7918C102.724 57.3905 102.402 57.0871 101.991 56.8818C101.58 56.6765 101.132 56.5738 100.647 56.5738C99.919 56.5738 99.2983 56.8071 98.785 57.2738C98.2716 57.7405 97.987 58.3985 97.931 59.2478H103.307ZM105.646 59.6538C105.646 58.8698 105.8 58.1838 106.108 57.5958C106.425 56.9985 106.859 56.5411 107.41 56.2238C107.97 55.8971 108.6 55.7338 109.3 55.7338C110.028 55.7338 110.653 55.9018 111.176 56.2378C111.708 56.5738 112.091 57.0031 112.324 57.5258V55.8458H113.304V63.4898H112.324V61.7958C112.081 62.3185 111.694 62.7525 111.162 63.0978C110.639 63.4338 110.014 63.6018 109.286 63.6018C108.595 63.6018 107.97 63.4385 107.41 63.1118C106.859 62.7851 106.425 62.3231 106.108 61.7258C105.8 61.1285 105.646 60.4378 105.646 59.6538ZM112.324 59.6678C112.324 59.0518 112.198 58.5105 111.946 58.0438C111.694 57.5771 111.349 57.2178 110.91 56.9658C110.481 56.7138 110.005 56.5878 109.482 56.5878C108.941 56.5878 108.455 56.7091 108.026 56.9518C107.597 57.1945 107.256 57.5491 107.004 58.0158C106.761 58.4731 106.64 59.0191 106.64 59.6538C106.64 60.2791 106.761 60.8298 107.004 61.3058C107.256 61.7725 107.597 62.1318 108.026 62.3838C108.455 62.6265 108.941 62.7478 109.482 62.7478C110.005 62.7478 110.481 62.6218 110.91 62.3698C111.349 62.1178 111.694 61.7585 111.946 61.2918C112.198 60.8251 112.324 60.2838 112.324 59.6678ZM116.815 56.6718V61.4178C116.815 61.8845 116.904 62.2065 117.081 62.3838C117.259 62.5611 117.571 62.6498 118.019 62.6498H118.915V63.4898H117.865C117.175 63.4898 116.661 63.3311 116.325 63.0138C115.989 62.6871 115.821 62.1551 115.821 61.4178V56.6718H114.757V55.8458H115.821V53.9278H116.815V55.8458H118.915V56.6718H116.815ZM124.171 55.7058C124.75 55.7058 125.268 55.8271 125.725 56.0698C126.192 56.3125 126.556 56.6858 126.817 57.1898C127.088 57.6845 127.223 58.2911 127.223 59.0098V63.4898H126.257V59.1218C126.257 58.2911 126.047 57.6565 125.627 57.2178C125.217 56.7791 124.652 56.5598 123.933 56.5598C123.196 56.5598 122.608 56.7931 122.169 57.2598C121.731 57.7265 121.511 58.4125 121.511 59.3178V63.4898H120.531V53.1298H121.511V57.1478C121.754 56.6905 122.109 56.3358 122.575 56.0838C123.051 55.8318 123.583 55.7058 124.171 55.7058Z" fill="black"/>
<path d="M77.0123 102.517C77.563 102.62 78.0297 102.9 78.4123 103.357C78.795 103.815 78.9863 104.347 78.9863 104.953C78.9863 105.448 78.8603 105.896 78.6083 106.297C78.3657 106.689 78.0063 107.002 77.5303 107.235C77.0543 107.459 76.485 107.571 75.8223 107.571H72.4343V97.7854H75.7243C76.7137 97.7854 77.465 98.0141 77.9783 98.4714C78.501 98.9288 78.7623 99.5214 78.7623 100.249C78.7623 100.856 78.599 101.351 78.2723 101.733C77.9457 102.107 77.5257 102.368 77.0123 102.517ZM73.4143 102.111H75.6963C76.359 102.111 76.8677 101.957 77.2223 101.649C77.5863 101.332 77.7683 100.898 77.7683 100.347C77.7683 99.8061 77.5863 99.3814 77.2223 99.0734C76.8677 98.7654 76.345 98.6114 75.6543 98.6114H73.4143V102.111ZM75.7523 106.745C76.4617 106.745 77.0123 106.577 77.4043 106.241C77.8057 105.905 78.0063 105.443 78.0063 104.855C78.0063 104.267 77.7963 103.801 77.3763 103.455C76.9657 103.101 76.4103 102.923 75.7103 102.923H73.4143V106.745H75.7523ZM86.4579 105.247H82.0059L81.1519 107.571H80.1159L83.6859 97.9114H84.7919L88.3479 107.571H87.3119L86.4579 105.247ZM86.1639 104.435L84.2319 99.1434L82.2999 104.435H86.1639ZM92.8187 97.7854C93.9013 97.7854 94.83 97.9814 95.6047 98.3734C96.3793 98.7654 96.972 99.3301 97.3827 100.067C97.7933 100.805 97.9987 101.682 97.9987 102.699C97.9987 103.707 97.7933 104.58 97.3827 105.317C96.972 106.045 96.3793 106.605 95.6047 106.997C94.83 107.38 93.9013 107.571 92.8187 107.571H89.9207V97.7854H92.8187ZM92.8187 106.759C94.1813 106.759 95.2173 106.405 95.9267 105.695C96.6453 104.977 97.0047 103.978 97.0047 102.699C97.0047 101.411 96.6453 100.408 95.9267 99.6894C95.2173 98.9614 94.1813 98.5974 92.8187 98.5974H90.9007V106.759H92.8187Z" fill="#E31313"/>
<defs>
<filter id="filter0_d" x="0" y="0" width="170" height="170" filterUnits="userSpaceOnUse" color-interpolation-filters="sRGB">
<feFlood flood-opacity="0" result="BackgroundImageFix"/>
<feColorMatrix in="SourceAlpha" type="matrix" values="0 0 0 0 0 0 0 0 0 0 0 0 0 0 0 0 0 0 127 0"/>
<feOffset dy="4"/>
<feGaussianBlur stdDeviation="2"/>
<feColorMatrix type="matrix" values="0 0 0 0 0 0 0 0 0 0 0 0 0 0 0 0 0 0 0.25 0"/>
<feBlend mode="normal" in2="BackgroundImageFix" result="effect1_dropShadow"/>
<feBlend mode="normal" in="SourceGraphic" in2="effect1_dropShadow" result="shape"/>
</filter>
</defs>
</svg>
