<svg width="170" height="170" viewBox="0 0 170 170" fill="none" xmlns="http://www.w3.org/2000/svg">
<g filter="url(#filter0_d)">
<circle cx="85" cy="81" r="81" fill="white"/>
</g>
<path fill-rule="evenodd" clip-rule="evenodd" d="M86.0945 18.7347C86.0945 18.4424 85.9792 18.1621 85.7739 17.9555C85.5686 17.7488 85.2902 17.6327 84.9999 17.6327C84.7096 17.6327 84.4312 17.7488 84.2259 17.9555C84.0206 18.1621 83.9053 18.4424 83.9053 18.7347V19.8368C83.9053 20.129 84.0206 20.4093 84.2259 20.616C84.4312 20.8227 84.7096 20.9388 84.9999 20.9388C85.2902 20.9388 85.5686 20.8227 85.7739 20.616C85.9792 20.4093 86.0945 20.129 86.0945 19.8368V18.7347ZM78.6589 20.7107C78.4525 20.5099 78.176 20.3988 77.889 20.4014C77.602 20.4039 77.3274 20.5198 77.1245 20.7241C76.9215 20.9284 76.8064 21.2048 76.8039 21.4938C76.8014 21.7827 76.9118 22.0611 77.1112 22.269L78.2058 23.371C78.4122 23.5717 78.6887 23.6828 78.9757 23.6803C79.2627 23.6778 79.5372 23.5619 79.7402 23.3576C79.9431 23.1533 80.0582 22.8768 80.0607 22.5879C80.0632 22.2989 79.9529 22.0206 79.7535 21.8127L78.6589 20.7107ZM92.8886 22.269C93.088 22.0611 93.1984 21.7827 93.1959 21.4938C93.1934 21.2048 93.0783 20.9284 92.8753 20.7241C92.6724 20.5198 92.3978 20.4039 92.1108 20.4014C91.8238 20.3988 91.5473 20.5099 91.3409 20.7107L90.2463 21.8127C90.0469 22.0206 89.9366 22.2989 89.9391 22.5879C89.9416 22.8768 90.0567 23.1533 90.2596 23.3576C90.4626 23.5619 90.7371 23.6778 91.0241 23.6803C91.3111 23.6828 91.5876 23.5717 91.7941 23.371L92.8886 22.269ZM84.9999 22.0408C83.589 22.0407 82.2156 22.4981 81.083 23.3452C79.9504 24.1923 79.1189 25.3841 78.7116 26.7441C78.3042 28.1041 78.3428 29.56 78.8214 30.8963C79.3 32.2325 80.1934 33.3781 81.3691 34.1633H88.6307C89.8064 33.3781 90.6998 32.2325 91.1784 30.8963C91.657 29.56 91.6956 28.1041 91.2882 26.7441C90.8809 25.3841 90.0494 24.1923 88.9168 23.3452C87.7842 22.4981 86.4108 22.0407 84.9999 22.0408V22.0408ZM88.2837 35.2653H81.7161V36.3674C81.7161 37.2442 82.0621 38.0851 82.6779 38.7052C83.2937 39.3252 84.129 39.6735 84.9999 39.6735C85.8708 39.6735 86.7061 39.3252 87.3219 38.7052C87.9377 38.0851 88.2837 37.2442 88.2837 36.3674V35.2653ZM75.1485 27.551C74.8582 27.551 74.5798 27.6672 74.3746 27.8738C74.1693 28.0805 74.054 28.3608 74.054 28.6531C74.054 28.9454 74.1693 29.2257 74.3746 29.4323C74.5798 29.639 74.8582 29.7551 75.1485 29.7551H76.2431C76.5334 29.7551 76.8119 29.639 77.0171 29.4323C77.2224 29.2257 77.3377 28.9454 77.3377 28.6531C77.3377 28.3608 77.2224 28.0805 77.0171 27.8738C76.8119 27.6672 76.5334 27.551 76.2431 27.551H75.1485ZM93.7567 27.551C93.4664 27.551 93.1879 27.6672 92.9827 27.8738C92.7774 28.0805 92.6621 28.3608 92.6621 28.6531C92.6621 28.9454 92.7774 29.2257 92.9827 29.4323C93.1879 29.639 93.4664 29.7551 93.7567 29.7551H94.8513C95.1416 29.7551 95.42 29.639 95.6253 29.4323C95.8305 29.2257 95.9458 28.9454 95.9458 28.6531C95.9458 28.3608 95.8305 28.0805 95.6253 27.8738C95.42 27.6672 95.1416 27.551 94.8513 27.551H93.7567Z" fill="#22B754"/>
<path d="M42.7341 62.6918H46.2481V63.4898H41.7541V53.7038H42.7341V62.6918ZM48.1367 54.4038C47.9407 54.4038 47.7727 54.3338 47.6327 54.1938C47.4927 54.0538 47.4227 53.8811 47.4227 53.6758C47.4227 53.4705 47.4927 53.3025 47.6327 53.1718C47.7727 53.0318 47.9407 52.9618 48.1367 52.9618C48.3327 52.9618 48.5007 53.0318 48.6407 53.1718C48.7807 53.3025 48.8507 53.4705 48.8507 53.6758C48.8507 53.8811 48.7807 54.0538 48.6407 54.1938C48.5007 54.3338 48.3327 54.4038 48.1367 54.4038ZM48.6267 55.8458V63.4898H47.6467V55.8458H48.6267ZM54.0519 55.7338C54.7706 55.7338 55.3959 55.9018 55.9279 56.2378C56.4599 56.5738 56.8426 56.9985 57.0759 57.5118V55.8458H58.0559V63.6858C58.0559 64.3858 57.9019 65.0065 57.5939 65.5478C57.2952 66.0891 56.8752 66.5045 56.3339 66.7938C55.7926 67.0925 55.1766 67.2418 54.4859 67.2418C53.5059 67.2418 52.6892 67.0085 52.0359 66.5418C51.3919 66.0751 50.9906 65.4405 50.8319 64.6378H51.7979C51.9659 65.1698 52.2832 65.5945 52.7499 65.9118C53.2259 66.2291 53.8046 66.3878 54.4859 66.3878C54.9806 66.3878 55.4239 66.2805 55.8159 66.0658C56.2079 65.8605 56.5159 65.5525 56.7399 65.1418C56.9639 64.7311 57.0759 64.2458 57.0759 63.6858V61.7958C56.8332 62.3185 56.4459 62.7525 55.9139 63.0978C55.3912 63.4338 54.7706 63.6018 54.0519 63.6018C53.3519 63.6018 52.7219 63.4385 52.1619 63.1118C51.6112 62.7851 51.1772 62.3231 50.8599 61.7258C50.5519 61.1285 50.3979 60.4378 50.3979 59.6538C50.3979 58.8698 50.5519 58.1838 50.8599 57.5958C51.1772 56.9985 51.6112 56.5411 52.1619 56.2238C52.7219 55.8971 53.3519 55.7338 54.0519 55.7338ZM57.0759 59.6678C57.0759 59.0518 56.9499 58.5105 56.6979 58.0438C56.4459 57.5771 56.1006 57.2178 55.6619 56.9658C55.2326 56.7138 54.7566 56.5878 54.2339 56.5878C53.6926 56.5878 53.2072 56.7091 52.7779 56.9518C52.3486 57.1945 52.0079 57.5491 51.7559 58.0158C51.5132 58.4731 51.3919 59.0191 51.3919 59.6538C51.3919 60.2791 51.5132 60.8298 51.7559 61.3058C52.0079 61.7725 52.3486 62.1318 52.7779 62.3838C53.2072 62.6265 53.6926 62.7478 54.2339 62.7478C54.7566 62.7478 55.2326 62.6218 55.6619 62.3698C56.1006 62.1178 56.4459 61.7585 56.6979 61.2918C56.9499 60.8251 57.0759 60.2838 57.0759 59.6678ZM63.9332 55.7058C64.5118 55.7058 65.0298 55.8271 65.4872 56.0698C65.9538 56.3125 66.3178 56.6858 66.5792 57.1898C66.8498 57.6845 66.9852 58.2911 66.9852 59.0098V63.4898H66.0192V59.1218C66.0192 58.2911 65.8092 57.6565 65.3892 57.2178C64.9785 56.7791 64.4138 56.5598 63.6952 56.5598C62.9578 56.5598 62.3698 56.7931 61.9312 57.2598C61.4925 57.7265 61.2732 58.4125 61.2732 59.3178V63.4898H60.2932V53.1298H61.2732V57.1478C61.5158 56.6905 61.8705 56.3358 62.3372 56.0838C62.8132 55.8318 63.3452 55.7058 63.9332 55.7058ZM70.4266 56.6718V61.4178C70.4266 61.8845 70.5152 62.2065 70.6926 62.3838C70.8699 62.5611 71.1826 62.6498 71.6306 62.6498H72.5266V63.4898H71.4766C70.7859 63.4898 70.2726 63.3311 69.9366 63.0138C69.6006 62.6871 69.4326 62.1551 69.4326 61.4178V56.6718H68.3686V55.8458H69.4326V53.9278H70.4266V55.8458H72.5266V56.6718H70.4266ZM74.2688 53.7038H75.4028L74.1708 56.7278H73.4568L74.2688 53.7038ZM79.5365 63.6018C78.6592 63.6018 77.9405 63.4011 77.3805 62.9998C76.8298 62.5891 76.5218 62.0338 76.4565 61.3338H77.4645C77.5112 61.7631 77.7118 62.1131 78.0665 62.3838C78.4305 62.6451 78.9158 62.7758 79.5225 62.7758C80.0545 62.7758 80.4698 62.6498 80.7685 62.3978C81.0765 62.1458 81.2305 61.8331 81.2305 61.4598C81.2305 61.1985 81.1465 60.9838 80.9785 60.8158C80.8105 60.6478 80.5958 60.5171 80.3345 60.4238C80.0825 60.3211 79.7372 60.2138 79.2985 60.1018C78.7292 59.9525 78.2672 59.8031 77.9125 59.6538C77.5578 59.5045 77.2545 59.2851 77.0025 58.9958C76.7598 58.6971 76.6385 58.3005 76.6385 57.8058C76.6385 57.4325 76.7505 57.0871 76.9745 56.7698C77.1985 56.4525 77.5158 56.2005 77.9265 56.0138C78.3372 55.8271 78.8038 55.7338 79.3265 55.7338C80.1478 55.7338 80.8105 55.9438 81.3145 56.3638C81.8185 56.7745 82.0892 57.3438 82.1265 58.0718H81.1465C81.1185 57.6238 80.9412 57.2645 80.6145 56.9938C80.2972 56.7138 79.8585 56.5738 79.2985 56.5738C78.8038 56.5738 78.4025 56.6905 78.0945 56.9238C77.7865 57.1571 77.6325 57.4465 77.6325 57.7918C77.6325 58.0905 77.7212 58.3378 77.8985 58.5338C78.0852 58.7205 78.3138 58.8698 78.5845 58.9818C78.8552 59.0845 79.2192 59.2011 79.6765 59.3318C80.2272 59.4811 80.6658 59.6258 80.9925 59.7658C81.3192 59.9058 81.5992 60.1111 81.8325 60.3818C82.0658 60.6525 82.1872 61.0118 82.1965 61.4598C82.1965 61.8705 82.0845 62.2391 81.8605 62.5658C81.6365 62.8831 81.3238 63.1351 80.9225 63.3218C80.5212 63.5085 80.0592 63.6018 79.5365 63.6018ZM95.149 53.7038V63.4898H94.169V58.9118H88.863V63.4898H87.883V53.7038H88.863V58.0998H94.169V53.7038H95.149ZM104.301 59.2758C104.301 59.6118 104.292 59.8685 104.273 60.0458H97.931C97.959 60.6245 98.099 61.1191 98.351 61.5298C98.603 61.9405 98.9343 62.2531 99.345 62.4678C99.7556 62.6731 100.204 62.7758 100.689 62.7758C101.324 62.7758 101.856 62.6218 102.285 62.3138C102.724 62.0058 103.013 61.5905 103.153 61.0678H104.189C104.002 61.8145 103.601 62.4258 102.985 62.9018C102.378 63.3685 101.613 63.6018 100.689 63.6018C99.9703 63.6018 99.3263 63.4431 98.757 63.1258C98.1876 62.7991 97.7396 62.3418 97.413 61.7538C97.0956 61.1565 96.937 60.4611 96.937 59.6678C96.937 58.8745 97.0956 58.1791 97.413 57.5818C97.7303 56.9845 98.1736 56.5271 98.743 56.2098C99.3123 55.8925 99.961 55.7338 100.689 55.7338C101.417 55.7338 102.052 55.8925 102.593 56.2098C103.144 56.5271 103.564 56.9565 103.853 57.4978C104.152 58.0298 104.301 58.6225 104.301 59.2758ZM103.307 59.2478C103.316 58.6785 103.2 58.1931 102.957 57.7918C102.724 57.3905 102.402 57.0871 101.991 56.8818C101.58 56.6765 101.132 56.5738 100.647 56.5738C99.919 56.5738 99.2983 56.8071 98.785 57.2738C98.2716 57.7405 97.987 58.3985 97.931 59.2478H103.307ZM105.646 59.6538C105.646 58.8698 105.8 58.1838 106.108 57.5958C106.425 56.9985 106.859 56.5411 107.41 56.2238C107.97 55.8971 108.6 55.7338 109.3 55.7338C110.028 55.7338 110.653 55.9018 111.176 56.2378C111.708 56.5738 112.091 57.0031 112.324 57.5258V55.8458H113.304V63.4898H112.324V61.7958C112.081 62.3185 111.694 62.7525 111.162 63.0978C110.639 63.4338 110.014 63.6018 109.286 63.6018C108.595 63.6018 107.97 63.4385 107.41 63.1118C106.859 62.7851 106.425 62.3231 106.108 61.7258C105.8 61.1285 105.646 60.4378 105.646 59.6538ZM112.324 59.6678C112.324 59.0518 112.198 58.5105 111.946 58.0438C111.694 57.5771 111.349 57.2178 110.91 56.9658C110.481 56.7138 110.005 56.5878 109.482 56.5878C108.941 56.5878 108.455 56.7091 108.026 56.9518C107.597 57.1945 107.256 57.5491 107.004 58.0158C106.761 58.4731 106.64 59.0191 106.64 59.6538C106.64 60.2791 106.761 60.8298 107.004 61.3058C107.256 61.7725 107.597 62.1318 108.026 62.3838C108.455 62.6265 108.941 62.7478 109.482 62.7478C110.005 62.7478 110.481 62.6218 110.91 62.3698C111.349 62.1178 111.694 61.7585 111.946 61.2918C112.198 60.8251 112.324 60.2838 112.324 59.6678ZM116.815 56.6718V61.4178C116.815 61.8845 116.904 62.2065 117.081 62.3838C117.259 62.5611 117.571 62.6498 118.019 62.6498H118.915V63.4898H117.865C117.175 63.4898 116.661 63.3311 116.325 63.0138C115.989 62.6871 115.821 62.1551 115.821 61.4178V56.6718H114.757V55.8458H115.821V53.9278H116.815V55.8458H118.915V56.6718H116.815ZM124.171 55.7058C124.75 55.7058 125.268 55.8271 125.725 56.0698C126.192 56.3125 126.556 56.6858 126.817 57.1898C127.088 57.6845 127.223 58.2911 127.223 59.0098V63.4898H126.257V59.1218C126.257 58.2911 126.047 57.6565 125.627 57.2178C125.217 56.7791 124.652 56.5598 123.933 56.5598C123.196 56.5598 122.608 56.7931 122.169 57.2598C121.731 57.7265 121.511 58.4125 121.511 59.3178V63.4898H120.531V53.1298H121.511V57.1478C121.754 56.6905 122.109 56.3358 122.575 56.0838C123.051 55.8318 123.583 55.7058 124.171 55.7058Z" fill="black"/>
<path d="M72.3687 100.641C72.0887 99.9974 71.6594 99.4934 71.0807 99.1294C70.5114 98.7561 69.8394 98.5694 69.0647 98.5694C68.3367 98.5694 67.6834 98.7374 67.1047 99.0734C66.5261 99.4094 66.0687 99.8901 65.7327 100.515C65.3967 101.131 65.2287 101.85 65.2287 102.671C65.2287 103.493 65.3967 104.216 65.7327 104.841C66.0687 105.467 66.5261 105.947 67.1047 106.283C67.6834 106.619 68.3367 106.787 69.0647 106.787C69.7461 106.787 70.3574 106.643 70.8987 106.353C71.4494 106.055 71.8881 105.635 72.2147 105.093C72.5507 104.543 72.7421 103.903 72.7887 103.175H68.6727V102.377H73.8247V103.091C73.7781 103.95 73.5447 104.729 73.1247 105.429C72.7047 106.12 72.1401 106.666 71.4307 107.067C70.7307 107.469 69.9421 107.669 69.0647 107.669C68.1594 107.669 67.3381 107.459 66.6007 107.039C65.8634 106.61 65.2801 106.017 64.8507 105.261C64.4307 104.496 64.2207 103.633 64.2207 102.671C64.2207 101.71 64.4307 100.851 64.8507 100.095C65.2801 99.3301 65.8634 98.7374 66.6007 98.3174C67.3381 97.8881 68.1594 97.6734 69.0647 97.6734C70.1101 97.6734 71.0247 97.9348 71.8087 98.4574C72.5927 98.9801 73.1621 99.7081 73.5167 100.641H72.3687ZM80.0159 107.669C79.1106 107.669 78.2892 107.459 77.5519 107.039C76.8146 106.61 76.2312 106.017 75.8019 105.261C75.3819 104.496 75.1719 103.633 75.1719 102.671C75.1719 101.71 75.3819 100.851 75.8019 100.095C76.2312 99.3301 76.8146 98.7374 77.5519 98.3174C78.2892 97.8881 79.1106 97.6734 80.0159 97.6734C80.9306 97.6734 81.7566 97.8881 82.4939 98.3174C83.2312 98.7374 83.8099 99.3301 84.2299 100.095C84.6499 100.851 84.8599 101.71 84.8599 102.671C84.8599 103.633 84.6499 104.496 84.2299 105.261C83.8099 106.017 83.2312 106.61 82.4939 107.039C81.7566 107.459 80.9306 107.669 80.0159 107.669ZM80.0159 106.815C80.7439 106.815 81.3972 106.647 81.9759 106.311C82.5546 105.975 83.0119 105.495 83.3479 104.869C83.6839 104.235 83.8519 103.502 83.8519 102.671C83.8519 101.841 83.6839 101.113 83.3479 100.487C83.0119 99.8621 82.5546 99.3814 81.9759 99.0454C81.3972 98.7094 80.7439 98.5414 80.0159 98.5414C79.2879 98.5414 78.6346 98.7094 78.0559 99.0454C77.4772 99.3814 77.0199 99.8621 76.6839 100.487C76.3479 101.113 76.1799 101.841 76.1799 102.671C76.1799 103.502 76.3479 104.235 76.6839 104.869C77.0199 105.495 77.4772 105.975 78.0559 106.311C78.6346 106.647 79.2879 106.815 80.0159 106.815ZM91.0491 107.669C90.1438 107.669 89.3224 107.459 88.5851 107.039C87.8478 106.61 87.2644 106.017 86.8351 105.261C86.4151 104.496 86.2051 103.633 86.2051 102.671C86.2051 101.71 86.4151 100.851 86.8351 100.095C87.2644 99.3301 87.8478 98.7374 88.5851 98.3174C89.3224 97.8881 90.1438 97.6734 91.0491 97.6734C91.9638 97.6734 92.7898 97.8881 93.5271 98.3174C94.2644 98.7374 94.8431 99.3301 95.2631 100.095C95.6831 100.851 95.8931 101.71 95.8931 102.671C95.8931 103.633 95.6831 104.496 95.2631 105.261C94.8431 106.017 94.2644 106.61 93.5271 107.039C92.7898 107.459 91.9638 107.669 91.0491 107.669ZM91.0491 106.815C91.7771 106.815 92.4304 106.647 93.0091 106.311C93.5878 105.975 94.0451 105.495 94.3811 104.869C94.7171 104.235 94.8851 103.502 94.8851 102.671C94.8851 101.841 94.7171 101.113 94.3811 100.487C94.0451 99.8621 93.5878 99.3814 93.0091 99.0454C92.4304 98.7094 91.7771 98.5414 91.0491 98.5414C90.3211 98.5414 89.6678 98.7094 89.0891 99.0454C88.5104 99.3814 88.0531 99.8621 87.7171 100.487C87.3811 101.113 87.2131 101.841 87.2131 102.671C87.2131 103.502 87.3811 104.235 87.7171 104.869C88.0531 105.495 88.5104 105.975 89.0891 106.311C89.6678 106.647 90.3211 106.815 91.0491 106.815ZM100.584 97.7854C101.667 97.7854 102.596 97.9814 103.37 98.3734C104.145 98.7654 104.738 99.3301 105.148 100.067C105.559 100.805 105.764 101.682 105.764 102.699C105.764 103.707 105.559 104.58 105.148 105.317C104.738 106.045 104.145 106.605 103.37 106.997C102.596 107.38 101.667 107.571 100.584 107.571H97.6863V97.7854H100.584ZM100.584 106.759C101.947 106.759 102.983 106.405 103.692 105.695C104.411 104.977 104.77 103.978 104.77 102.699C104.77 101.411 104.411 100.408 103.692 99.6894C102.983 98.9614 101.947 98.5974 100.584 98.5974H98.6663V106.759H100.584Z" fill="#22B754"/>
<defs>
<filter id="filter0_d" x="0" y="0" width="170" height="170" filterUnits="userSpaceOnUse" color-interpolation-filters="sRGB">
<feFlood flood-opacity="0" result="BackgroundImageFix"/>
<feColorMatrix in="SourceAlpha" type="matrix" values="0 0 0 0 0 0 0 0 0 0 0 0 0 0 0 0 0 0 127 0"/>
<feOffset dy="4"/>
<feGaussianBlur stdDeviation="2"/>
<feColorMatrix type="matrix" values="0 0 0 0 0 0 0 0 0 0 0 0 0 0 0 0 0 0 0.25 0"/>
<feBlend mode="normal" in2="BackgroundImageFix" result="effect1_dropShadow"/>
<feBlend mode="normal" in="SourceGraphic" in2="effect1_dropShadow" result="shape"/>
</filter>
</defs>
</svg>
