<svg width="412" height="712" viewBox="0 0 412 712" fill="none" xmlns="http://www.w3.org/2000/svg">
<g clip-path="url(#clip0)">
<rect width="412" height="712" fill="white"/>
<g style="mix-blend-mode:color-dodge">
<path d="M0 0H412V130.12C412 146.689 398.569 160.12 382 160.12H30C13.4315 160.12 0 146.688 0 130.12V0Z" fill="white"/>
</g>
<path d="M44.568 80.9792H50.088V83.6432H41.208V66.8912H44.568V80.9792ZM53.9276 68.7632C53.3356 68.7632 52.8396 68.5792 52.4396 68.2112C52.0556 67.8272 51.8636 67.3552 51.8636 66.7952C51.8636 66.2352 52.0556 65.7712 52.4396 65.4032C52.8396 65.0192 53.3356 64.8272 53.9276 64.8272C54.5196 64.8272 55.0076 65.0192 55.3916 65.4032C55.7916 65.7712 55.9916 66.2352 55.9916 66.7952C55.9916 67.3552 55.7916 67.8272 55.3916 68.2112C55.0076 68.5792 54.5196 68.7632 53.9276 68.7632ZM55.5836 70.3472V83.6432H52.2236V70.3472H55.5836ZM64.4473 80.5472L67.8073 70.3472H71.3833L66.4633 83.6432H62.3833L57.4873 70.3472H61.0873L64.4473 80.5472ZM74.9745 68.7632C74.3825 68.7632 73.8865 68.5792 73.4865 68.2112C73.1025 67.8272 72.9105 67.3552 72.9105 66.7952C72.9105 66.2352 73.1025 65.7712 73.4865 65.4032C73.8865 65.0192 74.3825 64.8272 74.9745 64.8272C75.5665 64.8272 76.0545 65.0192 76.4385 65.4032C76.8385 65.7712 77.0385 66.2352 77.0385 66.7952C77.0385 67.3552 76.8385 67.8272 76.4385 68.2112C76.0545 68.5792 75.5665 68.7632 74.9745 68.7632ZM76.6305 70.3472V83.6432H73.2705V70.3472H76.6305ZM87.3182 70.1552C88.9022 70.1552 90.1822 70.6592 91.1582 71.6672C92.1342 72.6592 92.6222 74.0512 92.6222 75.8432V83.6432H89.2622V76.2992C89.2622 75.2432 88.9982 74.4352 88.4702 73.8752C87.9422 73.2992 87.2222 73.0112 86.3102 73.0112C85.3822 73.0112 84.6462 73.2992 84.1022 73.8752C83.5742 74.4352 83.3102 75.2432 83.3102 76.2992V83.6432H79.9502V70.3472H83.3102V72.0032C83.7582 71.4272 84.3262 70.9792 85.0142 70.6592C85.7182 70.3232 86.4862 70.1552 87.3182 70.1552ZM101.025 70.1312C102.017 70.1312 102.889 70.3312 103.641 70.7312C104.393 71.1152 104.985 71.6192 105.417 72.2432V70.3472H108.801V83.7392C108.801 84.9712 108.553 86.0672 108.057 87.0272C107.561 88.0032 106.817 88.7712 105.825 89.3312C104.833 89.9072 103.633 90.1952 102.225 90.1952C100.337 90.1952 98.7854 89.7552 97.5694 88.8752C96.3694 87.9952 95.6894 86.7952 95.5294 85.2752H98.8654C99.0414 85.8832 99.4174 86.3632 99.9934 86.7152C100.585 87.0832 101.297 87.2672 102.129 87.2672C103.105 87.2672 103.897 86.9712 104.505 86.3792C105.113 85.8032 105.417 84.9232 105.417 83.7392V81.6752C104.985 82.2992 104.385 82.8192 103.617 83.2352C102.865 83.6512 102.001 83.8592 101.025 83.8592C99.9054 83.8592 98.8814 83.5712 97.9534 82.9952C97.0254 82.4192 96.2894 81.6112 95.7454 80.5712C95.2174 79.5152 94.9534 78.3072 94.9534 76.9472C94.9534 75.6032 95.2174 74.4112 95.7454 73.3712C96.2894 72.3312 97.0174 71.5312 97.9294 70.9712C98.8574 70.4112 99.8894 70.1312 101.025 70.1312ZM105.417 76.9952C105.417 76.1792 105.257 75.4832 104.937 74.9072C104.617 74.3152 104.185 73.8672 103.641 73.5632C103.097 73.2432 102.513 73.0832 101.889 73.0832C101.265 73.0832 100.689 73.2352 100.161 73.5392C99.6334 73.8432 99.2014 74.2912 98.8654 74.8832C98.5454 75.4592 98.3854 76.1472 98.3854 76.9472C98.3854 77.7472 98.5454 78.4512 98.8654 79.0592C99.2014 79.6512 99.6334 80.1072 100.161 80.4272C100.705 80.7472 101.281 80.9072 101.889 80.9072C102.513 80.9072 103.097 80.7552 103.641 80.4512C104.185 80.1312 104.617 79.6832 104.937 79.1072C105.257 78.5152 105.417 77.8112 105.417 76.9952ZM114.459 72.6272C114.843 71.8752 115.387 71.2912 116.091 70.8752C116.811 70.4592 117.683 70.2512 118.707 70.2512V72.5072H118.131C115.683 72.5072 114.459 73.8352 114.459 76.4912V83.6432H112.275V70.4912H114.459V72.6272ZM126.964 83.8592C125.732 83.8592 124.612 83.5792 123.604 83.0192C122.612 82.4592 121.828 81.6672 121.252 80.6432C120.692 79.6032 120.412 78.4032 120.412 77.0432C120.412 75.6992 120.7 74.5152 121.276 73.4912C121.868 72.4512 122.668 71.6592 123.676 71.1152C124.684 70.5552 125.812 70.2752 127.06 70.2752C128.308 70.2752 129.436 70.5552 130.444 71.1152C131.452 71.6592 132.244 72.4432 132.82 73.4672C133.412 74.4912 133.708 75.6832 133.708 77.0432C133.708 78.4032 133.404 79.6032 132.796 80.6432C132.204 81.6672 131.396 82.4592 130.372 83.0192C129.348 83.5792 128.212 83.8592 126.964 83.8592ZM126.964 81.9392C127.748 81.9392 128.484 81.7552 129.172 81.3872C129.86 81.0192 130.412 80.4672 130.828 79.7312C131.26 78.9952 131.476 78.0992 131.476 77.0432C131.476 75.9872 131.268 75.0912 130.852 74.3552C130.436 73.6192 129.892 73.0752 129.22 72.7232C128.548 72.3552 127.82 72.1712 127.036 72.1712C126.236 72.1712 125.5 72.3552 124.828 72.7232C124.172 73.0752 123.644 73.6192 123.244 74.3552C122.844 75.0912 122.644 75.9872 122.644 77.0432C122.644 78.1152 122.836 79.0192 123.22 79.7552C123.62 80.4912 124.148 81.0432 124.804 81.4112C125.46 81.7632 126.18 81.9392 126.964 81.9392ZM142.316 83.8592C141.084 83.8592 139.964 83.5792 138.956 83.0192C137.964 82.4592 137.18 81.6672 136.604 80.6432C136.044 79.6032 135.764 78.4032 135.764 77.0432C135.764 75.6992 136.052 74.5152 136.628 73.4912C137.22 72.4512 138.02 71.6592 139.028 71.1152C140.036 70.5552 141.164 70.2752 142.412 70.2752C143.66 70.2752 144.788 70.5552 145.796 71.1152C146.804 71.6592 147.596 72.4432 148.172 73.4672C148.764 74.4912 149.06 75.6832 149.06 77.0432C149.06 78.4032 148.756 79.6032 148.148 80.6432C147.556 81.6672 146.748 82.4592 145.724 83.0192C144.7 83.5792 143.564 83.8592 142.316 83.8592ZM142.316 81.9392C143.1 81.9392 143.836 81.7552 144.524 81.3872C145.212 81.0192 145.764 80.4672 146.18 79.7312C146.612 78.9952 146.828 78.0992 146.828 77.0432C146.828 75.9872 146.62 75.0912 146.204 74.3552C145.788 73.6192 145.244 73.0752 144.572 72.7232C143.9 72.3552 143.172 72.1712 142.388 72.1712C141.588 72.1712 140.852 72.3552 140.18 72.7232C139.524 73.0752 138.996 73.6192 138.596 74.3552C138.196 75.0912 137.996 75.9872 137.996 77.0432C137.996 78.1152 138.188 79.0192 138.572 79.7552C138.972 80.4912 139.5 81.0432 140.156 81.4112C140.812 81.7632 141.532 81.9392 142.316 81.9392ZM167.747 70.2512C168.771 70.2512 169.683 70.4672 170.483 70.8992C171.283 71.3152 171.915 71.9472 172.379 72.7952C172.843 73.6432 173.075 74.6752 173.075 75.8912V83.6432H170.915V76.2032C170.915 74.8912 170.587 73.8912 169.931 73.2032C169.291 72.4992 168.419 72.1472 167.315 72.1472C166.179 72.1472 165.275 72.5152 164.603 73.2512C163.931 73.9712 163.595 75.0192 163.595 76.3952V83.6432H161.435V76.2032C161.435 74.8912 161.107 73.8912 160.451 73.2032C159.811 72.4992 158.939 72.1472 157.835 72.1472C156.699 72.1472 155.795 72.5152 155.123 73.2512C154.451 73.9712 154.115 75.0192 154.115 76.3952V83.6432H151.931V70.4912H154.115V72.3872C154.547 71.6992 155.123 71.1712 155.843 70.8032C156.579 70.4352 157.387 70.2512 158.267 70.2512C159.371 70.2512 160.347 70.4992 161.195 70.9952C162.043 71.4912 162.675 72.2192 163.091 73.1792C163.459 72.2512 164.067 71.5312 164.915 71.0192C165.763 70.5072 166.707 70.2512 167.747 70.2512Z" fill="black"/>
<path d="M320.994 57.3763C320.994 56.0787 321.524 54.8343 322.469 53.9167C323.413 52.9992 324.694 52.4837 326.029 52.4837H356.243C357.578 52.4837 358.859 52.9992 359.803 53.9167C360.748 54.8343 361.278 56.0787 361.278 57.3763V65.0233C358.692 64.3793 355.948 64.7576 353.648 66.0754C351.347 67.3932 349.679 69.543 349.007 72.0539H333.266C332.935 70.8093 332.356 69.64 331.56 68.613C330.765 67.586 329.768 66.7213 328.629 66.0684C327.489 65.4155 326.228 64.9872 324.918 64.8079C323.608 64.6285 322.275 64.7018 320.994 65.0233V57.3763Z" fill="black"/>
<path d="M323.512 67.1614C321.508 67.1614 319.587 67.9346 318.171 69.3109C316.754 70.6872 315.958 72.5539 315.958 74.5002V86.7316C315.958 88.0292 316.489 89.2736 317.433 90.1912C318.377 91.1087 319.658 91.6242 320.994 91.6242H361.278C362.614 91.6242 363.895 91.1087 364.839 90.1912C365.783 89.2736 366.314 88.0292 366.314 86.7316V74.5002C366.314 72.5539 365.518 70.6872 364.101 69.3109C362.685 67.9346 360.764 67.1614 358.76 67.1614C356.757 67.1614 354.836 67.9346 353.419 69.3109C352.003 70.6872 351.207 72.5539 351.207 74.5002H331.065C331.065 72.5539 330.269 70.6872 328.853 69.3109C327.436 67.9346 325.515 67.1614 323.512 67.1614Z" fill="black"/>
<rect y="123.826" width="412" height="588.174" fill="#C4C4C4" fill-opacity="0.2"/>
<path d="M169.01 360.07C168.739 359.501 168.347 359.062 167.834 358.754C167.321 358.437 166.723 358.278 166.042 358.278C165.361 358.278 164.745 358.437 164.194 358.754C163.653 359.062 163.223 359.51 162.906 360.098C162.598 360.677 162.444 361.349 162.444 362.114C162.444 362.879 162.598 363.551 162.906 364.13C163.223 364.709 163.653 365.157 164.194 365.474C164.745 365.782 165.361 365.936 166.042 365.936C166.994 365.936 167.778 365.651 168.394 365.082C169.01 364.513 169.369 363.743 169.472 362.772H165.58V361.736H170.83V362.716C170.755 363.519 170.503 364.256 170.074 364.928C169.645 365.591 169.08 366.118 168.38 366.51C167.68 366.893 166.901 367.084 166.042 367.084C165.137 367.084 164.311 366.874 163.564 366.454C162.817 366.025 162.225 365.432 161.786 364.676C161.357 363.92 161.142 363.066 161.142 362.114C161.142 361.162 161.357 360.308 161.786 359.552C162.225 358.787 162.817 358.194 163.564 357.774C164.311 357.345 165.137 357.13 166.042 357.13C167.078 357.13 167.993 357.387 168.786 357.9C169.589 358.413 170.172 359.137 170.536 360.07H169.01ZM172.039 363.136C172.039 362.352 172.197 361.666 172.515 361.078C172.832 360.481 173.266 360.019 173.817 359.692C174.377 359.365 174.997 359.202 175.679 359.202C176.351 359.202 176.934 359.347 177.429 359.636C177.923 359.925 178.292 360.289 178.535 360.728V359.328H179.823V367H178.535V365.572C178.283 366.02 177.905 366.393 177.401 366.692C176.906 366.981 176.327 367.126 175.665 367.126C174.983 367.126 174.367 366.958 173.817 366.622C173.266 366.286 172.832 365.815 172.515 365.208C172.197 364.601 172.039 363.911 172.039 363.136ZM178.535 363.15C178.535 362.571 178.418 362.067 178.185 361.638C177.951 361.209 177.634 360.882 177.233 360.658C176.841 360.425 176.407 360.308 175.931 360.308C175.455 360.308 175.021 360.42 174.629 360.644C174.237 360.868 173.924 361.195 173.691 361.624C173.457 362.053 173.341 362.557 173.341 363.136C173.341 363.724 173.457 364.237 173.691 364.676C173.924 365.105 174.237 365.437 174.629 365.67C175.021 365.894 175.455 366.006 175.931 366.006C176.407 366.006 176.841 365.894 177.233 365.67C177.634 365.437 177.951 365.105 178.185 364.676C178.418 364.237 178.535 363.729 178.535 363.15ZM183.249 360.574C183.473 360.135 183.791 359.795 184.201 359.552C184.621 359.309 185.13 359.188 185.727 359.188V360.504H185.391C183.963 360.504 183.249 361.279 183.249 362.828V367H181.975V359.328H183.249V360.574ZM186.722 363.136C186.722 362.352 186.881 361.666 187.198 361.078C187.515 360.481 187.949 360.019 188.5 359.692C189.06 359.365 189.681 359.202 190.362 359.202C191.034 359.202 191.617 359.347 192.112 359.636C192.607 359.925 192.975 360.289 193.218 360.728V359.328H194.506V367H193.218V365.572C192.966 366.02 192.588 366.393 192.084 366.692C191.589 366.981 191.011 367.126 190.348 367.126C189.667 367.126 189.051 366.958 188.5 366.622C187.949 366.286 187.515 365.815 187.198 365.208C186.881 364.601 186.722 363.911 186.722 363.136ZM193.218 363.15C193.218 362.571 193.101 362.067 192.868 361.638C192.635 361.209 192.317 360.882 191.916 360.658C191.524 360.425 191.09 360.308 190.614 360.308C190.138 360.308 189.704 360.42 189.312 360.644C188.92 360.868 188.607 361.195 188.374 361.624C188.141 362.053 188.024 362.557 188.024 363.136C188.024 363.724 188.141 364.237 188.374 364.676C188.607 365.105 188.92 365.437 189.312 365.67C189.704 365.894 190.138 366.006 190.614 366.006C191.09 366.006 191.524 365.894 191.916 365.67C192.317 365.437 192.635 365.105 192.868 364.676C193.101 364.237 193.218 363.729 193.218 363.15ZM199.823 359.202C200.486 359.202 201.064 359.347 201.559 359.636C202.063 359.925 202.436 360.289 202.679 360.728V359.328H203.967V367.168C203.967 367.868 203.818 368.489 203.519 369.03C203.22 369.581 202.791 370.01 202.231 370.318C201.68 370.626 201.036 370.78 200.299 370.78C199.291 370.78 198.451 370.542 197.779 370.066C197.107 369.59 196.71 368.941 196.589 368.12H197.849C197.989 368.587 198.278 368.96 198.717 369.24C199.156 369.529 199.683 369.674 200.299 369.674C200.999 369.674 201.568 369.455 202.007 369.016C202.455 368.577 202.679 367.961 202.679 367.168V365.558C202.427 366.006 202.054 366.379 201.559 366.678C201.064 366.977 200.486 367.126 199.823 367.126C199.142 367.126 198.521 366.958 197.961 366.622C197.41 366.286 196.976 365.815 196.659 365.208C196.342 364.601 196.183 363.911 196.183 363.136C196.183 362.352 196.342 361.666 196.659 361.078C196.976 360.481 197.41 360.019 197.961 359.692C198.521 359.365 199.142 359.202 199.823 359.202ZM202.679 363.15C202.679 362.571 202.562 362.067 202.329 361.638C202.096 361.209 201.778 360.882 201.377 360.658C200.985 360.425 200.551 360.308 200.075 360.308C199.599 360.308 199.165 360.42 198.773 360.644C198.381 360.868 198.068 361.195 197.835 361.624C197.602 362.053 197.485 362.557 197.485 363.136C197.485 363.724 197.602 364.237 197.835 364.676C198.068 365.105 198.381 365.437 198.773 365.67C199.165 365.894 199.599 366.006 200.075 366.006C200.551 366.006 200.985 365.894 201.377 365.67C201.778 365.437 202.096 365.105 202.329 364.676C202.562 364.237 202.679 363.729 202.679 363.15ZM213.12 362.87C213.12 363.113 213.106 363.369 213.078 363.64H206.946C206.993 364.396 207.249 364.989 207.716 365.418C208.192 365.838 208.766 366.048 209.438 366.048C209.989 366.048 210.446 365.922 210.81 365.67C211.183 365.409 211.445 365.063 211.594 364.634H212.966C212.761 365.371 212.35 365.973 211.734 366.44C211.118 366.897 210.353 367.126 209.438 367.126C208.71 367.126 208.057 366.963 207.478 366.636C206.909 366.309 206.461 365.847 206.134 365.25C205.807 364.643 205.644 363.943 205.644 363.15C205.644 362.357 205.803 361.661 206.12 361.064C206.437 360.467 206.881 360.009 207.45 359.692C208.029 359.365 208.691 359.202 209.438 359.202C210.166 359.202 210.81 359.361 211.37 359.678C211.93 359.995 212.359 360.434 212.658 360.994C212.966 361.545 213.12 362.17 213.12 362.87ZM211.804 362.604C211.804 362.119 211.697 361.703 211.482 361.358C211.267 361.003 210.973 360.737 210.6 360.56C210.236 360.373 209.83 360.28 209.382 360.28C208.738 360.28 208.187 360.485 207.73 360.896C207.282 361.307 207.025 361.876 206.96 362.604H211.804ZM219.808 365.964H223.224V367H218.534V357.242H219.808V365.964ZM225.235 358.082C224.992 358.082 224.787 357.998 224.619 357.83C224.451 357.662 224.367 357.457 224.367 357.214C224.367 356.971 224.451 356.766 224.619 356.598C224.787 356.43 224.992 356.346 225.235 356.346C225.468 356.346 225.664 356.43 225.823 356.598C225.991 356.766 226.075 356.971 226.075 357.214C226.075 357.457 225.991 357.662 225.823 357.83C225.664 357.998 225.468 358.082 225.235 358.082ZM225.851 359.328V367H224.577V359.328H225.851ZM231.186 359.202C231.849 359.202 232.428 359.347 232.922 359.636C233.426 359.925 233.8 360.289 234.042 360.728V359.328H235.33V367.168C235.33 367.868 235.181 368.489 234.882 369.03C234.584 369.581 234.154 370.01 233.594 370.318C233.044 370.626 232.4 370.78 231.662 370.78C230.654 370.78 229.814 370.542 229.142 370.066C228.47 369.59 228.074 368.941 227.952 368.12H229.212C229.352 368.587 229.642 368.96 230.08 369.24C230.519 369.529 231.046 369.674 231.662 369.674C232.362 369.674 232.932 369.455 233.37 369.016C233.818 368.577 234.042 367.961 234.042 367.168V365.558C233.79 366.006 233.417 366.379 232.922 366.678C232.428 366.977 231.849 367.126 231.186 367.126C230.505 367.126 229.884 366.958 229.324 366.622C228.774 366.286 228.34 365.815 228.022 365.208C227.705 364.601 227.546 363.911 227.546 363.136C227.546 362.352 227.705 361.666 228.022 361.078C228.34 360.481 228.774 360.019 229.324 359.692C229.884 359.365 230.505 359.202 231.186 359.202ZM234.042 363.15C234.042 362.571 233.926 362.067 233.692 361.638C233.459 361.209 233.142 360.882 232.74 360.658C232.348 360.425 231.914 360.308 231.438 360.308C230.962 360.308 230.528 360.42 230.136 360.644C229.744 360.868 229.432 361.195 229.198 361.624C228.965 362.053 228.848 362.557 228.848 363.136C228.848 363.724 228.965 364.237 229.198 364.676C229.432 365.105 229.744 365.437 230.136 365.67C230.528 365.894 230.962 366.006 231.438 366.006C231.914 366.006 232.348 365.894 232.74 365.67C233.142 365.437 233.459 365.105 233.692 364.676C233.926 364.237 234.042 363.729 234.042 363.15ZM241.291 359.188C241.87 359.188 242.393 359.314 242.859 359.566C243.326 359.809 243.69 360.177 243.951 360.672C244.222 361.167 244.357 361.769 244.357 362.478V367H243.097V362.66C243.097 361.895 242.906 361.311 242.523 360.91C242.141 360.499 241.618 360.294 240.955 360.294C240.283 360.294 239.747 360.504 239.345 360.924C238.953 361.344 238.757 361.955 238.757 362.758V367H237.483V356.64H238.757V360.42C239.009 360.028 239.355 359.725 239.793 359.51C240.241 359.295 240.741 359.188 241.291 359.188ZM247.992 360.378V364.9C247.992 365.273 248.072 365.539 248.23 365.698C248.389 365.847 248.664 365.922 249.056 365.922H249.994V367H248.846C248.137 367 247.605 366.837 247.25 366.51C246.896 366.183 246.718 365.647 246.718 364.9V360.378H245.724V359.328H246.718V357.396H247.992V359.328H249.994V360.378H247.992Z" fill="black"/>
<g filter="url(#filter0_d)">
<rect x="39" y="444" width="140.629" height="136.636" rx="20" fill="white"/>
</g>
<path d="M55.9802 521.316C55.2615 521.316 54.6175 521.199 54.0482 520.966C53.4788 520.733 53.0215 520.387 52.6762 519.93C52.3402 519.473 52.1628 518.922 52.1442 518.278H54.6922C54.7295 518.642 54.8555 518.922 55.0702 519.118C55.2848 519.305 55.5648 519.398 55.9102 519.398C56.2648 519.398 56.5448 519.319 56.7502 519.16C56.9555 518.992 57.0582 518.763 57.0582 518.474C57.0582 518.231 56.9742 518.031 56.8062 517.872C56.6475 517.713 56.4468 517.583 56.2042 517.48C55.9708 517.377 55.6348 517.261 55.1962 517.13C54.5615 516.934 54.0435 516.738 53.6422 516.542C53.2408 516.346 52.8955 516.057 52.6062 515.674C52.3168 515.291 52.1722 514.792 52.1722 514.176C52.1722 513.261 52.5035 512.547 53.1662 512.034C53.8288 511.511 54.6922 511.25 55.7562 511.25C56.8388 511.25 57.7115 511.511 58.3742 512.034C59.0368 512.547 59.3915 513.266 59.4382 514.19H56.8482C56.8295 513.873 56.7128 513.625 56.4982 513.448C56.2835 513.261 56.0082 513.168 55.6722 513.168C55.3828 513.168 55.1495 513.247 54.9722 513.406C54.7948 513.555 54.7062 513.775 54.7062 514.064C54.7062 514.381 54.8555 514.629 55.1542 514.806C55.4528 514.983 55.9195 515.175 56.5542 515.38C57.1888 515.595 57.7022 515.8 58.0942 515.996C58.4955 516.192 58.8408 516.477 59.1302 516.85C59.4195 517.223 59.5642 517.704 59.5642 518.292C59.5642 518.852 59.4195 519.361 59.1302 519.818C58.8502 520.275 58.4395 520.639 57.8982 520.91C57.3568 521.181 56.7175 521.316 55.9802 521.316ZM71.0054 513.322C71.9761 513.322 72.7461 513.616 73.3154 514.204C73.8941 514.792 74.1834 515.609 74.1834 516.654V521.218H71.8034V516.976C71.8034 516.472 71.6681 516.085 71.3974 515.814C71.1361 515.534 70.7721 515.394 70.3054 515.394C69.8388 515.394 69.4701 515.534 69.1994 515.814C68.9381 516.085 68.8074 516.472 68.8074 516.976V521.218H66.4274V516.976C66.4274 516.472 66.2921 516.085 66.0214 515.814C65.7601 515.534 65.3961 515.394 64.9294 515.394C64.4628 515.394 64.0941 515.534 63.8234 515.814C63.5621 516.085 63.4314 516.472 63.4314 516.976V521.218H61.0374V513.406H63.4314V514.386C63.6741 514.059 63.9914 513.803 64.3834 513.616C64.7754 513.42 65.2188 513.322 65.7134 513.322C66.3014 513.322 66.8241 513.448 67.2814 513.7C67.7481 513.952 68.1121 514.311 68.3734 514.778C68.6441 514.349 69.0128 513.999 69.4794 513.728C69.9461 513.457 70.4548 513.322 71.0054 513.322ZM75.3817 517.298C75.3817 516.495 75.5311 515.791 75.8297 515.184C76.1377 514.577 76.5531 514.111 77.0757 513.784C77.5984 513.457 78.1817 513.294 78.8257 513.294C79.3764 513.294 79.8571 513.406 80.2677 513.63C80.6877 513.854 81.0097 514.148 81.2337 514.512V513.406H83.6277V521.218H81.2337V520.112C81.0004 520.476 80.6737 520.77 80.2537 520.994C79.8431 521.218 79.3624 521.33 78.8117 521.33C78.1771 521.33 77.5984 521.167 77.0757 520.84C76.5531 520.504 76.1377 520.033 75.8297 519.426C75.5311 518.81 75.3817 518.101 75.3817 517.298ZM81.2337 517.312C81.2337 516.715 81.0657 516.243 80.7297 515.898C80.4031 515.553 80.0017 515.38 79.5257 515.38C79.0497 515.38 78.6437 515.553 78.3077 515.898C77.9811 516.234 77.8177 516.701 77.8177 517.298C77.8177 517.895 77.9811 518.371 78.3077 518.726C78.6437 519.071 79.0497 519.244 79.5257 519.244C80.0017 519.244 80.4031 519.071 80.7297 518.726C81.0657 518.381 81.2337 517.909 81.2337 517.312ZM87.7537 514.708C88.0337 514.279 88.3837 513.943 88.8037 513.7C89.2237 513.448 89.6904 513.322 90.2037 513.322V515.856H89.5457C88.9484 515.856 88.5004 515.987 88.2017 516.248C87.903 516.5 87.7537 516.948 87.7537 517.592V521.218H85.3597V513.406H87.7537V514.708ZM95.702 519.188V521.218H94.484C93.616 521.218 92.9393 521.008 92.454 520.588C91.9686 520.159 91.726 519.463 91.726 518.502V515.394H90.774V513.406H91.726V511.502H94.12V513.406H95.688V515.394H94.12V518.53C94.12 518.763 94.176 518.931 94.288 519.034C94.4 519.137 94.5866 519.188 94.848 519.188H95.702ZM54.8182 541.37H57.9542V543.218H52.4242V533.39H54.8182V541.37ZM60.3 534.594C59.88 534.594 59.5347 534.473 59.264 534.23C59.0027 533.978 58.872 533.67 58.872 533.306C58.872 532.933 59.0027 532.625 59.264 532.382C59.5347 532.13 59.88 532.004 60.3 532.004C60.7107 532.004 61.0467 532.13 61.308 532.382C61.5787 532.625 61.714 532.933 61.714 533.306C61.714 533.67 61.5787 533.978 61.308 534.23C61.0467 534.473 60.7107 534.594 60.3 534.594ZM61.49 535.406V543.218H59.096V535.406H61.49ZM66.1929 535.294C66.7436 535.294 67.2243 535.406 67.6349 535.63C68.0549 535.854 68.3769 536.148 68.6009 536.512V535.406H70.9949V543.204C70.9949 543.923 70.8503 544.571 70.5609 545.15C70.2809 545.738 69.8469 546.205 69.2589 546.55C68.6803 546.895 67.9569 547.068 67.0889 547.068C65.9316 547.068 64.9936 546.793 64.2749 546.242C63.5563 545.701 63.1456 544.963 63.0429 544.03H65.4089C65.4836 544.329 65.6609 544.562 65.9409 544.73C66.2209 544.907 66.5663 544.996 66.9769 544.996C67.4716 544.996 67.8636 544.851 68.1529 544.562C68.4516 544.282 68.6009 543.829 68.6009 543.204V542.098C68.3676 542.462 68.0456 542.761 67.6349 542.994C67.2243 543.218 66.7436 543.33 66.1929 543.33C65.5489 543.33 64.9656 543.167 64.4429 542.84C63.9203 542.504 63.5049 542.033 63.1969 541.426C62.8983 540.81 62.7489 540.101 62.7489 539.298C62.7489 538.495 62.8983 537.791 63.1969 537.184C63.5049 536.577 63.9203 536.111 64.4429 535.784C64.9656 535.457 65.5489 535.294 66.1929 535.294ZM68.6009 539.312C68.6009 538.715 68.4329 538.243 68.0969 537.898C67.7703 537.553 67.3689 537.38 66.8929 537.38C66.4169 537.38 66.0109 537.553 65.6749 537.898C65.3483 538.234 65.1849 538.701 65.1849 539.298C65.1849 539.895 65.3483 540.371 65.6749 540.726C66.0109 541.071 66.4169 541.244 66.8929 541.244C67.3689 541.244 67.7703 541.071 68.0969 540.726C68.4329 540.381 68.6009 539.909 68.6009 539.312ZM77.5289 535.322C78.4249 535.322 79.1436 535.621 79.6849 536.218C80.2262 536.806 80.4969 537.618 80.4969 538.654V543.218H78.1169V538.976C78.1169 538.453 77.9816 538.047 77.7109 537.758C77.4402 537.469 77.0762 537.324 76.6189 537.324C76.1616 537.324 75.7976 537.469 75.5269 537.758C75.2562 538.047 75.1209 538.453 75.1209 538.976V543.218H72.7269V532.858H75.1209V536.456C75.3636 536.111 75.6949 535.835 76.1149 535.63C76.5349 535.425 77.0062 535.322 77.5289 535.322ZM86.5145 541.188V543.218H85.2965C84.4285 543.218 83.7518 543.008 83.2665 542.588C82.7811 542.159 82.5385 541.463 82.5385 540.502V537.394H81.5865V535.406H82.5385V533.502H84.9325V535.406H86.5005V537.394H84.9325V540.53C84.9325 540.763 84.9885 540.931 85.1005 541.034C85.2125 541.137 85.3991 541.188 85.6605 541.188H86.5145Z" fill="black"/>
<g clip-path="url(#clip1)">
<path d="M91.7332 482.998C91.7332 483.312 91.7332 483.57 91.3212 483.57H86.1388C85.7268 483.57 85.7268 483.315 85.7268 482.998C85.7268 482.683 85.7268 482.426 86.1388 482.426H91.3212C91.7332 482.429 91.7332 482.683 91.7332 482.998Z" fill="#79A5AF"/>
<path d="M60.745 482.84C60.5773 483.424 60.6185 483.57 60.2036 483.57C59.8681 483.57 59.9004 483.301 59.7239 482.84L59.4531 481.823C59.4531 481.419 59.7886 481.093 60.2036 481.093C60.6185 481.093 60.954 481.419 60.954 481.823L60.745 482.84Z" fill="#825751"/>
<path d="M80.8476 482.84C80.6798 483.424 80.724 483.57 80.309 483.57C79.9735 483.57 80.0059 483.301 79.8293 482.84L79.5586 481.823C79.5586 481.419 79.8941 481.093 80.309 481.093C80.724 481.093 81.0595 481.419 81.0595 481.823L80.8476 482.84Z" fill="#825751"/>
<path d="M83.4697 473.196C83.4697 476.536 80.6828 479.244 77.2455 479.244H63.2434C59.8062 479.244 57.0193 476.536 57.0193 473.196L57.5372 470.174C57.5372 466.834 59.8062 464.127 63.2434 464.127H77.2485C80.6857 464.127 82.9547 466.834 82.9547 470.174L83.4697 473.196Z" fill="#FBB817"/>
<path d="M86.4216 477.133C86.4216 481.931 86.4245 482.329 81.9778 482.329H58.5115C53.8912 482.329 54.0678 481.845 54.0678 477.133C54.0678 474.263 55.0507 471.935 58.5115 471.935H81.9778C85.4386 471.935 86.4216 474.263 86.4216 477.133Z" fill="#FBB817"/>
<path d="M57.2134 472.067C57.2134 472.067 60.4888 471.521 60.6712 474.328" stroke="#F69028" stroke-width="0.125" stroke-linecap="round"/>
<path d="M83.2753 472.064C83.2753 472.064 79.9351 471.518 79.7527 474.326" stroke="#F69028" stroke-width="0.125" stroke-linecap="round"/>
<path d="M81.2803 478.02C81.2803 478.858 81.4834 479.535 80.3327 479.535H60.1565C59.0058 479.535 59.2089 478.858 59.2089 478.02C59.2089 477.182 59.0058 476.001 60.1565 476.001H80.3327C81.4834 475.998 81.2803 477.182 81.2803 478.02Z" fill="#B89278"/>
<path d="M70.2622 477.133H60.1005C58.5172 477.133 59.7268 475.538 59.7268 475.538C60.4713 474.343 60.6891 474.103 61.6573 474.103H70.274" fill="#724941"/>
<path d="M70.2564 477.133H80.4181C82.0013 477.133 80.7918 475.538 80.7918 475.538C80.0473 474.343 79.8295 474.103 78.8613 474.103H70.2446" fill="#724941"/>
<path d="M81.8835 458.091C82.4367 458.911 82.3573 460.344 81.0889 461.416L79.4203 462.48C78.611 462.994 78.5492 462.714 77.3691 460.967C76.1449 459.151 75.9242 459.068 76.7599 458.537L78.4285 457.473C80.2825 456.944 81.2861 457.147 81.8835 458.091Z" fill="#79A5AF"/>
<path d="M81.907 458.105C81.907 458.105 88.4607 456.358 88.6873 464.904C88.7874 468.816 88.6873 482.998 88.6873 482.998" stroke="#79A5AF" stroke-width="0.25" stroke-linecap="round"/>
</g>
<g filter="url(#filter1_d)">
<rect x="232" y="444" width="140.629" height="136.636" rx="20" fill="white"/>
</g>
<path d="M256.761 517.49V527.318H254.367V523.272H250.643V527.318H248.249V517.49H250.643V521.34H254.367V517.49H256.761ZM266.204 519.506V527.318H263.81V526.254C263.567 526.599 263.236 526.879 262.816 527.094C262.405 527.299 261.948 527.402 261.444 527.402C260.846 527.402 260.319 527.271 259.862 527.01C259.404 526.739 259.05 526.352 258.798 525.848C258.546 525.344 258.42 524.751 258.42 524.07V519.506H260.8V523.748C260.8 524.27 260.935 524.676 261.206 524.966C261.476 525.255 261.84 525.4 262.298 525.4C262.764 525.4 263.133 525.255 263.404 524.966C263.674 524.676 263.81 524.27 263.81 523.748V519.506H266.204ZM277.891 519.422C278.862 519.422 279.632 519.716 280.201 520.304C280.78 520.892 281.069 521.708 281.069 522.754V527.318H278.689V523.076C278.689 522.572 278.554 522.184 278.283 521.914C278.022 521.634 277.658 521.494 277.191 521.494C276.725 521.494 276.356 521.634 276.085 521.914C275.824 522.184 275.693 522.572 275.693 523.076V527.318H273.313V523.076C273.313 522.572 273.178 522.184 272.907 521.914C272.646 521.634 272.282 521.494 271.815 521.494C271.349 521.494 270.98 521.634 270.709 521.914C270.448 522.184 270.317 522.572 270.317 523.076V527.318H267.923V519.506H270.317V520.486C270.56 520.159 270.877 519.902 271.269 519.716C271.661 519.52 272.105 519.422 272.599 519.422C273.187 519.422 273.71 519.548 274.167 519.8C274.634 520.052 274.998 520.411 275.259 520.878C275.53 520.448 275.899 520.098 276.365 519.828C276.832 519.557 277.341 519.422 277.891 519.422ZM282.267 523.398C282.267 522.595 282.417 521.89 282.715 521.284C283.023 520.677 283.439 520.21 283.961 519.884C284.484 519.557 285.067 519.394 285.711 519.394C286.262 519.394 286.743 519.506 287.153 519.73C287.573 519.954 287.895 520.248 288.119 520.612V519.506H290.513V527.318H288.119V526.212C287.886 526.576 287.559 526.87 287.139 527.094C286.729 527.318 286.248 527.43 285.697 527.43C285.063 527.43 284.484 527.266 283.961 526.94C283.439 526.604 283.023 526.132 282.715 525.526C282.417 524.91 282.267 524.2 282.267 523.398ZM288.119 523.412C288.119 522.814 287.951 522.343 287.615 521.998C287.289 521.652 286.887 521.48 286.411 521.48C285.935 521.48 285.529 521.652 285.193 521.998C284.867 522.334 284.703 522.8 284.703 523.398C284.703 523.995 284.867 524.471 285.193 524.826C285.529 525.171 285.935 525.344 286.411 525.344C286.887 525.344 287.289 525.171 287.615 524.826C287.951 524.48 288.119 524.009 288.119 523.412ZM297.005 519.422C297.92 519.422 298.648 519.72 299.189 520.318C299.74 520.906 300.015 521.718 300.015 522.754V527.318H297.635V523.076C297.635 522.553 297.5 522.147 297.229 521.858C296.959 521.568 296.595 521.424 296.137 521.424C295.68 521.424 295.316 521.568 295.045 521.858C294.775 522.147 294.639 522.553 294.639 523.076V527.318H292.245V519.506H294.639V520.542C294.882 520.196 295.209 519.926 295.619 519.73C296.03 519.524 296.492 519.422 297.005 519.422Z" fill="black"/>
<path d="M256.877 482.086H252.953C252.433 482.084 251.935 481.883 251.568 481.526C251.2 481.169 250.993 480.685 250.991 480.179V473.508C250.471 473.506 249.973 473.305 249.606 472.948C249.238 472.591 249.031 472.107 249.029 471.602V465.883C249.022 465.506 249.093 465.131 249.239 464.781C249.384 464.431 249.601 464.113 249.875 463.846C250.15 463.579 250.477 463.368 250.838 463.227C251.198 463.086 251.584 463.017 251.972 463.024H257.858C258.246 463.017 258.632 463.086 258.993 463.227C259.353 463.368 259.68 463.579 259.955 463.846C260.23 464.113 260.446 464.431 260.591 464.781C260.737 465.131 260.808 465.506 260.801 465.883V471.602C260.799 472.107 260.592 472.591 260.224 472.948C259.857 473.305 259.359 473.506 258.839 473.508V480.179C258.837 480.685 258.63 481.169 258.262 481.526C257.895 481.883 257.397 482.084 256.877 482.086ZM251.972 464.93C251.841 464.922 251.71 464.942 251.588 464.987C251.465 465.032 251.354 465.102 251.261 465.192C251.168 465.282 251.096 465.39 251.05 465.509C251.003 465.629 250.983 465.756 250.991 465.883V471.602H252.953V480.179H256.877V471.602H258.839V465.883C258.847 465.756 258.827 465.629 258.78 465.509C258.734 465.39 258.662 465.282 258.569 465.192C258.476 465.102 258.365 465.032 258.242 464.987C258.12 464.942 257.989 464.922 257.858 464.93H251.972Z" fill="#DF52D1" fill-opacity="0.7"/>
<path d="M254.915 462.071C254.139 462.071 253.38 461.847 252.735 461.428C252.09 461.009 251.587 460.414 251.29 459.717C250.993 459.021 250.915 458.254 251.067 457.515C251.218 456.775 251.592 456.096 252.14 455.563C252.689 455.029 253.388 454.666 254.15 454.519C254.911 454.372 255.7 454.448 256.417 454.736C257.134 455.025 257.746 455.513 258.178 456.14C258.609 456.767 258.839 457.504 258.839 458.258C258.838 459.269 258.424 460.238 257.688 460.953C256.953 461.667 255.955 462.069 254.915 462.071ZM254.915 456.352C254.527 456.352 254.148 456.464 253.825 456.673C253.502 456.883 253.251 457.181 253.102 457.529C252.954 457.877 252.915 458.26 252.991 458.63C253.067 459 253.253 459.34 253.528 459.606C253.802 459.873 254.152 460.054 254.532 460.128C254.913 460.201 255.307 460.164 255.666 460.019C256.024 459.875 256.331 459.631 256.546 459.317C256.762 459.004 256.877 458.635 256.877 458.258C256.876 457.753 256.67 457.268 256.302 456.911C255.934 456.554 255.435 456.353 254.915 456.352Z" fill="#DF52D1" fill-opacity="0.7"/>
<path d="M275.285 456.596C274.548 455.868 273.552 455.44 272.501 455.4C271.45 455.361 270.423 455.712 269.629 456.383C268.836 455.712 267.809 455.361 266.758 455.4C265.707 455.44 264.711 455.868 263.973 456.596C263.198 457.365 262.763 458.399 262.763 459.476C262.763 460.553 263.198 461.587 263.973 462.357L269.627 467.923L269.629 467.921L269.631 467.922L275.285 462.357C276.061 461.587 276.495 460.553 276.495 459.476C276.495 458.399 276.061 457.365 275.285 456.596ZM273.888 461.017L269.631 465.208L269.629 465.206L269.627 465.208L265.37 461.017C264.954 460.606 264.721 460.053 264.721 459.476C264.721 458.9 264.954 458.346 265.37 457.935C265.784 457.544 266.34 457.325 266.918 457.325C267.496 457.325 268.051 457.544 268.466 457.935L269.624 459.086L269.629 459.081L269.634 459.086L270.792 457.935C271.206 457.543 271.762 457.324 272.34 457.324C272.918 457.324 273.474 457.543 273.888 457.935C274.304 458.346 274.537 458.9 274.537 459.476C274.537 460.053 274.304 460.606 273.888 461.017Z" fill="#DF52D1" fill-opacity="0.7"/>
<g filter="url(#filter2_d)">
<circle cx="206" cy="260" r="77" fill="white"/>
</g>
<g clip-path="url(#clip2)">
<path d="M191.258 270.653L194.333 267.583L196.698 269.945L193.623 273.015L191.258 270.653ZM203.795 277.187V272.227H207.185V277.187H203.795ZM192.046 257.114V260.499H187V257.114H192.046ZM210.576 250.108C212.1 251 213.322 252.207 214.242 253.729C215.162 255.251 215.622 256.93 215.622 258.767C215.622 261.548 214.636 263.923 212.665 265.891C210.694 267.859 208.315 268.843 205.529 268.843C202.743 268.843 200.365 267.859 198.394 265.891C196.422 263.923 195.437 261.548 195.437 258.767C195.437 256.93 195.884 255.251 196.777 253.729C197.671 252.207 198.906 251 200.483 250.108V242H210.576V250.108ZM218.933 257.114H223.98V260.499H218.933V257.114ZM214.281 269.945L216.647 267.662L219.722 270.653L217.356 273.015L214.281 269.945Z" fill="black"/>
</g>
</g>
<defs>
<filter id="filter0_d" x="35" y="444" width="148.629" height="144.636" filterUnits="userSpaceOnUse" color-interpolation-filters="sRGB">
<feFlood flood-opacity="0" result="BackgroundImageFix"/>
<feColorMatrix in="SourceAlpha" type="matrix" values="0 0 0 0 0 0 0 0 0 0 0 0 0 0 0 0 0 0 127 0"/>
<feOffset dy="4"/>
<feGaussianBlur stdDeviation="2"/>
<feColorMatrix type="matrix" values="0 0 0 0 0 0 0 0 0 0 0 0 0 0 0 0 0 0 0.25 0"/>
<feBlend mode="normal" in2="BackgroundImageFix" result="effect1_dropShadow"/>
<feBlend mode="normal" in="SourceGraphic" in2="effect1_dropShadow" result="shape"/>
</filter>
<filter id="filter1_d" x="228" y="444" width="148.629" height="144.636" filterUnits="userSpaceOnUse" color-interpolation-filters="sRGB">
<feFlood flood-opacity="0" result="BackgroundImageFix"/>
<feColorMatrix in="SourceAlpha" type="matrix" values="0 0 0 0 0 0 0 0 0 0 0 0 0 0 0 0 0 0 127 0"/>
<feOffset dy="4"/>
<feGaussianBlur stdDeviation="2"/>
<feColorMatrix type="matrix" values="0 0 0 0 0 0 0 0 0 0 0 0 0 0 0 0 0 0 0.25 0"/>
<feBlend mode="normal" in2="BackgroundImageFix" result="effect1_dropShadow"/>
<feBlend mode="normal" in="SourceGraphic" in2="effect1_dropShadow" result="shape"/>
</filter>
<filter id="filter2_d" x="119" y="173" width="174" height="174" filterUnits="userSpaceOnUse" color-interpolation-filters="sRGB">
<feFlood flood-opacity="0" result="BackgroundImageFix"/>
<feColorMatrix in="SourceAlpha" type="matrix" values="0 0 0 0 0 0 0 0 0 0 0 0 0 0 0 0 0 0 127 0"/>
<feOffset/>
<feGaussianBlur stdDeviation="5"/>
<feColorMatrix type="matrix" values="0 0 0 0 0 0 0 0 0 0 0 0 0 0 0 0 0 0 0.25 0"/>
<feBlend mode="normal" in2="BackgroundImageFix" result="effect1_dropShadow"/>
<feBlend mode="normal" in="SourceGraphic" in2="effect1_dropShadow" result="shape"/>
</filter>
<clipPath id="clip0">
<rect width="412" height="712" fill="white"/>
</clipPath>
<clipPath id="clip1">
<rect width="37.6686" height="36.5988" fill="white" transform="translate(54.0676 451.32)"/>
</clipPath>
<clipPath id="clip2">
<rect width="37.2162" height="35.2653" fill="white" transform="translate(187 242)"/>
</clipPath>
</defs>
</svg>
