<svg width="30" height="30" viewBox="0 0 30 30" fill="none" xmlns="http://www.w3.org/2000/svg">
<rect width="30" height="30" fill="white"/>
<path d="M11.9688 26.7813L14.6641 22.041C14.7402 21.9082 14.6445 21.7422 14.4902 21.7402L9.37501 21.7207C9.18947 21.7207 9.10353 21.4922 9.2422 21.3692L15.9297 15.4551C16.0957 15.3086 16.3438 15.5 16.2422 15.6973L14.2168 19.6172C14.1485 19.75 14.2442 19.9102 14.3945 19.9102L19.625 19.9434C19.8086 19.9453 19.8945 20.1699 19.7578 20.293L12.2774 27.0293C12.1074 27.1836 11.8555 26.9805 11.9688 26.7813V26.7813Z" fill="url(#paint0_linear)"/>
<path opacity="0.2" d="M14.7754 17.2598L13.6973 19.3477C13.5703 19.5918 13.5801 19.8789 13.7227 20.1152C13.8652 20.3516 14.1152 20.4941 14.3906 20.4941L18.627 20.5215L13.6524 25L15.1719 22.3281C15.3106 22.0859 15.3086 21.7852 15.168 21.5449C15.0293 21.3047 14.7676 21.1543 14.4902 21.1523L10.3867 21.1367L14.7754 17.2598V17.2598ZM16.0606 15.4043C16.0156 15.4043 15.9707 15.4199 15.9297 15.457L9.2422 21.3711C9.10353 21.4941 9.18947 21.7227 9.37501 21.7227L14.4902 21.7422C14.6445 21.7422 14.7402 21.9082 14.6641 22.043L11.9688 26.7832C11.8828 26.9336 12.0059 27.0859 12.1445 27.0859C12.1895 27.0859 12.2363 27.0703 12.2774 27.0332L19.7578 20.2969C19.8945 20.1738 19.8086 19.9473 19.625 19.9473L14.3945 19.9141C14.3602 19.9138 14.3265 19.9048 14.2966 19.8879C14.2667 19.8709 14.2416 19.8466 14.2238 19.8172C14.206 19.7879 14.196 19.7544 14.1948 19.7201C14.1935 19.6857 14.2011 19.6517 14.2168 19.6211L16.2402 15.7031C16.3184 15.5488 16.1973 15.4043 16.0606 15.4043V15.4043Z" fill="#424242"/>
<path d="M5.91015 19.625C5.77223 19.9142 5.52607 20.1375 5.22485 20.2467C4.92363 20.3559 4.59154 20.3421 4.30036 20.2085C4.00918 20.0748 3.78228 19.832 3.66869 19.5324C3.55511 19.2328 3.56397 18.9005 3.69335 18.6074C3.9746 17.9941 5.80272 16.7793 5.80272 16.7793C5.80272 16.7793 6.1914 19.0117 5.91015 19.625Z" fill="#64B5F6"/>
<path d="M6.63085 23.9824C6.49293 24.2716 6.24677 24.4949 5.94555 24.6041C5.64433 24.7133 5.31225 24.6996 5.02106 24.5659C4.72988 24.4322 4.50298 24.1894 4.3894 23.8898C4.27582 23.5902 4.28467 23.258 4.41405 22.9648C4.6953 22.3535 6.52343 21.1367 6.52343 21.1367C6.52343 21.1367 6.9121 23.3691 6.63085 23.9824V23.9824Z" fill="#90CAF9"/>
<path d="M10.7109 26.373C10.573 26.6622 10.3268 26.8856 10.0256 26.9947C9.72441 27.1039 9.39232 27.0902 9.10114 26.9565C8.80996 26.8229 8.58306 26.58 8.46948 26.2804C8.35589 25.9808 8.36475 25.6486 8.49413 25.3555C8.77538 24.7422 10.6035 23.5273 10.6035 23.5273C10.6035 23.5273 10.9922 25.7598 10.7109 26.373V26.373Z" fill="#90CAF9"/>
<path d="M24.0527 19.625C23.9148 19.9142 23.6686 20.1375 23.3674 20.2467C23.0662 20.3559 22.7341 20.3421 22.4429 20.2085C22.1518 20.0748 21.9249 19.832 21.8113 19.5324C21.6977 19.2328 21.7065 18.9005 21.8359 18.6074C22.1172 17.9961 23.9453 16.7793 23.9453 16.7793C23.9453 16.7793 24.332 19.0117 24.0527 19.625Z" fill="#64B5F6"/>
<path d="M19.3516 26.373C19.2136 26.6622 18.9675 26.8856 18.6663 26.9947C18.365 27.1039 18.033 27.0902 17.7418 26.9565C17.4506 26.8229 17.2237 26.58 17.1101 26.2804C16.9965 25.9808 17.0054 25.6486 17.1348 25.3555C17.416 24.7441 19.2441 23.5273 19.2441 23.5273C19.2441 23.5273 19.6328 25.7598 19.3516 26.373V26.373Z" fill="#90CAF9"/>
<path d="M24.6582 23.9883C24.5203 24.2775 24.2741 24.5008 23.9729 24.61C23.6717 24.7192 23.3396 24.7054 23.0484 24.5718C22.7572 24.4381 22.5303 24.1952 22.4167 23.8956C22.3032 23.5961 22.312 23.2638 22.4414 22.9707C22.7226 22.3594 24.5508 21.1426 24.5508 21.1426C24.5508 21.1426 24.9394 23.377 24.6582 23.9883V23.9883Z" fill="#90CAF9"/>
<path opacity="0.2" d="M5.50976 17.459C5.62304 18.3262 5.66796 19.2109 5.55468 19.4609C5.48806 19.605 5.38176 19.7271 5.24823 19.8129C5.1147 19.8987 4.95948 19.9446 4.80077 19.9453C4.68163 19.9453 4.5664 19.9199 4.45507 19.8691C4.35608 19.8239 4.267 19.7595 4.19293 19.6797C4.11886 19.6 4.06126 19.5064 4.02343 19.4043C3.94726 19.1973 3.95507 18.9707 4.04687 18.7695C4.17382 18.4941 4.86913 17.9238 5.50976 17.459V17.459ZM5.80273 16.7812C5.80273 16.7812 3.9746 17.9961 3.69335 18.6094C3.4121 19.2207 3.68163 19.9453 4.29296 20.2266C4.4385 20.2935 4.5958 20.3311 4.75588 20.3372C4.91595 20.3432 5.07566 20.3177 5.22586 20.262C5.37606 20.2063 5.5138 20.1216 5.63122 20.0126C5.74864 19.9036 5.84342 19.7726 5.91015 19.627C6.1914 19.0117 5.80273 16.7812 5.80273 16.7812V16.7812Z" fill="#424242"/>
<path opacity="0.2" d="M6.23046 21.8164C6.34374 22.6836 6.38866 23.5684 6.27538 23.8184C6.20876 23.9624 6.10246 24.0845 5.96893 24.1703C5.8354 24.2561 5.68019 24.302 5.52148 24.3027C5.38256 24.3023 5.24596 24.2671 5.12417 24.2002C5.00238 24.1334 4.89928 24.0371 4.8243 23.9202C4.74931 23.8032 4.70483 23.6694 4.69492 23.5308C4.68501 23.3922 4.70999 23.2534 4.76757 23.127C4.89452 22.8516 5.58983 22.2812 6.23046 21.8164V21.8164ZM6.52343 21.1367C6.52343 21.1367 4.6953 22.3516 4.41405 22.9648C4.1328 23.5762 4.40233 24.3008 5.01366 24.582C5.1592 24.649 5.31651 24.6865 5.47658 24.6926C5.63666 24.6987 5.79636 24.6732 5.94656 24.6175C6.09676 24.5618 6.23451 24.477 6.35192 24.3681C6.46934 24.2591 6.56412 24.1281 6.63085 23.9824C6.9121 23.3691 6.52343 21.1367 6.52343 21.1367V21.1367Z" fill="#424242"/>
<path opacity="0.2" d="M10.3125 24.207C10.4258 25.0742 10.4707 25.9609 10.3574 26.209C10.2908 26.353 10.1845 26.4751 10.051 26.5609C9.91743 26.6467 9.76222 26.6926 9.6035 26.6934C9.48436 26.6934 9.36913 26.668 9.2578 26.6172C9.15881 26.5719 9.06973 26.5075 8.99566 26.4278C8.92159 26.348 8.86399 26.2544 8.82616 26.1523C8.74999 25.9453 8.7578 25.7187 8.8496 25.5176C8.97655 25.2422 9.66991 24.6719 10.3125 24.207V24.207ZM10.6035 23.5273C10.6035 23.5273 8.77538 24.7422 8.49413 25.3555C8.36475 25.6486 8.35589 25.9808 8.46948 26.2804C8.58306 26.58 8.80996 26.8229 9.10114 26.9565C9.39232 27.0902 9.72441 27.1039 10.0256 26.9947C10.3268 26.8856 10.573 26.6622 10.7109 26.373C10.9922 25.7598 10.6035 23.5273 10.6035 23.5273V23.5273Z" fill="#424242"/>
<path opacity="0.2" d="M23.6523 17.459C23.7656 18.3262 23.8105 19.2109 23.6973 19.4609C23.6306 19.605 23.5243 19.7271 23.3908 19.8129C23.2573 19.8987 23.1021 19.9446 22.9434 19.9453C22.8242 19.9453 22.709 19.9199 22.5976 19.8691C22.4987 19.8239 22.4096 19.7595 22.3355 19.6797C22.2614 19.6 22.2038 19.5064 22.166 19.4043C22.0898 19.1973 22.0976 18.9707 22.1894 18.7695C22.3164 18.4941 23.0117 17.9238 23.6523 17.459V17.459ZM23.9453 16.7812C23.9453 16.7812 22.1172 17.9961 21.8359 18.6094C21.5547 19.2207 21.8242 19.9453 22.4355 20.2266C22.5811 20.2935 22.7384 20.3311 22.8985 20.3372C23.0585 20.3432 23.2182 20.3177 23.3684 20.262C23.5186 20.2063 23.6564 20.1216 23.7738 20.0126C23.8912 19.9036 23.986 19.7726 24.0527 19.627C24.332 19.0117 23.9453 16.7812 23.9453 16.7812V16.7812Z" fill="#424242"/>
<path opacity="0.2" d="M18.9512 24.207C19.0644 25.0742 19.1094 25.959 18.9961 26.209C18.9295 26.353 18.8232 26.4751 18.6896 26.5609C18.5561 26.6467 18.4009 26.6926 18.2422 26.6934C18.123 26.6934 18.0078 26.668 17.8965 26.6172C17.7975 26.5719 17.7084 26.5075 17.6343 26.4278C17.5603 26.348 17.5027 26.2544 17.4648 26.1523C17.3887 25.9453 17.3965 25.7187 17.4883 25.5176C17.6152 25.2422 18.3105 24.6719 18.9512 24.207V24.207ZM19.2441 23.5273C19.2441 23.5273 17.416 24.7422 17.1348 25.3555C16.8535 25.9668 17.123 26.6914 17.7344 26.9727C17.8799 27.0396 18.0372 27.0772 18.1973 27.0833C18.3574 27.0893 18.5171 27.0638 18.6673 27.0081C18.8175 26.9524 18.9552 26.8677 19.0726 26.7587C19.19 26.6497 19.2848 26.5187 19.3516 26.373C19.6328 25.7598 19.2441 23.5273 19.2441 23.5273V23.5273Z" fill="#424242"/>
<path opacity="0.2" d="M24.2578 21.8223C24.3711 22.6895 24.416 23.5762 24.3027 23.8242C24.2361 23.9683 24.1298 24.0904 23.9963 24.1761C23.8627 24.2619 23.7075 24.3079 23.5488 24.3086C23.4099 24.3082 23.2733 24.2729 23.1515 24.2061C23.0297 24.1393 22.9266 24.043 22.8516 23.926C22.7767 23.8091 22.7322 23.6752 22.7223 23.5366C22.7124 23.3981 22.7373 23.2592 22.7949 23.1328C22.9219 22.8594 23.6172 22.2871 24.2578 21.8223V21.8223ZM24.5508 21.1445C24.5508 21.1445 22.7226 22.3594 22.4414 22.9727C22.1601 23.584 22.4297 24.3086 23.041 24.5898C23.1865 24.6568 23.3439 24.6944 23.5039 24.7004C23.664 24.7065 23.8237 24.681 23.9739 24.6253C24.1241 24.5696 24.2619 24.4849 24.3793 24.3759C24.4967 24.2669 24.5915 24.1359 24.6582 23.9902C24.9394 23.377 24.5508 21.1445 24.5508 21.1445V21.1445Z" fill="#424242"/>
<path d="M22.1523 10.1523C22.0293 10.1523 21.9102 10.1621 21.791 10.1758C21.8848 9.86133 21.9355 9.52734 21.9355 9.18359C21.9355 7.25977 20.375 5.69922 18.4512 5.69922C17.6328 5.69922 16.8809 5.98437 16.2852 6.45703C15.4863 4.9375 13.8926 3.90234 12.0566 3.90234C9.41797 3.90234 7.2793 6.04102 7.2793 8.67969C7.2793 8.77539 7.2832 8.86914 7.28906 8.96289C5.29883 9.20508 3.75977 10.8984 3.75977 12.9531C3.75977 15.1523 5.52344 16.9375 7.71289 16.9746C8.44727 18.248 9.90625 19.1211 11.5957 19.1348C13.2285 19.1465 14.6602 18.3516 15.4336 17.1562C16.0566 17.8379 16.9531 18.2695 17.9492 18.2695C19.377 18.2695 20.5996 17.3906 21.1094 16.1445C21.4355 16.2617 21.7871 16.3301 22.1523 16.3301C23.8594 16.3301 25.2422 14.9473 25.2422 13.2402C25.2402 11.5352 23.8574 10.1523 22.1523 10.1523V10.1523Z" fill="url(#paint1_radial)"/>
<path opacity="0.2" d="M12.0566 4.48828C13.6172 4.48828 15.0391 5.34766 15.7676 6.72852C15.8496 6.88281 15.9941 6.99219 16.166 7.0293C16.2506 7.04638 16.3379 7.04493 16.4218 7.02503C16.5058 7.00514 16.5844 6.96728 16.6523 6.91406C17.1699 6.50195 17.793 6.2832 18.4531 6.2832C20.0508 6.2832 21.3516 7.58398 21.3516 9.18164C21.3516 9.45898 21.3105 9.73633 21.2305 10.0078C21.1738 10.1973 21.2168 10.4004 21.3437 10.5508C21.3989 10.6162 21.4677 10.6688 21.5453 10.7049C21.6229 10.741 21.7074 10.7597 21.793 10.7598C21.8164 10.7598 21.8379 10.7578 21.8613 10.7559C21.9707 10.7422 22.0664 10.7363 22.1543 10.7363C23.5352 10.7363 24.6582 11.8594 24.6582 13.2402C24.6582 14.6211 23.5352 15.7441 22.1543 15.7441C21.8658 15.7432 21.5797 15.6923 21.3086 15.5937C21.2441 15.5703 21.1758 15.5586 21.1113 15.5586C20.8789 15.5586 20.6621 15.6973 20.5684 15.9238C20.3575 16.4448 19.9956 16.8908 19.5292 17.2044C19.0628 17.518 18.5132 17.6849 17.9512 17.6836C17.1621 17.6836 16.4023 17.3477 15.8652 16.7598C15.8048 16.6932 15.7298 16.6415 15.6462 16.6087C15.5625 16.5758 15.4724 16.5627 15.3828 16.5703C15.2012 16.5859 15.0371 16.7207 14.9395 16.873C14.2539 17.9316 12.9883 18.625 11.6328 18.625H11.5996C10.1719 18.625 8.87695 17.8613 8.2207 16.7187C8.11719 16.541 7.92969 16.4102 7.72266 16.4062C5.85937 16.375 4.3457 14.8242 4.3457 12.9629C4.3457 11.2305 5.64258 9.75977 7.36133 9.54883C7.66797 9.51172 7.89258 9.23828 7.875 8.92969C7.86914 8.83594 7.86719 8.75391 7.86719 8.67773C7.86523 6.36914 9.74609 4.48828 12.0566 4.48828V4.48828ZM12.0566 3.90234C9.41797 3.90234 7.2793 6.04102 7.2793 8.67969C7.2793 8.77539 7.2832 8.87109 7.28906 8.96484C5.30078 9.20703 3.75977 10.9004 3.75977 12.9531C3.75977 15.1523 5.52344 16.9727 7.71289 17.0098C8.44531 18.2852 9.90625 19.2109 11.5957 19.2109H11.6328C13.25 19.2109 14.6621 18.3789 15.4316 17.1934C16.0566 17.877 16.9512 18.2891 17.9492 18.2891C19.377 18.2891 20.5996 17.4004 21.1094 16.1543C21.4355 16.2715 21.7871 16.334 22.1523 16.334C23.8594 16.334 25.2422 14.9492 25.2422 13.2422C25.2422 11.5352 23.8594 10.1523 22.1523 10.1523C22.0293 10.1523 21.9102 10.1602 21.791 10.1738C21.8848 9.85937 21.9355 9.52539 21.9355 9.18164C21.9355 7.25781 20.375 5.69727 18.4512 5.69727C17.6328 5.69727 16.8809 5.98242 16.2852 6.45508C15.4863 4.9375 13.8926 3.90234 12.0566 3.90234V3.90234Z" fill="#424242"/>
<defs>
<linearGradient id="paint0_linear" x1="13.526" y1="17.4274" x2="15.9979" y2="26.0703" gradientUnits="userSpaceOnUse">
<stop stop-color="#FBC02D"/>
<stop offset="1" stop-color="#FFEB3B"/>
</linearGradient>
<radialGradient id="paint1_radial" cx="0" cy="0" r="1" gradientUnits="userSpaceOnUse" gradientTransform="translate(13.5934 2.09082) scale(21.6621)">
<stop offset="0.264" stop-color="#E3F2FD"/>
<stop offset="0.917" stop-color="#90CAF9"/>
</radialGradient>
</defs>
</svg>
