<svg width="150" height="145" viewBox="0 0 150 145" fill="none" xmlns="http://www.w3.org/2000/svg">
<g filter="url(#filter0_d)">
<rect x="4.53857" y="0.065979" width="140.629" height="136.636" rx="20" fill="white"/>
</g>
<path d="M21.5187 77.382C20.8001 77.382 20.1561 77.2653 19.5867 77.032C19.0174 76.7987 18.5601 76.4533 18.2147 75.996C17.8787 75.5387 17.7014 74.988 17.6827 74.344H20.2307C20.2681 74.708 20.3941 74.988 20.6087 75.184C20.8234 75.3707 21.1034 75.464 21.4487 75.464C21.8034 75.464 22.0834 75.3847 22.2887 75.226C22.4941 75.058 22.5967 74.8293 22.5967 74.54C22.5967 74.2973 22.5127 74.0967 22.3447 73.938C22.1861 73.7793 21.9854 73.6487 21.7427 73.546C21.5094 73.4433 21.1734 73.3267 20.7347 73.196C20.1001 73 19.5821 72.804 19.1807 72.608C18.7794 72.412 18.4341 72.1227 18.1447 71.74C17.8554 71.3573 17.7107 70.858 17.7107 70.242C17.7107 69.3273 18.0421 68.6133 18.7047 68.1C19.3674 67.5773 20.2307 67.316 21.2947 67.316C22.3774 67.316 23.2501 67.5773 23.9127 68.1C24.5754 68.6133 24.9301 69.332 24.9767 70.256H22.3867C22.3681 69.9387 22.2514 69.6913 22.0367 69.514C21.8221 69.3273 21.5467 69.234 21.2107 69.234C20.9214 69.234 20.6881 69.3133 20.5107 69.472C20.3334 69.6213 20.2447 69.8407 20.2447 70.13C20.2447 70.4473 20.3941 70.6947 20.6927 70.872C20.9914 71.0493 21.4581 71.2407 22.0927 71.446C22.7274 71.6607 23.2407 71.866 23.6327 72.062C24.0341 72.258 24.3794 72.5427 24.6687 72.916C24.9581 73.2893 25.1027 73.77 25.1027 74.358C25.1027 74.918 24.9581 75.4267 24.6687 75.884C24.3887 76.3413 23.9781 76.7053 23.4367 76.976C22.8954 77.2467 22.2561 77.382 21.5187 77.382ZM36.544 69.388C37.5147 69.388 38.2847 69.682 38.854 70.27C39.4327 70.858 39.722 71.6747 39.722 72.72V77.284H37.342V73.042C37.342 72.538 37.2067 72.1507 36.936 71.88C36.6747 71.6 36.3107 71.46 35.844 71.46C35.3773 71.46 35.0087 71.6 34.738 71.88C34.4767 72.1507 34.346 72.538 34.346 73.042V77.284H31.966V73.042C31.966 72.538 31.8307 72.1507 31.56 71.88C31.2987 71.6 30.9347 71.46 30.468 71.46C30.0013 71.46 29.6327 71.6 29.362 71.88C29.1007 72.1507 28.97 72.538 28.97 73.042V77.284H26.576V69.472H28.97V70.452C29.2127 70.1253 29.53 69.8687 29.922 69.682C30.314 69.486 30.7573 69.388 31.252 69.388C31.84 69.388 32.3627 69.514 32.82 69.766C33.2867 70.018 33.6507 70.3773 33.912 70.844C34.1827 70.4147 34.5513 70.0647 35.018 69.794C35.4847 69.5233 35.9933 69.388 36.544 69.388ZM40.9203 73.364C40.9203 72.5613 41.0697 71.8567 41.3683 71.25C41.6763 70.6433 42.0917 70.1767 42.6143 69.85C43.137 69.5233 43.7203 69.36 44.3643 69.36C44.915 69.36 45.3957 69.472 45.8063 69.696C46.2263 69.92 46.5483 70.214 46.7723 70.578V69.472H49.1663V77.284H46.7723V76.178C46.539 76.542 46.2123 76.836 45.7923 77.06C45.3817 77.284 44.901 77.396 44.3503 77.396C43.7157 77.396 43.137 77.2327 42.6143 76.906C42.0917 76.57 41.6763 76.0987 41.3683 75.492C41.0697 74.876 40.9203 74.1667 40.9203 73.364ZM46.7723 73.378C46.7723 72.7807 46.6043 72.3093 46.2683 71.964C45.9417 71.6187 45.5403 71.446 45.0643 71.446C44.5883 71.446 44.1823 71.6187 43.8463 71.964C43.5197 72.3 43.3563 72.7667 43.3563 73.364C43.3563 73.9613 43.5197 74.4373 43.8463 74.792C44.1823 75.1373 44.5883 75.31 45.0643 75.31C45.5403 75.31 45.9417 75.1373 46.2683 74.792C46.6043 74.4467 46.7723 73.9753 46.7723 73.378ZM53.2923 70.774C53.5723 70.3447 53.9223 70.0087 54.3423 69.766C54.7623 69.514 55.2289 69.388 55.7423 69.388V71.922H55.0843C54.4869 71.922 54.0389 72.0527 53.7403 72.314C53.4416 72.566 53.2923 73.014 53.2923 73.658V77.284H50.8983V69.472H53.2923V70.774ZM61.2406 75.254V77.284H60.0226C59.1546 77.284 58.4779 77.074 57.9926 76.654C57.5072 76.2247 57.2646 75.5293 57.2646 74.568V71.46H56.3126V69.472H57.2646V67.568H59.6586V69.472H61.2266V71.46H59.6586V74.596C59.6586 74.8293 59.7146 74.9973 59.8266 75.1C59.9386 75.2027 60.1252 75.254 60.3866 75.254H61.2406ZM20.3567 97.436H23.4927V99.284H17.9627V89.456H20.3567V97.436ZM25.8386 90.66C25.4186 90.66 25.0733 90.5387 24.8026 90.296C24.5413 90.044 24.4106 89.736 24.4106 89.372C24.4106 88.9987 24.5413 88.6907 24.8026 88.448C25.0733 88.196 25.4186 88.07 25.8386 88.07C26.2493 88.07 26.5853 88.196 26.8466 88.448C27.1173 88.6907 27.2526 88.9987 27.2526 89.372C27.2526 89.736 27.1173 90.044 26.8466 90.296C26.5853 90.5387 26.2493 90.66 25.8386 90.66ZM27.0286 91.472V99.284H24.6346V91.472H27.0286ZM31.7315 91.36C32.2822 91.36 32.7628 91.472 33.1735 91.696C33.5935 91.92 33.9155 92.214 34.1395 92.578V91.472H36.5335V99.27C36.5335 99.9887 36.3888 100.637 36.0995 101.216C35.8195 101.804 35.3855 102.271 34.7975 102.616C34.2188 102.961 33.4955 103.134 32.6275 103.134C31.4702 103.134 30.5322 102.859 29.8135 102.308C29.0948 101.767 28.6842 101.029 28.5815 100.096H30.9475C31.0222 100.395 31.1995 100.628 31.4795 100.796C31.7595 100.973 32.1048 101.062 32.5155 101.062C33.0102 101.062 33.4022 100.917 33.6915 100.628C33.9902 100.348 34.1395 99.8953 34.1395 99.27V98.164C33.9062 98.528 33.5842 98.8267 33.1735 99.06C32.7628 99.284 32.2822 99.396 31.7315 99.396C31.0875 99.396 30.5042 99.2327 29.9815 98.906C29.4588 98.57 29.0435 98.0987 28.7355 97.492C28.4368 96.876 28.2875 96.1667 28.2875 95.364C28.2875 94.5613 28.4368 93.8567 28.7355 93.25C29.0435 92.6433 29.4588 92.1767 29.9815 91.85C30.5042 91.5233 31.0875 91.36 31.7315 91.36ZM34.1395 95.378C34.1395 94.7807 33.9715 94.3093 33.6355 93.964C33.3088 93.6187 32.9075 93.446 32.4315 93.446C31.9555 93.446 31.5495 93.6187 31.2135 93.964C30.8868 94.3 30.7235 94.7667 30.7235 95.364C30.7235 95.9613 30.8868 96.4373 31.2135 96.792C31.5495 97.1373 31.9555 97.31 32.4315 97.31C32.9075 97.31 33.3088 97.1373 33.6355 96.792C33.9715 96.4467 34.1395 95.9753 34.1395 95.378ZM43.0675 91.388C43.9635 91.388 44.6821 91.6867 45.2235 92.284C45.7648 92.872 46.0355 93.684 46.0355 94.72V99.284H43.6555V95.042C43.6555 94.5193 43.5201 94.1133 43.2495 93.824C42.9788 93.5347 42.6148 93.39 42.1575 93.39C41.7001 93.39 41.3361 93.5347 41.0655 93.824C40.7948 94.1133 40.6595 94.5193 40.6595 95.042V99.284H38.2655V88.924H40.6595V92.522C40.9021 92.1767 41.2335 91.9013 41.6535 91.696C42.0735 91.4907 42.5448 91.388 43.0675 91.388ZM52.0531 97.254V99.284H50.8351C49.9671 99.284 49.2904 99.074 48.8051 98.654C48.3197 98.2247 48.0771 97.5293 48.0771 96.568V93.46H47.1251V91.472H48.0771V89.568H50.4711V91.472H52.0391V93.46H50.4711V96.596C50.4711 96.8293 50.5271 96.9973 50.6391 97.1C50.7511 97.2027 50.9377 97.254 51.1991 97.254H52.0531Z" fill="black"/>
<g clip-path="url(#clip0)">
<path d="M57.2718 39.0638C57.2718 39.3783 57.2718 39.6356 56.8598 39.6356H51.6774C51.2654 39.6356 51.2654 39.3811 51.2654 39.0638C51.2654 38.7492 51.2654 38.4919 51.6774 38.4919H56.8598C57.2718 38.4948 57.2718 38.7492 57.2718 39.0638Z" fill="#79A5AF"/>
<path d="M26.2836 38.9065C26.1159 39.4898 26.1571 39.6356 25.7421 39.6356C25.4066 39.6356 25.439 39.3668 25.2624 38.9065L24.9917 37.8886C24.9917 37.4854 25.3272 37.1595 25.7421 37.1595C26.1571 37.1595 26.4926 37.4854 26.4926 37.8886L26.2836 38.9065Z" fill="#825751"/>
<path d="M46.3861 38.9065C46.2184 39.4898 46.2625 39.6356 45.8476 39.6356C45.5121 39.6356 45.5445 39.3668 45.3679 38.9065L45.0972 37.8886C45.0972 37.4854 45.4327 37.1595 45.8476 37.1595C46.2625 37.1595 46.598 37.4854 46.598 37.8886L46.3861 38.9065Z" fill="#825751"/>
<path d="M49.0083 29.2621C49.0083 32.6018 46.2214 35.3095 42.7841 35.3095H28.782C25.3447 35.3095 22.5579 32.6018 22.5579 29.2621L23.0758 26.2399C23.0758 22.9002 25.3447 20.1925 28.782 20.1925H42.7871C46.2243 20.1925 48.4933 22.9002 48.4933 26.2399L49.0083 29.2621V29.2621Z" fill="#FBB817"/>
<path d="M51.9601 33.1994C51.9601 37.9972 51.9631 38.3947 47.5164 38.3947H24.0501C19.4298 38.3947 19.6064 37.9115 19.6064 33.1994C19.6064 30.3286 20.5893 28.0012 24.0501 28.0012H47.5164C50.9772 28.0012 51.9601 30.3286 51.9601 33.1994V33.1994Z" fill="#FBB817"/>
<path d="M22.752 28.1327C22.752 28.1327 26.0274 27.5866 26.2098 30.3944" stroke="#F69028" stroke-width="0.125" stroke-linecap="round"/>
<path d="M48.8139 28.1299C48.8139 28.1299 45.4737 27.5837 45.2913 30.3916" stroke="#F69028" stroke-width="0.125" stroke-linecap="round"/>
<path d="M46.8189 34.0857C46.8189 34.9235 47.022 35.6011 45.8713 35.6011H25.6951C24.5444 35.6011 24.7475 34.9235 24.7475 34.0857C24.7475 33.2479 24.5444 32.0671 25.6951 32.0671H45.8713C47.022 32.0642 46.8189 33.2479 46.8189 34.0857Z" fill="#B89278"/>
<path d="M35.8008 33.1994H25.6391C24.0558 33.1994 25.2653 31.6039 25.2653 31.6039C26.0099 30.4087 26.2277 30.1685 27.1959 30.1685H35.8125" fill="#724941"/>
<path d="M35.795 33.1994H45.9567C47.5399 33.1994 46.3304 31.6039 46.3304 31.6039C45.5859 30.4087 45.3681 30.1685 44.3999 30.1685H35.7832" fill="#724941"/>
<path d="M47.422 14.1565C47.9753 14.9771 47.8958 16.4096 46.6275 17.4819L44.9589 18.5455C44.1496 19.0602 44.0878 18.78 42.9077 17.0329C41.6835 15.2173 41.4627 15.1344 42.2985 14.6026L43.9671 13.5389C45.8211 13.0099 46.8246 13.2129 47.422 14.1565V14.1565Z" fill="#79A5AF"/>
<path d="M47.4456 14.1708C47.4456 14.1708 53.9993 12.4238 54.2259 20.9702C54.326 24.8817 54.2259 39.0637 54.2259 39.0637" stroke="#79A5AF" stroke-width="0.25" stroke-linecap="round"/>
</g>
<defs>
<filter id="filter0_d" x="0.538574" y="0.065979" width="148.629" height="144.636" filterUnits="userSpaceOnUse" color-interpolation-filters="sRGB">
<feFlood flood-opacity="0" result="BackgroundImageFix"/>
<feColorMatrix in="SourceAlpha" type="matrix" values="0 0 0 0 0 0 0 0 0 0 0 0 0 0 0 0 0 0 127 0"/>
<feOffset dy="4"/>
<feGaussianBlur stdDeviation="2"/>
<feColorMatrix type="matrix" values="0 0 0 0 0 0 0 0 0 0 0 0 0 0 0 0 0 0 0.25 0"/>
<feBlend mode="normal" in2="BackgroundImageFix" result="effect1_dropShadow"/>
<feBlend mode="normal" in="SourceGraphic" in2="effect1_dropShadow" result="shape"/>
</filter>
<clipPath id="clip0">
<rect width="37.6686" height="36.5988" fill="white" transform="translate(19.6062 7.38574)"/>
</clipPath>
</defs>
</svg>
