<svg width="30" height="30" viewBox="0 0 30 30" fill="none" xmlns="http://www.w3.org/2000/svg">
<rect width="30" height="30" fill="white"/>
<path d="M10.0078 26.3204L12.7422 23.5078C11.7656 23.3125 10.8672 22.9219 10.0469 22.375L10.0078 26.3204Z" fill="#FFCA28"/>
<path d="M18.9922 4.67963L16.2578 7.49213C17.2344 7.68744 18.1328 8.07806 18.9531 8.62494L18.9922 4.67963" fill="#FFCA28"/>
<path d="M6.49222 17.2578L3.67972 19.9922L7.62503 19.9531C7.07816 19.1328 6.68753 18.2344 6.49222 17.2578Z" fill="#FFCA28"/>
<path d="M22.5078 13.7422L25.3203 11.0078L21.375 11.0469C21.9219 11.8672 22.3125 12.7656 22.5078 13.7422Z" fill="#FFCA28"/>
<path d="M7.62503 11.0469L3.67972 11.0078L6.49222 13.7422C6.68753 12.7656 7.07816 11.8672 7.62503 11.0469Z" fill="#FFCA28"/>
<path d="M21.375 19.9531L25.3203 19.9922L22.5078 17.2578C22.3125 18.2344 21.9219 19.1328 21.375 19.9531Z" fill="#FFCA28"/>
<path d="M12.7422 7.49213L10.0078 4.67963L10.0469 8.62494C10.8672 8.07806 11.7656 7.68744 12.7422 7.49213" fill="#FFCA28"/>
<path d="M16.2578 23.5078L18.9922 26.3204L18.9531 22.375C18.1328 22.9219 17.2344 23.3125 16.2578 23.5078Z" fill="#FFCA28"/>
<path d="M7.78125 20.1875L6.21875 23.8203L9.85156 22.2578C9.03125 21.6719 8.32813 20.9687 7.78125 20.1875Z" fill="#FFCA28"/>
<path d="M21.2187 10.8126L22.7812 7.17975L19.1484 8.74225C19.9687 9.32819 20.6718 10.0313 21.2187 10.8126Z" fill="#FFCA28"/>
<path d="M6.29688 15.4999C6.29688 14.9921 6.33594 14.5234 6.45313 14.0546L2.78125 15.4999L6.45313 16.9453C6.33594 16.4765 6.29688 16.0078 6.29688 15.4999Z" fill="#FFCA28"/>
<path d="M26.2188 15.4999L22.5469 14.0546C22.625 14.5234 22.7032 15.0312 22.7032 15.4999C22.7032 16.0078 22.6641 16.4765 22.5469 16.9453L26.2188 15.4999Z" fill="#FFCA28"/>
<path d="M9.81247 8.78119L6.17966 7.21869L7.74216 10.8515C8.32809 10.0312 9.03122 9.32806 9.81247 8.78119Z" fill="#FFCA28"/>
<path d="M19.1875 22.2187L22.8203 23.7812L21.2578 20.1484C20.6719 20.9687 19.9687 21.6718 19.1875 22.2187Z" fill="#FFCA28"/>
<path d="M15.9453 7.45312L14.5 3.78125L13.0547 7.45312C13.5234 7.375 14.0313 7.29688 14.5 7.29688C15.0078 7.29688 15.4766 7.33594 15.9453 7.45312Z" fill="#FFCA28"/>
<path d="M13.0547 23.5469L14.5 27.2188L15.9453 23.5469C15.4766 23.6641 15.0078 23.7032 14.5 23.7032C13.9922 23.7032 13.5234 23.6641 13.0547 23.5469Z" fill="#FFCA28"/>
<path d="M14.5 8.07812C10.3984 8.07812 7.07812 11.3984 7.07812 15.5C7.07812 19.6016 10.3984 22.9219 14.5 22.9219C18.6016 22.9219 21.9219 19.6016 21.9219 15.5C21.9219 11.3984 18.6016 8.07812 14.5 8.07812ZM9.96875 14.9922C10.4375 13.7422 11.1406 13.0781 11.8047 13.0781C12.4688 13.0781 13.1719 13.7031 13.6406 14.9922C13.6797 15.1094 13.4453 15.3437 13.3281 15.2266C12.8984 14.7578 12.3516 14.5625 11.8047 14.5625C11.2578 14.5625 10.7109 14.7578 10.2813 15.2266C10.125 15.3828 9.89062 15.1484 9.96875 14.9922V14.9922ZM17.8984 17.9219C17.2734 18.9375 16.0625 19.7969 14.5 19.7969C12.9375 19.7969 11.6875 18.8984 11.1016 17.9219C10.9453 17.6484 11.1406 17.375 11.4141 17.5312C13.4063 18.9375 15.6328 18.9375 17.625 17.5312C17.8594 17.375 18.0547 17.6875 17.8984 17.9219V17.9219ZM18.7578 15.2266C18.3281 14.7578 17.7812 14.5625 17.2344 14.5625C16.6875 14.5625 16.1406 14.7578 15.7109 15.2266C15.5937 15.3437 15.3594 15.1094 15.3984 14.9922C15.8672 13.7422 16.5703 13.0781 17.2344 13.0781C17.9375 13.0781 18.6016 13.7031 19.0703 14.9922C19.1094 15.1484 18.875 15.3828 18.7578 15.2266" fill="#FFCA28"/>
</svg>
