<svg width="30" height="15" viewBox="0 0 30 15" fill="none" xmlns="http://www.w3.org/2000/svg">
<rect width="30" height="15" rx="7.5" fill="black"/>
<circle cx="7.5" cy="7.5" r="7.5" fill="#FFCA28"/>
<path d="M18.19 11.08C17.6767 11.08 17.2133 10.9667 16.8 10.74C16.3933 10.5067 16.07 10.18 15.83 9.76C15.5967 9.33333 15.48 8.83667 15.48 8.27C15.48 7.70333 15.6 7.21 15.84 6.79C16.08 6.36333 16.4067 6.03667 16.82 5.81C17.2333 5.57667 17.6967 5.46 18.21 5.46C18.7233 5.46 19.1867 5.57667 19.6 5.81C20.02 6.03667 20.3467 6.36333 20.58 6.79C20.82 7.21 20.94 7.70333 20.94 8.27C20.94 8.83 20.82 9.32333 20.58 9.75C20.34 10.1767 20.01 10.5067 19.59 10.74C19.17 10.9667 18.7033 11.08 18.19 11.08ZM18.19 10.47C18.55 10.47 18.8833 10.39 19.19 10.23C19.4967 10.0633 19.7433 9.81667 19.93 9.49C20.1233 9.15667 20.22 8.75 20.22 8.27C20.22 7.79 20.1267 7.38667 19.94 7.06C19.7533 6.72667 19.5067 6.48 19.2 6.32C18.8933 6.15333 18.56 6.07 18.2 6.07C17.84 6.07 17.5067 6.15333 17.2 6.32C16.8933 6.48 16.6467 6.72667 16.46 7.06C16.28 7.38667 16.19 7.79 16.19 8.27C16.19 8.75 16.28 9.15667 16.46 9.49C16.6467 9.81667 16.89 10.0633 17.19 10.23C17.4967 10.39 17.83 10.47 18.19 10.47ZM24.366 6.13H23.096V11H22.396V6.13H21.636V5.54H22.396V5.16C22.396 4.56667 22.546 4.13 22.846 3.85C23.1527 3.57 23.646 3.43 24.326 3.43V4.03C23.8727 4.03 23.5527 4.11667 23.366 4.29C23.186 4.46333 23.096 4.75333 23.096 5.16V5.54H24.366V6.13ZM27.618 6.13H26.348V11H25.648V6.13H24.888V5.54H25.648V5.16C25.648 4.56667 25.798 4.13 26.098 3.85C26.4046 3.57 26.898 3.43 27.578 3.43V4.03C27.1246 4.03 26.8046 4.11667 26.618 4.29C26.438 4.46333 26.348 4.75333 26.348 5.16V5.54H27.618V6.13Z" fill="white"/>
</svg>
