<svg width="30" height="16" viewBox="0 0 30 16" fill="none" xmlns="http://www.w3.org/2000/svg">
<rect y="1" width="30" height="15" rx="7.5" fill="#FFCE31"/>
<path d="M4.19 11.08C3.67667 11.08 3.21333 10.9667 2.8 10.74C2.39333 10.5067 2.07 10.18 1.83 9.76C1.59667 9.33333 1.48 8.83667 1.48 8.27C1.48 7.70333 1.6 7.21 1.84 6.79C2.08 6.36333 2.40667 6.03667 2.82 5.81C3.23333 5.57667 3.69667 5.46 4.21 5.46C4.72333 5.46 5.18667 5.57667 5.6 5.81C6.02 6.03667 6.34667 6.36333 6.58 6.79C6.82 7.21 6.94 7.70333 6.94 8.27C6.94 8.83 6.82 9.32333 6.58 9.75C6.34 10.1767 6.01 10.5067 5.59 10.74C5.17 10.9667 4.70333 11.08 4.19 11.08ZM4.19 10.47C4.55 10.47 4.88333 10.39 5.19 10.23C5.49667 10.0633 5.74333 9.81667 5.93 9.49C6.12333 9.15667 6.22 8.75 6.22 8.27C6.22 7.79 6.12667 7.38667 5.94 7.06C5.75333 6.72667 5.50667 6.48 5.2 6.32C4.89333 6.15333 4.56 6.07 4.2 6.07C3.84 6.07 3.50667 6.15333 3.2 6.32C2.89333 6.48 2.64667 6.72667 2.46 7.06C2.28 7.38667 2.19 7.79 2.19 8.27C2.19 8.75 2.28 9.15667 2.46 9.49C2.64667 9.81667 2.89 10.0633 3.19 10.23C3.49667 10.39 3.83 10.47 4.19 10.47ZM10.776 5.44C11.4293 5.44 11.9627 5.64333 12.376 6.05C12.7893 6.45 12.996 7.03333 12.996 7.8V11H12.306V7.88C12.306 7.28667 12.156 6.83333 11.856 6.52C11.5627 6.20667 11.1593 6.05 10.646 6.05C10.1193 6.05 9.69935 6.21667 9.38602 6.55C9.07268 6.88333 8.91602 7.37333 8.91602 8.02V11H8.21602V5.54H8.91602V6.47C9.08935 6.13667 9.33935 5.88333 9.66602 5.71C9.99268 5.53 10.3627 5.44 10.776 5.44Z" fill="white"/>
<circle cx="22.5" cy="8.5" r="7.5" fill="black"/>
</svg>
