G04*
G04 #@! TF.GenerationSoftware,Altium Limited,Altium Designer,18.1.6 (161)*
G04*
G04 Layer_Color=2752767*
%FSTAX24Y24*%
%MOIN*%
G70*
G01*
G75*
%ADD74C,0.0020*%
%ADD75C,0.0027*%
D74*
X04072Y04012D02*
Y04028D01*
X04088D01*
Y04012D01*
X04072D01*
Y03912D02*
Y03928D01*
X04088D01*
Y03912D01*
X04072D01*
Y03812D02*
Y03828D01*
X04088D01*
Y03812D01*
X04072D01*
Y03712D02*
Y03728D01*
X04088D01*
Y03712D01*
X04072D01*
X03945Y02315D02*
Y02331D01*
X03961D01*
Y02315D01*
X03945D01*
X04045D02*
Y02331D01*
X04061D01*
Y02315D01*
X04045D01*
X04145D02*
Y02331D01*
X04161D01*
Y02315D01*
X04145D01*
X04245D02*
Y02331D01*
X04261D01*
Y02315D01*
X04245D01*
X074795Y06762D02*
X074715Y06778D01*
X074875D01*
X074795Y06762D01*
X0748Y06462D02*
X07472Y06478D01*
X07488D01*
X0748Y06462D01*
X0588Y06327D02*
X05884Y06331D01*
X05888D01*
X05884Y06335D01*
X05888Y06339D01*
X05884D01*
X0588Y06343D01*
X05876Y06339D01*
X05872D01*
X05876Y06335D01*
X05872Y06331D01*
X05876D01*
X0588Y06327D01*
X0578D02*
X05784Y06331D01*
X05788D01*
X05784Y06335D01*
X05788Y06339D01*
X05784D01*
X0578Y06343D01*
X05776Y06339D01*
X05772D01*
X05776Y06335D01*
X05772Y06331D01*
X05776D01*
X0578Y06327D01*
X0568D02*
X05684Y06331D01*
X05688D01*
X05684Y06335D01*
X05688Y06339D01*
X05684D01*
X0568Y06343D01*
X05676Y06339D01*
X05672D01*
X05676Y06335D01*
X05672Y06331D01*
X05676D01*
X0568Y06327D01*
X05881Y05902D02*
X05885Y05906D01*
X05889D01*
X05885Y0591D01*
X05889Y05914D01*
X05885D01*
X05881Y05918D01*
X05877Y05914D01*
X05873D01*
X05877Y0591D01*
X05873Y05906D01*
X05877D01*
X05881Y05902D01*
X05781D02*
X05785Y05906D01*
X05789D01*
X05785Y0591D01*
X05789Y05914D01*
X05785D01*
X05781Y05918D01*
X05777Y05914D01*
X05773D01*
X05777Y0591D01*
X05773Y05906D01*
X05777D01*
X05781Y05902D01*
X05681D02*
X05685Y05906D01*
X05689D01*
X05685Y0591D01*
X05689Y05914D01*
X05685D01*
X05681Y05918D01*
X05677Y05914D01*
X05673D01*
X05677Y0591D01*
X05673Y05906D01*
X05677D01*
X05681Y05902D01*
X074355Y05392D02*
Y05408D01*
X074515D01*
Y05392D01*
X074355D01*
Y05292D02*
Y05308D01*
X074515D01*
Y05292D01*
X074355D01*
Y05192D02*
Y05208D01*
X074515D01*
Y05192D01*
X074355D01*
Y05092D02*
Y05108D01*
X074515D01*
Y05092D01*
X074355D01*
Y04852D02*
Y04868D01*
X074515D01*
Y04852D01*
X074355D01*
Y04752D02*
Y04768D01*
X074515D01*
Y04752D01*
X074355D01*
Y04652D02*
Y04668D01*
X074515D01*
Y04652D01*
X074355D01*
Y04552D02*
Y04568D01*
X074515D01*
Y04552D01*
X074355D01*
X05504Y03955D02*
X05508Y03963D01*
X05504Y03971D01*
X05512Y03967D01*
X0552Y03971D01*
X05516Y03963D01*
X0552Y03955D01*
X05512Y03959D01*
X05504Y03955D01*
Y03605D02*
X05508Y03613D01*
X05504Y03621D01*
X05512Y03617D01*
X0552Y03621D01*
X05516Y03613D01*
X0552Y03605D01*
X05512Y03609D01*
X05504Y03605D01*
X052373Y03955D02*
X052413Y03963D01*
X052373Y03971D01*
X052453Y03967D01*
X052533Y03971D01*
X052493Y03963D01*
X052533Y03955D01*
X052453Y03959D01*
X052373Y03955D01*
Y03605D02*
X052413Y03613D01*
X052373Y03621D01*
X052453Y03617D01*
X052533Y03621D01*
X052493Y03613D01*
X052533Y03605D01*
X052453Y03609D01*
X052373Y03605D01*
X05104Y03955D02*
X05108Y03963D01*
X05104Y03971D01*
X05112Y03967D01*
X0512Y03971D01*
X05116Y03963D01*
X0512Y03955D01*
X05112Y03959D01*
X05104Y03955D01*
Y03605D02*
X05108Y03613D01*
X05104Y03621D01*
X05112Y03617D01*
X0512Y03621D01*
X05116Y03613D01*
X0512Y03605D01*
X05112Y03609D01*
X05104Y03605D01*
X053707Y03955D02*
X053747Y03963D01*
X053707Y03971D01*
X053787Y03967D01*
X053867Y03971D01*
X053827Y03963D01*
X053867Y03955D01*
X053787Y03959D01*
X053707Y03955D01*
Y03605D02*
X053747Y03613D01*
X053707Y03621D01*
X053787Y03617D01*
X053867Y03621D01*
X053827Y03613D01*
X053867Y03605D01*
X053787Y03609D01*
X053707Y03605D01*
X059364Y06122D02*
X059404Y0613D01*
X059364Y06138D01*
X059444Y06134D01*
X059524Y06138D01*
X059484Y0613D01*
X059524Y06122D01*
X059444Y06126D01*
X059364Y06122D01*
X055864D02*
X055904Y0613D01*
X055864Y06138D01*
X055944Y06134D01*
X056024Y06138D01*
X055984Y0613D01*
X056024Y06122D01*
X055944Y06126D01*
X055864Y06122D01*
X05402Y0597D02*
X05406Y05978D01*
X05402Y05986D01*
X0541Y05982D01*
X05418Y05986D01*
X05414Y05978D01*
X05418Y0597D01*
X0541Y05974D01*
X05402Y0597D01*
Y0632D02*
X05406Y06328D01*
X05402Y06336D01*
X0541Y06332D01*
X05418Y06336D01*
X05414Y06328D01*
X05418Y0632D01*
X0541Y06324D01*
X05402Y0632D01*
X05236Y063284D02*
Y063244D01*
X05244D01*
Y063284D01*
X05248D01*
Y063364D01*
X05244D01*
Y063404D01*
X05236D01*
Y063364D01*
X05232D01*
Y063284D01*
X05236D01*
Y059784D02*
Y059744D01*
X05244D01*
Y059784D01*
X05248D01*
Y059864D01*
X05244D01*
Y059904D01*
X05236D01*
Y059864D01*
X05232D01*
Y059784D01*
X05236D01*
X06372Y05903D02*
X06376Y05911D01*
X06372Y05919D01*
X0638Y05915D01*
X06388Y05919D01*
X06384Y05911D01*
X06388Y05903D01*
X0638Y05907D01*
X06372Y05903D01*
X06022D02*
X06026Y05911D01*
X06022Y05919D01*
X0603Y05915D01*
X06038Y05919D01*
X06034Y05911D01*
X06038Y05903D01*
X0603Y05907D01*
X06022Y05903D01*
X07782Y020602D02*
X07786D01*
X0779Y020642D01*
X07794Y020602D01*
X07798D01*
Y020642D01*
X07794Y020682D01*
X07798Y020722D01*
Y020762D01*
X07794D01*
X0779Y020722D01*
X07786Y020762D01*
X07782D01*
Y020722D01*
X07786Y020682D01*
X07782Y020642D01*
Y020602D01*
X03722D02*
X03726D01*
X0373Y020642D01*
X03734Y020602D01*
X03738D01*
Y020642D01*
X03734Y020682D01*
X03738Y020722D01*
Y020762D01*
X03734D01*
X0373Y020722D01*
X03726Y020762D01*
X03722D01*
Y020722D01*
X03726Y020682D01*
X03722Y020642D01*
Y020602D01*
X07772Y07412D02*
X07776D01*
X0778Y07416D01*
X07784Y07412D01*
X07788D01*
Y07416D01*
X07784Y0742D01*
X07788Y07424D01*
Y07428D01*
X07784D01*
X0778Y07424D01*
X07776Y07428D01*
X07772D01*
Y07424D01*
X07776Y0742D01*
X07772Y07416D01*
Y07412D01*
X04653Y05444D02*
Y0544D01*
X04661D01*
Y05444D01*
X04665D01*
Y05452D01*
X04661D01*
Y05456D01*
X04653D01*
Y05452D01*
X04649D01*
Y05444D01*
X04653D01*
X04753D02*
Y0544D01*
X04761D01*
Y05444D01*
X04765D01*
Y05452D01*
X04761D01*
Y05456D01*
X04753D01*
Y05452D01*
X04749D01*
Y05444D01*
X04753D01*
X04653Y05344D02*
Y0534D01*
X04661D01*
Y05344D01*
X04665D01*
Y05352D01*
X04661D01*
Y05356D01*
X04653D01*
Y05352D01*
X04649D01*
Y05344D01*
X04653D01*
X04753D02*
Y0534D01*
X04761D01*
Y05344D01*
X04765D01*
Y05352D01*
X04761D01*
Y05356D01*
X04753D01*
Y05352D01*
X04749D01*
Y05344D01*
X04753D01*
X04653Y05244D02*
Y0524D01*
X04661D01*
Y05244D01*
X04665D01*
Y05252D01*
X04661D01*
Y05256D01*
X04653D01*
Y05252D01*
X04649D01*
Y05244D01*
X04653D01*
X04753D02*
Y0524D01*
X04761D01*
Y05244D01*
X04765D01*
Y05252D01*
X04761D01*
Y05256D01*
X04753D01*
Y05252D01*
X04749D01*
Y05244D01*
X04753D01*
X04653Y05144D02*
Y0514D01*
X04661D01*
Y05144D01*
X04665D01*
Y05152D01*
X04661D01*
Y05156D01*
X04653D01*
Y05152D01*
X04649D01*
Y05144D01*
X04653D01*
X04753D02*
Y0514D01*
X04761D01*
Y05144D01*
X04765D01*
Y05152D01*
X04761D01*
Y05156D01*
X04753D01*
Y05152D01*
X04749D01*
Y05144D01*
X04753D01*
X04653Y05044D02*
Y0504D01*
X04661D01*
Y05044D01*
X04665D01*
Y05052D01*
X04661D01*
Y05056D01*
X04653D01*
Y05052D01*
X04649D01*
Y05044D01*
X04653D01*
X04753D02*
Y0504D01*
X04761D01*
Y05044D01*
X04765D01*
Y05052D01*
X04761D01*
Y05056D01*
X04753D01*
Y05052D01*
X04749D01*
Y05044D01*
X04753D01*
X04653Y04944D02*
Y0494D01*
X04661D01*
Y04944D01*
X04665D01*
Y04952D01*
X04661D01*
Y04956D01*
X04653D01*
Y04952D01*
X04649D01*
Y04944D01*
X04653D01*
X04753D02*
Y0494D01*
X04761D01*
Y04944D01*
X04765D01*
Y04952D01*
X04761D01*
Y04956D01*
X04753D01*
Y04952D01*
X04749D01*
Y04944D01*
X04753D01*
X04653Y04844D02*
Y0484D01*
X04661D01*
Y04844D01*
X04665D01*
Y04852D01*
X04661D01*
Y04856D01*
X04653D01*
Y04852D01*
X04649D01*
Y04844D01*
X04653D01*
X04753D02*
Y0484D01*
X04761D01*
Y04844D01*
X04765D01*
Y04852D01*
X04761D01*
Y04856D01*
X04753D01*
Y04852D01*
X04749D01*
Y04844D01*
X04753D01*
X04653Y04744D02*
Y0474D01*
X04661D01*
Y04744D01*
X04665D01*
Y04752D01*
X04661D01*
Y04756D01*
X04653D01*
Y04752D01*
X04649D01*
Y04744D01*
X04653D01*
X04753D02*
Y0474D01*
X04761D01*
Y04744D01*
X04765D01*
Y04752D01*
X04761D01*
Y04756D01*
X04753D01*
Y04752D01*
X04749D01*
Y04744D01*
X04753D01*
X04653Y04644D02*
Y0464D01*
X04661D01*
Y04644D01*
X04665D01*
Y04652D01*
X04661D01*
Y04656D01*
X04653D01*
Y04652D01*
X04649D01*
Y04644D01*
X04653D01*
X04753D02*
Y0464D01*
X04761D01*
Y04644D01*
X04765D01*
Y04652D01*
X04761D01*
Y04656D01*
X04753D01*
Y04652D01*
X04749D01*
Y04644D01*
X04753D01*
X04653Y04544D02*
Y0454D01*
X04661D01*
Y04544D01*
X04665D01*
Y04552D01*
X04661D01*
Y04556D01*
X04653D01*
Y04552D01*
X04649D01*
Y04544D01*
X04653D01*
X04753D02*
Y0454D01*
X04761D01*
Y04544D01*
X04765D01*
Y04552D01*
X04761D01*
Y04556D01*
X04753D01*
Y04552D01*
X04749D01*
Y04544D01*
X04753D01*
X04653Y04444D02*
Y0444D01*
X04661D01*
Y04444D01*
X04665D01*
Y04452D01*
X04661D01*
Y04456D01*
X04653D01*
Y04452D01*
X04649D01*
Y04444D01*
X04653D01*
X04753D02*
Y0444D01*
X04761D01*
Y04444D01*
X04765D01*
Y04452D01*
X04761D01*
Y04456D01*
X04753D01*
Y04452D01*
X04749D01*
Y04444D01*
X04753D01*
X04653Y04344D02*
Y0434D01*
X04661D01*
Y04344D01*
X04665D01*
Y04352D01*
X04661D01*
Y04356D01*
X04653D01*
Y04352D01*
X04649D01*
Y04344D01*
X04653D01*
X04753D02*
Y0434D01*
X04761D01*
Y04344D01*
X04765D01*
Y04352D01*
X04761D01*
Y04356D01*
X04753D01*
Y04352D01*
X04749D01*
Y04344D01*
X04753D01*
X04653Y04244D02*
Y0424D01*
X04661D01*
Y04244D01*
X04665D01*
Y04252D01*
X04661D01*
Y04256D01*
X04653D01*
Y04252D01*
X04649D01*
Y04244D01*
X04653D01*
X04753D02*
Y0424D01*
X04761D01*
Y04244D01*
X04765D01*
Y04252D01*
X04761D01*
Y04256D01*
X04753D01*
Y04252D01*
X04749D01*
Y04244D01*
X04753D01*
X04653Y04144D02*
Y0414D01*
X04661D01*
Y04144D01*
X04665D01*
Y04152D01*
X04661D01*
Y04156D01*
X04653D01*
Y04152D01*
X04649D01*
Y04144D01*
X04653D01*
X04753D02*
Y0414D01*
X04761D01*
Y04144D01*
X04765D01*
Y04152D01*
X04761D01*
Y04156D01*
X04753D01*
Y04152D01*
X04749D01*
Y04144D01*
X04753D01*
X04653Y04044D02*
Y0404D01*
X04661D01*
Y04044D01*
X04665D01*
Y04052D01*
X04661D01*
Y04056D01*
X04653D01*
Y04052D01*
X04649D01*
Y04044D01*
X04653D01*
X04753D02*
Y0404D01*
X04761D01*
Y04044D01*
X04765D01*
Y04052D01*
X04761D01*
Y04056D01*
X04753D01*
Y04052D01*
X04749D01*
Y04044D01*
X04753D01*
X04653Y03944D02*
Y0394D01*
X04661D01*
Y03944D01*
X04665D01*
Y03952D01*
X04661D01*
Y03956D01*
X04653D01*
Y03952D01*
X04649D01*
Y03944D01*
X04653D01*
X04753D02*
Y0394D01*
X04761D01*
Y03944D01*
X04765D01*
Y03952D01*
X04761D01*
Y03956D01*
X04753D01*
Y03952D01*
X04749D01*
Y03944D01*
X04753D01*
X04653Y03844D02*
Y0384D01*
X04661D01*
Y03844D01*
X04665D01*
Y03852D01*
X04661D01*
Y03856D01*
X04653D01*
Y03852D01*
X04649D01*
Y03844D01*
X04653D01*
X04753D02*
Y0384D01*
X04761D01*
Y03844D01*
X04765D01*
Y03852D01*
X04761D01*
Y03856D01*
X04753D01*
Y03852D01*
X04749D01*
Y03844D01*
X04753D01*
X04653Y03744D02*
Y0374D01*
X04661D01*
Y03744D01*
X04665D01*
Y03752D01*
X04661D01*
Y03756D01*
X04653D01*
Y03752D01*
X04649D01*
Y03744D01*
X04653D01*
X04753D02*
Y0374D01*
X04761D01*
Y03744D01*
X04765D01*
Y03752D01*
X04761D01*
Y03756D01*
X04753D01*
Y03752D01*
X04749D01*
Y03744D01*
X04753D01*
X04653Y03644D02*
Y0364D01*
X04661D01*
Y03644D01*
X04665D01*
Y03652D01*
X04661D01*
Y03656D01*
X04653D01*
Y03652D01*
X04649D01*
Y03644D01*
X04653D01*
X04753D02*
Y0364D01*
X04761D01*
Y03644D01*
X04765D01*
Y03652D01*
X04761D01*
Y03656D01*
X04753D01*
Y03652D01*
X04749D01*
Y03644D01*
X04753D01*
X04653Y03544D02*
Y0354D01*
X04661D01*
Y03544D01*
X04665D01*
Y03552D01*
X04661D01*
Y03556D01*
X04653D01*
Y03552D01*
X04649D01*
Y03544D01*
X04653D01*
X04753D02*
Y0354D01*
X04761D01*
Y03544D01*
X04765D01*
Y03552D01*
X04761D01*
Y03556D01*
X04753D01*
Y03552D01*
X04749D01*
Y03544D01*
X04753D01*
X04653Y03444D02*
Y0344D01*
X04661D01*
Y03444D01*
X04665D01*
Y03452D01*
X04661D01*
Y03456D01*
X04653D01*
Y03452D01*
X04649D01*
Y03444D01*
X04653D01*
X04753D02*
Y0344D01*
X04761D01*
Y03444D01*
X04765D01*
Y03452D01*
X04761D01*
Y03456D01*
X04753D01*
Y03452D01*
X04749D01*
Y03444D01*
X04753D01*
X04653Y03344D02*
Y0334D01*
X04661D01*
Y03344D01*
X04665D01*
Y03352D01*
X04661D01*
Y03356D01*
X04653D01*
Y03352D01*
X04649D01*
Y03344D01*
X04653D01*
X04753D02*
Y0334D01*
X04761D01*
Y03344D01*
X04765D01*
Y03352D01*
X04761D01*
Y03356D01*
X04753D01*
Y03352D01*
X04749D01*
Y03344D01*
X04753D01*
X04653Y03244D02*
Y0324D01*
X04661D01*
Y03244D01*
X04665D01*
Y03252D01*
X04661D01*
Y03256D01*
X04653D01*
Y03252D01*
X04649D01*
Y03244D01*
X04653D01*
X04753D02*
Y0324D01*
X04761D01*
Y03244D01*
X04765D01*
Y03252D01*
X04761D01*
Y03256D01*
X04753D01*
Y03252D01*
X04749D01*
Y03244D01*
X04753D01*
X04653Y03144D02*
Y0314D01*
X04661D01*
Y03144D01*
X04665D01*
Y03152D01*
X04661D01*
Y03156D01*
X04653D01*
Y03152D01*
X04649D01*
Y03144D01*
X04653D01*
X04753D02*
Y0314D01*
X04761D01*
Y03144D01*
X04765D01*
Y03152D01*
X04761D01*
Y03156D01*
X04753D01*
Y03152D01*
X04749D01*
Y03144D01*
X04753D01*
X04653Y03044D02*
Y0304D01*
X04661D01*
Y03044D01*
X04665D01*
Y03052D01*
X04661D01*
Y03056D01*
X04653D01*
Y03052D01*
X04649D01*
Y03044D01*
X04653D01*
X04753D02*
Y0304D01*
X04761D01*
Y03044D01*
X04765D01*
Y03052D01*
X04761D01*
Y03056D01*
X04753D01*
Y03052D01*
X04749D01*
Y03044D01*
X04753D01*
X06653Y05444D02*
Y0544D01*
X06661D01*
Y05444D01*
X06665D01*
Y05452D01*
X06661D01*
Y05456D01*
X06653D01*
Y05452D01*
X06649D01*
Y05444D01*
X06653D01*
X06753D02*
Y0544D01*
X06761D01*
Y05444D01*
X06765D01*
Y05452D01*
X06761D01*
Y05456D01*
X06753D01*
Y05452D01*
X06749D01*
Y05444D01*
X06753D01*
X06653Y05344D02*
Y0534D01*
X06661D01*
Y05344D01*
X06665D01*
Y05352D01*
X06661D01*
Y05356D01*
X06653D01*
Y05352D01*
X06649D01*
Y05344D01*
X06653D01*
X06753D02*
Y0534D01*
X06761D01*
Y05344D01*
X06765D01*
Y05352D01*
X06761D01*
Y05356D01*
X06753D01*
Y05352D01*
X06749D01*
Y05344D01*
X06753D01*
X06653Y05244D02*
Y0524D01*
X06661D01*
Y05244D01*
X06665D01*
Y05252D01*
X06661D01*
Y05256D01*
X06653D01*
Y05252D01*
X06649D01*
Y05244D01*
X06653D01*
X06753D02*
Y0524D01*
X06761D01*
Y05244D01*
X06765D01*
Y05252D01*
X06761D01*
Y05256D01*
X06753D01*
Y05252D01*
X06749D01*
Y05244D01*
X06753D01*
X06653Y05144D02*
Y0514D01*
X06661D01*
Y05144D01*
X06665D01*
Y05152D01*
X06661D01*
Y05156D01*
X06653D01*
Y05152D01*
X06649D01*
Y05144D01*
X06653D01*
X06753D02*
Y0514D01*
X06761D01*
Y05144D01*
X06765D01*
Y05152D01*
X06761D01*
Y05156D01*
X06753D01*
Y05152D01*
X06749D01*
Y05144D01*
X06753D01*
X06653Y05044D02*
Y0504D01*
X06661D01*
Y05044D01*
X06665D01*
Y05052D01*
X06661D01*
Y05056D01*
X06653D01*
Y05052D01*
X06649D01*
Y05044D01*
X06653D01*
X06753D02*
Y0504D01*
X06761D01*
Y05044D01*
X06765D01*
Y05052D01*
X06761D01*
Y05056D01*
X06753D01*
Y05052D01*
X06749D01*
Y05044D01*
X06753D01*
X06653Y04944D02*
Y0494D01*
X06661D01*
Y04944D01*
X06665D01*
Y04952D01*
X06661D01*
Y04956D01*
X06653D01*
Y04952D01*
X06649D01*
Y04944D01*
X06653D01*
X06753D02*
Y0494D01*
X06761D01*
Y04944D01*
X06765D01*
Y04952D01*
X06761D01*
Y04956D01*
X06753D01*
Y04952D01*
X06749D01*
Y04944D01*
X06753D01*
X06653Y04844D02*
Y0484D01*
X06661D01*
Y04844D01*
X06665D01*
Y04852D01*
X06661D01*
Y04856D01*
X06653D01*
Y04852D01*
X06649D01*
Y04844D01*
X06653D01*
X06753D02*
Y0484D01*
X06761D01*
Y04844D01*
X06765D01*
Y04852D01*
X06761D01*
Y04856D01*
X06753D01*
Y04852D01*
X06749D01*
Y04844D01*
X06753D01*
X06653Y04744D02*
Y0474D01*
X06661D01*
Y04744D01*
X06665D01*
Y04752D01*
X06661D01*
Y04756D01*
X06653D01*
Y04752D01*
X06649D01*
Y04744D01*
X06653D01*
X06753D02*
Y0474D01*
X06761D01*
Y04744D01*
X06765D01*
Y04752D01*
X06761D01*
Y04756D01*
X06753D01*
Y04752D01*
X06749D01*
Y04744D01*
X06753D01*
X06653Y04644D02*
Y0464D01*
X06661D01*
Y04644D01*
X06665D01*
Y04652D01*
X06661D01*
Y04656D01*
X06653D01*
Y04652D01*
X06649D01*
Y04644D01*
X06653D01*
X06753D02*
Y0464D01*
X06761D01*
Y04644D01*
X06765D01*
Y04652D01*
X06761D01*
Y04656D01*
X06753D01*
Y04652D01*
X06749D01*
Y04644D01*
X06753D01*
X06653Y04544D02*
Y0454D01*
X06661D01*
Y04544D01*
X06665D01*
Y04552D01*
X06661D01*
Y04556D01*
X06653D01*
Y04552D01*
X06649D01*
Y04544D01*
X06653D01*
X06753D02*
Y0454D01*
X06761D01*
Y04544D01*
X06765D01*
Y04552D01*
X06761D01*
Y04556D01*
X06753D01*
Y04552D01*
X06749D01*
Y04544D01*
X06753D01*
X06653Y04444D02*
Y0444D01*
X06661D01*
Y04444D01*
X06665D01*
Y04452D01*
X06661D01*
Y04456D01*
X06653D01*
Y04452D01*
X06649D01*
Y04444D01*
X06653D01*
X06753D02*
Y0444D01*
X06761D01*
Y04444D01*
X06765D01*
Y04452D01*
X06761D01*
Y04456D01*
X06753D01*
Y04452D01*
X06749D01*
Y04444D01*
X06753D01*
X06653Y04344D02*
Y0434D01*
X06661D01*
Y04344D01*
X06665D01*
Y04352D01*
X06661D01*
Y04356D01*
X06653D01*
Y04352D01*
X06649D01*
Y04344D01*
X06653D01*
X06753D02*
Y0434D01*
X06761D01*
Y04344D01*
X06765D01*
Y04352D01*
X06761D01*
Y04356D01*
X06753D01*
Y04352D01*
X06749D01*
Y04344D01*
X06753D01*
X06653Y04244D02*
Y0424D01*
X06661D01*
Y04244D01*
X06665D01*
Y04252D01*
X06661D01*
Y04256D01*
X06653D01*
Y04252D01*
X06649D01*
Y04244D01*
X06653D01*
X06753D02*
Y0424D01*
X06761D01*
Y04244D01*
X06765D01*
Y04252D01*
X06761D01*
Y04256D01*
X06753D01*
Y04252D01*
X06749D01*
Y04244D01*
X06753D01*
X06653Y04144D02*
Y0414D01*
X06661D01*
Y04144D01*
X06665D01*
Y04152D01*
X06661D01*
Y04156D01*
X06653D01*
Y04152D01*
X06649D01*
Y04144D01*
X06653D01*
X06753D02*
Y0414D01*
X06761D01*
Y04144D01*
X06765D01*
Y04152D01*
X06761D01*
Y04156D01*
X06753D01*
Y04152D01*
X06749D01*
Y04144D01*
X06753D01*
X06653Y04044D02*
Y0404D01*
X06661D01*
Y04044D01*
X06665D01*
Y04052D01*
X06661D01*
Y04056D01*
X06653D01*
Y04052D01*
X06649D01*
Y04044D01*
X06653D01*
X06753D02*
Y0404D01*
X06761D01*
Y04044D01*
X06765D01*
Y04052D01*
X06761D01*
Y04056D01*
X06753D01*
Y04052D01*
X06749D01*
Y04044D01*
X06753D01*
X06653Y03944D02*
Y0394D01*
X06661D01*
Y03944D01*
X06665D01*
Y03952D01*
X06661D01*
Y03956D01*
X06653D01*
Y03952D01*
X06649D01*
Y03944D01*
X06653D01*
X06753D02*
Y0394D01*
X06761D01*
Y03944D01*
X06765D01*
Y03952D01*
X06761D01*
Y03956D01*
X06753D01*
Y03952D01*
X06749D01*
Y03944D01*
X06753D01*
X06653Y03844D02*
Y0384D01*
X06661D01*
Y03844D01*
X06665D01*
Y03852D01*
X06661D01*
Y03856D01*
X06653D01*
Y03852D01*
X06649D01*
Y03844D01*
X06653D01*
X06753D02*
Y0384D01*
X06761D01*
Y03844D01*
X06765D01*
Y03852D01*
X06761D01*
Y03856D01*
X06753D01*
Y03852D01*
X06749D01*
Y03844D01*
X06753D01*
X06653Y03744D02*
Y0374D01*
X06661D01*
Y03744D01*
X06665D01*
Y03752D01*
X06661D01*
Y03756D01*
X06653D01*
Y03752D01*
X06649D01*
Y03744D01*
X06653D01*
X06753D02*
Y0374D01*
X06761D01*
Y03744D01*
X06765D01*
Y03752D01*
X06761D01*
Y03756D01*
X06753D01*
Y03752D01*
X06749D01*
Y03744D01*
X06753D01*
X06653Y03644D02*
Y0364D01*
X06661D01*
Y03644D01*
X06665D01*
Y03652D01*
X06661D01*
Y03656D01*
X06653D01*
Y03652D01*
X06649D01*
Y03644D01*
X06653D01*
X06753D02*
Y0364D01*
X06761D01*
Y03644D01*
X06765D01*
Y03652D01*
X06761D01*
Y03656D01*
X06753D01*
Y03652D01*
X06749D01*
Y03644D01*
X06753D01*
X06653Y03544D02*
Y0354D01*
X06661D01*
Y03544D01*
X06665D01*
Y03552D01*
X06661D01*
Y03556D01*
X06653D01*
Y03552D01*
X06649D01*
Y03544D01*
X06653D01*
X06753D02*
Y0354D01*
X06761D01*
Y03544D01*
X06765D01*
Y03552D01*
X06761D01*
Y03556D01*
X06753D01*
Y03552D01*
X06749D01*
Y03544D01*
X06753D01*
X06653Y03444D02*
Y0344D01*
X06661D01*
Y03444D01*
X06665D01*
Y03452D01*
X06661D01*
Y03456D01*
X06653D01*
Y03452D01*
X06649D01*
Y03444D01*
X06653D01*
X06753D02*
Y0344D01*
X06761D01*
Y03444D01*
X06765D01*
Y03452D01*
X06761D01*
Y03456D01*
X06753D01*
Y03452D01*
X06749D01*
Y03444D01*
X06753D01*
X06653Y03344D02*
Y0334D01*
X06661D01*
Y03344D01*
X06665D01*
Y03352D01*
X06661D01*
Y03356D01*
X06653D01*
Y03352D01*
X06649D01*
Y03344D01*
X06653D01*
X06753D02*
Y0334D01*
X06761D01*
Y03344D01*
X06765D01*
Y03352D01*
X06761D01*
Y03356D01*
X06753D01*
Y03352D01*
X06749D01*
Y03344D01*
X06753D01*
X06653Y03244D02*
Y0324D01*
X06661D01*
Y03244D01*
X06665D01*
Y03252D01*
X06661D01*
Y03256D01*
X06653D01*
Y03252D01*
X06649D01*
Y03244D01*
X06653D01*
X06753D02*
Y0324D01*
X06761D01*
Y03244D01*
X06765D01*
Y03252D01*
X06761D01*
Y03256D01*
X06753D01*
Y03252D01*
X06749D01*
Y03244D01*
X06753D01*
X06653Y03144D02*
Y0314D01*
X06661D01*
Y03144D01*
X06665D01*
Y03152D01*
X06661D01*
Y03156D01*
X06653D01*
Y03152D01*
X06649D01*
Y03144D01*
X06653D01*
X06753D02*
Y0314D01*
X06761D01*
Y03144D01*
X06765D01*
Y03152D01*
X06761D01*
Y03156D01*
X06753D01*
Y03152D01*
X06749D01*
Y03144D01*
X06753D01*
X06653Y03044D02*
Y0304D01*
X06661D01*
Y03044D01*
X06665D01*
Y03052D01*
X06661D01*
Y03056D01*
X06653D01*
Y03052D01*
X06649D01*
Y03044D01*
X06653D01*
X06753D02*
Y0304D01*
X06761D01*
Y03044D01*
X06765D01*
Y03052D01*
X06761D01*
Y03056D01*
X06753D01*
Y03052D01*
X06749D01*
Y03044D01*
X06753D01*
X072028Y02368D02*
Y02384D01*
X072188D01*
Y02368D01*
X072028D01*
X073028D02*
Y02384D01*
X073188D01*
Y02368D01*
X073028D01*
X06106Y03034D02*
Y0303D01*
X06114D01*
Y03034D01*
X06118D01*
Y03042D01*
X06114D01*
Y03046D01*
X06106D01*
Y03042D01*
X06102D01*
Y03034D01*
X06106D01*
Y03384D02*
Y0338D01*
X06114D01*
Y03384D01*
X06118D01*
Y03392D01*
X06114D01*
Y03396D01*
X06106D01*
Y03392D01*
X06102D01*
Y03384D01*
X06106D01*
X06657Y06585D02*
X06661Y06593D01*
X06657Y06601D01*
X06665Y06597D01*
X06673Y06601D01*
X06669Y06593D01*
X06673Y06585D01*
X06665Y06589D01*
X06657Y06585D01*
Y06235D02*
X06661Y06243D01*
X06657Y06251D01*
X06665Y06247D01*
X06673Y06251D01*
X06669Y06243D01*
X06673Y06235D01*
X06665Y06239D01*
X06657Y06235D01*
X065652Y060124D02*
X065692Y060164D01*
X065732D01*
X065692Y060204D01*
X065732Y060244D01*
X065692D01*
X065652Y060284D01*
X065612Y060244D01*
X065572D01*
X065612Y060204D01*
X065572Y060164D01*
X065612D01*
X065652Y060124D01*
X066652D02*
X066692Y060164D01*
X066732D01*
X066692Y060204D01*
X066732Y060244D01*
X066692D01*
X066652Y060284D01*
X066612Y060244D01*
X066572D01*
X066612Y060204D01*
X066572Y060164D01*
X066612D01*
X066652Y060124D01*
X067652D02*
X067692Y060164D01*
X067732D01*
X067692Y060204D01*
X067732Y060244D01*
X067692D01*
X067652Y060284D01*
X067612Y060244D01*
X067572D01*
X067612Y060204D01*
X067572Y060164D01*
X067612D01*
X067652Y060124D01*
X06807Y06585D02*
X06811Y06593D01*
X06807Y06601D01*
X06815Y06597D01*
X06823Y06601D01*
X06819Y06593D01*
X06823Y06585D01*
X06815Y06589D01*
X06807Y06585D01*
Y06235D02*
X06811Y06243D01*
X06807Y06251D01*
X06815Y06247D01*
X06823Y06251D01*
X06819Y06243D01*
X06823Y06235D01*
X06815Y06239D01*
X06807Y06235D01*
X063404Y02368D02*
Y02384D01*
X063564D01*
Y02368D01*
X063404D01*
X064404D02*
Y02384D01*
X064564D01*
Y02368D01*
X064404D01*
X067536D02*
Y02384D01*
X067696D01*
Y02368D01*
X067536D01*
X068536D02*
Y02384D01*
X068696D01*
Y02368D01*
X068536D01*
X06507Y06585D02*
X06511Y06593D01*
X06507Y06601D01*
X06515Y06597D01*
X06523Y06601D01*
X06519Y06593D01*
X06523Y06585D01*
X06515Y06589D01*
X06507Y06585D01*
Y06235D02*
X06511Y06243D01*
X06507Y06251D01*
X06515Y06247D01*
X06523Y06251D01*
X06519Y06243D01*
X06523Y06235D01*
X06515Y06239D01*
X06507Y06235D01*
X05514Y02368D02*
Y02384D01*
X0553D01*
Y02368D01*
X05514D01*
X05614D02*
Y02384D01*
X0563D01*
Y02368D01*
X05614D01*
X059272D02*
Y02384D01*
X059432D01*
Y02368D01*
X059272D01*
X060272D02*
Y02384D01*
X060432D01*
Y02368D01*
X060272D01*
X05809Y032D02*
X05813Y03204D01*
X05817D01*
X05813Y03208D01*
X05817Y03212D01*
X05813D01*
X05809Y03216D01*
X05805Y03212D01*
X05801D01*
X05805Y03208D01*
X05801Y03204D01*
X05805D01*
X05809Y032D01*
X05909D02*
X05913Y03204D01*
X05917D01*
X05913Y03208D01*
X05917Y03212D01*
X05913D01*
X05909Y03216D01*
X05905Y03212D01*
X05901D01*
X05905Y03208D01*
X05901Y03204D01*
X05905D01*
X05909Y032D01*
X06009D02*
X06013Y03204D01*
X06017D01*
X06013Y03208D01*
X06017Y03212D01*
X06013D01*
X06009Y03216D01*
X06005Y03212D01*
X06001D01*
X06005Y03208D01*
X06001Y03204D01*
X06005D01*
X06009Y032D01*
X05684Y03955D02*
X05688Y03963D01*
X05684Y03971D01*
X05692Y03967D01*
X057Y03971D01*
X05696Y03963D01*
X057Y03955D01*
X05692Y03959D01*
X05684Y03955D01*
Y03605D02*
X05688Y03613D01*
X05684Y03621D01*
X05692Y03617D01*
X057Y03621D01*
X05696Y03613D01*
X057Y03605D01*
X05692Y03609D01*
X05684Y03605D01*
X057068Y03391D02*
X057108Y03399D01*
X057068Y03407D01*
X057148Y03403D01*
X057228Y03407D01*
X057188Y03399D01*
X057228Y03391D01*
X057148Y03395D01*
X057068Y03391D01*
Y03041D02*
X057108Y03049D01*
X057068Y03057D01*
X057148Y03053D01*
X057228Y03057D01*
X057188Y03049D01*
X057228Y03041D01*
X057148Y03045D01*
X057068Y03041D01*
X05896Y03892D02*
X059Y03896D01*
X05904D01*
X059Y039D01*
X05904Y03904D01*
X059D01*
X05896Y03908D01*
X05892Y03904D01*
X05888D01*
X05892Y039D01*
X05888Y03896D01*
X05892D01*
X05896Y03892D01*
Y03792D02*
X059Y03796D01*
X05904D01*
X059Y038D01*
X05904Y03804D01*
X059D01*
X05896Y03808D01*
X05892Y03804D01*
X05888D01*
X05892Y038D01*
X05888Y03796D01*
X05892D01*
X05896Y03792D01*
Y03692D02*
X059Y03696D01*
X05904D01*
X059Y037D01*
X05904Y03704D01*
X059D01*
X05896Y03708D01*
X05892Y03704D01*
X05888D01*
X05892Y037D01*
X05888Y03696D01*
X05892D01*
X05896Y03692D01*
X03722Y07412D02*
X03726D01*
X0373Y07416D01*
X03734Y07412D01*
X03738D01*
Y07416D01*
X03734Y0742D01*
X03738Y07424D01*
Y07428D01*
X03734D01*
X0373Y07424D01*
X03726Y07428D01*
X03722D01*
Y07424D01*
X03726Y0742D01*
X03722Y07416D01*
Y07412D01*
X07716Y02368D02*
Y02384D01*
X07732D01*
Y02368D01*
X07716D01*
X07616D02*
Y02384D01*
X07632D01*
Y02368D01*
X07616D01*
X04842Y02692D02*
Y02708D01*
X04858D01*
Y02692D01*
X04842D01*
X04742D02*
Y02708D01*
X04758D01*
Y02692D01*
X04742D01*
X04642D02*
Y02708D01*
X04658D01*
Y02692D01*
X04642D01*
X04542D02*
Y02708D01*
X04558D01*
Y02692D01*
X04542D01*
X07495Y03082D02*
X07499Y0309D01*
X07495Y03098D01*
X07503Y03094D01*
X07511Y03098D01*
X07507Y0309D01*
X07511Y03082D01*
X07503Y03086D01*
X07495Y03082D01*
X07295D02*
X07299Y0309D01*
X07295Y03098D01*
X07303Y03094D01*
X07311Y03098D01*
X07307Y0309D01*
X07311Y03082D01*
X07303Y03086D01*
X07295Y03082D01*
X07172Y0327D02*
X07176Y03278D01*
X07172Y03286D01*
X0718Y03282D01*
X07188Y03286D01*
X07184Y03278D01*
X07188Y0327D01*
X0718Y03274D01*
X07172Y0327D01*
X07272D02*
X07276Y03278D01*
X07272Y03286D01*
X0728Y03282D01*
X07288Y03286D01*
X07284Y03278D01*
X07288Y0327D01*
X0728Y03274D01*
X07272Y0327D01*
X07762Y03272D02*
X07766Y0328D01*
X07762Y03288D01*
X0777Y03284D01*
X07778Y03288D01*
X07774Y0328D01*
X07778Y03272D01*
X0777Y03276D01*
X07762Y03272D01*
X07412D02*
X07416Y0328D01*
X07412Y03288D01*
X0742Y03284D01*
X07428Y03288D01*
X07424Y0328D01*
X07428Y03272D01*
X0742Y03276D01*
X07412Y03272D01*
X05175Y0727D02*
X05179Y07274D01*
X05183D01*
X05179Y07278D01*
X05183Y07282D01*
X05179D01*
X05175Y07286D01*
X05171Y07282D01*
X05167D01*
X05171Y07278D01*
X05167Y07274D01*
X05171D01*
X05175Y0727D01*
X05325D02*
X05329Y07274D01*
X05333D01*
X05329Y07278D01*
X05333Y07282D01*
X05329D01*
X05325Y07286D01*
X05321Y07282D01*
X05317D01*
X05321Y07278D01*
X05317Y07274D01*
X05321D01*
X05325Y0727D01*
X06299Y06182D02*
X06303Y0619D01*
X06299Y06198D01*
X06307Y06194D01*
X06315Y06198D01*
X06311Y0619D01*
X06315Y06182D01*
X06307Y06186D01*
X06299Y06182D01*
Y06332D02*
X06303Y0634D01*
X06299Y06348D01*
X06307Y06344D01*
X06315Y06348D01*
X06311Y0634D01*
X06315Y06332D01*
X06307Y06336D01*
X06299Y06332D01*
X0729Y03542D02*
X07294Y03546D01*
X07298D01*
X07294Y0355D01*
X07298Y03554D01*
X07294D01*
X0729Y03558D01*
X07286Y03554D01*
X07282D01*
X07286Y0355D01*
X07282Y03546D01*
X07286D01*
X0729Y03542D01*
X0739D02*
X07394Y03546D01*
X07398D01*
X07394Y0355D01*
X07398Y03554D01*
X07394D01*
X0739Y03558D01*
X07386Y03554D01*
X07382D01*
X07386Y0355D01*
X07382Y03546D01*
X07386D01*
X0739Y03542D01*
X0749D02*
X07494Y03546D01*
X07498D01*
X07494Y0355D01*
X07498Y03554D01*
X07494D01*
X0749Y03558D01*
X07486Y03554D01*
X07482D01*
X07486Y0355D01*
X07482Y03546D01*
X07486D01*
X0749Y03542D01*
X0759D02*
X07594Y03546D01*
X07598D01*
X07594Y0355D01*
X07598Y03554D01*
X07594D01*
X0759Y03558D01*
X07586Y03554D01*
X07582D01*
X07586Y0355D01*
X07582Y03546D01*
X07586D01*
X0759Y03542D01*
Y03442D02*
X07594Y03446D01*
X07598D01*
X07594Y0345D01*
X07598Y03454D01*
X07594D01*
X0759Y03458D01*
X07586Y03454D01*
X07582D01*
X07586Y0345D01*
X07582Y03446D01*
X07586D01*
X0759Y03442D01*
X0749D02*
X07494Y03446D01*
X07498D01*
X07494Y0345D01*
X07498Y03454D01*
X07494D01*
X0749Y03458D01*
X07486Y03454D01*
X07482D01*
X07486Y0345D01*
X07482Y03446D01*
X07486D01*
X0749Y03442D01*
X0739D02*
X07394Y03446D01*
X07398D01*
X07394Y0345D01*
X07398Y03454D01*
X07394D01*
X0739Y03458D01*
X07386Y03454D01*
X07382D01*
X07386Y0345D01*
X07382Y03446D01*
X07386D01*
X0739Y03442D01*
X07282Y0345D02*
X0729Y03458D01*
X07298Y0345D01*
X0729Y03442D01*
X07282Y0345D01*
X05687Y0689D02*
Y06906D01*
X05703D01*
Y0689D01*
X05687D01*
X05691Y06894D02*
Y06902D01*
X05699D01*
Y06894D01*
X05691D01*
X05687Y0714D02*
Y07156D01*
X05703D01*
Y0714D01*
X05687D01*
X05691Y07144D02*
Y07152D01*
X05699D01*
Y07144D01*
X05691D01*
X05487Y0699D02*
Y07006D01*
X05503D01*
Y0699D01*
X05487D01*
X05491Y06994D02*
Y07002D01*
X05499D01*
Y06994D01*
X05491D01*
X06006Y068936D02*
X0601Y068976D01*
X06014D01*
X0601Y069016D01*
X06014Y069056D01*
X0601D01*
X06006Y069096D01*
X06002Y069056D01*
X05998D01*
X06002Y069016D01*
X05998Y068976D01*
X06002D01*
X06006Y068936D01*
X06106D02*
X0611Y068976D01*
X06114D01*
X0611Y069016D01*
X06114Y069056D01*
X0611D01*
X06106Y069096D01*
X06102Y069056D01*
X06098D01*
X06102Y069016D01*
X06098Y068976D01*
X06102D01*
X06106Y068936D01*
X06159Y06387D02*
X06163Y06395D01*
X06159Y06403D01*
X06167Y06399D01*
X06175Y06403D01*
X06171Y06395D01*
X06175Y06387D01*
X06167Y06391D01*
X06159Y06387D01*
Y06037D02*
X06163Y06045D01*
X06159Y06053D01*
X06167Y06049D01*
X06175Y06053D01*
X06171Y06045D01*
X06175Y06037D01*
X06167Y06041D01*
X06159Y06037D01*
X05282Y06939D02*
X05286Y06943D01*
X0529D01*
X05286Y06947D01*
X0529Y06951D01*
X05286D01*
X05282Y06955D01*
X05278Y06951D01*
X05274D01*
X05278Y06947D01*
X05274Y06943D01*
X05278D01*
X05282Y06939D01*
Y06839D02*
X05286Y06843D01*
X0529D01*
X05286Y06847D01*
X0529Y06851D01*
X05286D01*
X05282Y06855D01*
X05278Y06851D01*
X05274D01*
X05278Y06847D01*
X05274Y06843D01*
X05278D01*
X05282Y06839D01*
X04527Y06082D02*
X04531Y0609D01*
X04527Y06098D01*
X04535Y06094D01*
X04543Y06098D01*
X04539Y0609D01*
X04543Y06082D01*
X04535Y06086D01*
X04527Y06082D01*
Y06432D02*
X04531Y0644D01*
X04527Y06448D01*
X04535Y06444D01*
X04543Y06448D01*
X04539Y0644D01*
X04543Y06432D01*
X04535Y06436D01*
X04527Y06432D01*
X04072Y04952D02*
Y04968D01*
X04088D01*
Y04952D01*
X04072D01*
Y05052D02*
Y05068D01*
X04088D01*
Y05052D01*
X04072D01*
Y05152D02*
Y05168D01*
X04088D01*
Y05152D01*
X04072D01*
Y05252D02*
Y05268D01*
X04088D01*
Y05252D01*
X04072D01*
Y056187D02*
Y056347D01*
X04088D01*
Y056187D01*
X04072D01*
Y057187D02*
Y057347D01*
X04088D01*
Y057187D01*
X04072D01*
Y058187D02*
Y058347D01*
X04088D01*
Y058187D01*
X04072D01*
Y059187D02*
Y059347D01*
X04088D01*
Y059187D01*
X04072D01*
Y06952D02*
Y06968D01*
X04088D01*
Y06952D01*
X04072D01*
Y07052D02*
Y07068D01*
X04088D01*
Y07052D01*
X04072D01*
Y07152D02*
Y07168D01*
X04088D01*
Y07152D01*
X04072D01*
Y07252D02*
Y07268D01*
X04088D01*
Y07252D01*
X04072D01*
X06106Y03964D02*
Y0396D01*
X06114D01*
Y03964D01*
X06118D01*
Y03972D01*
X06114D01*
Y03976D01*
X06106D01*
Y03972D01*
X06102D01*
Y03964D01*
X06106D01*
Y03614D02*
Y0361D01*
X06114D01*
Y03614D01*
X06118D01*
Y03622D01*
X06114D01*
Y03626D01*
X06106D01*
Y03622D01*
X06102D01*
Y03614D01*
X06106D01*
X04072Y062853D02*
Y063013D01*
X04088D01*
Y062853D01*
X04072D01*
Y063853D02*
Y064013D01*
X04088D01*
Y063853D01*
X04072D01*
Y064853D02*
Y065013D01*
X04088D01*
Y064853D01*
X04072D01*
Y065853D02*
Y066013D01*
X04088D01*
Y065853D01*
X04072D01*
X04072Y04302D02*
Y04318D01*
X04088D01*
Y04302D01*
X04072D01*
Y04402D02*
Y04418D01*
X04088D01*
Y04402D01*
X04072D01*
Y04502D02*
Y04518D01*
X04088D01*
Y04502D01*
X04072D01*
Y04602D02*
Y04618D01*
X04088D01*
Y04602D01*
X04072D01*
X074355Y05812D02*
Y05828D01*
X074515D01*
Y05812D01*
X074355D01*
Y05912D02*
Y05928D01*
X074515D01*
Y05912D01*
X074355D01*
Y06012D02*
Y06028D01*
X074515D01*
Y06012D01*
X074355D01*
Y06112D02*
Y06128D01*
X074515D01*
Y06112D01*
X074355D01*
D75*
X04005Y02603D02*
G03*
X04005Y02603I-00008J0D01*
G01*
X04105D02*
G03*
X04105Y02603I-00008J0D01*
G01*
X04205D02*
G03*
X04205Y02603I-00008J0D01*
G01*
Y02813D02*
G03*
X04205Y02813I-00008J0D01*
G01*
X04105D02*
G03*
X04105Y02813I-00008J0D01*
G01*
X04005D02*
G03*
X04005Y02813I-00008J0D01*
G01*
X04205Y03023D02*
G03*
X04205Y03023I-00008J0D01*
G01*
X04105D02*
G03*
X04105Y03023I-00008J0D01*
G01*
X04005D02*
G03*
X04005Y03023I-00008J0D01*
G01*
X04205Y03243D02*
G03*
X04205Y03243I-00008J0D01*
G01*
X04105D02*
G03*
X04105Y03243I-00008J0D01*
G01*
X04005D02*
G03*
X04005Y03243I-00008J0D01*
G01*
Y03453D02*
G03*
X04005Y03453I-00008J0D01*
G01*
X04105D02*
G03*
X04105Y03453I-00008J0D01*
G01*
X04205D02*
G03*
X04205Y03453I-00008J0D01*
G01*
X04465Y0232D02*
G03*
X04465Y0232I-00008J0D01*
G01*
X04565D02*
G03*
X04565Y0232I-00008J0D01*
G01*
X04665D02*
G03*
X04665Y0232I-00008J0D01*
G01*
X04779D02*
G03*
X04779Y0232I-00008J0D01*
G01*
X04879D02*
G03*
X04879Y0232I-00008J0D01*
G01*
X04979D02*
G03*
X04979Y0232I-00008J0D01*
G01*
X06058Y07248D02*
G03*
X06058Y07248I-00008J0D01*
G01*
X06158D02*
G03*
X06158Y07248I-00008J0D01*
G01*
X06258D02*
G03*
X06258Y07248I-00008J0D01*
G01*
X05092Y0232D02*
G03*
X05092Y0232I-00008J0D01*
G01*
X05192D02*
G03*
X05192Y0232I-00008J0D01*
G01*
X05292D02*
G03*
X05292Y0232I-00008J0D01*
G01*
X049278Y067148D02*
G03*
X049278Y067148I-00008J0D01*
G01*
X048278D02*
G03*
X048278Y067148I-00008J0D01*
G01*
X04828Y0584D02*
G03*
X04828Y0584I-00008J0D01*
G01*
X04928D02*
G03*
X04928Y0584I-00008J0D01*
G01*
M02*
