G04*
G04 #@! TF.GenerationSoftware,Altium Limited,Altium Designer,18.1.6 (161)*
G04*
G04 Layer_Color=128*
%FSTAX24Y24*%
%MOIN*%
G70*
G01*
G75*
%ADD74C,0.0020*%
D74*
X04063Y0402D02*
X04097D01*
X0408Y04003D02*
Y04037D01*
X04063Y0392D02*
X04097D01*
X0408Y03903D02*
Y03937D01*
X04063Y0382D02*
X04097D01*
X0408Y03803D02*
Y03837D01*
X04063Y0372D02*
X04097D01*
X0408Y03703D02*
Y03737D01*
X03936Y02323D02*
X0397D01*
X03953Y02306D02*
Y0234D01*
X04036Y02323D02*
X0407D01*
X04053Y02306D02*
Y0234D01*
X04136Y02323D02*
X0417D01*
X04153Y02306D02*
Y0234D01*
X04236Y02323D02*
X0427D01*
X04253Y02306D02*
Y0234D01*
X039793Y02603D02*
X040147D01*
X03997Y025853D02*
Y026207D01*
X040793Y02603D02*
X041147D01*
X04097Y025853D02*
Y026207D01*
X041793Y02603D02*
X042147D01*
X04197Y025853D02*
Y026207D01*
X041793Y02813D02*
X042147D01*
X04197Y027953D02*
Y028307D01*
X040793Y02813D02*
X041147D01*
X04097Y027953D02*
Y028307D01*
X039793Y02813D02*
X040147D01*
X03997Y027953D02*
Y028307D01*
X041793Y03023D02*
X042147D01*
X04197Y030053D02*
Y030407D01*
X040793Y03023D02*
X041147D01*
X04097Y030053D02*
Y030407D01*
X039793Y03023D02*
X040147D01*
X03997Y030053D02*
Y030407D01*
X041793Y03243D02*
X042147D01*
X04197Y032253D02*
Y032607D01*
X040793Y03243D02*
X041147D01*
X04097Y032253D02*
Y032607D01*
X039793Y03243D02*
X040147D01*
X03997Y032253D02*
Y032607D01*
X039793Y03453D02*
X040147D01*
X03997Y034353D02*
Y034707D01*
X040793Y03453D02*
X041147D01*
X04097Y034353D02*
Y034707D01*
X041793Y03453D02*
X042147D01*
X04197Y034353D02*
Y034707D01*
X044393Y0232D02*
X044747D01*
X04457Y023023D02*
Y023377D01*
X045393Y0232D02*
X045747D01*
X04557Y023023D02*
Y023377D01*
X046393Y0232D02*
X046747D01*
X04657Y023023D02*
Y023377D01*
X047533Y0232D02*
X047887D01*
X04771Y023023D02*
Y023377D01*
X048533Y0232D02*
X048887D01*
X04871Y023023D02*
Y023377D01*
X049533Y0232D02*
X049887D01*
X04971Y023023D02*
Y023377D01*
X074638Y0677D02*
X074952D01*
X074795Y067543D02*
Y067857D01*
X074643Y0647D02*
X074957D01*
X0748Y064543D02*
Y064857D01*
X05864Y06335D02*
X05896D01*
X0588Y06319D02*
Y06351D01*
X05764Y06335D02*
X05796D01*
X0578Y06319D02*
Y06351D01*
X05664Y06335D02*
X05696D01*
X0568Y06319D02*
Y06351D01*
X05865Y0591D02*
X05897D01*
X05881Y05894D02*
Y05926D01*
X05765Y0591D02*
X05797D01*
X05781Y05894D02*
Y05926D01*
X05665Y0591D02*
X05697D01*
X05681Y05894D02*
Y05926D01*
X074265Y054D02*
X074605D01*
X074435Y05383D02*
Y05417D01*
X074265Y053D02*
X074605D01*
X074435Y05283D02*
Y05317D01*
X074265Y052D02*
X074605D01*
X074435Y05183D02*
Y05217D01*
X074265Y051D02*
X074605D01*
X074435Y05083D02*
Y05117D01*
X074265Y0486D02*
X074605D01*
X074435Y04843D02*
Y04877D01*
X074265Y0476D02*
X074605D01*
X074435Y04743D02*
Y04777D01*
X074265Y0466D02*
X074605D01*
X074435Y04643D02*
Y04677D01*
X074265Y0456D02*
X074605D01*
X074435Y04543D02*
Y04577D01*
X054965Y03963D02*
X055275D01*
X05512Y039475D02*
Y039785D01*
X054965Y03613D02*
X055275D01*
X05512Y035975D02*
Y036285D01*
X052298Y03963D02*
X052608D01*
X052453Y039475D02*
Y039785D01*
X052298Y03613D02*
X052608D01*
X052453Y035975D02*
Y036285D01*
X050965Y03963D02*
X051275D01*
X05112Y039475D02*
Y039785D01*
X050965Y03613D02*
X051275D01*
X05112Y035975D02*
Y036285D01*
X053632Y03963D02*
X053942D01*
X053787Y039475D02*
Y039785D01*
X053632Y03613D02*
X053942D01*
X053787Y035975D02*
Y036285D01*
X059289Y0613D02*
X059599D01*
X059444Y061145D02*
Y061455D01*
X055789Y0613D02*
X056099D01*
X055944Y061145D02*
Y061455D01*
X053945Y05978D02*
X054255D01*
X0541Y059625D02*
Y059935D01*
X053945Y06328D02*
X054255D01*
X0541Y063125D02*
Y063435D01*
X052225Y063324D02*
X052575D01*
X0524Y063149D02*
Y063499D01*
X052225Y059824D02*
X052575D01*
X0524Y059649D02*
Y059999D01*
X063645Y05911D02*
X063955D01*
X0638Y058955D02*
Y059265D01*
X060145Y05911D02*
X060455D01*
X0603Y058955D02*
Y059265D01*
X07727Y020682D02*
X07853D01*
X0779Y020052D02*
Y021312D01*
X03667Y020682D02*
X03793D01*
X0373Y020052D02*
Y021312D01*
X07717Y0742D02*
X07843D01*
X0778Y07357D02*
Y07483D01*
X046395Y05448D02*
X046745D01*
X04657Y054305D02*
Y054655D01*
X047395Y05448D02*
X047745D01*
X04757Y054305D02*
Y054655D01*
X046395Y05348D02*
X046745D01*
X04657Y053305D02*
Y053655D01*
X047395Y05348D02*
X047745D01*
X04757Y053305D02*
Y053655D01*
X046395Y05248D02*
X046745D01*
X04657Y052305D02*
Y052655D01*
X047395Y05248D02*
X047745D01*
X04757Y052305D02*
Y052655D01*
X046395Y05148D02*
X046745D01*
X04657Y051305D02*
Y051655D01*
X047395Y05148D02*
X047745D01*
X04757Y051305D02*
Y051655D01*
X046395Y05048D02*
X046745D01*
X04657Y050305D02*
Y050655D01*
X047395Y05048D02*
X047745D01*
X04757Y050305D02*
Y050655D01*
X046395Y04948D02*
X046745D01*
X04657Y049305D02*
Y049655D01*
X047395Y04948D02*
X047745D01*
X04757Y049305D02*
Y049655D01*
X046395Y04848D02*
X046745D01*
X04657Y048305D02*
Y048655D01*
X047395Y04848D02*
X047745D01*
X04757Y048305D02*
Y048655D01*
X046395Y04748D02*
X046745D01*
X04657Y047305D02*
Y047655D01*
X047395Y04748D02*
X047745D01*
X04757Y047305D02*
Y047655D01*
X046395Y04648D02*
X046745D01*
X04657Y046305D02*
Y046655D01*
X047395Y04648D02*
X047745D01*
X04757Y046305D02*
Y046655D01*
X046395Y04548D02*
X046745D01*
X04657Y045305D02*
Y045655D01*
X047395Y04548D02*
X047745D01*
X04757Y045305D02*
Y045655D01*
X046395Y04448D02*
X046745D01*
X04657Y044305D02*
Y044655D01*
X047395Y04448D02*
X047745D01*
X04757Y044305D02*
Y044655D01*
X046395Y04348D02*
X046745D01*
X04657Y043305D02*
Y043655D01*
X047395Y04348D02*
X047745D01*
X04757Y043305D02*
Y043655D01*
X046395Y04248D02*
X046745D01*
X04657Y042305D02*
Y042655D01*
X047395Y04248D02*
X047745D01*
X04757Y042305D02*
Y042655D01*
X046395Y04148D02*
X046745D01*
X04657Y041305D02*
Y041655D01*
X047395Y04148D02*
X047745D01*
X04757Y041305D02*
Y041655D01*
X046395Y04048D02*
X046745D01*
X04657Y040305D02*
Y040655D01*
X047395Y04048D02*
X047745D01*
X04757Y040305D02*
Y040655D01*
X046395Y03948D02*
X046745D01*
X04657Y039305D02*
Y039655D01*
X047395Y03948D02*
X047745D01*
X04757Y039305D02*
Y039655D01*
X046395Y03848D02*
X046745D01*
X04657Y038305D02*
Y038655D01*
X047395Y03848D02*
X047745D01*
X04757Y038305D02*
Y038655D01*
X046395Y03748D02*
X046745D01*
X04657Y037305D02*
Y037655D01*
X047395Y03748D02*
X047745D01*
X04757Y037305D02*
Y037655D01*
X046395Y03648D02*
X046745D01*
X04657Y036305D02*
Y036655D01*
X047395Y03648D02*
X047745D01*
X04757Y036305D02*
Y036655D01*
X046395Y03548D02*
X046745D01*
X04657Y035305D02*
Y035655D01*
X047395Y03548D02*
X047745D01*
X04757Y035305D02*
Y035655D01*
X046395Y03448D02*
X046745D01*
X04657Y034305D02*
Y034655D01*
X047395Y03448D02*
X047745D01*
X04757Y034305D02*
Y034655D01*
X046395Y03348D02*
X046745D01*
X04657Y033305D02*
Y033655D01*
X047395Y03348D02*
X047745D01*
X04757Y033305D02*
Y033655D01*
X046395Y03248D02*
X046745D01*
X04657Y032305D02*
Y032655D01*
X047395Y03248D02*
X047745D01*
X04757Y032305D02*
Y032655D01*
X046395Y03148D02*
X046745D01*
X04657Y031305D02*
Y031655D01*
X047395Y03148D02*
X047745D01*
X04757Y031305D02*
Y031655D01*
X046395Y03048D02*
X046745D01*
X04657Y030305D02*
Y030655D01*
X047395Y03048D02*
X047745D01*
X04757Y030305D02*
Y030655D01*
X066395Y05448D02*
X066745D01*
X06657Y054305D02*
Y054655D01*
X067395Y05448D02*
X067745D01*
X06757Y054305D02*
Y054655D01*
X066395Y05348D02*
X066745D01*
X06657Y053305D02*
Y053655D01*
X067395Y05348D02*
X067745D01*
X06757Y053305D02*
Y053655D01*
X066395Y05248D02*
X066745D01*
X06657Y052305D02*
Y052655D01*
X067395Y05248D02*
X067745D01*
X06757Y052305D02*
Y052655D01*
X066395Y05148D02*
X066745D01*
X06657Y051305D02*
Y051655D01*
X067395Y05148D02*
X067745D01*
X06757Y051305D02*
Y051655D01*
X066395Y05048D02*
X066745D01*
X06657Y050305D02*
Y050655D01*
X067395Y05048D02*
X067745D01*
X06757Y050305D02*
Y050655D01*
X066395Y04948D02*
X066745D01*
X06657Y049305D02*
Y049655D01*
X067395Y04948D02*
X067745D01*
X06757Y049305D02*
Y049655D01*
X066395Y04848D02*
X066745D01*
X06657Y048305D02*
Y048655D01*
X067395Y04848D02*
X067745D01*
X06757Y048305D02*
Y048655D01*
X066395Y04748D02*
X066745D01*
X06657Y047305D02*
Y047655D01*
X067395Y04748D02*
X067745D01*
X06757Y047305D02*
Y047655D01*
X066395Y04648D02*
X066745D01*
X06657Y046305D02*
Y046655D01*
X067395Y04648D02*
X067745D01*
X06757Y046305D02*
Y046655D01*
X066395Y04548D02*
X066745D01*
X06657Y045305D02*
Y045655D01*
X067395Y04548D02*
X067745D01*
X06757Y045305D02*
Y045655D01*
X066395Y04448D02*
X066745D01*
X06657Y044305D02*
Y044655D01*
X067395Y04448D02*
X067745D01*
X06757Y044305D02*
Y044655D01*
X066395Y04348D02*
X066745D01*
X06657Y043305D02*
Y043655D01*
X067395Y04348D02*
X067745D01*
X06757Y043305D02*
Y043655D01*
X066395Y04248D02*
X066745D01*
X06657Y042305D02*
Y042655D01*
X067395Y04248D02*
X067745D01*
X06757Y042305D02*
Y042655D01*
X066395Y04148D02*
X066745D01*
X06657Y041305D02*
Y041655D01*
X067395Y04148D02*
X067745D01*
X06757Y041305D02*
Y041655D01*
X066395Y04048D02*
X066745D01*
X06657Y040305D02*
Y040655D01*
X067395Y04048D02*
X067745D01*
X06757Y040305D02*
Y040655D01*
X066395Y03948D02*
X066745D01*
X06657Y039305D02*
Y039655D01*
X067395Y03948D02*
X067745D01*
X06757Y039305D02*
Y039655D01*
X066395Y03848D02*
X066745D01*
X06657Y038305D02*
Y038655D01*
X067395Y03848D02*
X067745D01*
X06757Y038305D02*
Y038655D01*
X066395Y03748D02*
X066745D01*
X06657Y037305D02*
Y037655D01*
X067395Y03748D02*
X067745D01*
X06757Y037305D02*
Y037655D01*
X066395Y03648D02*
X066745D01*
X06657Y036305D02*
Y036655D01*
X067395Y03648D02*
X067745D01*
X06757Y036305D02*
Y036655D01*
X066395Y03548D02*
X066745D01*
X06657Y035305D02*
Y035655D01*
X067395Y03548D02*
X067745D01*
X06757Y035305D02*
Y035655D01*
X066395Y03448D02*
X066745D01*
X06657Y034305D02*
Y034655D01*
X067395Y03448D02*
X067745D01*
X06757Y034305D02*
Y034655D01*
X066395Y03348D02*
X066745D01*
X06657Y033305D02*
Y033655D01*
X067395Y03348D02*
X067745D01*
X06757Y033305D02*
Y033655D01*
X066395Y03248D02*
X066745D01*
X06657Y032305D02*
Y032655D01*
X067395Y03248D02*
X067745D01*
X06757Y032305D02*
Y032655D01*
X066395Y03148D02*
X066745D01*
X06657Y031305D02*
Y031655D01*
X067395Y03148D02*
X067745D01*
X06757Y031305D02*
Y031655D01*
X066395Y03048D02*
X066745D01*
X06657Y030305D02*
Y030655D01*
X067395Y03048D02*
X067745D01*
X06757Y030305D02*
Y030655D01*
X071938Y02376D02*
X072278D01*
X072108Y02359D02*
Y02393D01*
X072938Y02376D02*
X073278D01*
X073108Y02359D02*
Y02393D01*
X060323Y07248D02*
X060677D01*
X0605Y072303D02*
Y072657D01*
X061323Y07248D02*
X061677D01*
X0615Y072303D02*
Y072657D01*
X062323Y07248D02*
X062677D01*
X0625Y072303D02*
Y072657D01*
X050663Y0232D02*
X051017D01*
X05084Y023023D02*
Y023377D01*
X051663Y0232D02*
X052017D01*
X05184Y023023D02*
Y023377D01*
X052663Y0232D02*
X053017D01*
X05284Y023023D02*
Y023377D01*
X060925Y03038D02*
X061275D01*
X0611Y030205D02*
Y030555D01*
X060925Y03388D02*
X061275D01*
X0611Y033705D02*
Y034055D01*
X066495Y06593D02*
X066805D01*
X06665Y065775D02*
Y066085D01*
X066495Y06243D02*
X066805D01*
X06665Y062275D02*
Y062585D01*
X065492Y060204D02*
X065812D01*
X065652Y060044D02*
Y060364D01*
X066492Y060204D02*
X066812D01*
X066652Y060044D02*
Y060364D01*
X067492Y060204D02*
X067812D01*
X067652Y060044D02*
Y060364D01*
X067995Y06593D02*
X068305D01*
X06815Y065775D02*
Y066085D01*
X067995Y06243D02*
X068305D01*
X06815Y062275D02*
Y062585D01*
X063314Y02376D02*
X063654D01*
X063484Y02359D02*
Y02393D01*
X064314Y02376D02*
X064654D01*
X064484Y02359D02*
Y02393D01*
X067446Y02376D02*
X067786D01*
X067616Y02359D02*
Y02393D01*
X068446Y02376D02*
X068786D01*
X068616Y02359D02*
Y02393D01*
X064995Y06593D02*
X065305D01*
X06515Y065775D02*
Y066085D01*
X064995Y06243D02*
X065305D01*
X06515Y062275D02*
Y062585D01*
X05505Y02376D02*
X05539D01*
X05522Y02359D02*
Y02393D01*
X05605Y02376D02*
X05639D01*
X05622Y02359D02*
Y02393D01*
X059182Y02376D02*
X059522D01*
X059352Y02359D02*
Y02393D01*
X060182Y02376D02*
X060522D01*
X060352Y02359D02*
Y02393D01*
X05793Y03208D02*
X05825D01*
X05809Y03192D02*
Y03224D01*
X05893Y03208D02*
X05925D01*
X05909Y03192D02*
Y03224D01*
X05993Y03208D02*
X06025D01*
X06009Y03192D02*
Y03224D01*
X056765Y03963D02*
X057075D01*
X05692Y039475D02*
Y039785D01*
X056765Y03613D02*
X057075D01*
X05692Y035975D02*
Y036285D01*
X056993Y03399D02*
X057303D01*
X057148Y033835D02*
Y034145D01*
X056993Y03049D02*
X057303D01*
X057148Y030335D02*
Y030645D01*
X0588Y039D02*
X05912D01*
X05896Y03884D02*
Y03916D01*
X0588Y038D02*
X05912D01*
X05896Y03784D02*
Y03816D01*
X0588Y037D02*
X05912D01*
X05896Y03684D02*
Y03716D01*
X03667Y0742D02*
X03793D01*
X0373Y07357D02*
Y07483D01*
X07707Y02376D02*
X07741D01*
X07724Y02359D02*
Y02393D01*
X07607Y02376D02*
X07641D01*
X07624Y02359D02*
Y02393D01*
X049021Y067148D02*
X049375D01*
X049198Y066971D02*
Y067325D01*
X048021Y067148D02*
X048375D01*
X048198Y066971D02*
Y067325D01*
X048023Y0584D02*
X048377D01*
X0482Y058223D02*
Y058577D01*
X049023Y0584D02*
X049377D01*
X0492Y058223D02*
Y058577D01*
X04833Y027D02*
X04867D01*
X0485Y02683D02*
Y02717D01*
X04733Y027D02*
X04767D01*
X0475Y02683D02*
Y02717D01*
X04633Y027D02*
X04667D01*
X0465Y02683D02*
Y02717D01*
X04533Y027D02*
X04567D01*
X0455Y02683D02*
Y02717D01*
X074875Y0309D02*
X075185D01*
X07503Y030745D02*
Y031055D01*
X072875Y0309D02*
X073185D01*
X07303Y030745D02*
Y031055D01*
X071645Y03278D02*
X071955D01*
X0718Y032625D02*
Y032935D01*
X072645Y03278D02*
X072955D01*
X0728Y032625D02*
Y032935D01*
X077545Y0328D02*
X077855D01*
X0777Y032645D02*
Y032955D01*
X074045Y0328D02*
X074355D01*
X0742Y032645D02*
Y032955D01*
X05159Y07278D02*
X05191D01*
X05175Y07262D02*
Y07294D01*
X05309Y07278D02*
X05341D01*
X05325Y07262D02*
Y07294D01*
X062915Y0619D02*
X063225D01*
X06307Y061745D02*
Y062055D01*
X062915Y0634D02*
X063225D01*
X06307Y063245D02*
Y063555D01*
X07274Y0355D02*
X07306D01*
X0729Y03534D02*
Y03566D01*
X07374Y0355D02*
X07406D01*
X0739Y03534D02*
Y03566D01*
X07474Y0355D02*
X07506D01*
X0749Y03534D02*
Y03566D01*
X07574Y0355D02*
X07606D01*
X0759Y03534D02*
Y03566D01*
X07574Y0345D02*
X07606D01*
X0759Y03434D02*
Y03466D01*
X07474Y0345D02*
X07506D01*
X0749Y03434D02*
Y03466D01*
X07374Y0345D02*
X07406D01*
X0739Y03434D02*
Y03466D01*
X07275Y0345D02*
X07305D01*
X0729Y03435D02*
Y03465D01*
X0567Y06898D02*
X0572D01*
X05695Y06873D02*
Y06923D01*
X0567Y07148D02*
X0572D01*
X05695Y07123D02*
Y07173D01*
X0547Y06998D02*
X0552D01*
X05495Y06973D02*
Y07023D01*
X0599Y069016D02*
X06022D01*
X06006Y068856D02*
Y069176D01*
X0609Y069016D02*
X06122D01*
X06106Y068856D02*
Y069176D01*
X061515Y06395D02*
X061825D01*
X06167Y063795D02*
Y064105D01*
X061515Y06045D02*
X061825D01*
X06167Y060295D02*
Y060605D01*
X05266Y06947D02*
X05298D01*
X05282Y06931D02*
Y06963D01*
X05266Y06847D02*
X05298D01*
X05282Y06831D02*
Y06863D01*
X045195Y0609D02*
X045505D01*
X04535Y060745D02*
Y061055D01*
X045195Y0644D02*
X045505D01*
X04535Y064245D02*
Y064555D01*
X04063Y0496D02*
X04097D01*
X0408Y04943D02*
Y04977D01*
X04063Y0506D02*
X04097D01*
X0408Y05043D02*
Y05077D01*
X04063Y0516D02*
X04097D01*
X0408Y05143D02*
Y05177D01*
X04063Y0526D02*
X04097D01*
X0408Y05243D02*
Y05277D01*
X04063Y056267D02*
X04097D01*
X0408Y056097D02*
Y056437D01*
X04063Y057267D02*
X04097D01*
X0408Y057097D02*
Y057437D01*
X04063Y058267D02*
X04097D01*
X0408Y058097D02*
Y058437D01*
X04063Y059267D02*
X04097D01*
X0408Y059097D02*
Y059437D01*
X04063Y0696D02*
X04097D01*
X0408Y06943D02*
Y06977D01*
X04063Y0706D02*
X04097D01*
X0408Y07043D02*
Y07077D01*
X04063Y0716D02*
X04097D01*
X0408Y07143D02*
Y07177D01*
X04063Y0726D02*
X04097D01*
X0408Y07243D02*
Y07277D01*
X060925Y03968D02*
X061275D01*
X0611Y039505D02*
Y039855D01*
X060925Y03618D02*
X061275D01*
X0611Y036005D02*
Y036355D01*
X04063Y062933D02*
X04097D01*
X0408Y062763D02*
Y063103D01*
X04063Y063933D02*
X04097D01*
X0408Y063763D02*
Y064103D01*
X04063Y064933D02*
X04097D01*
X0408Y064763D02*
Y065103D01*
X04063Y065933D02*
X04097D01*
X0408Y065763D02*
Y066103D01*
X04063Y0431D02*
X04097D01*
X0408Y04293D02*
Y04327D01*
X04063Y0441D02*
X04097D01*
X0408Y04393D02*
Y04427D01*
X04063Y0451D02*
X04097D01*
X0408Y04493D02*
Y04527D01*
X04063Y0461D02*
X04097D01*
X0408Y04593D02*
Y04627D01*
X074265Y0582D02*
X074605D01*
X074435Y05803D02*
Y05837D01*
X074265Y0592D02*
X074605D01*
X074435Y05903D02*
Y05937D01*
X074265Y0602D02*
X074605D01*
X074435Y06003D02*
Y06037D01*
X074265Y0612D02*
X074605D01*
X074435Y06103D02*
Y06137D01*
M02*
