M48
;Layer_Color=9474304
;FILE_FORMAT=2:4
INCH,LZ
;TYPE=PLATED
T1F00S00C0.0300
T2F00S00C0.0310
T3F00S00C0.0315
T4F00S00C0.0320
T5F00S00C0.0340
T6F00S00C0.0350
T7F00S00C0.0354
T9F00S00C0.1260
%
T01
X0729Y0345
T02
X07303Y0309
X07503
X057148Y03049
Y03399
X05692Y03613
X05512
X053787
X052453
X05112
Y03963
X052453
X053787
X05512
X05692
X0718Y03278
X0728
X0742Y0328
X0777
X06815Y06243
X06665
X06515
X06307Y0619
X0638Y05911
X06167Y06045
X0603Y05911
X059444Y0613
X055944
X0541Y05978
X04535Y0609
Y0644
X0541Y06328
X06167Y06395
X06307Y0634
X06515Y06593
X06665
X06815
T03
X0748Y0647
X074795Y0677
T04
X05809Y03208
X05909
X06009
X05896Y037
Y038
Y039
X0729Y0355
X0739
X0749
X0759
Y0345
X0749
X0739
X067652Y060204
X066652
X065652
X05881Y0591
X05781
X05681
X0568Y06335
X0578
X0588
X06006Y069016
X06106
X05282Y06947
Y06847
X05325Y07278
X05175
T05
X063484Y02376
X064484
X067616
X068616
X072108
X073108
X07624
X07724
X060352
X059352
X05622
X05522
X0485Y027
X0475
X0465
X0455
X04253Y02323
X04153
X04053
X03953
X0408Y0372
Y0382
Y0392
Y0402
X0408Y0431
Y0441
Y0451
Y0461
X074435Y0466
Y0456
Y0476
Y0486
Y051
Y052
Y053
Y054
Y0582
Y0592
Y0602
Y0612
X0408Y059267
Y058267
Y057267
Y056267
Y0526
Y0516
Y0506
Y0496
X0408Y062933
Y063933
Y064933
Y065933
X0408Y0696
Y0706
Y0716
Y0726
T06
X06657Y03048
X06757
X0611Y03038
X04757Y03048
X04657
Y03148
Y03248
Y03348
Y03448
Y03548
Y03648
Y03748
Y03848
Y03948
Y04048
Y04148
Y04248
Y04348
Y04448
Y04548
Y04648
X04757
Y04548
Y04448
Y04348
Y04248
Y04148
Y04048
Y03948
Y03848
Y03748
Y03648
Y03548
Y03448
Y03348
Y03248
Y03148
X0611Y03388
Y03618
Y03968
X06657Y03948
Y04048
Y04148
Y04248
Y04348
Y04448
Y04548
Y04648
X06757
Y04548
Y04448
Y04348
Y04248
Y04148
Y04048
Y03948
Y03848
X06657
Y03748
X06757
Y03648
X06657
Y03548
X06757
Y03448
X06657
Y03348
X06757
Y03248
X06657
Y03148
X06757
Y04748
Y04848
Y04948
Y05048
Y05148
Y05248
Y05348
Y05448
X06657
Y05348
Y05248
Y05148
Y05048
Y04948
Y04848
Y04748
X04757
Y04848
Y04948
Y05048
Y05148
Y05248
Y05348
Y05448
X0524Y059824
X04657Y05448
Y05348
Y05248
Y05148
Y05048
Y04948
Y04848
Y04748
X0524Y063324
T07
X04771Y0232
X04871
X04971
X05084
X05184
X05284
X04657
X04557
X04457
X04197Y02603
X04097
X03997
Y02813
X04097
X04197
Y03023
X04097
X03997
Y03243
X04097
X04197
Y03453
X04097
X03997
X0482Y0584
X0492
X049198Y067148
X048198
X0605Y07248
X0615
X0625
T09
X0779Y020682
X0373
Y0742
X0778
M30
