G04*
G04 #@! TF.GenerationSoftware,Altium Limited,Altium Designer,18.1.6 (161)*
G04*
G04 Layer_Color=255*
%FSTAX24Y24*%
%MOIN*%
G70*
G01*
G75*
%ADD47R,0.0900X0.0750*%
%ADD48O,0.0900X0.0750*%
%ADD49R,0.0750X0.0900*%
%ADD50O,0.0750X0.0900*%
%ADD51C,0.0591*%
%ADD52R,0.0591X0.0591*%
%ADD53C,0.0700*%
%ADD54R,0.0591X0.0591*%
%ADD55O,0.0660X0.1000*%
%ADD56R,0.0800X0.0800*%
%ADD57C,0.0800*%
%ADD58P,0.2165X8X22.5*%
%ADD59R,0.0700X0.0700*%
%ADD60O,0.1000X0.0660*%
%ADD61C,0.0750*%
%ADD62O,0.0700X0.1000*%
%ADD63R,0.0700X0.1000*%
%ADD64R,0.0560X0.0600*%
%ADD65O,0.0560X0.0700*%
%ADD66O,0.0560X0.0600*%
%ADD67O,0.1800X0.1000*%
%ADD68O,0.1000X0.1800*%
%ADD69O,0.0650X0.1000*%
%ADD70R,0.0650X0.1000*%
%ADD71O,0.1000X0.0650*%
%ADD72R,0.1000X0.0650*%
D47*
X0408Y0402D02*
D03*
X074435Y054D02*
D03*
Y0486D02*
D03*
X0408Y0526D02*
D03*
Y059267D02*
D03*
Y0726D02*
D03*
X0408Y065933D02*
D03*
X0408Y0451D02*
D03*
Y0461D02*
D03*
X074435Y0612D02*
D03*
D48*
X0408Y0392D02*
D03*
Y0382D02*
D03*
Y0372D02*
D03*
X074435Y053D02*
D03*
Y052D02*
D03*
Y051D02*
D03*
Y0476D02*
D03*
Y0466D02*
D03*
Y0456D02*
D03*
X0408Y0496D02*
D03*
Y0506D02*
D03*
Y0516D02*
D03*
Y056267D02*
D03*
Y057267D02*
D03*
Y058267D02*
D03*
Y0696D02*
D03*
Y0706D02*
D03*
Y0716D02*
D03*
X0408Y062933D02*
D03*
Y063933D02*
D03*
Y064933D02*
D03*
X0408Y0431D02*
D03*
Y0441D02*
D03*
X074435Y0582D02*
D03*
Y0592D02*
D03*
Y0602D02*
D03*
D49*
X03953Y02323D02*
D03*
X072108Y02376D02*
D03*
X063484D02*
D03*
X067616D02*
D03*
X05522D02*
D03*
X059352D02*
D03*
X07624D02*
D03*
X0455Y027D02*
D03*
D50*
X04053Y02323D02*
D03*
X04153D02*
D03*
X04253D02*
D03*
X073108Y02376D02*
D03*
X064484D02*
D03*
X068616D02*
D03*
X05622D02*
D03*
X060352D02*
D03*
X07724D02*
D03*
X0485Y027D02*
D03*
X0475D02*
D03*
X0465D02*
D03*
D51*
X03997Y02603D02*
D03*
X04097D02*
D03*
X04557Y0232D02*
D03*
X04657D02*
D03*
X04871D02*
D03*
X04971D02*
D03*
X074795Y0677D02*
D03*
D52*
X04197Y02603D02*
D03*
X03997Y02813D02*
D03*
Y03023D02*
D03*
Y03243D02*
D03*
Y03453D02*
D03*
X04457Y0232D02*
D03*
X04771D02*
D03*
X0605Y07248D02*
D03*
X05084Y0232D02*
D03*
X048198Y067148D02*
D03*
X0482Y0584D02*
D03*
D53*
X04197Y02813D02*
D03*
X04097D02*
D03*
X04197Y03023D02*
D03*
X04097D02*
D03*
X04197Y03243D02*
D03*
X04097D02*
D03*
Y03453D02*
D03*
X04197D02*
D03*
X05512Y03963D02*
D03*
Y03613D02*
D03*
X052453Y03963D02*
D03*
Y03613D02*
D03*
X05112Y03963D02*
D03*
Y03613D02*
D03*
X053787Y03963D02*
D03*
Y03613D02*
D03*
X059444Y0613D02*
D03*
X055944D02*
D03*
X0541Y05978D02*
D03*
Y06328D02*
D03*
X0638Y05911D02*
D03*
X0603D02*
D03*
X04757Y05448D02*
D03*
X04657Y05348D02*
D03*
X04757D02*
D03*
X04657Y05248D02*
D03*
X04757D02*
D03*
X04657Y05148D02*
D03*
X04757D02*
D03*
X04657Y05048D02*
D03*
X04757D02*
D03*
X04657Y04948D02*
D03*
X04757D02*
D03*
X04657Y04848D02*
D03*
X04757D02*
D03*
X04657Y04748D02*
D03*
X04757D02*
D03*
X04657Y04648D02*
D03*
X04757D02*
D03*
X04657Y04548D02*
D03*
X04757D02*
D03*
X04657Y04448D02*
D03*
X04757D02*
D03*
X04657Y04348D02*
D03*
X04757D02*
D03*
X04657Y04248D02*
D03*
X04757D02*
D03*
X04657Y04148D02*
D03*
X04757D02*
D03*
X04657Y04048D02*
D03*
X04757D02*
D03*
X04657Y03948D02*
D03*
X04757D02*
D03*
X04657Y03848D02*
D03*
X04757D02*
D03*
X04657Y03748D02*
D03*
X04757D02*
D03*
X04657Y03648D02*
D03*
X04757D02*
D03*
X04657Y03548D02*
D03*
X04757D02*
D03*
X04657Y03448D02*
D03*
X04757D02*
D03*
X04657Y03348D02*
D03*
X04757D02*
D03*
X04657Y03248D02*
D03*
X04757D02*
D03*
X04657Y03148D02*
D03*
X04757D02*
D03*
X04657Y03048D02*
D03*
X04757D02*
D03*
X06757Y05448D02*
D03*
X06657Y05348D02*
D03*
X06757D02*
D03*
X06657Y05248D02*
D03*
X06757D02*
D03*
X06657Y05148D02*
D03*
X06757D02*
D03*
X06657Y05048D02*
D03*
X06757D02*
D03*
X06657Y04948D02*
D03*
X06757D02*
D03*
X06657Y04848D02*
D03*
X06757D02*
D03*
X06657Y04748D02*
D03*
X06757D02*
D03*
X06657Y04648D02*
D03*
X06757D02*
D03*
X06657Y04548D02*
D03*
X06757D02*
D03*
X06657Y04448D02*
D03*
X06757D02*
D03*
X06657Y04348D02*
D03*
X06757D02*
D03*
X06657Y04248D02*
D03*
X06757D02*
D03*
X06657Y04148D02*
D03*
X06757D02*
D03*
X06657Y04048D02*
D03*
X06757D02*
D03*
X06657Y03948D02*
D03*
X06757D02*
D03*
X06657Y03848D02*
D03*
X06757D02*
D03*
X06657Y03748D02*
D03*
X06757D02*
D03*
X06657Y03648D02*
D03*
X06757D02*
D03*
X06657Y03548D02*
D03*
X06757D02*
D03*
X06657Y03448D02*
D03*
X06757D02*
D03*
X06657Y03348D02*
D03*
X06757D02*
D03*
X06657Y03248D02*
D03*
X06757D02*
D03*
X06657Y03148D02*
D03*
X06757D02*
D03*
X06657Y03048D02*
D03*
X06757D02*
D03*
X0615Y07248D02*
D03*
X0625D02*
D03*
X05184Y0232D02*
D03*
X05284D02*
D03*
X06665Y06593D02*
D03*
Y06243D02*
D03*
X06815Y06593D02*
D03*
Y06243D02*
D03*
X06515Y06593D02*
D03*
Y06243D02*
D03*
X05692Y03963D02*
D03*
Y03613D02*
D03*
X057148Y03399D02*
D03*
Y03049D02*
D03*
X049198Y067148D02*
D03*
X0492Y0584D02*
D03*
X0718Y03278D02*
D03*
X0728D02*
D03*
X0777Y0328D02*
D03*
X0742D02*
D03*
X06307Y0619D02*
D03*
Y0634D02*
D03*
X0739Y0355D02*
D03*
X0749D02*
D03*
X0759D02*
D03*
Y0345D02*
D03*
X0749D02*
D03*
X06167Y06395D02*
D03*
Y06045D02*
D03*
X04535Y0609D02*
D03*
Y0644D02*
D03*
D54*
X0748Y0647D02*
D03*
D55*
X0588Y06335D02*
D03*
X0578D02*
D03*
X0568D02*
D03*
X05881Y0591D02*
D03*
X05781D02*
D03*
X05681D02*
D03*
X065652Y060204D02*
D03*
X066652D02*
D03*
X067652D02*
D03*
X05809Y03208D02*
D03*
X05909D02*
D03*
X06009D02*
D03*
D56*
X0524Y063324D02*
D03*
X0611Y03038D02*
D03*
Y03968D02*
D03*
D57*
X0524Y059824D02*
D03*
X0611Y03388D02*
D03*
Y03618D02*
D03*
D58*
X0779Y020682D02*
D03*
X0373D02*
D03*
X0778Y0742D02*
D03*
X0373D02*
D03*
D59*
X04657Y05448D02*
D03*
X06657D02*
D03*
D60*
X05896Y039D02*
D03*
Y038D02*
D03*
Y037D02*
D03*
D61*
X07503Y0309D02*
D03*
X07303D02*
D03*
D62*
X05175Y07278D02*
D03*
D63*
X05325D02*
D03*
D64*
X0729Y0355D02*
D03*
D65*
X0739Y0345D02*
D03*
D66*
X0729D02*
D03*
D67*
X05695Y06898D02*
D03*
Y07148D02*
D03*
D68*
X05495Y06998D02*
D03*
D69*
X06006Y069016D02*
D03*
D70*
X06106D02*
D03*
D71*
X05282Y06947D02*
D03*
D72*
Y06847D02*
D03*
M02*
