G04*
G04 #@! TF.GenerationSoftware,Altium Limited,Altium Designer,18.1.6 (161)*
G04*
G04 Layer_Physical_Order=2*
G04 Layer_Color=16711680*
%FSTAX24Y24*%
%MOIN*%
G70*
G01*
G75*
%ADD45C,0.0500*%
%ADD46C,0.0300*%
%ADD47R,0.0900X0.0750*%
%ADD48O,0.0900X0.0750*%
%ADD49R,0.0750X0.0900*%
%ADD50O,0.0750X0.0900*%
%ADD51C,0.0591*%
%ADD52R,0.0591X0.0591*%
%ADD53C,0.0700*%
%ADD54R,0.0591X0.0591*%
%ADD55O,0.0660X0.1000*%
%ADD56R,0.0800X0.0800*%
%ADD57C,0.0800*%
%ADD58P,0.2165X8X22.5*%
%ADD59R,0.0700X0.0700*%
%ADD60O,0.1000X0.0660*%
%ADD61C,0.0750*%
%ADD62O,0.0700X0.1000*%
%ADD63R,0.0700X0.1000*%
%ADD64R,0.0560X0.0600*%
%ADD65O,0.0560X0.0700*%
%ADD66O,0.0560X0.0600*%
%ADD67O,0.1800X0.1000*%
%ADD68O,0.1000X0.1800*%
%ADD69O,0.0650X0.1000*%
%ADD70R,0.0650X0.1000*%
%ADD71O,0.1000X0.0650*%
%ADD72R,0.1000X0.0650*%
G36*
X079392Y019308D02*
X035908D01*
X035908Y075612D01*
X079392D01*
X079392Y019308D01*
D02*
G37*
%LPC*%
G36*
X0619Y07431D02*
X05812D01*
X057925Y074271D01*
X05776Y07416D01*
X056889Y07329D01*
X05385D01*
Y07353D01*
X05265D01*
Y07203D01*
X05385D01*
Y07227D01*
X0571D01*
X057295Y072309D01*
X05746Y07242D01*
X058331Y07329D01*
X061689D01*
X061918Y073061D01*
X061915Y073044D01*
X061806Y073001D01*
X061803Y073004D01*
X061657Y073065D01*
X0615Y073085D01*
X061343Y073065D01*
X061197Y073004D01*
X061145Y072964D01*
X061045Y073013D01*
Y073025D01*
X059955D01*
Y071935D01*
X06099D01*
Y071441D01*
X060459Y07091D01*
X057757D01*
X057723Y07101D01*
X057778Y071052D01*
X057874Y071177D01*
X057935Y071323D01*
X057942Y07138D01*
X05705D01*
Y070875D01*
X057131D01*
X057161Y070775D01*
X05714Y07076D01*
X05659Y07021D01*
X056479Y070045D01*
X05644Y06985D01*
Y069722D01*
X056354Y069711D01*
X056172Y069635D01*
X056015Y069515D01*
X055895Y069358D01*
X055819Y069176D01*
X055794Y06898D01*
X055819Y068784D01*
X055895Y068602D01*
X056015Y068445D01*
X056172Y068325D01*
X056354Y068249D01*
X05655Y068224D01*
X05735D01*
X057546Y068249D01*
X057728Y068325D01*
X057885Y068445D01*
X058005Y068602D01*
X058081Y068784D01*
X058106Y06898D01*
X058081Y069176D01*
X058005Y069358D01*
X057885Y069515D01*
X057728Y069635D01*
X057636Y069673D01*
X057612Y069791D01*
X057711Y06989D01*
X06067D01*
X060865Y069929D01*
X06103Y07004D01*
X06186Y07087D01*
X061971Y071035D01*
X06201Y07123D01*
Y071975D01*
X06211Y072023D01*
X062197Y071956D01*
X062343Y071895D01*
X062367Y071892D01*
X06256Y071699D01*
Y063721D01*
X062546Y063703D01*
X062485Y063557D01*
X062482Y063533D01*
X060759Y06181D01*
X059765D01*
X059747Y061824D01*
X059601Y061885D01*
X059444Y061905D01*
X059287Y061885D01*
X059141Y061824D01*
X059016Y061728D01*
X05892Y061603D01*
X058859Y061457D01*
X058839Y0613D01*
X058859Y061143D01*
X05892Y060997D01*
X059016Y060872D01*
X059141Y060776D01*
X059287Y060715D01*
X059444Y060695D01*
X059601Y060715D01*
X059747Y060776D01*
X059765Y06079D01*
X06097D01*
X061065Y060809D01*
X061082Y060797D01*
X061133Y060721D01*
X061085Y060607D01*
X061065Y06045D01*
X061085Y060293D01*
X061146Y060147D01*
X06116Y060129D01*
Y056141D01*
X059009Y05399D01*
X048075D01*
X048027Y05409D01*
X048094Y054177D01*
X048155Y054323D01*
X048175Y05448D01*
X048155Y054637D01*
X048094Y054783D01*
X047998Y054908D01*
X047873Y055004D01*
X047727Y055065D01*
X04757Y055085D01*
X047413Y055065D01*
X047267Y055004D01*
X04726Y054998D01*
X04717Y055042D01*
Y05508D01*
X04597D01*
X045908Y055154D01*
Y0559D01*
X045908Y0559D01*
X045877Y056056D01*
X045788Y056188D01*
X044808Y057169D01*
Y057401D01*
X044908Y057432D01*
X04499Y05731D01*
X04556Y05674D01*
X045725Y056629D01*
X04592Y05659D01*
X048733D01*
X048928Y056629D01*
X049094Y05674D01*
X04956Y057206D01*
X049671Y057372D01*
X04971Y057567D01*
Y058079D01*
X049724Y058097D01*
X049785Y058243D01*
X049805Y0584D01*
X049785Y058557D01*
X049724Y058703D01*
X049628Y058828D01*
X049503Y058924D01*
X049357Y058985D01*
X0492Y059005D01*
X049043Y058985D01*
X048897Y058924D01*
X048772Y058828D01*
X048695Y058728D01*
X048595Y058759D01*
Y058795D01*
X0483D01*
Y0584D01*
Y058005D01*
X048595D01*
Y058005D01*
X04869Y057992D01*
Y057778D01*
X048522Y05761D01*
X046131D01*
X04586Y057881D01*
Y060579D01*
X045874Y060597D01*
X045935Y060743D01*
X045955Y0609D01*
X045935Y061057D01*
X045874Y061203D01*
X045778Y061328D01*
X045653Y061424D01*
X045507Y061485D01*
X04535Y061505D01*
X045193Y061485D01*
X045047Y061424D01*
X044922Y061328D01*
X044908Y061309D01*
X044808Y061343D01*
Y063957D01*
X044908Y063991D01*
X044922Y063972D01*
X045047Y063876D01*
X045193Y063815D01*
X04535Y063795D01*
X045507Y063815D01*
X045653Y063876D01*
X045671Y06389D01*
X05155D01*
X05165Y06391D01*
X05175Y063828D01*
Y062674D01*
X05305D01*
Y062814D01*
X053721D01*
X053797Y062756D01*
X053943Y062695D01*
X0541Y062675D01*
X054257Y062695D01*
X054403Y062756D01*
X054421Y06277D01*
X055009D01*
X055434Y062345D01*
Y061621D01*
X05542Y061603D01*
X055359Y061457D01*
X055339Y0613D01*
X055359Y061143D01*
X05542Y060997D01*
X055516Y060872D01*
X055641Y060776D01*
X055787Y060715D01*
X055944Y060695D01*
X056101Y060715D01*
X05619Y060753D01*
X05629Y060689D01*
Y059531D01*
X056245Y059421D01*
X056225Y05927D01*
Y05893D01*
X056245Y058779D01*
X056303Y058637D01*
X056396Y058516D01*
X056517Y058423D01*
X056598Y05839D01*
X056578Y05829D01*
X055011D01*
X05461Y058691D01*
Y059459D01*
X054624Y059477D01*
X054685Y059623D01*
X054705Y05978D01*
X054685Y059937D01*
X054624Y060083D01*
X054528Y060208D01*
X054403Y060304D01*
X054257Y060365D01*
X0541Y060385D01*
X053943Y060365D01*
X053797Y060304D01*
X053672Y060208D01*
X053576Y060083D01*
X053515Y059937D01*
X053495Y05978D01*
X053515Y059623D01*
X053576Y059477D01*
X05359Y059459D01*
Y05848D01*
X053629Y058285D01*
X05374Y05812D01*
X05444Y05742D01*
X054605Y057309D01*
X0548Y05727D01*
X05738D01*
X057575Y057309D01*
X05774Y05742D01*
X05817Y057849D01*
X058281Y058015D01*
X058319Y05821D01*
Y058464D01*
X058419Y058498D01*
X058517Y058423D01*
X058658Y058365D01*
X05881Y058345D01*
X058961Y058365D01*
X059102Y058423D01*
X059223Y058516D01*
X05928Y05859D01*
X059991D01*
X059997Y058586D01*
X060143Y058525D01*
X0603Y058505D01*
X060457Y058525D01*
X060603Y058586D01*
X060728Y058682D01*
X060824Y058807D01*
X060885Y058953D01*
X060905Y05911D01*
X060885Y059266D01*
X060824Y059412D01*
X060728Y059538D01*
X060603Y059634D01*
X060457Y059694D01*
X0603Y059715D01*
X060143Y059694D01*
X059997Y059634D01*
X059966Y05961D01*
X059319D01*
Y060204D01*
X059281Y060399D01*
X05917Y060565D01*
X05831Y061425D01*
Y062714D01*
X05841Y062748D01*
X058507Y062673D01*
X058649Y062615D01*
X0588Y062595D01*
X058951Y062615D01*
X059092Y062673D01*
X059214Y062766D01*
X059307Y062888D01*
X059365Y063029D01*
X059385Y06318D01*
Y06352D01*
X059365Y063671D01*
X059307Y063812D01*
X059214Y063934D01*
X059092Y064027D01*
X058951Y064085D01*
X0588Y064105D01*
X058649Y064085D01*
X058507Y064027D01*
X058386Y063934D01*
X05835Y063886D01*
X05825D01*
X058214Y063934D01*
X058092Y064027D01*
X057951Y064085D01*
X0578Y064105D01*
X057649Y064085D01*
X057508Y064027D01*
X057386Y063934D01*
X05735Y063886D01*
X05725D01*
X057214Y063934D01*
X057092Y064027D01*
X056951Y064085D01*
X0568Y064105D01*
X056649Y064085D01*
X056508Y064027D01*
X056386Y063934D01*
X056293Y063812D01*
X056235Y063671D01*
X056215Y06352D01*
Y06318D01*
X05622Y063142D01*
X056125Y063096D01*
X05558Y06364D01*
X055415Y063751D01*
X05522Y06379D01*
X054421D01*
X054403Y063804D01*
X054257Y063865D01*
X0541Y063885D01*
X053943Y063865D01*
X053869Y063834D01*
X05305D01*
Y063974D01*
X051986D01*
X051945Y064074D01*
X05318Y06531D01*
X053291Y065475D01*
X05333Y06567D01*
Y067895D01*
X05357D01*
Y069045D01*
X053304D01*
X053274Y069145D01*
X053301Y069164D01*
X053395Y069304D01*
X053408Y06937D01*
X05282D01*
X052232D01*
X052245Y069304D01*
X052339Y069164D01*
X052366Y069145D01*
X052336Y069045D01*
X05207D01*
Y067895D01*
X05231D01*
Y065881D01*
X051339Y06491D01*
X045671D01*
X045653Y064924D01*
X045507Y064985D01*
X04535Y065005D01*
X045193Y064985D01*
X045047Y064924D01*
X044922Y064828D01*
X044908Y064809D01*
X044808Y064843D01*
Y06874D01*
X044808Y06874D01*
X044777Y068896D01*
X044688Y069028D01*
X044688Y069028D01*
X043828Y069888D01*
X043696Y069977D01*
X04354Y070008D01*
X04354Y070008D01*
X04135D01*
X041329Y070035D01*
X041315Y070076D01*
Y070124D01*
X041329Y070165D01*
X041421Y070285D01*
X041484Y070437D01*
X041505Y0706D01*
X041484Y070763D01*
X041421Y070915D01*
X041321Y071046D01*
X041209Y071132D01*
X041193Y071241D01*
X041217Y071258D01*
X041322Y071415D01*
X041339Y0715D01*
X0408D01*
X040261D01*
X040278Y071415D01*
X040383Y071258D01*
X040407Y071241D01*
X040391Y071132D01*
X040279Y071046D01*
X040179Y070915D01*
X040116Y070763D01*
X040095Y0706D01*
X040116Y070437D01*
X040179Y070285D01*
X040271Y070165D01*
X040285Y070124D01*
Y070076D01*
X040271Y070035D01*
X040179Y069915D01*
X040116Y069763D01*
X040095Y0696D01*
X040116Y069437D01*
X040179Y069285D01*
X040279Y069154D01*
X04041Y069054D01*
X040562Y068991D01*
X040725Y06897D01*
X040875D01*
X041038Y068991D01*
X04119Y069054D01*
X041321Y069154D01*
X04135Y069192D01*
X043371D01*
X043992Y068571D01*
Y062013D01*
X043892Y061983D01*
X043888Y061988D01*
X043888Y061988D01*
X042655Y063222D01*
X042523Y06331D01*
X042367Y063341D01*
X042367Y063341D01*
X04135D01*
X041329Y063368D01*
X041315Y063409D01*
Y063458D01*
X041329Y063499D01*
X041421Y063618D01*
X041484Y06377D01*
X041505Y063933D01*
X041484Y064096D01*
X041421Y064249D01*
X041321Y064379D01*
X041209Y064465D01*
X041193Y064574D01*
X041217Y064591D01*
X041322Y064748D01*
X041339Y064833D01*
X0408D01*
X040261D01*
X040278Y064748D01*
X040383Y064591D01*
X040407Y064574D01*
X040391Y064465D01*
X040279Y064379D01*
X040179Y064249D01*
X040116Y064096D01*
X040095Y063933D01*
X040116Y06377D01*
X040179Y063618D01*
X040271Y063499D01*
X040285Y063458D01*
Y063409D01*
X040271Y063368D01*
X040179Y063249D01*
X040116Y063096D01*
X040095Y062933D01*
X040116Y06277D01*
X040179Y062618D01*
X040279Y062488D01*
X04041Y062387D01*
X040562Y062324D01*
X040725Y062303D01*
X040875D01*
X041038Y062324D01*
X04119Y062387D01*
X041321Y062488D01*
X04135Y062526D01*
X042198D01*
X043192Y061531D01*
Y0566D01*
X043192Y0566D01*
X043223Y056444D01*
X043312Y056312D01*
X044292Y055331D01*
Y055113D01*
X044192Y055083D01*
X044188Y055088D01*
X044188Y055088D01*
X042722Y056555D01*
X042589Y056643D01*
X042433Y056674D01*
X042433Y056674D01*
X04135D01*
X041329Y056701D01*
X041315Y056742D01*
Y056791D01*
X041329Y056832D01*
X041421Y056951D01*
X041484Y057104D01*
X041505Y057267D01*
X041484Y05743D01*
X041421Y057582D01*
X041321Y057712D01*
X041209Y057798D01*
X041193Y057908D01*
X041217Y057924D01*
X041322Y058081D01*
X041339Y058167D01*
X0408D01*
X040261D01*
X040278Y058081D01*
X040383Y057924D01*
X040407Y057908D01*
X040391Y057798D01*
X040279Y057712D01*
X040179Y057582D01*
X040116Y05743D01*
X040095Y057267D01*
X040116Y057104D01*
X040179Y056951D01*
X040271Y056832D01*
X040285Y056791D01*
Y056742D01*
X040271Y056701D01*
X040179Y056582D01*
X040116Y05643D01*
X040095Y056267D01*
X040116Y056104D01*
X040179Y055951D01*
X040279Y055821D01*
X04041Y055721D01*
X040562Y055658D01*
X040725Y055636D01*
X040875D01*
X041038Y055658D01*
X04119Y055721D01*
X041321Y055821D01*
X04135Y055859D01*
X042264D01*
X043492Y054631D01*
Y05095D01*
X043492Y05095D01*
X043523Y050794D01*
X043612Y050662D01*
X046011Y048263D01*
X046046Y048177D01*
X046142Y048052D01*
X046143Y047942D01*
X046088Y047888D01*
X045912D01*
X041911Y051888D01*
X041779Y051977D01*
X041623Y052008D01*
X041623Y052008D01*
X0415D01*
Y053225D01*
X0401D01*
Y053008D01*
X039829D01*
X039208Y053629D01*
Y058384D01*
X039682Y058859D01*
X0401D01*
Y058642D01*
X040284D01*
X040337Y058542D01*
X040278Y058452D01*
X040261Y058367D01*
X0408D01*
X041339D01*
X041322Y058452D01*
X041263Y058542D01*
X041316Y058642D01*
X0415D01*
Y059892D01*
X0401D01*
Y059675D01*
X039682D01*
X039208Y060149D01*
Y065031D01*
X039702Y065525D01*
X0401D01*
Y065308D01*
X040284D01*
X040337Y065208D01*
X040278Y065119D01*
X040261Y065033D01*
X0408D01*
X041339D01*
X041322Y065119D01*
X041263Y065208D01*
X041316Y065308D01*
X0415D01*
Y066558D01*
X0401D01*
Y066341D01*
X039702D01*
X039208Y066836D01*
Y071531D01*
X039869Y072192D01*
X0401D01*
Y071975D01*
X040284D01*
X040337Y071875D01*
X040278Y071785D01*
X040261Y0717D01*
X0408D01*
X041339D01*
X041322Y071785D01*
X041263Y071875D01*
X041316Y071975D01*
X0415D01*
Y07209D01*
X047589D01*
X048688Y070991D01*
Y067556D01*
X048593Y067543D01*
Y067543D01*
X048298D01*
Y067148D01*
Y066753D01*
X048593D01*
Y066789D01*
X048693Y06682D01*
X04877Y06672D01*
X048895Y066624D01*
X049041Y066563D01*
X049198Y066543D01*
X049355Y066563D01*
X049501Y066624D01*
X049626Y06672D01*
X049722Y066845D01*
X049783Y066991D01*
X049803Y067148D01*
X049783Y067305D01*
X049722Y067451D01*
X049708Y067469D01*
Y071202D01*
X049669Y071397D01*
X049559Y071562D01*
X04816Y07296D01*
X047995Y073071D01*
X0478Y07311D01*
X0415D01*
Y073225D01*
X0401D01*
Y073008D01*
X0397D01*
X039544Y072977D01*
X039412Y072888D01*
X039412Y072888D01*
X038512Y071988D01*
X038423Y071856D01*
X038392Y0717D01*
X038392Y0717D01*
Y066667D01*
X038392Y066667D01*
X038423Y066511D01*
X038512Y066378D01*
X038957Y065933D01*
X038512Y065488D01*
X038423Y065356D01*
X038392Y0652D01*
X038392Y0652D01*
Y05998D01*
X038392Y05998D01*
X038423Y059824D01*
X038512Y059692D01*
X038937Y059267D01*
X038512Y058842D01*
X038423Y058709D01*
X038392Y058553D01*
X038392Y058553D01*
Y05346D01*
X038392Y05346D01*
X038423Y053304D01*
X038512Y053172D01*
X039083Y0526D01*
X038512Y052028D01*
X038423Y051896D01*
X038392Y05174D01*
X038392Y05174D01*
Y0471D01*
X038392Y0471D01*
X038423Y046944D01*
X038512Y046812D01*
X039223Y0461D01*
X037912Y044788D01*
X037823Y044656D01*
X037792Y0445D01*
X037792Y0445D01*
X037792Y02273D01*
X037792Y02273D01*
X037823Y022574D01*
X037912Y022442D01*
X038557Y021797D01*
X038557Y021797D01*
X038689Y021708D01*
X038845Y021677D01*
X039985D01*
X039985Y021677D01*
X040141Y021708D01*
X040273Y021797D01*
X040542Y022066D01*
X040854Y021754D01*
X040854Y021754D01*
X040986Y021666D01*
X041143Y021635D01*
X043942D01*
X043942Y021635D01*
X044099Y021666D01*
X044231Y021754D01*
X04455Y022073D01*
X044752Y021872D01*
X044752Y021872D01*
X044884Y021783D01*
X04504Y021752D01*
X04681D01*
X04681Y021752D01*
X046966Y021783D01*
X047098Y021872D01*
X04771Y022483D01*
X048282Y021912D01*
X048282Y021912D01*
X048414Y021823D01*
X04857Y021792D01*
X04857Y021792D01*
X04996D01*
X04996Y021792D01*
X050116Y021823D01*
X050248Y021912D01*
X050991Y022655D01*
X051385D01*
Y022891D01*
X051485Y022921D01*
X051516Y022876D01*
X051664Y022776D01*
X05174Y022761D01*
Y0232D01*
Y023639D01*
X051664Y023624D01*
X051516Y023524D01*
X051485Y023479D01*
X051385Y023509D01*
Y023745D01*
X050295D01*
Y023111D01*
X050149Y022966D01*
X050072Y02303D01*
X050082Y023046D01*
X050093Y0231D01*
X04981D01*
Y022817D01*
X049864Y022828D01*
X04988Y022838D01*
X049944Y022761D01*
X049791Y022608D01*
X048967D01*
X048947Y022708D01*
X048985Y022724D01*
X049099Y022811D01*
X049186Y022925D01*
X049236Y023045D01*
X049273Y023053D01*
X049339Y023043D01*
X049425Y022915D01*
X049556Y022828D01*
X04961Y022817D01*
Y0232D01*
Y023583D01*
X049556Y023572D01*
X049425Y023485D01*
X049339Y023357D01*
X049273Y023347D01*
X049236Y023355D01*
X049186Y023475D01*
X049099Y023589D01*
X048985Y023676D01*
X048852Y023731D01*
X04871Y02375D01*
X048568Y023731D01*
X048435Y023676D01*
X048355Y023615D01*
X048255Y02366D01*
Y023745D01*
X047165D01*
Y023091D01*
X046949Y022876D01*
X046871Y02294D01*
X046942Y023046D01*
X046953Y0231D01*
X04667D01*
Y022817D01*
X046724Y022828D01*
X04683Y022899D01*
X046894Y022821D01*
X046641Y022568D01*
X045712D01*
X045705Y022668D01*
X045712Y022669D01*
X045845Y022724D01*
X045959Y022811D01*
X046046Y022925D01*
X046096Y023045D01*
X046133Y023053D01*
X046199Y023043D01*
X046285Y022915D01*
X046416Y022828D01*
X04647Y022817D01*
Y0232D01*
Y023583D01*
X046416Y023572D01*
X046285Y023485D01*
X046199Y023357D01*
X046133Y023347D01*
X046096Y023355D01*
X046046Y023475D01*
X045959Y023589D01*
X045845Y023676D01*
X045712Y023731D01*
X04557Y02375D01*
X045428Y023731D01*
X045295Y023676D01*
X045215Y023615D01*
X045115Y02366D01*
Y023745D01*
X044025D01*
Y022701D01*
X043774Y02245D01*
X042712D01*
X042693Y022546D01*
X042845Y022609D01*
X042976Y022709D01*
X043076Y02284D01*
X043139Y022992D01*
X04316Y023155D01*
Y023305D01*
X043139Y023468D01*
X043076Y02362D01*
X042976Y023751D01*
X042954Y023768D01*
X042949Y023872D01*
X043669Y024592D01*
X04828D01*
X04828Y024592D01*
X048436Y024623D01*
X048568Y024712D01*
X049688Y025832D01*
X049777Y025964D01*
X049808Y02612D01*
X049808Y02612D01*
Y027047D01*
X049908Y027077D01*
X049912Y027072D01*
X052432Y024551D01*
Y023643D01*
X052412Y023628D01*
X052316Y023503D01*
X052304Y023474D01*
X052205Y023464D01*
X052164Y023524D01*
X052016Y023624D01*
X05194Y023639D01*
Y0232D01*
Y022761D01*
X052016Y022776D01*
X052164Y022876D01*
X052205Y022936D01*
X052304Y022926D01*
X052316Y022897D01*
X052412Y022772D01*
X052537Y022676D01*
X052683Y022615D01*
X05284Y022595D01*
X052997Y022615D01*
X053143Y022676D01*
X053268Y022772D01*
X053364Y022897D01*
X053425Y023043D01*
X053445Y0232D01*
X053425Y023357D01*
X053364Y023503D01*
X053268Y023628D01*
X053248Y023643D01*
Y02472D01*
X053248Y02472D01*
X053217Y024876D01*
X053128Y025008D01*
X053128Y025008D01*
X050608Y027529D01*
Y035542D01*
X050708Y035591D01*
X050712Y035588D01*
Y02807D01*
X050712Y02807D01*
X050743Y027914D01*
X050832Y027782D01*
X054595Y024018D01*
Y02306D01*
X055845D01*
Y023244D01*
X055945Y023297D01*
X056035Y023238D01*
X05612Y023221D01*
Y02376D01*
Y024299D01*
X056035Y024282D01*
X055945Y024223D01*
X055845Y024276D01*
Y02446D01*
X055307D01*
X051528Y028239D01*
Y035687D01*
X051548Y035702D01*
X051644Y035827D01*
X051705Y035973D01*
X051725Y03613D01*
X051705Y036287D01*
X051644Y036433D01*
X051548Y036558D01*
X051423Y036654D01*
X051277Y036715D01*
X05112Y036735D01*
X050963Y036715D01*
X050817Y036654D01*
X050708Y03657D01*
X050608Y036597D01*
Y039163D01*
X050708Y03919D01*
X050817Y039106D01*
X050963Y039045D01*
X05112Y039025D01*
X051277Y039045D01*
X051423Y039106D01*
X051548Y039202D01*
X051644Y039327D01*
X051705Y039473D01*
X051725Y03963D01*
X051705Y039787D01*
X051644Y039933D01*
X051548Y040058D01*
X051528Y040073D01*
Y045D01*
X051528Y045D01*
X051497Y045156D01*
X051408Y045288D01*
X049928Y046768D01*
X049796Y046857D01*
X04964Y046888D01*
X04964Y046888D01*
X048013D01*
X047998Y046908D01*
X047997Y047018D01*
X048052Y047072D01*
X050151D01*
X052045Y045178D01*
Y040073D01*
X052025Y040058D01*
X051929Y039933D01*
X051869Y039787D01*
X051848Y03963D01*
X051869Y039473D01*
X051929Y039327D01*
X052025Y039202D01*
X052151Y039106D01*
X052297Y039045D01*
X052453Y039025D01*
X05261Y039045D01*
X052756Y039106D01*
X052881Y039202D01*
X052977Y039327D01*
X053038Y039473D01*
X053059Y03963D01*
X053038Y039787D01*
X052977Y039933D01*
X052881Y040058D01*
X052861Y040073D01*
Y045347D01*
X05283Y045503D01*
X052742Y045635D01*
X052742Y045635D01*
X050608Y047768D01*
X050476Y047857D01*
X05032Y047888D01*
X05032Y047888D01*
X048013D01*
X047998Y047908D01*
X047997Y048018D01*
X048052Y048072D01*
X050951D01*
X053379Y045644D01*
Y040073D01*
X053359Y040058D01*
X053263Y039933D01*
X053202Y039787D01*
X053181Y03963D01*
X053202Y039473D01*
X053263Y039327D01*
X053359Y039202D01*
X053484Y039106D01*
X05363Y039045D01*
X053787Y039025D01*
X053943Y039045D01*
X054089Y039106D01*
X054215Y039202D01*
X054311Y039327D01*
X054371Y039473D01*
X054392Y03963D01*
X054371Y039787D01*
X054311Y039933D01*
X054215Y040058D01*
X054194Y040073D01*
Y045813D01*
X054194Y045813D01*
X054163Y045969D01*
X054075Y046102D01*
X054075Y046102D01*
X051408Y048768D01*
X051276Y048857D01*
X05112Y048888D01*
X05112Y048888D01*
X048013D01*
X047998Y048908D01*
X047997Y049018D01*
X048052Y049072D01*
X051751D01*
X054712Y046111D01*
Y040073D01*
X054692Y040058D01*
X054596Y039933D01*
X054535Y039787D01*
X054515Y03963D01*
X054535Y039473D01*
X054596Y039327D01*
X054692Y039202D01*
X054817Y039106D01*
X054963Y039045D01*
X05512Y039025D01*
X055277Y039045D01*
X055423Y039106D01*
X055492Y039159D01*
X055592Y03911D01*
Y03665D01*
X055492Y036601D01*
X055423Y036654D01*
X055277Y036715D01*
X05512Y036735D01*
X054963Y036715D01*
X054817Y036654D01*
X054692Y036558D01*
X054596Y036433D01*
X054535Y036287D01*
X054515Y03613D01*
X054535Y035973D01*
X054596Y035827D01*
X054692Y035702D01*
X054712Y035687D01*
Y029841D01*
X054712Y029841D01*
X054743Y029685D01*
X054832Y029552D01*
X057772Y026612D01*
X057772Y026612D01*
X057905Y026523D01*
X058061Y026492D01*
X06076D01*
X062141Y025112D01*
X062141Y025112D01*
X062273Y025023D01*
X062429Y024992D01*
X065807D01*
X066991Y023808D01*
Y02306D01*
X068241D01*
Y023244D01*
X068341Y023297D01*
X068431Y023238D01*
X068516Y023221D01*
Y02376D01*
Y024299D01*
X068431Y024282D01*
X068341Y024223D01*
X068241Y024276D01*
Y02446D01*
X067493D01*
X066264Y025688D01*
X066132Y025777D01*
X065976Y025808D01*
X065976Y025808D01*
X062598D01*
X061218Y027188D01*
X061085Y027277D01*
X060929Y027308D01*
X060929Y027308D01*
X05823D01*
X055528Y03001D01*
Y034917D01*
X055621Y034976D01*
X055628Y034975D01*
X055712Y03485D01*
X056546Y034015D01*
X056543Y03399D01*
X056564Y033833D01*
X056624Y033687D01*
X05672Y033562D01*
X056846Y033466D01*
X056992Y033405D01*
X057148Y033385D01*
X057305Y033405D01*
X057451Y033466D01*
X057576Y033562D01*
X057672Y033687D01*
X057733Y033833D01*
X057754Y03399D01*
X057733Y034147D01*
X057672Y034293D01*
X057576Y034418D01*
X057451Y034514D01*
X057305Y034575D01*
X057148Y034595D01*
X057123Y034592D01*
X056408Y035307D01*
Y035663D01*
X056508Y03569D01*
X056617Y035606D01*
X056763Y035545D01*
X05692Y035525D01*
X057077Y035545D01*
X057223Y035606D01*
X057348Y035702D01*
X057444Y035827D01*
X057505Y035973D01*
X057525Y03613D01*
X057505Y036287D01*
X057444Y036433D01*
X057348Y036558D01*
X057328Y036573D01*
Y037867D01*
X058053Y038592D01*
X058372D01*
X058376Y038586D01*
X058424Y03855D01*
Y03845D01*
X058376Y038414D01*
X058283Y038293D01*
X058225Y038151D01*
X058205Y038D01*
X058225Y037849D01*
X058283Y037708D01*
X058376Y037586D01*
X058498Y037493D01*
X058545Y037474D01*
X058556Y037361D01*
X05848Y03731D01*
X058385Y037168D01*
X058371Y0371D01*
X05896D01*
X059549D01*
X059535Y037168D01*
X05944Y03731D01*
X059364Y037361D01*
X059375Y037474D01*
X059422Y037493D01*
X059544Y037586D01*
X059548Y037592D01*
X060231D01*
X060692Y037131D01*
Y036686D01*
X060636Y036644D01*
X060532Y036508D01*
X060467Y03635D01*
X060444Y03618D01*
X060467Y03601D01*
X060532Y035852D01*
X060636Y035716D01*
X060772Y035612D01*
X06093Y035547D01*
X0611Y035524D01*
X06117Y035534D01*
X062523Y03418D01*
Y031218D01*
X062423Y031188D01*
X062356Y031288D01*
X061508Y032137D01*
Y033374D01*
X061564Y033416D01*
X061668Y033552D01*
X061733Y03371D01*
X061756Y03388D01*
X061733Y03405D01*
X061668Y034208D01*
X061564Y034344D01*
X061428Y034448D01*
X06127Y034513D01*
X0611Y034536D01*
X06093Y034513D01*
X060772Y034448D01*
X060636Y034344D01*
X060532Y034208D01*
X060467Y03405D01*
X060444Y03388D01*
X060467Y03371D01*
X060532Y033552D01*
X060636Y033416D01*
X060692Y033374D01*
Y032046D01*
X060617Y031984D01*
X060528Y032021D01*
Y03225D01*
X060495Y032418D01*
X0604Y03256D01*
X060258Y032655D01*
X06019Y032669D01*
Y03208D01*
X05999D01*
Y032669D01*
X059922Y032655D01*
X05978Y03256D01*
X059729Y032484D01*
X059616Y032495D01*
X059597Y032543D01*
X059504Y032664D01*
X059383Y032757D01*
X059241Y032815D01*
X05909Y032835D01*
X058939Y032815D01*
X058797Y032757D01*
X058676Y032664D01*
X05864Y032616D01*
X05854D01*
X058504Y032664D01*
X058383Y032757D01*
X058241Y032815D01*
X05809Y032835D01*
X057939Y032815D01*
X057797Y032757D01*
X057676Y032664D01*
X057583Y032543D01*
X057525Y032401D01*
X057505Y03225D01*
Y032072D01*
X05686Y031427D01*
X056772Y031294D01*
X05674Y031138D01*
X05674Y031138D01*
Y030933D01*
X05672Y030918D01*
X056624Y030793D01*
X056564Y030647D01*
X056543Y03049D01*
X056564Y030333D01*
X056624Y030187D01*
X05672Y030062D01*
X056846Y029966D01*
X056992Y029905D01*
X057148Y029885D01*
X057305Y029905D01*
X057451Y029966D01*
X057576Y030062D01*
X057672Y030187D01*
X057733Y030333D01*
X057754Y03049D01*
X057733Y030647D01*
X057672Y030793D01*
X057576Y030918D01*
X057603Y031016D01*
X057934Y031347D01*
X057939Y031345D01*
X05809Y031325D01*
X058241Y031345D01*
X058383Y031403D01*
X058504Y031496D01*
X058516Y031513D01*
X058629Y031517D01*
X058682Y031461D01*
Y03139D01*
X058682Y03139D01*
X058713Y031234D01*
X058802Y031102D01*
X059222Y030682D01*
X059222Y030682D01*
X059354Y030593D01*
X05951Y030562D01*
X05951Y030562D01*
X060196D01*
X060196Y030562D01*
X06035Y030593D01*
X060368Y030596D01*
X06045Y03054D01*
Y02973D01*
X060692D01*
Y0287D01*
X060692Y0287D01*
X060723Y028544D01*
X060812Y028412D01*
X062862Y026362D01*
X062862Y026362D01*
X062994Y026273D01*
X06315Y026242D01*
X06315Y026242D01*
X068119D01*
X069992Y024369D01*
Y02308D01*
X069992Y02308D01*
X070023Y022924D01*
X070112Y022792D01*
X070892Y022012D01*
X070892Y022012D01*
X071024Y021923D01*
X07118Y021892D01*
X07118Y021892D01*
X072598D01*
X072598Y021892D01*
X072754Y021923D01*
X072886Y022012D01*
X073108Y022233D01*
X07333Y022012D01*
X073462Y021923D01*
X073618Y021892D01*
X073618Y021892D01*
X076675D01*
X076675Y021892D01*
X076831Y021923D01*
X076963Y022012D01*
X077528Y022577D01*
X077528Y022577D01*
X077617Y022709D01*
X077648Y022865D01*
X077648Y022865D01*
Y02321D01*
X077686Y023239D01*
X077786Y02337D01*
X077849Y023522D01*
X07787Y023685D01*
Y023835D01*
X077849Y023998D01*
X077786Y02415D01*
X077686Y024281D01*
X077555Y024381D01*
X077403Y024444D01*
X07724Y024465D01*
X077077Y024444D01*
X076965Y024398D01*
X076865Y024452D01*
Y02446D01*
X075615D01*
Y024168D01*
X075209D01*
X071297Y02808D01*
X071335Y028172D01*
X07715D01*
X07715Y028172D01*
X077306Y028203D01*
X077438Y028292D01*
X078988Y029842D01*
X079077Y029974D01*
X079108Y03013D01*
X079108Y03013D01*
Y03425D01*
X079108Y03425D01*
X079077Y034406D01*
X078988Y034538D01*
X077738Y035788D01*
X077606Y035877D01*
X07745Y035908D01*
X07745Y035908D01*
X076343D01*
X076328Y035928D01*
X076203Y036024D01*
X076057Y036085D01*
X0759Y036105D01*
X075743Y036085D01*
X075597Y036024D01*
X075472Y035928D01*
X075362Y035927D01*
X075308Y035982D01*
Y036935D01*
X075308Y036935D01*
X075277Y037091D01*
X075188Y037223D01*
X074223Y038188D01*
X074091Y038277D01*
X073935Y038308D01*
X073935Y038308D01*
X07192D01*
X071764Y038277D01*
X071632Y038188D01*
X068512Y035068D01*
X068423Y034936D01*
X068392Y03478D01*
X068392Y03478D01*
Y032771D01*
X068247Y032626D01*
X068143Y032664D01*
X068094Y032783D01*
X067998Y032908D01*
X067969Y03293D01*
Y03303D01*
X067998Y033052D01*
X068094Y033177D01*
X068155Y033323D01*
X068175Y03348D01*
X068155Y033637D01*
X068094Y033783D01*
X067998Y033908D01*
X067969Y03393D01*
Y03403D01*
X067998Y034052D01*
X068094Y034177D01*
X068155Y034323D01*
X068175Y03448D01*
X068155Y034637D01*
X068094Y034783D01*
X067998Y034908D01*
X067969Y03493D01*
Y03503D01*
X067998Y035052D01*
X068019Y03508D01*
X068136Y035103D01*
X068268Y035192D01*
X074723Y041647D01*
X074723Y041647D01*
X074812Y041779D01*
X074843Y041935D01*
X074843Y041935D01*
Y045068D01*
X074956Y045154D01*
X075056Y045285D01*
X075119Y045437D01*
X07514Y0456D01*
X075119Y045763D01*
X075056Y045915D01*
X074964Y046035D01*
X07495Y046076D01*
Y046124D01*
X074964Y046165D01*
X075056Y046285D01*
X075119Y046437D01*
X07514Y0466D01*
X075119Y046763D01*
X075056Y046915D01*
X074964Y047035D01*
X07495Y047076D01*
Y047124D01*
X074964Y047165D01*
X075056Y047285D01*
X075119Y047437D01*
X07514Y0476D01*
X075119Y047763D01*
X075073Y047875D01*
X075127Y047975D01*
X075135D01*
Y049225D01*
X073735D01*
Y049008D01*
X07329D01*
X073134Y048977D01*
X073002Y048888D01*
X073002Y048888D01*
X0721Y047987D01*
X072008Y048025D01*
Y050131D01*
X072469Y050592D01*
X073885D01*
X073914Y050554D01*
X074045Y050454D01*
X074197Y050391D01*
X07436Y05037D01*
X07451D01*
X074673Y050391D01*
X074825Y050454D01*
X074956Y050554D01*
X075056Y050685D01*
X075119Y050837D01*
X07514Y051D01*
X075119Y051163D01*
X075056Y051315D01*
X074964Y051435D01*
X07495Y051476D01*
Y051524D01*
X074964Y051565D01*
X075056Y051685D01*
X075119Y051837D01*
X07514Y052D01*
X075119Y052163D01*
X075056Y052315D01*
X074964Y052435D01*
X07495Y052476D01*
Y052524D01*
X074964Y052565D01*
X075056Y052685D01*
X075119Y052837D01*
X07514Y053D01*
X075119Y053163D01*
X075073Y053275D01*
X075127Y053375D01*
X075135D01*
Y054625D01*
X073735D01*
Y054408D01*
X0708D01*
X0708Y054408D01*
X070644Y054377D01*
X070512Y054288D01*
X06955Y053327D01*
X069458Y053365D01*
Y057781D01*
X070469Y058792D01*
X073885D01*
X073906Y058765D01*
X07392Y058724D01*
Y058676D01*
X073906Y058635D01*
X073814Y058515D01*
X073751Y058363D01*
X07373Y0582D01*
X073751Y058037D01*
X073814Y057885D01*
X073914Y057754D01*
X074045Y057654D01*
X074197Y057591D01*
X07436Y05757D01*
X07451D01*
X074673Y057591D01*
X074825Y057654D01*
X074956Y057754D01*
X075056Y057885D01*
X075119Y058037D01*
X07514Y0582D01*
X075119Y058363D01*
X075056Y058515D01*
X074964Y058635D01*
X07495Y058676D01*
Y058724D01*
X074964Y058765D01*
X075056Y058885D01*
X075119Y059037D01*
X07514Y0592D01*
X075119Y059363D01*
X075056Y059515D01*
X074964Y059635D01*
X07495Y059676D01*
Y059724D01*
X074964Y059765D01*
X075056Y059885D01*
X075119Y060037D01*
X07514Y0602D01*
X075119Y060363D01*
X075056Y060515D01*
X074972Y060625D01*
X074985Y060725D01*
X074985D01*
Y0611D01*
X074435D01*
X073885D01*
Y060725D01*
X073885D01*
X073898Y060625D01*
X073814Y060515D01*
X073751Y060363D01*
X07373Y0602D01*
X073751Y060037D01*
X073814Y059885D01*
X073906Y059765D01*
X07392Y059724D01*
Y059693D01*
X073848Y059608D01*
X0703D01*
X0703Y059608D01*
X070144Y059577D01*
X070012Y059488D01*
X068762Y058238D01*
X068673Y058106D01*
X068642Y05795D01*
X068642Y05795D01*
Y056065D01*
X06855Y056027D01*
X06606Y058516D01*
Y059616D01*
X066066Y059621D01*
X066102Y059668D01*
X066202D01*
X066239Y059621D01*
X06636Y059528D01*
X066501Y059469D01*
X066652Y059449D01*
X066804Y059469D01*
X066945Y059528D01*
X067066Y059621D01*
X067102Y059668D01*
X067202D01*
X067239Y059621D01*
X06736Y059528D01*
X067501Y059469D01*
X067652Y059449D01*
X067804Y059469D01*
X067945Y059528D01*
X068066Y059621D01*
X068159Y059742D01*
X068218Y059883D01*
X068237Y060034D01*
Y060213D01*
X068438Y060413D01*
X068527Y060546D01*
X068558Y060702D01*
Y061987D01*
X068578Y062002D01*
X068674Y062127D01*
X068735Y062273D01*
X068755Y06243D01*
X068735Y062587D01*
X068674Y062733D01*
X068578Y062858D01*
X068453Y062954D01*
X068307Y063015D01*
X06815Y063035D01*
X067993Y063015D01*
X067847Y062954D01*
X067722Y062858D01*
X067626Y062733D01*
X067565Y062587D01*
X067545Y06243D01*
X067565Y062273D01*
X067626Y062127D01*
X067722Y062002D01*
X067742Y061987D01*
Y061023D01*
X067667Y060957D01*
X067652Y060959D01*
X067501Y060939D01*
X06736Y060881D01*
X06726Y060804D01*
X06716Y060836D01*
Y062109D01*
X067174Y062127D01*
X067235Y062273D01*
X067255Y06243D01*
X067235Y062587D01*
X067174Y062733D01*
X067078Y062858D01*
X066953Y062954D01*
X066807Y063015D01*
X06665Y063035D01*
X066493Y063015D01*
X066424Y062986D01*
X066367Y063071D01*
X066938Y063642D01*
X066938Y063642D01*
X067027Y063774D01*
X067058Y06393D01*
Y065487D01*
X067078Y065502D01*
X067174Y065627D01*
X067235Y065773D01*
X067255Y06593D01*
X067235Y066087D01*
X067174Y066233D01*
X067078Y066358D01*
X066953Y066454D01*
X066807Y066515D01*
X06665Y066535D01*
X066493Y066515D01*
X066347Y066454D01*
X066222Y066358D01*
X066126Y066233D01*
X066065Y066087D01*
X066045Y06593D01*
X066065Y065773D01*
X066126Y065627D01*
X066222Y065502D01*
X066242Y065487D01*
Y064099D01*
X065175Y063032D01*
X06515Y063035D01*
X064993Y063015D01*
X064847Y062954D01*
X064722Y062858D01*
X064626Y062733D01*
X064565Y062587D01*
X064545Y06243D01*
X064565Y062273D01*
X064626Y062127D01*
X064722Y062002D01*
X064742Y061987D01*
Y060707D01*
X064742Y060707D01*
X064773Y060551D01*
X064862Y060418D01*
X065067Y060213D01*
Y060034D01*
X065087Y059883D01*
X065146Y059742D01*
X065239Y059621D01*
X065245Y059616D01*
Y058348D01*
X065245Y058348D01*
X065276Y058191D01*
X065364Y058059D01*
X067992Y055431D01*
Y055025D01*
X067902Y054981D01*
X067873Y055004D01*
X067727Y055065D01*
X06757Y055085D01*
X067413Y055065D01*
X067267Y055004D01*
X067142Y054908D01*
X06712Y054879D01*
X06702Y054913D01*
Y05493D01*
X06667D01*
Y05448D01*
X06657D01*
Y05438D01*
X06612D01*
Y05403D01*
X066137D01*
X066171Y05393D01*
X066142Y053908D01*
X066046Y053783D01*
X065985Y053637D01*
X065965Y05348D01*
X065985Y053323D01*
X066046Y053177D01*
X066142Y053052D01*
X066171Y05303D01*
Y05293D01*
X066142Y052908D01*
X066046Y052783D01*
X065985Y052637D01*
X065965Y05248D01*
X065985Y052323D01*
X066046Y052177D01*
X066142Y052052D01*
X066171Y05203D01*
Y05193D01*
X066142Y051908D01*
X066046Y051783D01*
X065985Y051637D01*
X065965Y05148D01*
X065985Y051323D01*
X066046Y051177D01*
X066142Y051052D01*
X066171Y05103D01*
Y05093D01*
X066142Y050908D01*
X066046Y050783D01*
X065985Y050637D01*
X065965Y05048D01*
X065985Y050323D01*
X066046Y050177D01*
X066142Y050052D01*
X066171Y05003D01*
Y04993D01*
X066142Y049908D01*
X066046Y049783D01*
X065985Y049637D01*
X065965Y04948D01*
X065985Y049323D01*
X066046Y049177D01*
X066142Y049052D01*
X066171Y04903D01*
Y04893D01*
X066142Y048908D01*
X066046Y048783D01*
X065985Y048637D01*
X065965Y04848D01*
X065985Y048323D01*
X066046Y048177D01*
X066142Y048052D01*
X066171Y04803D01*
Y04793D01*
X066142Y047908D01*
X066046Y047783D01*
X065985Y047637D01*
X065965Y04748D01*
X065985Y047323D01*
X066046Y047177D01*
X066142Y047052D01*
X066171Y04703D01*
Y04693D01*
X066142Y046908D01*
X066046Y046783D01*
X065985Y046637D01*
X065965Y04648D01*
X065985Y046323D01*
X066046Y046177D01*
X066142Y046052D01*
X066171Y04603D01*
Y04593D01*
X066142Y045908D01*
X066046Y045783D01*
X065985Y045637D01*
X065965Y04548D01*
X065985Y045323D01*
X066046Y045177D01*
X066142Y045052D01*
X066171Y04503D01*
Y04493D01*
X066142Y044908D01*
X066046Y044783D01*
X065985Y044637D01*
X065965Y04448D01*
X065985Y044323D01*
X066046Y044177D01*
X066142Y044052D01*
X066143Y043942D01*
X066088Y043888D01*
X06525D01*
X06525Y043888D01*
X065094Y043857D01*
X064962Y043768D01*
X063712Y042518D01*
X063623Y042386D01*
X063592Y04223D01*
X063592Y04223D01*
Y03017D01*
X063592Y03017D01*
X063623Y030014D01*
X063712Y029882D01*
X065163Y02843D01*
X065125Y028338D01*
X064839D01*
X063339Y029838D01*
Y034349D01*
X063339Y034349D01*
X063308Y034505D01*
X063219Y034637D01*
X061746Y03611D01*
X061756Y03618D01*
X061733Y03635D01*
X061668Y036508D01*
X061564Y036644D01*
X061508Y036686D01*
Y0373D01*
X061477Y037456D01*
X061388Y037588D01*
X061388Y037588D01*
X060688Y038288D01*
X060556Y038377D01*
X0604Y038408D01*
X0604Y038408D01*
X059548D01*
X059544Y038414D01*
X059496Y03845D01*
Y03855D01*
X059544Y038586D01*
X059637Y038707D01*
X059695Y038849D01*
X059715Y039D01*
X059695Y039151D01*
X059637Y039293D01*
X059544Y039414D01*
X059422Y039507D01*
X059281Y039565D01*
X05913Y039585D01*
X05879D01*
X058639Y039565D01*
X058498Y039507D01*
X058376Y039414D01*
X058372Y039408D01*
X057884D01*
X057884Y039408D01*
X057728Y039377D01*
X057596Y039288D01*
X056632Y038324D01*
X056543Y038192D01*
X056512Y038036D01*
X056512Y038036D01*
Y036672D01*
X056508Y036669D01*
X056408Y036718D01*
Y039163D01*
X056508Y03919D01*
X056617Y039106D01*
X056763Y039045D01*
X05692Y039025D01*
X057077Y039045D01*
X057223Y039106D01*
X057348Y039202D01*
X057444Y039327D01*
X057505Y039473D01*
X057525Y03963D01*
X057505Y039787D01*
X057444Y039933D01*
X057348Y040058D01*
X057328Y040073D01*
Y04785D01*
X057297Y048006D01*
X057208Y048138D01*
X057208Y048138D01*
X053578Y051768D01*
X053446Y051857D01*
X05329Y051888D01*
X05329Y051888D01*
X048013D01*
X047998Y051908D01*
X047969Y05193D01*
Y05203D01*
X047998Y052052D01*
X048094Y052177D01*
X048155Y052323D01*
X048175Y05248D01*
X048155Y052637D01*
X048094Y052783D01*
X048027Y05287D01*
X048075Y05297D01*
X05922D01*
X059415Y053009D01*
X05958Y05312D01*
X06203Y05557D01*
X062141Y055735D01*
X06218Y05593D01*
Y060129D01*
X062194Y060147D01*
X062255Y060293D01*
X062275Y06045D01*
X062255Y060607D01*
X062194Y060753D01*
X062098Y060878D01*
X061973Y060974D01*
X061827Y061035D01*
X06167Y061055D01*
X061575Y061043D01*
X061528Y061137D01*
X062645Y062254D01*
X062723Y062191D01*
X062714Y062177D01*
X062646Y062076D01*
X062631Y062D01*
X06297D01*
Y062339D01*
X062894Y062324D01*
X062793Y062256D01*
X062779Y062247D01*
X062716Y062325D01*
X063203Y062812D01*
X063227Y062815D01*
X063373Y062876D01*
X063498Y062972D01*
X063594Y063097D01*
X063655Y063243D01*
X063675Y0634D01*
X063655Y063557D01*
X063594Y063703D01*
X06358Y063721D01*
Y07191D01*
X063541Y072105D01*
X06343Y07227D01*
X063088Y072613D01*
X063085Y072637D01*
X063024Y072783D01*
X06301Y072801D01*
Y0732D01*
X062971Y073395D01*
X06286Y07356D01*
X06226Y07416D01*
X062095Y074271D01*
X0619Y07431D01*
D02*
G37*
G36*
X078425Y07545D02*
X077175D01*
X07655Y074825D01*
Y073575D01*
X077175Y07295D01*
X078425D01*
X07905Y073575D01*
Y074825D01*
X078425Y07545D01*
D02*
G37*
G36*
X037925D02*
X036675D01*
X03605Y074825D01*
Y073575D01*
X036675Y07295D01*
X037925D01*
X03855Y073575D01*
Y074825D01*
X037925Y07545D01*
D02*
G37*
G36*
X05185Y073369D02*
Y07288D01*
X052209D01*
Y07293D01*
X052174Y073106D01*
X052074Y073254D01*
X051926Y073354D01*
X05185Y073369D01*
D02*
G37*
G36*
X05165D02*
X051574Y073354D01*
X051426Y073254D01*
X051326Y073106D01*
X051291Y07293D01*
Y07288D01*
X05165D01*
Y073369D01*
D02*
G37*
G36*
X052209Y07268D02*
X05185D01*
Y072191D01*
X051926Y072206D01*
X052074Y072306D01*
X052174Y072454D01*
X052209Y07263D01*
Y07268D01*
D02*
G37*
G36*
X05165D02*
X051291D01*
Y07263D01*
X051326Y072454D01*
X051426Y072306D01*
X051574Y072206D01*
X05165Y072191D01*
Y07268D01*
D02*
G37*
G36*
X05735Y072085D02*
X05705D01*
Y07158D01*
X057942D01*
X057935Y071637D01*
X057874Y071783D01*
X057778Y071908D01*
X057653Y072004D01*
X057507Y072065D01*
X05735Y072085D01*
D02*
G37*
G36*
X05685D02*
X05655D01*
X056393Y072065D01*
X056247Y072004D01*
X056122Y071908D01*
X056026Y071783D01*
X055965Y071637D01*
X055958Y07158D01*
X05685D01*
Y072085D01*
D02*
G37*
G36*
Y07138D02*
X055958D01*
X055965Y071323D01*
X056026Y071177D01*
X056122Y071052D01*
X056247Y070956D01*
X056393Y070895D01*
X05655Y070875D01*
X05685D01*
Y07138D01*
D02*
G37*
G36*
X05505Y070972D02*
Y07008D01*
X055555D01*
Y07038D01*
X055535Y070537D01*
X055474Y070683D01*
X055378Y070808D01*
X055253Y070904D01*
X055107Y070965D01*
X05505Y070972D01*
D02*
G37*
G36*
X05485D02*
X054793Y070965D01*
X054647Y070904D01*
X054522Y070808D01*
X054426Y070683D01*
X054365Y070537D01*
X054345Y07038D01*
Y07008D01*
X05485D01*
Y070972D01*
D02*
G37*
G36*
X07765Y07265D02*
X064231D01*
Y07005D01*
X07765D01*
Y07265D01*
D02*
G37*
G36*
X052995Y069903D02*
X05292D01*
Y06957D01*
X053408D01*
X053395Y069636D01*
X053301Y069776D01*
X053161Y06987D01*
X052995Y069903D01*
D02*
G37*
G36*
X05272D02*
X052645D01*
X052479Y06987D01*
X052339Y069776D01*
X052245Y069636D01*
X052232Y06957D01*
X05272D01*
Y069903D01*
D02*
G37*
G36*
X061635Y069766D02*
X060485D01*
Y0695D01*
X060385Y06947D01*
X060366Y069497D01*
X060226Y069591D01*
X06016Y069604D01*
Y069016D01*
Y068428D01*
X060226Y068441D01*
X060366Y068535D01*
X060385Y068562D01*
X060485Y068532D01*
Y068266D01*
X061089D01*
X06116Y068195D01*
Y064271D01*
X061146Y064253D01*
X061085Y064107D01*
X061065Y06395D01*
X061085Y063793D01*
X061146Y063647D01*
X061242Y063522D01*
X061367Y063426D01*
X061513Y063365D01*
X06167Y063345D01*
X061827Y063365D01*
X061973Y063426D01*
X062098Y063522D01*
X062194Y063647D01*
X062255Y063793D01*
X062275Y06395D01*
X062255Y064107D01*
X062194Y064253D01*
X06218Y064271D01*
Y068406D01*
X062141Y068601D01*
X06203Y068767D01*
X061635Y069162D01*
Y069766D01*
D02*
G37*
G36*
X05996Y069604D02*
X059894Y069591D01*
X059754Y069497D01*
X05966Y069357D01*
X059627Y069191D01*
Y069116D01*
X05996D01*
Y069604D01*
D02*
G37*
G36*
X055555Y06988D02*
X05505D01*
Y068988D01*
X055107Y068995D01*
X055253Y069056D01*
X055378Y069152D01*
X055474Y069277D01*
X055535Y069423D01*
X055555Y06958D01*
Y06988D01*
D02*
G37*
G36*
X05485D02*
X054345D01*
Y06958D01*
X054365Y069423D01*
X054426Y069277D01*
X054522Y069152D01*
X054647Y069056D01*
X054793Y068995D01*
X05485Y068988D01*
Y06988D01*
D02*
G37*
G36*
X05996Y068916D02*
X059627D01*
Y068841D01*
X05966Y068675D01*
X059754Y068535D01*
X059894Y068441D01*
X05996Y068428D01*
Y068916D01*
D02*
G37*
G36*
X074895Y068083D02*
Y0678D01*
X075178D01*
X075167Y067854D01*
X07508Y067985D01*
X074949Y068072D01*
X074895Y068083D01*
D02*
G37*
G36*
X074695D02*
X074641Y068072D01*
X07451Y067985D01*
X074423Y067854D01*
X074412Y0678D01*
X074695D01*
Y068083D01*
D02*
G37*
G36*
X075178Y0676D02*
X074895D01*
Y067317D01*
X074949Y067328D01*
X07508Y067415D01*
X075167Y067546D01*
X075178Y0676D01*
D02*
G37*
G36*
X074695D02*
X074412D01*
X074423Y067546D01*
X07451Y067415D01*
X074641Y067328D01*
X074695Y067317D01*
Y0676D01*
D02*
G37*
G36*
X048098Y067543D02*
X047803D01*
Y067248D01*
X048098D01*
Y067543D01*
D02*
G37*
G36*
Y067048D02*
X047803D01*
Y066753D01*
X048098D01*
Y067048D01*
D02*
G37*
G36*
X06825Y066369D02*
Y06603D01*
X068589D01*
X068574Y066106D01*
X068474Y066254D01*
X068326Y066354D01*
X06825Y066369D01*
D02*
G37*
G36*
X06525D02*
Y06603D01*
X065589D01*
X065574Y066106D01*
X065474Y066254D01*
X065326Y066354D01*
X06525Y066369D01*
D02*
G37*
G36*
X06805D02*
X067974Y066354D01*
X067826Y066254D01*
X067726Y066106D01*
X067711Y06603D01*
X06805D01*
Y066369D01*
D02*
G37*
G36*
X06505D02*
X064974Y066354D01*
X064826Y066254D01*
X064726Y066106D01*
X064711Y06603D01*
X06505D01*
Y066369D01*
D02*
G37*
G36*
X068589Y06583D02*
X06825D01*
Y065491D01*
X068326Y065506D01*
X068474Y065606D01*
X068574Y065754D01*
X068589Y06583D01*
D02*
G37*
G36*
X065589D02*
X06525D01*
Y065491D01*
X065326Y065506D01*
X065474Y065606D01*
X065574Y065754D01*
X065589Y06583D01*
D02*
G37*
G36*
X06805D02*
X067711D01*
X067726Y065754D01*
X067826Y065606D01*
X067974Y065506D01*
X06805Y065491D01*
Y06583D01*
D02*
G37*
G36*
X06505D02*
X064711D01*
X064726Y065754D01*
X064826Y065606D01*
X064974Y065506D01*
X06505Y065491D01*
Y06583D01*
D02*
G37*
G36*
X075345Y065245D02*
X074255D01*
Y064155D01*
X075345D01*
Y065245D01*
D02*
G37*
G36*
X06317Y062339D02*
Y062D01*
X063509D01*
X063494Y062076D01*
X063394Y062224D01*
X063246Y062324D01*
X06317Y062339D01*
D02*
G37*
G36*
X063509Y0618D02*
X06317D01*
Y061461D01*
X063246Y061476D01*
X063394Y061576D01*
X063494Y061724D01*
X063509Y0618D01*
D02*
G37*
G36*
X06297D02*
X062631D01*
X062646Y061724D01*
X062746Y061576D01*
X062894Y061476D01*
X06297Y061461D01*
Y0618D01*
D02*
G37*
G36*
X074985Y061675D02*
X074535D01*
Y0613D01*
X074985D01*
Y061675D01*
D02*
G37*
G36*
X074335D02*
X073885D01*
Y0613D01*
X074335D01*
Y061675D01*
D02*
G37*
G36*
X0525Y060314D02*
Y059924D01*
X05289D01*
X052871Y060019D01*
X05276Y060184D01*
X052595Y060295D01*
X0525Y060314D01*
D02*
G37*
G36*
X0523Y060314D02*
X052205Y060295D01*
X05204Y060184D01*
X051929Y060019D01*
X05191Y059924D01*
X0523D01*
Y060314D01*
D02*
G37*
G36*
Y059724D02*
X05191D01*
X051929Y059629D01*
X05204Y059464D01*
X052205Y059353D01*
X0523Y059334D01*
Y059724D01*
D02*
G37*
G36*
X05289D02*
X0525D01*
Y059334D01*
X052595Y059353D01*
X05276Y059464D01*
X052871Y059629D01*
X05289Y059724D01*
D02*
G37*
G36*
X0639Y059549D02*
Y05921D01*
X064239D01*
X064224Y059285D01*
X064124Y059434D01*
X063976Y059534D01*
X0639Y059549D01*
D02*
G37*
G36*
X0637D02*
X063624Y059534D01*
X063476Y059434D01*
X063376Y059285D01*
X063361Y05921D01*
X0637D01*
Y059549D01*
D02*
G37*
G36*
X064239Y05901D02*
X0639D01*
Y058671D01*
X063976Y058686D01*
X064124Y058785D01*
X064224Y058934D01*
X064239Y05901D01*
D02*
G37*
G36*
X0637D02*
X063361D01*
X063376Y058934D01*
X063476Y058785D01*
X063624Y058686D01*
X0637Y058671D01*
Y05901D01*
D02*
G37*
G36*
X0481Y058795D02*
X047805D01*
Y0585D01*
X0481D01*
Y058795D01*
D02*
G37*
G36*
Y0583D02*
X047805D01*
Y058005D01*
X0481D01*
Y0583D01*
D02*
G37*
G36*
X06647Y05493D02*
X06612D01*
Y05458D01*
X06647D01*
Y05493D01*
D02*
G37*
G36*
X06175Y04033D02*
X06045D01*
Y03903D01*
X06175D01*
Y04033D01*
D02*
G37*
G36*
X059549Y0369D02*
X05906D01*
Y036562D01*
X05913D01*
X059298Y036595D01*
X05944Y03669D01*
X059535Y036832D01*
X059549Y0369D01*
D02*
G37*
G36*
X05886D02*
X058371D01*
X058385Y036832D01*
X05848Y03669D01*
X058622Y036595D01*
X05879Y036562D01*
X05886D01*
Y0369D01*
D02*
G37*
G36*
X068716Y024299D02*
Y02386D01*
X069095D01*
X069063Y02402D01*
X068958Y024177D01*
X068801Y024282D01*
X068716Y024299D01*
D02*
G37*
G36*
X064584D02*
Y02386D01*
X064963D01*
X064931Y02402D01*
X064826Y024177D01*
X064669Y024282D01*
X064584Y024299D01*
D02*
G37*
G36*
X060452D02*
Y02386D01*
X060831D01*
X060799Y02402D01*
X060694Y024177D01*
X060537Y024282D01*
X060452Y024299D01*
D02*
G37*
G36*
X05632D02*
Y02386D01*
X056699D01*
X056667Y02402D01*
X056562Y024177D01*
X056405Y024282D01*
X05632Y024299D01*
D02*
G37*
G36*
X04981Y023583D02*
Y0233D01*
X050093D01*
X050082Y023354D01*
X049995Y023485D01*
X049864Y023572D01*
X04981Y023583D01*
D02*
G37*
G36*
X04667D02*
Y0233D01*
X046953D01*
X046942Y023354D01*
X046855Y023485D01*
X046724Y023572D01*
X04667Y023583D01*
D02*
G37*
G36*
X069095Y02366D02*
X068716D01*
Y023221D01*
X068801Y023238D01*
X068958Y023343D01*
X069063Y0235D01*
X069095Y02366D01*
D02*
G37*
G36*
X064963D02*
X064584D01*
Y023221D01*
X064669Y023238D01*
X064826Y023343D01*
X064931Y0235D01*
X064963Y02366D01*
D02*
G37*
G36*
X053787Y036735D02*
X05363Y036715D01*
X053484Y036654D01*
X053359Y036558D01*
X053263Y036433D01*
X053202Y036287D01*
X053181Y03613D01*
X053202Y035973D01*
X053263Y035827D01*
X053359Y035702D01*
X053379Y035687D01*
Y029513D01*
X053379Y029513D01*
X05341Y029357D01*
X053498Y029225D01*
X057773Y02495D01*
X057773Y02495D01*
X057906Y024862D01*
X058062Y024831D01*
X058062Y024831D01*
X060462D01*
X061821Y023472D01*
X061821Y023472D01*
X061954Y023383D01*
X06211Y023352D01*
X06211Y023352D01*
X062859D01*
Y02306D01*
X064109D01*
Y023244D01*
X064209Y023297D01*
X064299Y023238D01*
X064384Y023221D01*
Y02376D01*
Y024299D01*
X064299Y024282D01*
X064209Y024223D01*
X064109Y024276D01*
Y02446D01*
X062859D01*
Y024168D01*
X062279D01*
X06092Y025527D01*
X060787Y025615D01*
X060631Y025646D01*
X060631Y025646D01*
X058231D01*
X054194Y029682D01*
Y035687D01*
X054215Y035702D01*
X054311Y035827D01*
X054371Y035973D01*
X054392Y03613D01*
X054371Y036287D01*
X054311Y036433D01*
X054215Y036558D01*
X054089Y036654D01*
X053943Y036715D01*
X053787Y036735D01*
D02*
G37*
G36*
X060831Y02366D02*
X060452D01*
Y023221D01*
X060537Y023238D01*
X060694Y023343D01*
X060799Y0235D01*
X060831Y02366D01*
D02*
G37*
G36*
X052453Y036735D02*
X052297Y036715D01*
X052151Y036654D01*
X052025Y036558D01*
X051929Y036433D01*
X051869Y036287D01*
X051848Y03613D01*
X051869Y035973D01*
X051929Y035827D01*
X052025Y035702D01*
X052045Y035687D01*
Y029037D01*
X052045Y029037D01*
X052077Y028881D01*
X052165Y028748D01*
X057442Y023472D01*
X057574Y023383D01*
X05773Y023352D01*
X05773Y023352D01*
X058727D01*
Y02306D01*
X059977D01*
Y023244D01*
X060077Y023297D01*
X060167Y023238D01*
X060252Y023221D01*
Y02376D01*
Y024299D01*
X060167Y024282D01*
X060077Y024223D01*
X059977Y024276D01*
Y02446D01*
X058727D01*
Y024168D01*
X057899D01*
X052861Y029206D01*
Y035687D01*
X052881Y035702D01*
X052977Y035827D01*
X053038Y035973D01*
X053059Y03613D01*
X053038Y036287D01*
X052977Y036433D01*
X052881Y036558D01*
X052756Y036654D01*
X05261Y036715D01*
X052453Y036735D01*
D02*
G37*
G36*
X056699Y02366D02*
X05632D01*
Y023221D01*
X056405Y023238D01*
X056562Y023343D01*
X056667Y0235D01*
X056699Y02366D01*
D02*
G37*
G36*
X078525Y021932D02*
X077275D01*
X07665Y021307D01*
Y020057D01*
X077275Y019432D01*
X078525D01*
X07915Y020057D01*
Y021307D01*
X078525Y021932D01*
D02*
G37*
G36*
X037925D02*
X036675D01*
X03605Y021307D01*
Y020057D01*
X036675Y019432D01*
X037925D01*
X03855Y020057D01*
Y021307D01*
X037925Y021932D01*
D02*
G37*
%LPD*%
G36*
X066094Y062656D02*
X066065Y062587D01*
X066045Y06243D01*
X066065Y062273D01*
X066126Y062127D01*
X06614Y062109D01*
Y060844D01*
X06604Y060808D01*
X065945Y060881D01*
X065804Y060939D01*
X065652Y060959D01*
X065633Y060957D01*
X065558Y061023D01*
Y061987D01*
X065578Y062002D01*
X065674Y062127D01*
X065735Y062273D01*
X065755Y06243D01*
X065752Y062455D01*
X066009Y062713D01*
X066094Y062656D01*
D02*
G37*
G36*
X05744Y060854D02*
X0583Y059993D01*
Y059736D01*
X0582Y059702D01*
X058102Y059777D01*
X057961Y059835D01*
X05781Y059855D01*
X057658Y059835D01*
X057517Y059777D01*
X05741Y059694D01*
X05731Y059719D01*
Y060868D01*
X05741Y060898D01*
X05744Y060854D01*
D02*
G37*
G36*
X073735Y053408D02*
X0712D01*
X0712Y053408D01*
X071044Y053377D01*
X070912Y053288D01*
X070912Y053288D01*
X070208Y052585D01*
X070108Y052626D01*
Y052731D01*
X070969Y053592D01*
X073735D01*
Y053408D01*
D02*
G37*
G36*
X073906Y052565D02*
X07392Y052524D01*
Y052493D01*
X073848Y052408D01*
X0717D01*
X071544Y052377D01*
X071412Y052288D01*
X071412Y052288D01*
X0709Y051777D01*
X070808Y051815D01*
Y052031D01*
X071369Y052592D01*
X073885D01*
X073906Y052565D01*
D02*
G37*
G36*
Y051565D02*
X07392Y051524D01*
Y051493D01*
X073848Y051408D01*
X0723D01*
X072144Y051377D01*
X072012Y051288D01*
X072012Y051288D01*
X0715Y050777D01*
X071408Y050815D01*
Y051131D01*
X071869Y051592D01*
X073885D01*
X073906Y051565D01*
D02*
G37*
G36*
X0401Y051975D02*
X040108D01*
X040162Y051875D01*
X040116Y051763D01*
X040095Y0516D01*
X040116Y051437D01*
X040179Y051285D01*
X040279Y051154D01*
X040391Y051068D01*
X040407Y050959D01*
X040383Y050942D01*
X040278Y050785D01*
X040261Y0507D01*
X0408D01*
X041339D01*
X041322Y050785D01*
X041217Y050942D01*
X041193Y050959D01*
X041209Y051068D01*
X041321Y051154D01*
X04135Y051192D01*
X041454D01*
X045454Y047192D01*
X045587Y047103D01*
X045743Y047072D01*
X045743Y047072D01*
X046127D01*
X046142Y047052D01*
X046143Y046942D01*
X046088Y046888D01*
X0434D01*
X0434Y046888D01*
X043244Y046857D01*
X043112Y046768D01*
X043112Y046768D01*
X041851Y045508D01*
X0415D01*
Y045725D01*
Y046725D01*
X0401D01*
Y046508D01*
X039969D01*
X039208Y047269D01*
Y051571D01*
X039829Y052192D01*
X0401D01*
Y051975D01*
D02*
G37*
G36*
X068642Y04869D02*
Y047019D01*
X068247Y046624D01*
X068144Y046662D01*
X068094Y046783D01*
X067998Y046908D01*
X067969Y04693D01*
Y04703D01*
X067998Y047052D01*
X068094Y047177D01*
X068155Y047323D01*
X068175Y04748D01*
X068155Y047637D01*
X068094Y047783D01*
X067998Y047908D01*
X067969Y04793D01*
Y04803D01*
X067998Y048052D01*
X068094Y048177D01*
X068155Y048323D01*
X068156Y048334D01*
X06855Y048728D01*
X068642Y04869D01*
D02*
G37*
G36*
X055592Y046831D02*
Y046502D01*
X055499Y046442D01*
X055492Y046443D01*
X055408Y046568D01*
X055408Y046568D01*
X052208Y049768D01*
X052076Y049857D01*
X05192Y049888D01*
X05192Y049888D01*
X048013D01*
X047998Y049908D01*
X047997Y050018D01*
X048052Y050072D01*
X052351D01*
X055592Y046831D01*
D02*
G37*
G36*
X046142Y045052D02*
X046143Y044942D01*
X046088Y044888D01*
X0447D01*
X0447Y044888D01*
X044544Y044857D01*
X044412Y044768D01*
X044412Y044768D01*
X04218Y042537D01*
X042088Y042575D01*
Y042711D01*
X044449Y045072D01*
X046127D01*
X046142Y045052D01*
D02*
G37*
G36*
Y046052D02*
X046143Y045942D01*
X046088Y045888D01*
X04428D01*
X044124Y045857D01*
X043992Y045768D01*
X043992Y045768D01*
X041561Y043338D01*
X041443Y043361D01*
X041421Y043415D01*
X041321Y043546D01*
X041209Y043632D01*
X041193Y043741D01*
X041217Y043758D01*
X041322Y043915D01*
X041339Y044D01*
X0408D01*
X040261D01*
X040278Y043915D01*
X040383Y043758D01*
X040407Y043741D01*
X040391Y043632D01*
X040279Y043546D01*
X040179Y043415D01*
X040116Y043263D01*
X040095Y0431D01*
X040116Y042937D01*
X040179Y042785D01*
X040279Y042654D01*
X04041Y042554D01*
X040562Y042491D01*
X040725Y04247D01*
X040875D01*
X041038Y042491D01*
X041172Y042547D01*
X041272Y042505D01*
Y040675D01*
X0409D01*
Y0402D01*
X0408D01*
Y0401D01*
X04025D01*
Y039725D01*
X04025D01*
X040252Y039707D01*
X040225Y039608D01*
X040225Y039608D01*
X040069Y039577D01*
X039937Y039488D01*
X039937Y039488D01*
X039662Y039213D01*
X039573Y039081D01*
X039542Y038925D01*
X039542Y038925D01*
Y03665D01*
X039542Y03665D01*
X039573Y036494D01*
X039662Y036362D01*
X040562Y035461D01*
Y034973D01*
X040542Y034958D01*
X040465Y034858D01*
X040365Y034889D01*
Y034925D01*
X04007D01*
Y03453D01*
Y034135D01*
X040365D01*
Y034171D01*
X040465Y034202D01*
X040542Y034102D01*
X040562Y034087D01*
Y032873D01*
X040542Y032858D01*
X040465Y032758D01*
X040365Y032789D01*
Y032825D01*
X04007D01*
Y03243D01*
Y032035D01*
X040365D01*
Y032071D01*
X040465Y032102D01*
X040542Y032002D01*
X040562Y031987D01*
Y030673D01*
X040542Y030658D01*
X040465Y030558D01*
X040365Y030589D01*
Y030625D01*
X04007D01*
Y03023D01*
Y029835D01*
X040365D01*
Y029871D01*
X040465Y029902D01*
X040542Y029802D01*
X040562Y029787D01*
Y028573D01*
X040542Y028558D01*
X040465Y028458D01*
X040365Y028489D01*
Y028525D01*
X04007D01*
Y02813D01*
Y027735D01*
X040365D01*
Y027771D01*
X040465Y027802D01*
X040542Y027702D01*
X040667Y027606D01*
X040813Y027545D01*
X04097Y027525D01*
X041127Y027545D01*
X041128Y027546D01*
X041184Y027461D01*
X040682Y026958D01*
X040593Y026826D01*
X040562Y02667D01*
X040562Y02667D01*
Y026394D01*
X040494Y026305D01*
X040444Y026185D01*
X040407Y026177D01*
X040341Y026187D01*
X040255Y026315D01*
X040124Y026402D01*
X04007Y026413D01*
Y02603D01*
Y025647D01*
X040124Y025658D01*
X040255Y025745D01*
X040341Y025873D01*
X040407Y025883D01*
X040444Y025875D01*
X040494Y025755D01*
X040581Y025641D01*
X040695Y025554D01*
X040828Y025499D01*
X04097Y02548D01*
X041112Y025499D01*
X041245Y025554D01*
X041321Y025612D01*
X041408Y025575D01*
X041425Y025485D01*
Y025485D01*
X041415Y025391D01*
X040242Y024218D01*
X040153Y024086D01*
X040122Y02393D01*
X040122Y02393D01*
Y023864D01*
X040023Y023778D01*
X040005Y02378D01*
Y02378D01*
X03963D01*
Y02323D01*
Y02268D01*
X039873D01*
X039911Y022588D01*
X039816Y022493D01*
X039014D01*
X038608Y022899D01*
X038608Y044331D01*
X039969Y045692D01*
X0401D01*
Y045475D01*
Y044475D01*
X040284D01*
X040337Y044375D01*
X040278Y044285D01*
X040261Y0442D01*
X0408D01*
X041339D01*
X041322Y044285D01*
X041263Y044375D01*
X041316Y044475D01*
X0415D01*
Y044692D01*
X04202D01*
X04202Y044692D01*
X042176Y044723D01*
X042308Y044812D01*
X043569Y046072D01*
X046127D01*
X046142Y046052D01*
D02*
G37*
G36*
X069292Y046385D02*
Y044718D01*
X068247Y043673D01*
X06813Y043697D01*
X068094Y043783D01*
X067998Y043908D01*
X067969Y04393D01*
Y04403D01*
X067998Y044052D01*
X068094Y044177D01*
X068155Y044323D01*
X068175Y04448D01*
X068155Y044637D01*
X068094Y044783D01*
X067998Y044908D01*
X067969Y04493D01*
Y04503D01*
X067998Y045052D01*
X068094Y045177D01*
X068155Y045323D01*
X068163Y045386D01*
X0692Y046423D01*
X069292Y046385D01*
D02*
G37*
G36*
X074027Y045068D02*
Y042104D01*
X073928Y042005D01*
X073828Y042046D01*
Y045119D01*
X073928Y045144D01*
X074027Y045068D01*
D02*
G37*
G36*
X046142Y044052D02*
X046171Y04403D01*
Y04393D01*
X046142Y043908D01*
X046046Y043783D01*
X045985Y043637D01*
X045965Y04348D01*
X045985Y043323D01*
X046046Y043177D01*
X046142Y043052D01*
X046171Y04303D01*
Y04293D01*
X046142Y042908D01*
X046046Y042783D01*
X045985Y042637D01*
X045965Y04248D01*
X045985Y042323D01*
X046046Y042177D01*
X046142Y042052D01*
X046143Y041942D01*
X046088Y041888D01*
X04429D01*
X04429Y041888D01*
X044134Y041857D01*
X044002Y041768D01*
X044002Y041768D01*
X0428Y040567D01*
X042708Y040605D01*
Y041911D01*
X044869Y044072D01*
X046127D01*
X046142Y044052D01*
D02*
G37*
G36*
Y041052D02*
X046143Y040942D01*
X046088Y040888D01*
X04455D01*
X04455Y040888D01*
X044394Y040857D01*
X044367Y040839D01*
X044303Y040916D01*
X044459Y041072D01*
X046127D01*
X046142Y041052D01*
D02*
G37*
G36*
X056512Y047681D02*
Y040172D01*
X056508Y040169D01*
X056408Y040218D01*
Y047D01*
X056377Y047156D01*
X056288Y047288D01*
X056288Y047288D01*
X052808Y050768D01*
X052676Y050857D01*
X05252Y050888D01*
X05252Y050888D01*
X048013D01*
X047998Y050908D01*
X047997Y051018D01*
X048052Y051072D01*
X053121D01*
X056512Y047681D01*
D02*
G37*
G36*
X050712Y044831D02*
Y040172D01*
X050708Y040169D01*
X050608Y040218D01*
Y0444D01*
X050608Y0444D01*
X050577Y044556D01*
X050488Y044688D01*
X050488Y044688D01*
X049408Y045768D01*
X049276Y045857D01*
X04912Y045888D01*
X04912Y045888D01*
X048013D01*
X047998Y045908D01*
X047997Y046018D01*
X048052Y046072D01*
X049471D01*
X050712Y044831D01*
D02*
G37*
G36*
X046142Y040052D02*
X046143Y039942D01*
X046088Y039888D01*
X04487D01*
X04487Y039888D01*
X044714Y039857D01*
X044582Y039768D01*
X044582Y039768D01*
X044162Y039348D01*
X044053Y039381D01*
X044049Y039402D01*
X044719Y040072D01*
X046127D01*
X046142Y040052D01*
D02*
G37*
G36*
Y039052D02*
X046143Y038942D01*
X046088Y038888D01*
X0454D01*
X045244Y038857D01*
X045112Y038768D01*
X045112Y038768D01*
X04466Y038317D01*
X044568Y038355D01*
Y038601D01*
X045039Y039072D01*
X046127D01*
X046142Y039052D01*
D02*
G37*
G36*
X049792Y044231D02*
Y037913D01*
X049692Y037883D01*
X049688Y037888D01*
X048808Y038768D01*
X048676Y038857D01*
X04852Y038888D01*
X04852Y038888D01*
X048013D01*
X047998Y038908D01*
X047969Y03893D01*
Y03903D01*
X047998Y039052D01*
X048094Y039177D01*
X048155Y039323D01*
X048175Y03948D01*
X048155Y039637D01*
X048094Y039783D01*
X047998Y039908D01*
X047969Y03993D01*
Y04003D01*
X047998Y040052D01*
X048094Y040177D01*
X048155Y040323D01*
X048175Y04048D01*
X048155Y040637D01*
X048094Y040783D01*
X047998Y040908D01*
X047969Y04093D01*
Y04103D01*
X047998Y041052D01*
X048094Y041177D01*
X048155Y041323D01*
X048175Y04148D01*
X048155Y041637D01*
X048094Y041783D01*
X047998Y041908D01*
X047969Y04193D01*
Y04203D01*
X047998Y042052D01*
X048094Y042177D01*
X048155Y042323D01*
X048175Y04248D01*
X048155Y042637D01*
X048094Y042783D01*
X047998Y042908D01*
X047969Y04293D01*
Y04303D01*
X047998Y043052D01*
X048094Y043177D01*
X048155Y043323D01*
X048175Y04348D01*
X048155Y043637D01*
X048094Y043783D01*
X047998Y043908D01*
X047969Y04393D01*
Y04403D01*
X047998Y044052D01*
X048094Y044177D01*
X048155Y044323D01*
X048175Y04448D01*
X048155Y044637D01*
X048094Y044783D01*
X047998Y044908D01*
X047997Y045018D01*
X048052Y045072D01*
X048951D01*
X049792Y044231D01*
D02*
G37*
G36*
X074492Y036766D02*
Y035943D01*
X074472Y035928D01*
X074362Y035927D01*
X074308Y035982D01*
Y0362D01*
X074308Y0362D01*
X074277Y036356D01*
X074188Y036488D01*
X074188Y036488D01*
X073588Y037088D01*
X073456Y037177D01*
X0733Y037208D01*
X0733Y037208D01*
X0724D01*
X0724Y037208D01*
X072244Y037177D01*
X072112Y037088D01*
X072112Y037088D01*
X069312Y034288D01*
X069308Y034283D01*
X069208Y034313D01*
Y034611D01*
X072089Y037492D01*
X073766D01*
X074492Y036766D01*
D02*
G37*
G36*
X073486Y036037D02*
X073482Y035935D01*
X073472Y035928D01*
X07338Y035808D01*
X07337Y035807D01*
X07328Y035852D01*
Y0359D01*
X073D01*
Y0355D01*
X0729D01*
Y0354D01*
X07252D01*
Y0351D01*
X072654D01*
X072674Y035D01*
X072633Y034983D01*
X072522Y034898D01*
X072437Y034787D01*
X072384Y034658D01*
X072365Y03452D01*
Y03448D01*
X072384Y034342D01*
X072437Y034213D01*
X072522Y034102D01*
X072633Y034017D01*
X072762Y033964D01*
X0729Y033945D01*
X073038Y033964D01*
X073167Y034017D01*
X073278Y034102D01*
X073327Y034166D01*
X073422Y034163D01*
X073443Y034155D01*
X073522Y034052D01*
X073633Y033967D01*
X073746Y03392D01*
X073767Y033903D01*
X073813Y033806D01*
X073792Y0337D01*
X073792Y0337D01*
Y033243D01*
X073772Y033228D01*
X073741Y033188D01*
X073243D01*
X073228Y033208D01*
X073103Y033304D01*
X072957Y033365D01*
X0728Y033385D01*
X072643Y033365D01*
X072497Y033304D01*
X072372Y033208D01*
X072276Y033083D01*
X072264Y033054D01*
X072165Y033044D01*
X072124Y033104D01*
X071976Y033204D01*
X0719Y033219D01*
Y03278D01*
Y032341D01*
X071976Y032356D01*
X072124Y032456D01*
X072165Y032516D01*
X072264Y032506D01*
X072276Y032477D01*
X072372Y032352D01*
X072497Y032256D01*
X072643Y032195D01*
X0728Y032175D01*
X072957Y032195D01*
X073103Y032256D01*
X073228Y032352D01*
X073243Y032372D01*
X073772D01*
X073772Y032372D01*
X073792Y032357D01*
Y03173D01*
X073792Y03173D01*
X073823Y031574D01*
X073912Y031442D01*
X074406Y030947D01*
X0744Y0309D01*
X074421Y030737D01*
X074484Y030585D01*
X074584Y030454D01*
X074715Y030354D01*
X074867Y030291D01*
X07503Y03027D01*
X075193Y030291D01*
X075345Y030354D01*
X075476Y030454D01*
X075576Y030585D01*
X075639Y030737D01*
X07566Y0309D01*
X075639Y031063D01*
X075576Y031215D01*
X075476Y031346D01*
X075345Y031446D01*
X075193Y031509D01*
X07503Y03153D01*
X074983Y031524D01*
X074608Y031899D01*
Y032357D01*
X074628Y032372D01*
X074724Y032497D01*
X074785Y032643D01*
X074805Y0328D01*
X074785Y032957D01*
X074724Y033103D01*
X074628Y033228D01*
X074608Y033243D01*
Y033531D01*
X074982Y033906D01*
X075057Y033915D01*
X075203Y033976D01*
X075328Y034072D01*
X07535Y034101D01*
X07545D01*
X075472Y034072D01*
X075597Y033976D01*
X075743Y033915D01*
X0759Y033895D01*
X076057Y033915D01*
X076203Y033976D01*
X076328Y034072D01*
X076343Y034092D01*
X077031D01*
X077292Y033831D01*
Y033243D01*
X077272Y033228D01*
X077176Y033103D01*
X077115Y032957D01*
X077095Y0328D01*
X077115Y032643D01*
X077176Y032497D01*
X077272Y032372D01*
X077397Y032276D01*
X077543Y032215D01*
X0777Y032195D01*
X077857Y032215D01*
X078003Y032276D01*
X078128Y032372D01*
X078192Y032456D01*
X078292Y032422D01*
Y030299D01*
X076981Y028988D01*
X068956D01*
X068915Y029088D01*
X069888Y030062D01*
X069888Y030062D01*
X069977Y030194D01*
X070008Y03035D01*
Y033831D01*
X072569Y036392D01*
X073131D01*
X073486Y036037D01*
D02*
G37*
G36*
X041892Y038185D02*
Y035125D01*
X041813Y035115D01*
X041667Y035054D01*
X041542Y034958D01*
X041432Y034957D01*
X041378Y035012D01*
Y03563D01*
X041378Y03563D01*
X041347Y035786D01*
X041258Y035918D01*
X041258Y035918D01*
X040695Y036482D01*
X040749Y03657D01*
X040875D01*
X041038Y036591D01*
X04119Y036654D01*
X041321Y036754D01*
X041421Y036885D01*
X041484Y037037D01*
X041505Y0372D01*
X041484Y037363D01*
X041421Y037515D01*
X041329Y037635D01*
X041315Y037676D01*
Y037724D01*
X041329Y037765D01*
X041392Y037847D01*
X041488Y037912D01*
X0418Y038223D01*
X041892Y038185D01*
D02*
G37*
G36*
X048992Y037431D02*
Y034699D01*
X048892Y034689D01*
X048877Y034767D01*
X048788Y034899D01*
X048788Y034899D01*
X04817Y035517D01*
X048155Y035637D01*
X048094Y035783D01*
X047998Y035908D01*
X047969Y03593D01*
Y03603D01*
X047998Y036052D01*
X048094Y036177D01*
X048155Y036323D01*
X048175Y03648D01*
X048155Y036637D01*
X048094Y036783D01*
X047998Y036908D01*
X047969Y03693D01*
Y03703D01*
X047998Y037052D01*
X048094Y037177D01*
X048155Y037323D01*
X048175Y03748D01*
X048155Y037637D01*
X048094Y037783D01*
X047998Y037908D01*
X047997Y038018D01*
X048052Y038072D01*
X048351D01*
X048992Y037431D01*
D02*
G37*
G36*
X046142Y037052D02*
X046171Y03703D01*
Y03693D01*
X046142Y036908D01*
X046046Y036783D01*
X045985Y036637D01*
X045965Y03648D01*
X045985Y036323D01*
X046046Y036177D01*
X046142Y036052D01*
X046171Y03603D01*
Y03593D01*
X046142Y035908D01*
X046046Y035783D01*
X045985Y035637D01*
X045965Y03548D01*
X045985Y035323D01*
X046046Y035177D01*
X046142Y035052D01*
X046171Y03503D01*
Y03493D01*
X046142Y034908D01*
X046046Y034783D01*
X045985Y034637D01*
X045973Y034539D01*
X04576Y034327D01*
X045668Y034365D01*
Y036841D01*
X045899Y037072D01*
X046127D01*
X046142Y037052D01*
D02*
G37*
G36*
X042572Y034165D02*
Y033609D01*
X041995Y033032D01*
X04197Y033035D01*
X041813Y033015D01*
X041667Y032954D01*
X041542Y032858D01*
X041432Y032857D01*
X041378Y032912D01*
Y034087D01*
X041398Y034102D01*
X04142Y034131D01*
X04152D01*
X041542Y034102D01*
X041667Y034006D01*
X041813Y033945D01*
X04197Y033925D01*
X042127Y033945D01*
X042273Y034006D01*
X042398Y034102D01*
X042472Y034199D01*
X042572Y034165D01*
D02*
G37*
G36*
X066142Y043052D02*
X066171Y04303D01*
Y04293D01*
X066142Y042908D01*
X066046Y042783D01*
X065985Y042637D01*
X065965Y04248D01*
X065985Y042323D01*
X066046Y042177D01*
X066142Y042052D01*
X066171Y04203D01*
Y04193D01*
X066142Y041908D01*
X066046Y041783D01*
X065985Y041637D01*
X065965Y04148D01*
X065985Y041323D01*
X066046Y041177D01*
X066142Y041052D01*
X066171Y04103D01*
Y04093D01*
X066142Y040908D01*
X066046Y040783D01*
X065985Y040637D01*
X065965Y04048D01*
X065985Y040323D01*
X066046Y040177D01*
X066142Y040052D01*
X066171Y04003D01*
Y03993D01*
X066142Y039908D01*
X066046Y039783D01*
X065985Y039637D01*
X065965Y03948D01*
X065985Y039323D01*
X066046Y039177D01*
X066142Y039052D01*
X066171Y03903D01*
Y03893D01*
X066142Y038908D01*
X066046Y038783D01*
X065985Y038637D01*
X065965Y03848D01*
X065985Y038323D01*
X066046Y038177D01*
X066142Y038052D01*
X066171Y03803D01*
Y03793D01*
X066142Y037908D01*
X066046Y037783D01*
X065985Y037637D01*
X065965Y03748D01*
X065985Y037323D01*
X066046Y037177D01*
X066142Y037052D01*
X066171Y03703D01*
Y03693D01*
X066142Y036908D01*
X066046Y036783D01*
X065985Y036637D01*
X065965Y03648D01*
X065985Y036323D01*
X066046Y036177D01*
X066142Y036052D01*
X066171Y03603D01*
Y03593D01*
X066142Y035908D01*
X066046Y035783D01*
X065985Y035637D01*
X065965Y03548D01*
X065985Y035323D01*
X066046Y035177D01*
X066142Y035052D01*
X066171Y03503D01*
Y03493D01*
X066142Y034908D01*
X066046Y034783D01*
X065985Y034637D01*
X065965Y03448D01*
X065985Y034323D01*
X066046Y034177D01*
X066142Y034052D01*
X066171Y03403D01*
Y03393D01*
X066142Y033908D01*
X066046Y033783D01*
X065985Y033637D01*
X065965Y03348D01*
X065985Y033323D01*
X066046Y033177D01*
X066142Y033052D01*
X066171Y03303D01*
Y03293D01*
X066142Y032908D01*
X066046Y032783D01*
X065985Y032637D01*
X065965Y03248D01*
X065985Y032323D01*
X066046Y032177D01*
X066142Y032052D01*
X066143Y031942D01*
X066088Y031888D01*
X0658D01*
X0658Y031888D01*
X065644Y031857D01*
X065512Y031768D01*
X065512Y031768D01*
X065012Y031268D01*
X064923Y031136D01*
X064892Y03098D01*
X064892Y03098D01*
Y029996D01*
X064792Y029955D01*
X064408Y030339D01*
Y042061D01*
X065419Y043072D01*
X066127D01*
X066142Y043052D01*
D02*
G37*
G36*
X043182Y032935D02*
Y031869D01*
X042127Y030814D01*
X042127Y030815D01*
X04197Y030835D01*
X041813Y030815D01*
X041667Y030754D01*
X041542Y030658D01*
X041432Y030657D01*
X041378Y030712D01*
Y031987D01*
X041398Y032002D01*
X04142Y032031D01*
X04152D01*
X041542Y032002D01*
X041667Y031906D01*
X041813Y031845D01*
X04197Y031825D01*
X042127Y031845D01*
X042273Y031906D01*
X042398Y032002D01*
X042494Y032127D01*
X042555Y032273D01*
X042575Y03243D01*
X042572Y032455D01*
X04309Y032973D01*
X043182Y032935D01*
D02*
G37*
G36*
X069192Y032289D02*
Y030519D01*
X068381Y029708D01*
X066069D01*
X065708Y030069D01*
Y030811D01*
X065969Y031072D01*
X066127D01*
X066142Y031052D01*
X066171Y03103D01*
Y03093D01*
X066142Y030908D01*
X066046Y030783D01*
X065985Y030637D01*
X065965Y03048D01*
X065985Y030323D01*
X066046Y030177D01*
X066142Y030052D01*
X066267Y029956D01*
X066413Y029895D01*
X06657Y029875D01*
X066727Y029895D01*
X066873Y029956D01*
X066998Y030052D01*
X06702Y030081D01*
X06712D01*
X067142Y030052D01*
X067267Y029956D01*
X067413Y029895D01*
X06757Y029875D01*
X067727Y029895D01*
X067873Y029956D01*
X067998Y030052D01*
X068094Y030177D01*
X068155Y030323D01*
X068175Y03048D01*
X068155Y030637D01*
X068094Y030783D01*
X067998Y030908D01*
X067969Y03093D01*
Y03103D01*
X067998Y031052D01*
X068094Y031177D01*
X068155Y031323D01*
X068163Y031388D01*
X069088Y032314D01*
X069088Y032314D01*
X069092Y032319D01*
X069192Y032289D01*
D02*
G37*
G36*
X047142Y030052D02*
X047267Y029956D01*
X047413Y029895D01*
X04757Y029875D01*
X047727Y029895D01*
X047873Y029956D01*
X047992Y030048D01*
X04803Y030041D01*
X048092Y03002D01*
Y02755D01*
X048065Y027529D01*
X048024Y027515D01*
X047993D01*
X047908Y027587D01*
Y0281D01*
X047908Y0281D01*
X047877Y028256D01*
X047788Y028388D01*
X046403Y029774D01*
X046406Y029798D01*
X046513Y029882D01*
X04657Y029875D01*
X046727Y029895D01*
X046873Y029956D01*
X046998Y030052D01*
X04702Y030081D01*
X04712D01*
X047142Y030052D01*
D02*
G37*
G36*
X043752Y031155D02*
Y030489D01*
X041995Y028732D01*
X04197Y028735D01*
X041813Y028715D01*
X041667Y028654D01*
X041542Y028558D01*
X041432Y028557D01*
X041378Y028612D01*
Y029787D01*
X041398Y029802D01*
X04142Y029831D01*
X04152D01*
X041542Y029802D01*
X041667Y029706D01*
X041813Y029645D01*
X04197Y029625D01*
X042127Y029645D01*
X042273Y029706D01*
X042398Y029802D01*
X042494Y029927D01*
X042555Y030073D01*
X042557Y03009D01*
X04366Y031193D01*
X043752Y031155D01*
D02*
G37*
G36*
X062643Y029381D02*
X064203Y02782D01*
X064165Y027728D01*
X063999D01*
X062476Y029251D01*
Y029451D01*
X062575Y029481D01*
X062643Y029381D01*
D02*
G37*
G36*
X044302Y029755D02*
Y029379D01*
X042531Y027608D01*
X04243D01*
X042409Y02767D01*
X042402Y027708D01*
X042494Y027827D01*
X042555Y027973D01*
X042575Y02813D01*
X042572Y028155D01*
X04421Y029793D01*
X044302Y029755D01*
D02*
G37*
G36*
X047092Y027931D02*
Y02755D01*
X047065Y027529D01*
X047024Y027515D01*
X046976D01*
X046935Y027529D01*
X046815Y027621D01*
X046663Y027684D01*
X0465Y027705D01*
X046337Y027684D01*
X046185Y027621D01*
X046075Y027537D01*
X045975Y02755D01*
Y02755D01*
X0456D01*
Y027D01*
Y02645D01*
X045975D01*
Y02645D01*
X046075Y026463D01*
X046185Y026379D01*
X046337Y026316D01*
X0465Y026295D01*
X046663Y026316D01*
X046815Y026379D01*
X046935Y026471D01*
X046976Y026485D01*
X047024D01*
X047065Y026471D01*
X047185Y026379D01*
X047337Y026316D01*
X0475Y026295D01*
X047663Y026316D01*
X047815Y026379D01*
X047935Y026471D01*
X047976Y026485D01*
X048024D01*
X048065Y026471D01*
X048185Y026379D01*
X048337Y026316D01*
X0485Y026295D01*
X048663Y026316D01*
X048815Y026379D01*
X048892Y026438D01*
X048992Y026389D01*
Y026289D01*
X048111Y025408D01*
X043644D01*
X043584Y025508D01*
X043608Y02563D01*
X043608Y02563D01*
Y026191D01*
X044925Y027508D01*
X045025Y027467D01*
Y0271D01*
X0454D01*
Y02755D01*
X045108D01*
X045067Y02765D01*
X045548Y028132D01*
X045548Y028132D01*
X045637Y028264D01*
X045668Y02842D01*
X045668Y02842D01*
Y029225D01*
X04576Y029263D01*
X047092Y027931D01*
D02*
G37*
G36*
X06166Y029082D02*
X06166Y029082D01*
X061691Y028926D01*
X061779Y028794D01*
X063377Y027197D01*
X063341Y027091D01*
X063292Y027084D01*
X061508Y028869D01*
Y02973D01*
X06166D01*
Y029082D01*
D02*
G37*
G36*
X04481Y028592D02*
X044816Y028552D01*
X042912Y026648D01*
X042823Y026516D01*
X042792Y02636D01*
X042792Y02636D01*
Y025799D01*
X042608Y025614D01*
X042515Y025653D01*
Y026575D01*
X041583D01*
X041544Y026668D01*
X041669Y026792D01*
X0427D01*
X0427Y026792D01*
X042856Y026823D01*
X042988Y026912D01*
X044704Y028627D01*
X04481Y028592D01*
D02*
G37*
G36*
X074752Y023472D02*
X074752Y023472D01*
X074884Y023383D01*
X07504Y023352D01*
X07504Y023352D01*
X075615D01*
Y02306D01*
X076717D01*
X076758Y02296D01*
X076506Y022708D01*
X073787D01*
X073516Y022979D01*
Y02321D01*
X073554Y023239D01*
X073654Y02337D01*
X073717Y023522D01*
X073738Y023685D01*
Y023835D01*
X073717Y023998D01*
X073654Y02415D01*
X073554Y024281D01*
X073423Y024381D01*
X073271Y024444D01*
X073108Y024465D01*
X072945Y024444D01*
X072833Y024398D01*
X072733Y024452D01*
Y02446D01*
X072516D01*
Y024772D01*
X072485Y024928D01*
X072396Y02506D01*
X072396Y02506D01*
X070027Y02743D01*
X070065Y027522D01*
X070701D01*
X074752Y023472D01*
D02*
G37*
G36*
X0717Y024603D02*
Y02446D01*
X071483D01*
Y02306D01*
X072654D01*
X072681Y02296D01*
X072429Y022708D01*
X071349D01*
X070808Y023249D01*
Y024538D01*
X070808Y024538D01*
X070777Y024694D01*
X070688Y024827D01*
X068695Y02682D01*
X068734Y026912D01*
X069391D01*
X0717Y024603D01*
D02*
G37*
%LPC*%
G36*
X041339Y0505D02*
X0408D01*
X040261D01*
X040278Y050415D01*
X040383Y050258D01*
X040407Y050241D01*
X040391Y050132D01*
X040279Y050046D01*
X040179Y049915D01*
X040116Y049763D01*
X040095Y0496D01*
X040116Y049437D01*
X040179Y049285D01*
X040279Y049154D01*
X04041Y049054D01*
X040562Y048991D01*
X040725Y04897D01*
X040875D01*
X041038Y048991D01*
X04119Y049054D01*
X041321Y049154D01*
X041421Y049285D01*
X041484Y049437D01*
X041505Y0496D01*
X041484Y049763D01*
X041421Y049915D01*
X041321Y050046D01*
X041209Y050132D01*
X041193Y050241D01*
X041217Y050258D01*
X041322Y050415D01*
X041339Y0505D01*
D02*
G37*
G36*
X0407Y040675D02*
X04025D01*
Y0403D01*
X0407D01*
Y040675D01*
D02*
G37*
G36*
X03987Y034925D02*
X039575D01*
Y03463D01*
X03987D01*
Y034925D01*
D02*
G37*
G36*
Y03443D02*
X039575D01*
Y034135D01*
X03987D01*
Y03443D01*
D02*
G37*
G36*
Y032825D02*
X039575D01*
Y03253D01*
X03987D01*
Y032825D01*
D02*
G37*
G36*
Y03233D02*
X039575D01*
Y032035D01*
X03987D01*
Y03233D01*
D02*
G37*
G36*
Y030625D02*
X039575D01*
Y03033D01*
X03987D01*
Y030625D01*
D02*
G37*
G36*
Y03013D02*
X039575D01*
Y029835D01*
X03987D01*
Y03013D01*
D02*
G37*
G36*
Y028525D02*
X039575D01*
Y02823D01*
X03987D01*
Y028525D01*
D02*
G37*
G36*
Y02803D02*
X039575D01*
Y027735D01*
X03987D01*
Y02803D01*
D02*
G37*
G36*
X03987Y026413D02*
X039816Y026402D01*
X039685Y026315D01*
X039598Y026184D01*
X039587Y02613D01*
X03987D01*
Y026413D01*
D02*
G37*
G36*
Y02593D02*
X039587D01*
X039598Y025876D01*
X039685Y025745D01*
X039816Y025658D01*
X03987Y025647D01*
Y02593D01*
D02*
G37*
G36*
X03943Y02378D02*
X039055D01*
Y02333D01*
X03943D01*
Y02378D01*
D02*
G37*
G36*
Y02313D02*
X039055D01*
Y02268D01*
X03943D01*
Y02313D01*
D02*
G37*
G36*
X0728Y0359D02*
X07252D01*
Y0356D01*
X0728D01*
Y0359D01*
D02*
G37*
G36*
X0717Y033219D02*
X071624Y033204D01*
X071476Y033104D01*
X071376Y032956D01*
X071361Y03288D01*
X0717D01*
Y033219D01*
D02*
G37*
G36*
Y03268D02*
X071361D01*
X071376Y032604D01*
X071476Y032456D01*
X071624Y032356D01*
X0717Y032341D01*
Y03268D01*
D02*
G37*
G36*
X07313Y031364D02*
Y031D01*
X073494D01*
X073477Y031085D01*
X073372Y031242D01*
X073215Y031347D01*
X07313Y031364D01*
D02*
G37*
G36*
X07293D02*
X072845Y031347D01*
X072688Y031242D01*
X072583Y031085D01*
X072566Y031D01*
X07293D01*
Y031364D01*
D02*
G37*
G36*
X073494Y0308D02*
X07313D01*
Y030436D01*
X073215Y030453D01*
X073372Y030558D01*
X073477Y030715D01*
X073494Y0308D01*
D02*
G37*
G36*
X07293D02*
X072566D01*
X072583Y030715D01*
X072688Y030558D01*
X072845Y030453D01*
X07293Y030436D01*
Y0308D01*
D02*
G37*
G36*
X0454Y0269D02*
X045025D01*
Y02645D01*
X0454D01*
Y0269D01*
D02*
G37*
%LPD*%
D45*
X06097Y0613D02*
X06307Y0634D01*
X059444Y0613D02*
X06097D01*
X046905Y0716D02*
X048198Y070307D01*
X0408Y0716D02*
X046905D01*
X048198Y067148D02*
Y070307D01*
X0625Y07248D02*
Y0732D01*
X0619Y0738D02*
X0625Y0732D01*
X05812Y0738D02*
X0619D01*
X0575Y0704D02*
X06067D01*
X05695Y06985D02*
X0575Y0704D01*
X05695Y06898D02*
Y06985D01*
X06067Y0704D02*
X0615Y07123D01*
Y07248D01*
X06307Y0634D02*
Y07191D01*
X0625Y07248D02*
X06307Y07191D01*
X06167Y05593D02*
Y06045D01*
X05922Y05348D02*
X06167Y05593D01*
X04757Y05348D02*
X05922D01*
X049198Y067148D02*
Y071202D01*
X0478Y0726D02*
X049198Y071202D01*
X0408Y0726D02*
X0478D01*
X06665Y060207D02*
Y06243D01*
X05282Y06567D02*
Y06847D01*
X05155Y0644D02*
X05282Y06567D01*
X04535Y0644D02*
X05155D01*
X0571Y07278D02*
X05812Y0738D01*
X05325Y07278D02*
X0571D01*
X06106Y069016D02*
X06167Y068406D01*
Y06395D02*
Y068406D01*
X05881Y0591D02*
X06029D01*
X05881D02*
Y060204D01*
X0578Y061214D02*
X05881Y060204D01*
X0578Y061214D02*
Y06335D01*
X0568Y05911D02*
Y06335D01*
X055944Y0613D02*
Y062556D01*
X05522Y06328D02*
X055944Y062556D01*
X0541Y06328D02*
X05522D01*
X0548Y05778D02*
X05738D01*
X0541Y05848D02*
X0548Y05778D01*
X0541Y05848D02*
Y05978D01*
X05781Y05821D02*
Y0591D01*
X05738Y05778D02*
X05781Y05821D01*
X0524Y063324D02*
X054056D01*
X04592Y0571D02*
X048733D01*
X04535Y05767D02*
X04592Y0571D01*
X04535Y05767D02*
Y0609D01*
X0492Y057567D02*
Y0584D01*
X048733Y0571D02*
X0492Y057567D01*
D46*
X05284Y0232D02*
Y02472D01*
X0502Y02736D02*
X05284Y02472D01*
X0502Y02736D02*
Y0444D01*
X058062Y025238D02*
X060631D01*
X053787Y029513D02*
X058062Y025238D01*
X053787Y029513D02*
Y03613D01*
X0704Y02308D02*
Y024538D01*
X068288Y02665D02*
X0704Y024538D01*
X06315Y02665D02*
X068288D01*
X065976Y0254D02*
X067616Y02376D01*
X062429Y0254D02*
X065976D01*
X060929Y0269D02*
X062429Y0254D01*
X058061Y0269D02*
X060929D01*
X05512Y029841D02*
X058061Y0269D01*
X059957Y02865D02*
X062557Y02605D01*
X057088Y02865D02*
X059957D01*
X056Y029738D02*
X057088Y02865D01*
X05773Y02376D02*
X059352D01*
X052453Y029037D02*
X05773Y02376D01*
X052453Y029037D02*
Y03613D01*
X062557Y02605D02*
X06765D01*
X0611Y0287D02*
X06315Y02665D01*
X06383Y02732D02*
X06956D01*
X062068Y029082D02*
X06383Y02732D01*
X06956D02*
X072108Y024772D01*
X06467Y02793D02*
X07087D01*
X062931Y029669D02*
X06467Y02793D01*
X07087D02*
X07504Y02376D01*
X060631Y025238D02*
X06211Y02376D01*
X063484D01*
X056Y029738D02*
Y03139D01*
X05512Y029841D02*
Y03613D01*
X06765Y02605D02*
X068616Y025084D01*
X06559Y02858D02*
X07715D01*
X064Y03017D02*
X06559Y02858D01*
X0382Y02273D02*
X038845Y022085D01*
X0382Y0445D02*
X0382Y02273D01*
X0382Y0445D02*
X0398Y0461D01*
X0733Y0368D02*
X0739Y0362D01*
X0724Y0368D02*
X0733D01*
X0696Y034D02*
X0724Y0368D01*
X0749Y0355D02*
Y036935D01*
X073935Y0379D02*
X0749Y036935D01*
X07192Y0379D02*
X073935D01*
X0688Y03478D02*
X07192Y0379D01*
X0688Y032602D02*
Y03478D01*
X0432Y02636D02*
X04526Y02842D01*
X0432Y02563D02*
Y02636D01*
X04153Y02396D02*
X0432Y02563D01*
X03953Y02323D02*
Y02433D01*
X03983Y0441D02*
X0408D01*
X039047Y043317D02*
X03983Y0441D01*
X039047Y041183D02*
Y043317D01*
X04253Y02323D02*
Y02403D01*
X039047Y041183D02*
X04003Y0402D01*
X0408D01*
X04D02*
X04003D01*
X03953Y02433D02*
X03997Y02477D01*
Y02603D01*
X0494Y02612D02*
Y0376D01*
X04828Y025D02*
X0494Y02612D01*
X0435Y025D02*
X04828D01*
X04253Y02403D02*
X0435Y025D01*
X04526Y02842D02*
Y03701D01*
X04471Y02921D02*
Y03779D01*
X0427Y0272D02*
X04471Y02921D01*
X0415Y0272D02*
X0427D01*
X04153Y02323D02*
Y02396D01*
X03997Y02603D02*
Y02813D01*
Y03023D01*
Y03243D01*
Y03453D01*
X039047Y035453D02*
X03997Y03453D01*
X039047Y035453D02*
Y039247D01*
X04Y0402D01*
X04197Y02537D02*
Y02603D01*
X04053Y02393D02*
X04197Y02537D01*
X04053Y02323D02*
Y02393D01*
X04097Y02813D02*
Y03023D01*
Y03243D01*
Y03453D01*
Y02667D02*
X0415Y0272D01*
X04097Y02603D02*
Y02667D01*
X04416Y03032D02*
Y03877D01*
X04197Y02813D02*
X04416Y03032D01*
X04359Y0317D02*
Y03952D01*
X04197Y03023D02*
X04212D01*
X04359Y0317D01*
X04298Y03344D02*
Y04017D01*
X04197Y03243D02*
X04298Y03344D01*
X038845Y022085D02*
X039985D01*
X043942Y022043D02*
X04457Y02267D01*
X04053Y022655D02*
Y02323D01*
Y02263D02*
Y022655D01*
X041143Y022043D02*
X043942D01*
X04053Y022655D02*
X041143Y022043D01*
X039985Y022085D02*
X04053Y02263D01*
X03995Y03665D02*
Y038925D01*
X04097Y03453D02*
Y03563D01*
X03995Y03665D02*
X04097Y03563D01*
X04197Y03453D02*
X0423Y03486D01*
Y04208D01*
X05692Y038036D02*
X057884Y039D01*
X05692Y03613D02*
Y038036D01*
X057884Y039D02*
X05896D01*
X0423Y04208D02*
X0447Y04448D01*
X04428Y04548D02*
X04657D01*
X04168Y04288D02*
X04428Y04548D01*
X04168Y03868D02*
Y04288D01*
X0447Y04448D02*
X04657D01*
X040225Y0392D02*
X0408D01*
X03995Y038925D02*
X040225Y0392D01*
X0408Y0382D02*
X0412D01*
X04168Y03868D01*
X0388Y058553D02*
X039513Y059267D01*
X0388Y05346D02*
Y058553D01*
Y05998D02*
X039513Y059267D01*
X0388Y05998D02*
Y0652D01*
X039513Y059267D02*
X0408D01*
X0684Y049155D02*
Y0556D01*
X065652Y058348D02*
X0684Y0556D01*
X065652Y058348D02*
Y060204D01*
X072598Y0223D02*
X073108Y02281D01*
X07118Y0223D02*
X072598D01*
X07724Y022865D02*
Y02376D01*
X076675Y0223D02*
X07724Y022865D01*
X073618Y0223D02*
X076675D01*
X073108Y02281D02*
X073618Y0223D01*
X0704Y02308D02*
X07118Y0223D01*
X073108Y02281D02*
Y02376D01*
X04429Y04148D02*
X04657D01*
X04298Y04017D02*
X04429Y04148D01*
X0388Y05174D02*
X03966Y0526D01*
X0388Y0471D02*
Y05174D01*
Y0471D02*
X0398Y0461D01*
X0388Y05346D02*
X03966Y0526D01*
X0388Y0652D02*
X039533Y065933D01*
X0408D01*
X0388Y066667D02*
X039533Y065933D01*
X0388Y066667D02*
Y0717D01*
X04457Y02267D02*
Y0232D01*
Y02263D02*
Y02267D01*
X04504Y02216D02*
X04681D01*
X04457Y02263D02*
X04504Y02216D01*
X0559Y0223D02*
X05622Y02262D01*
X052653Y0223D02*
X0559D01*
X05184Y023113D02*
X052653Y0223D01*
X05184Y023113D02*
Y0232D01*
X059828Y0223D02*
X060352Y022824D01*
X05654Y0223D02*
X059828D01*
X05622Y02262D02*
X05654Y0223D01*
X06808Y02228D02*
X068616Y022816D01*
X065025Y02228D02*
X06808D01*
X064484Y022821D02*
X065025Y02228D01*
X068616Y022816D02*
Y02376D01*
X063895Y0223D02*
X064484Y022889D01*
X060876Y0223D02*
X063895D01*
X060352Y022824D02*
X060876Y0223D01*
X064484Y022821D02*
Y022889D01*
Y02376D01*
X060352Y022952D02*
Y02376D01*
X06525Y04348D02*
X06657D01*
X064Y04223D02*
X06525Y04348D01*
X064Y03017D02*
Y04223D01*
X0716Y0503D02*
X0723Y051D01*
X0716Y043449D02*
Y0503D01*
X067631Y03948D02*
X0716Y043449D01*
X07223Y04754D02*
X07329Y0486D01*
X07223Y04293D02*
Y04754D01*
X07278Y04684D02*
X07354Y0476D01*
X07278Y042492D02*
Y04684D01*
X06778Y03848D02*
X07223Y04293D01*
X067768Y03748D02*
X07278Y042492D01*
X071Y0513D02*
X0717Y052D01*
X071Y043849D02*
Y0513D01*
X067631Y04048D02*
X071Y043849D01*
X06757Y04173D02*
X067881D01*
X0704Y0522D02*
X0712Y053D01*
X0704Y044249D02*
Y0522D01*
X067881Y04173D02*
X0704Y044249D01*
X0697Y0529D02*
X0708Y054D01*
X0697Y044549D02*
Y0529D01*
X067631Y04248D02*
X0697Y044549D01*
X0444Y057D02*
Y06874D01*
X04354Y0696D02*
X0444Y06874D01*
X0408Y0696D02*
X04354D01*
X0787Y03013D02*
Y03425D01*
X07715Y02858D02*
X0787Y03013D01*
X07329Y0486D02*
X074435D01*
X07354Y0476D02*
X074435D01*
X07379Y0466D02*
X074435D01*
X07342Y04623D02*
X07379Y0466D01*
X07342Y04192D02*
Y04623D01*
X0454Y03848D02*
X04657D01*
X04471Y03779D02*
X0454Y03848D01*
X04649Y03448D02*
X04657D01*
X04581Y0338D02*
X04649Y03448D01*
X04581Y02979D02*
Y0338D01*
X06905Y05795D02*
X0703Y0592D01*
X06905Y04685D02*
Y05795D01*
X06768Y04548D02*
X06905Y04685D01*
X067725Y04848D02*
X0684Y049155D01*
X07225Y0355D02*
X0729D01*
X0718Y03505D02*
X07225Y0355D01*
X0718Y03278D02*
Y03505D01*
X07223Y0309D02*
X07303D01*
X0718Y03133D02*
X07223Y0309D01*
X0718Y03133D02*
Y03278D01*
X0742Y03173D02*
X07503Y0309D01*
X0742Y03173D02*
Y0328D01*
X04359Y03952D02*
X04455Y04048D01*
X06798Y03648D02*
X07342Y04192D01*
X074435Y041935D02*
Y0456D01*
X06798Y03548D02*
X074435Y041935D01*
X068616Y02376D02*
Y025084D01*
X07504Y02376D02*
X07624D01*
X072108D02*
Y024772D01*
X04487Y03948D02*
X04657D01*
X04416Y03877D02*
X04487Y03948D01*
X04455Y04048D02*
X04657D01*
X04573Y03748D02*
X04657D01*
X04526Y03701D02*
X04573Y03748D01*
X05184Y0232D02*
Y023356D01*
X051246Y02395D02*
X05184Y023356D01*
X050434Y02395D02*
X051246D01*
X04971Y023226D02*
X050434Y02395D01*
X04971Y0232D02*
Y023226D01*
X04996Y0222D02*
X05084Y02308D01*
X04857Y0222D02*
X04996D01*
X04771Y02306D02*
X04857Y0222D01*
X05084Y02308D02*
Y0232D01*
X04771Y02306D02*
Y0232D01*
X04681Y02216D02*
X04771Y02306D01*
X0658Y03148D02*
X06657D01*
X0653Y03098D02*
X0658Y03148D01*
X0653Y0299D02*
Y03098D01*
X05112Y02807D02*
Y03613D01*
X05522Y02376D02*
Y02397D01*
X05112Y02807D02*
X05522Y02397D01*
X04581Y02979D02*
X0475Y0281D01*
X0408Y0451D02*
X04202D01*
X0434Y04648D01*
X04657D01*
X045743Y04748D02*
X04657D01*
X041623Y0516D02*
X045743Y04748D01*
X0408Y0516D02*
X041623D01*
X0436Y0566D02*
Y0617D01*
X042367Y062933D02*
X0436Y0617D01*
X0408Y062933D02*
X042367D01*
X0439Y05095D02*
Y0548D01*
X042433Y056267D02*
X0439Y0548D01*
X0408Y056267D02*
X042433D01*
X04637Y04848D02*
X04657D01*
X0439Y05095D02*
X04637Y04848D01*
X0436Y0566D02*
X0447Y0555D01*
Y0512D02*
Y0555D01*
Y0512D02*
X04642Y04948D01*
X04657D01*
X0455Y05142D02*
X04644Y05048D01*
X0455Y05142D02*
Y0559D01*
X0444Y057D02*
X0455Y0559D01*
X04644Y05048D02*
X04657D01*
X0415Y0607D02*
X04206Y06014D01*
Y05876D02*
Y06014D01*
X041567Y058267D02*
X04206Y05876D01*
X040005Y0607D02*
X0415D01*
X0408Y058267D02*
X041567D01*
X0388Y0717D02*
X0397Y0726D01*
X0408D01*
X06665Y060207D02*
X066652Y060204D01*
X0611Y0287D02*
Y03038D01*
X03966Y0526D02*
X0408D01*
X0398Y0461D02*
X0408D01*
X05622Y02262D02*
Y02376D01*
X039485Y06122D02*
Y064385D01*
Y06122D02*
X040005Y0607D01*
X039485Y064385D02*
X040033Y064933D01*
X0408D01*
X0397Y06896D02*
Y071D01*
Y06896D02*
X04206Y0666D01*
X0397Y071D02*
X0403Y0716D01*
X0408Y064933D02*
X04152D01*
X04206Y065473D01*
X0403Y0716D02*
X0408D01*
X04206Y065473D02*
Y0666D01*
X0482Y0584D02*
Y0592D01*
X048824Y059824D01*
X0524D01*
X05175Y07054D02*
X05282Y06947D01*
X05175Y07054D02*
Y07278D01*
X05282Y06947D02*
X05444D01*
X056Y03139D02*
X05896Y03435D01*
X06009Y03208D02*
Y03322D01*
X05896Y03435D02*
Y037D01*
Y03435D02*
X06009Y03322D01*
X06307Y05984D02*
X0638Y05911D01*
Y05598D02*
Y05911D01*
X06307Y05984D02*
Y0619D01*
X06515Y06398D01*
Y06593D01*
X05444Y06947D02*
X05495Y06998D01*
X05545D01*
X05695Y07148D01*
X0638Y05598D02*
X0653Y05448D01*
X06657D01*
X06815Y06593D02*
Y06605D01*
X074435Y0612D02*
X0762Y062965D01*
X06515Y06593D02*
X06612Y0669D01*
X06718D02*
X06815Y06593D01*
X06612Y0669D02*
X06718D01*
X06815Y06605D02*
X0698Y0677D01*
X0762Y062965D02*
Y0664D01*
X0749Y0677D02*
X0762Y0664D01*
X0698Y0677D02*
X074795D01*
X0749D01*
X067652Y060204D02*
X06815Y060702D01*
Y06243D01*
X06515Y060707D02*
X065652Y060204D01*
X06515Y060707D02*
Y06243D01*
X06665Y06393D01*
X0485Y027D02*
Y034611D01*
X047631Y03548D02*
X0485Y034611D01*
X04757Y03548D02*
X047631D01*
X0475Y027D02*
Y0281D01*
X0611Y03618D02*
X062931Y034349D01*
Y029669D02*
Y034349D01*
X06029Y0591D02*
X0603Y05911D01*
X0568Y05911D02*
X05681Y0591D01*
X054056Y063324D02*
X0541Y06328D01*
X06757Y04848D02*
X067725D01*
X06665Y06393D02*
Y06593D01*
X04757Y04548D02*
X04912D01*
X0502Y0444D01*
X05252Y05048D02*
X056Y047D01*
X04757Y05048D02*
X05252D01*
X056Y035138D02*
X057148Y03399D01*
X056Y035138D02*
Y047D01*
X04757Y05148D02*
X05329D01*
X05692Y04785D01*
Y03963D02*
Y04785D01*
X04964Y04648D02*
X05112Y045D01*
X04757Y04648D02*
X04964D01*
X05112Y03963D02*
Y045D01*
X05032Y04748D02*
X052453Y045347D01*
X04757Y04748D02*
X05032D01*
X052453Y03963D02*
Y045347D01*
X05112Y04848D02*
X053787Y045813D01*
X04757Y04848D02*
X05112D01*
X053787Y03963D02*
Y045813D01*
X05192Y04948D02*
X05512Y04628D01*
X04757Y04948D02*
X05192D01*
X05512Y03963D02*
Y04628D01*
X057148Y03049D02*
Y031138D01*
X05809Y03208D01*
X05909Y03139D02*
X05951Y03097D01*
X060196D01*
X0611Y031874D01*
X05909Y03139D02*
Y03208D01*
X0611Y031968D02*
Y03388D01*
Y031968D02*
X062068Y031D01*
X0611Y031874D02*
Y031968D01*
X062068Y029082D02*
Y031D01*
X0659Y0293D02*
X06855D01*
X0653Y0299D02*
X0659Y0293D01*
X06855D02*
X0696Y03035D01*
Y034D01*
X0739Y0355D02*
Y0362D01*
X06757Y03148D02*
X067678D01*
X0688Y032602D01*
X07745Y0355D02*
X0787Y03425D01*
X0759Y0355D02*
X07745D01*
X06757Y04548D02*
X06768D01*
X0703Y0592D02*
X074435D01*
X04852Y03848D02*
X0494Y0376D01*
X04757Y03848D02*
X04852D01*
X05896Y038D02*
X0604D01*
X0611Y03618D02*
Y0373D01*
X0604Y038D02*
X0611Y0373D01*
X06757Y03948D02*
X067631D01*
X0723Y051D02*
X074435D01*
X06757Y04048D02*
X067631D01*
X0717Y052D02*
X074435D01*
X06757Y04148D02*
Y04173D01*
X0712Y053D02*
X074435D01*
X06757Y04248D02*
X067631D01*
X0708Y054D02*
X074435D01*
X06757Y03548D02*
X06798D01*
X06757Y03648D02*
X06798D01*
X06757Y03748D02*
X067768D01*
X06757Y03848D02*
X06778D01*
X0728Y03278D02*
X07418D01*
X0742Y0328D01*
Y0337D01*
X0749Y0344D01*
Y0345D01*
X0777Y0328D02*
Y034D01*
X0759Y0345D02*
X0772D01*
X0777Y034D01*
X0761Y071885D02*
X076243Y072028D01*
X076457Y0721D01*
X076743D01*
X076957Y072028D01*
X0771Y071885D01*
Y071743D01*
X077029Y0716D01*
X076957Y071528D01*
X076814Y071457D01*
X076386Y071314D01*
X076243Y071243D01*
X076172Y071171D01*
X0761Y071028D01*
Y070814D01*
X076243Y070671D01*
X076457Y0706D01*
X076743D01*
X076957Y070671D01*
X0771Y070814D01*
X075765Y0721D02*
Y0706D01*
Y0721D02*
X075193Y0706D01*
X074622Y0721D02*
X075193Y0706D01*
X074622Y0721D02*
Y0706D01*
X073051D02*
X073622Y0721D01*
X074193Y0706D01*
X073979Y0711D02*
X073265D01*
X072701Y0721D02*
Y0706D01*
Y0721D02*
X072058D01*
X071844Y072028D01*
X071773Y071957D01*
X071701Y071814D01*
Y071671D01*
X071773Y071528D01*
X071844Y071457D01*
X072058Y071386D01*
X072701D01*
X072201D02*
X071701Y0706D01*
X070866Y0721D02*
Y0706D01*
X071366Y0721D02*
X070366D01*
X070187D02*
Y0706D01*
X069187Y0721D02*
Y0706D01*
X070187Y071386D02*
X069187D01*
X068345Y0721D02*
X068488Y072028D01*
X06863Y071885D01*
X068702Y071743D01*
X068773Y071528D01*
Y071171D01*
X068702Y070957D01*
X06863Y070814D01*
X068488Y070671D01*
X068345Y0706D01*
X068059D01*
X067916Y070671D01*
X067773Y070814D01*
X067702Y070957D01*
X067631Y071171D01*
Y071528D01*
X067702Y071743D01*
X067773Y071885D01*
X067916Y072028D01*
X068059Y0721D01*
X068345D01*
X067281D02*
Y0706D01*
Y0721D02*
X066709Y0706D01*
X066138Y0721D02*
X066709Y0706D01*
X066138Y0721D02*
Y0706D01*
X064781Y0721D02*
X06571D01*
Y0706D01*
X064781D01*
X06571Y071386D02*
X065138D01*
D47*
X0408Y0402D02*
D03*
X074435Y054D02*
D03*
Y0486D02*
D03*
X0408Y0526D02*
D03*
Y059267D02*
D03*
Y0726D02*
D03*
X0408Y065933D02*
D03*
X0408Y0451D02*
D03*
Y0461D02*
D03*
X074435Y0612D02*
D03*
D48*
X0408Y0392D02*
D03*
Y0382D02*
D03*
Y0372D02*
D03*
X074435Y053D02*
D03*
Y052D02*
D03*
Y051D02*
D03*
Y0476D02*
D03*
Y0466D02*
D03*
Y0456D02*
D03*
X0408Y0496D02*
D03*
Y0506D02*
D03*
Y0516D02*
D03*
Y056267D02*
D03*
Y057267D02*
D03*
Y058267D02*
D03*
Y0696D02*
D03*
Y0706D02*
D03*
Y0716D02*
D03*
X0408Y062933D02*
D03*
Y063933D02*
D03*
Y064933D02*
D03*
X0408Y0431D02*
D03*
Y0441D02*
D03*
X074435Y0582D02*
D03*
Y0592D02*
D03*
Y0602D02*
D03*
D49*
X03953Y02323D02*
D03*
X072108Y02376D02*
D03*
X063484D02*
D03*
X067616D02*
D03*
X05522D02*
D03*
X059352D02*
D03*
X07624D02*
D03*
X0455Y027D02*
D03*
D50*
X04053Y02323D02*
D03*
X04153D02*
D03*
X04253D02*
D03*
X073108Y02376D02*
D03*
X064484D02*
D03*
X068616D02*
D03*
X05622D02*
D03*
X060352D02*
D03*
X07724D02*
D03*
X0485Y027D02*
D03*
X0475D02*
D03*
X0465D02*
D03*
D51*
X03997Y02603D02*
D03*
X04097D02*
D03*
X04557Y0232D02*
D03*
X04657D02*
D03*
X04871D02*
D03*
X04971D02*
D03*
X074795Y0677D02*
D03*
D52*
X04197Y02603D02*
D03*
X03997Y02813D02*
D03*
Y03023D02*
D03*
Y03243D02*
D03*
Y03453D02*
D03*
X04457Y0232D02*
D03*
X04771D02*
D03*
X0605Y07248D02*
D03*
X05084Y0232D02*
D03*
X048198Y067148D02*
D03*
X0482Y0584D02*
D03*
D53*
X04197Y02813D02*
D03*
X04097D02*
D03*
X04197Y03023D02*
D03*
X04097D02*
D03*
X04197Y03243D02*
D03*
X04097D02*
D03*
Y03453D02*
D03*
X04197D02*
D03*
X05512Y03963D02*
D03*
Y03613D02*
D03*
X052453Y03963D02*
D03*
Y03613D02*
D03*
X05112Y03963D02*
D03*
Y03613D02*
D03*
X053787Y03963D02*
D03*
Y03613D02*
D03*
X059444Y0613D02*
D03*
X055944D02*
D03*
X0541Y05978D02*
D03*
Y06328D02*
D03*
X0638Y05911D02*
D03*
X0603D02*
D03*
X04757Y05448D02*
D03*
X04657Y05348D02*
D03*
X04757D02*
D03*
X04657Y05248D02*
D03*
X04757D02*
D03*
X04657Y05148D02*
D03*
X04757D02*
D03*
X04657Y05048D02*
D03*
X04757D02*
D03*
X04657Y04948D02*
D03*
X04757D02*
D03*
X04657Y04848D02*
D03*
X04757D02*
D03*
X04657Y04748D02*
D03*
X04757D02*
D03*
X04657Y04648D02*
D03*
X04757D02*
D03*
X04657Y04548D02*
D03*
X04757D02*
D03*
X04657Y04448D02*
D03*
X04757D02*
D03*
X04657Y04348D02*
D03*
X04757D02*
D03*
X04657Y04248D02*
D03*
X04757D02*
D03*
X04657Y04148D02*
D03*
X04757D02*
D03*
X04657Y04048D02*
D03*
X04757D02*
D03*
X04657Y03948D02*
D03*
X04757D02*
D03*
X04657Y03848D02*
D03*
X04757D02*
D03*
X04657Y03748D02*
D03*
X04757D02*
D03*
X04657Y03648D02*
D03*
X04757D02*
D03*
X04657Y03548D02*
D03*
X04757D02*
D03*
X04657Y03448D02*
D03*
X04757D02*
D03*
X04657Y03348D02*
D03*
X04757D02*
D03*
X04657Y03248D02*
D03*
X04757D02*
D03*
X04657Y03148D02*
D03*
X04757D02*
D03*
X04657Y03048D02*
D03*
X04757D02*
D03*
X06757Y05448D02*
D03*
X06657Y05348D02*
D03*
X06757D02*
D03*
X06657Y05248D02*
D03*
X06757D02*
D03*
X06657Y05148D02*
D03*
X06757D02*
D03*
X06657Y05048D02*
D03*
X06757D02*
D03*
X06657Y04948D02*
D03*
X06757D02*
D03*
X06657Y04848D02*
D03*
X06757D02*
D03*
X06657Y04748D02*
D03*
X06757D02*
D03*
X06657Y04648D02*
D03*
X06757D02*
D03*
X06657Y04548D02*
D03*
X06757D02*
D03*
X06657Y04448D02*
D03*
X06757D02*
D03*
X06657Y04348D02*
D03*
X06757D02*
D03*
X06657Y04248D02*
D03*
X06757D02*
D03*
X06657Y04148D02*
D03*
X06757D02*
D03*
X06657Y04048D02*
D03*
X06757D02*
D03*
X06657Y03948D02*
D03*
X06757D02*
D03*
X06657Y03848D02*
D03*
X06757D02*
D03*
X06657Y03748D02*
D03*
X06757D02*
D03*
X06657Y03648D02*
D03*
X06757D02*
D03*
X06657Y03548D02*
D03*
X06757D02*
D03*
X06657Y03448D02*
D03*
X06757D02*
D03*
X06657Y03348D02*
D03*
X06757D02*
D03*
X06657Y03248D02*
D03*
X06757D02*
D03*
X06657Y03148D02*
D03*
X06757D02*
D03*
X06657Y03048D02*
D03*
X06757D02*
D03*
X0615Y07248D02*
D03*
X0625D02*
D03*
X05184Y0232D02*
D03*
X05284D02*
D03*
X06665Y06593D02*
D03*
Y06243D02*
D03*
X06815Y06593D02*
D03*
Y06243D02*
D03*
X06515Y06593D02*
D03*
Y06243D02*
D03*
X05692Y03963D02*
D03*
Y03613D02*
D03*
X057148Y03399D02*
D03*
Y03049D02*
D03*
X049198Y067148D02*
D03*
X0492Y0584D02*
D03*
X0718Y03278D02*
D03*
X0728D02*
D03*
X0777Y0328D02*
D03*
X0742D02*
D03*
X06307Y0619D02*
D03*
Y0634D02*
D03*
X0739Y0355D02*
D03*
X0749D02*
D03*
X0759D02*
D03*
Y0345D02*
D03*
X0749D02*
D03*
X06167Y06395D02*
D03*
Y06045D02*
D03*
X04535Y0609D02*
D03*
Y0644D02*
D03*
D54*
X0748Y0647D02*
D03*
D55*
X0588Y06335D02*
D03*
X0578D02*
D03*
X0568D02*
D03*
X05881Y0591D02*
D03*
X05781D02*
D03*
X05681D02*
D03*
X065652Y060204D02*
D03*
X066652D02*
D03*
X067652D02*
D03*
X05809Y03208D02*
D03*
X05909D02*
D03*
X06009D02*
D03*
D56*
X0524Y063324D02*
D03*
X0611Y03038D02*
D03*
Y03968D02*
D03*
D57*
X0524Y059824D02*
D03*
X0611Y03388D02*
D03*
Y03618D02*
D03*
D58*
X0779Y020682D02*
D03*
X0373D02*
D03*
X0778Y0742D02*
D03*
X0373D02*
D03*
D59*
X04657Y05448D02*
D03*
X06657D02*
D03*
D60*
X05896Y039D02*
D03*
Y038D02*
D03*
Y037D02*
D03*
D61*
X07503Y0309D02*
D03*
X07303D02*
D03*
D62*
X05175Y07278D02*
D03*
D63*
X05325D02*
D03*
D64*
X0729Y0355D02*
D03*
D65*
X0739Y0345D02*
D03*
D66*
X0729D02*
D03*
D67*
X05695Y06898D02*
D03*
Y07148D02*
D03*
D68*
X05495Y06998D02*
D03*
D69*
X06006Y069016D02*
D03*
D70*
X06106D02*
D03*
D71*
X05282Y06947D02*
D03*
D72*
Y06847D02*
D03*
M02*
