G04*
G04 #@! TF.GenerationSoftware,Altium Limited,Altium Designer,18.1.6 (161)*
G04*
G04 Layer_Physical_Order=1*
G04 Layer_Color=255*
%FSTAX24Y24*%
%MOIN*%
G70*
G01*
G75*
%ADD45C,0.0500*%
%ADD46C,0.0300*%
%ADD47R,0.0900X0.0750*%
%ADD48O,0.0900X0.0750*%
%ADD49R,0.0750X0.0900*%
%ADD50O,0.0750X0.0900*%
%ADD51C,0.0591*%
%ADD52R,0.0591X0.0591*%
%ADD53C,0.0700*%
%ADD54R,0.0591X0.0591*%
%ADD55O,0.0660X0.1000*%
%ADD56R,0.0800X0.0800*%
%ADD57C,0.0800*%
%ADD58P,0.2165X8X22.5*%
%ADD59R,0.0700X0.0700*%
%ADD60O,0.1000X0.0660*%
%ADD61C,0.0750*%
%ADD62O,0.0700X0.1000*%
%ADD63R,0.0700X0.1000*%
%ADD64R,0.0560X0.0600*%
%ADD65O,0.0560X0.0700*%
%ADD66O,0.0560X0.0600*%
%ADD67O,0.1800X0.1000*%
%ADD68O,0.1000X0.1800*%
%ADD69O,0.0650X0.1000*%
%ADD70R,0.0650X0.1000*%
%ADD71O,0.1000X0.0650*%
%ADD72R,0.1000X0.0650*%
G36*
X079392Y019308D02*
X035908D01*
X035908Y075612D01*
X079392D01*
X079392Y019308D01*
D02*
G37*
%LPC*%
G36*
X078425Y07545D02*
X077175D01*
X07655Y074825D01*
Y073575D01*
X077175Y07295D01*
X078425D01*
X07905Y073575D01*
Y074825D01*
X078425Y07545D01*
D02*
G37*
G36*
X037925D02*
X036675D01*
X03605Y074825D01*
Y073575D01*
X036675Y07295D01*
X037925D01*
X03855Y073575D01*
Y074825D01*
X037925Y07545D01*
D02*
G37*
G36*
X05185Y073369D02*
Y07288D01*
X052209D01*
Y07293D01*
X052174Y073106D01*
X052074Y073254D01*
X051926Y073354D01*
X05185Y073369D01*
D02*
G37*
G36*
X05165D02*
X051574Y073354D01*
X051426Y073254D01*
X051326Y073106D01*
X051291Y07293D01*
Y07288D01*
X05165D01*
Y073369D01*
D02*
G37*
G36*
X0625Y073085D02*
X062343Y073065D01*
X062197Y073004D01*
X062072Y072908D01*
X06205Y072879D01*
X06195D01*
X061928Y072908D01*
X061803Y073004D01*
X061657Y073065D01*
X0615Y073085D01*
X061343Y073065D01*
X061197Y073004D01*
X061145Y072964D01*
X061045Y073013D01*
Y073025D01*
X059955D01*
Y071935D01*
X061045D01*
Y071947D01*
X061145Y071996D01*
X061197Y071956D01*
X061343Y071895D01*
X0615Y071875D01*
X061657Y071895D01*
X061803Y071956D01*
X061928Y072052D01*
X06195Y072081D01*
X06205D01*
X062072Y072052D01*
X062197Y071956D01*
X062343Y071895D01*
X0625Y071875D01*
X062657Y071895D01*
X062803Y071956D01*
X062928Y072052D01*
X063024Y072177D01*
X063085Y072323D01*
X063105Y07248D01*
X063085Y072637D01*
X063024Y072783D01*
X062928Y072908D01*
X062803Y073004D01*
X062657Y073065D01*
X0625Y073085D01*
D02*
G37*
G36*
X052209Y07268D02*
X05185D01*
Y072191D01*
X051926Y072206D01*
X052074Y072306D01*
X052174Y072454D01*
X052209Y07263D01*
Y07268D01*
D02*
G37*
G36*
X05165D02*
X051291D01*
Y07263D01*
X051326Y072454D01*
X051426Y072306D01*
X051574Y072206D01*
X05165Y072191D01*
Y07268D01*
D02*
G37*
G36*
X05385Y07353D02*
X05265D01*
Y07203D01*
X05385D01*
Y07353D01*
D02*
G37*
G36*
X0415Y073225D02*
X0401D01*
Y071975D01*
X040284D01*
X040337Y071875D01*
X040278Y071785D01*
X040261Y0717D01*
X0408D01*
X041339D01*
X041322Y071785D01*
X041263Y071875D01*
X041316Y071975D01*
X0415D01*
Y073225D01*
D02*
G37*
G36*
X05735Y072085D02*
X05705D01*
Y07158D01*
X057942D01*
X057935Y071637D01*
X057874Y071783D01*
X057778Y071908D01*
X057653Y072004D01*
X057507Y072065D01*
X05735Y072085D01*
D02*
G37*
G36*
X05685D02*
X05655D01*
X056393Y072065D01*
X056247Y072004D01*
X056122Y071908D01*
X056026Y071783D01*
X055965Y071637D01*
X055958Y07158D01*
X05685D01*
Y072085D01*
D02*
G37*
G36*
X057942Y07138D02*
X05705D01*
Y070875D01*
X05735D01*
X057507Y070895D01*
X057653Y070956D01*
X057778Y071052D01*
X057874Y071177D01*
X057935Y071323D01*
X057942Y07138D01*
D02*
G37*
G36*
X05685D02*
X055958D01*
X055965Y071323D01*
X056026Y071177D01*
X056122Y071052D01*
X056247Y070956D01*
X056393Y070895D01*
X05655Y070875D01*
X05685D01*
Y07138D01*
D02*
G37*
G36*
X05505Y070972D02*
Y07008D01*
X055555D01*
Y07038D01*
X055535Y070537D01*
X055474Y070683D01*
X055378Y070808D01*
X055253Y070904D01*
X055107Y070965D01*
X05505Y070972D01*
D02*
G37*
G36*
X05485D02*
X054793Y070965D01*
X054647Y070904D01*
X054522Y070808D01*
X054426Y070683D01*
X054365Y070537D01*
X054345Y07038D01*
Y07008D01*
X05485D01*
Y070972D01*
D02*
G37*
G36*
X052995Y069903D02*
X05292D01*
Y06957D01*
X053408D01*
X053395Y069636D01*
X053301Y069776D01*
X053161Y06987D01*
X052995Y069903D01*
D02*
G37*
G36*
X05272D02*
X052645D01*
X052479Y06987D01*
X052339Y069776D01*
X052245Y069636D01*
X052232Y06957D01*
X05272D01*
Y069903D01*
D02*
G37*
G36*
X061635Y069766D02*
X060485D01*
Y0695D01*
X060385Y06947D01*
X060366Y069497D01*
X060226Y069591D01*
X06016Y069604D01*
Y069016D01*
Y068428D01*
X060226Y068441D01*
X060366Y068535D01*
X060385Y068562D01*
X060485Y068532D01*
Y068266D01*
X061635D01*
Y069766D01*
D02*
G37*
G36*
X05996Y069604D02*
X059894Y069591D01*
X059754Y069497D01*
X05966Y069357D01*
X059627Y069191D01*
Y069116D01*
X05996D01*
Y069604D01*
D02*
G37*
G36*
X055555Y06988D02*
X05505D01*
Y068988D01*
X055107Y068995D01*
X055253Y069056D01*
X055378Y069152D01*
X055474Y069277D01*
X055535Y069423D01*
X055555Y06958D01*
Y06988D01*
D02*
G37*
G36*
X05485D02*
X054345D01*
Y06958D01*
X054365Y069423D01*
X054426Y069277D01*
X054522Y069152D01*
X054647Y069056D01*
X054793Y068995D01*
X05485Y068988D01*
Y06988D01*
D02*
G37*
G36*
X041339Y0715D02*
X0408D01*
X040261D01*
X040278Y071415D01*
X040383Y071258D01*
X040407Y071241D01*
X040391Y071132D01*
X040279Y071046D01*
X040179Y070915D01*
X040116Y070763D01*
X040095Y0706D01*
X040116Y070437D01*
X040179Y070285D01*
X040271Y070165D01*
X040285Y070124D01*
Y070076D01*
X040271Y070035D01*
X040179Y069915D01*
X040116Y069763D01*
X040095Y0696D01*
X040116Y069437D01*
X040179Y069285D01*
X040279Y069154D01*
X04041Y069054D01*
X040562Y068991D01*
X040725Y06897D01*
X040875D01*
X041038Y068991D01*
X04119Y069054D01*
X041321Y069154D01*
X041421Y069285D01*
X041484Y069437D01*
X041505Y0696D01*
X041484Y069763D01*
X041421Y069915D01*
X041329Y070035D01*
X041315Y070076D01*
Y070124D01*
X041329Y070165D01*
X041421Y070285D01*
X041484Y070437D01*
X041505Y0706D01*
X041484Y070763D01*
X041421Y070915D01*
X041321Y071046D01*
X041209Y071132D01*
X041193Y071241D01*
X041217Y071258D01*
X041322Y071415D01*
X041339Y0715D01*
D02*
G37*
G36*
X05996Y068916D02*
X059627D01*
Y068841D01*
X05966Y068675D01*
X059754Y068535D01*
X059894Y068441D01*
X05996Y068428D01*
Y068916D01*
D02*
G37*
G36*
X05735Y069736D02*
X05655D01*
X056354Y069711D01*
X056172Y069635D01*
X056015Y069515D01*
X055895Y069358D01*
X055819Y069176D01*
X055794Y06898D01*
X055819Y068784D01*
X055895Y068602D01*
X056015Y068445D01*
X056172Y068325D01*
X056354Y068249D01*
X05655Y068224D01*
X05735D01*
X057546Y068249D01*
X057728Y068325D01*
X057885Y068445D01*
X058005Y068602D01*
X058081Y068784D01*
X058106Y06898D01*
X058081Y069176D01*
X058005Y069358D01*
X057885Y069515D01*
X057728Y069635D01*
X057546Y069711D01*
X05735Y069736D01*
D02*
G37*
G36*
X053408Y06937D02*
X05282D01*
X052232D01*
X052245Y069304D01*
X052339Y069164D01*
X052366Y069145D01*
X052336Y069045D01*
X05207D01*
Y067895D01*
X05357D01*
Y069045D01*
X053304D01*
X053274Y069145D01*
X053301Y069164D01*
X053395Y069304D01*
X053408Y06937D01*
D02*
G37*
G36*
X074895Y068083D02*
Y0678D01*
X075178D01*
X075167Y067854D01*
X07508Y067985D01*
X074949Y068072D01*
X074895Y068083D01*
D02*
G37*
G36*
X074695D02*
X074641Y068072D01*
X07451Y067985D01*
X074423Y067854D01*
X074412Y0678D01*
X074695D01*
Y068083D01*
D02*
G37*
G36*
X049198Y067753D02*
X049041Y067733D01*
X048895Y067672D01*
X04877Y067576D01*
X048693Y067476D01*
X048593Y067507D01*
Y067543D01*
X048298D01*
Y067148D01*
Y066753D01*
X048593D01*
Y066753D01*
X048688Y066741D01*
Y065302D01*
X048727Y065107D01*
X048838Y064941D01*
X04964Y06414D01*
X049805Y064029D01*
X05Y06399D01*
X051657D01*
X05175Y063974D01*
X05175Y06389D01*
Y062674D01*
X05305D01*
Y06389D01*
X05305Y063974D01*
X053143Y06399D01*
X056304D01*
X056353Y06389D01*
X056293Y063812D01*
X056235Y063671D01*
X056215Y06352D01*
Y06318D01*
X056235Y063029D01*
X05629Y062895D01*
Y062175D01*
X056329Y06198D01*
X05644Y061815D01*
X057315Y06094D01*
X05748Y060829D01*
X057675Y06079D01*
X059123D01*
X059141Y060776D01*
X059287Y060715D01*
X059444Y060695D01*
X059601Y060715D01*
X059747Y060776D01*
X059872Y060872D01*
X059968Y060997D01*
X060029Y061143D01*
X060049Y0613D01*
X060029Y061457D01*
X059968Y061603D01*
X059872Y061728D01*
X059747Y061824D01*
X059601Y061885D01*
X059444Y061905D01*
X059287Y061885D01*
X059141Y061824D01*
X059123Y06181D01*
X057886D01*
X05731Y062386D01*
Y062714D01*
X05741Y062748D01*
X057508Y062673D01*
X057649Y062615D01*
X0578Y062595D01*
X057951Y062615D01*
X058092Y062673D01*
X058214Y062766D01*
X05825Y062814D01*
X05835D01*
X058386Y062766D01*
X058507Y062673D01*
X058649Y062615D01*
X0588Y062595D01*
X058951Y062615D01*
X059092Y062673D01*
X059214Y062766D01*
X05927Y06284D01*
X060433D01*
X06116Y062113D01*
Y060771D01*
X061146Y060753D01*
X061085Y060607D01*
X061065Y06045D01*
X061085Y060293D01*
X061146Y060147D01*
X061242Y060022D01*
X061367Y059926D01*
X061513Y059865D01*
X06167Y059845D01*
X061827Y059865D01*
X061973Y059926D01*
X061991Y05994D01*
X063548D01*
X063743Y059979D01*
X063909Y06009D01*
X064514Y060695D01*
X065049D01*
X065116Y060595D01*
X065087Y060526D01*
X065067Y060374D01*
Y060034D01*
X065087Y059883D01*
X065146Y059742D01*
X065239Y059621D01*
X06536Y059528D01*
X065501Y059469D01*
X065652Y059449D01*
X065804Y059469D01*
X065945Y059528D01*
X066043Y059603D01*
X066143Y059568D01*
Y059411D01*
X064892Y05816D01*
X064892Y05816D01*
X06274Y056008D01*
X062629Y055843D01*
X06259Y055648D01*
Y041891D01*
X061029Y04033D01*
X06045D01*
Y03903D01*
X060692D01*
Y0386D01*
X060692Y0386D01*
X060723Y038444D01*
X060812Y038312D01*
X061992Y037131D01*
Y031849D01*
X061173Y03103D01*
X06045D01*
Y02973D01*
X06175D01*
Y030453D01*
X062688Y031392D01*
X062688Y031392D01*
X062777Y031524D01*
X062808Y03168D01*
X062808Y03168D01*
Y0373D01*
X062808Y0373D01*
X062777Y037456D01*
X062688Y037588D01*
X062688Y037588D01*
X061508Y038769D01*
Y03903D01*
X06175D01*
Y039609D01*
X06346Y04132D01*
X063571Y041485D01*
X06361Y04168D01*
Y055436D01*
X065613Y05744D01*
X066864Y05869D01*
X0686D01*
X068795Y058729D01*
X06896Y05884D01*
X069811Y05969D01*
X073822D01*
X073872Y05959D01*
X073814Y059515D01*
X073751Y059363D01*
X07373Y0592D01*
X073751Y059037D01*
X073814Y058885D01*
X073906Y058765D01*
X07392Y058724D01*
Y058693D01*
X073848Y058608D01*
X0699D01*
X0699Y058608D01*
X069744Y058577D01*
X069612Y058488D01*
X069612Y058488D01*
X068731Y057608D01*
X06667D01*
X06667Y057608D01*
X066514Y057577D01*
X066382Y057488D01*
X066382Y057488D01*
X064412Y055518D01*
X064323Y055386D01*
X064292Y05523D01*
X064292Y05523D01*
Y0464D01*
X064292Y0464D01*
X064323Y046244D01*
X064412Y046112D01*
X065332Y045192D01*
X065332Y045192D01*
X065464Y045103D01*
X06562Y045072D01*
X066127D01*
X066142Y045052D01*
X066171Y04503D01*
Y04493D01*
X066142Y044908D01*
X066046Y044783D01*
X065985Y044637D01*
X065965Y04448D01*
X065985Y044323D01*
X066046Y044177D01*
X066142Y044052D01*
X066171Y04403D01*
Y04393D01*
X066142Y043908D01*
X066046Y043783D01*
X065985Y043637D01*
X065965Y04348D01*
X065985Y043323D01*
X066046Y043177D01*
X066142Y043052D01*
X066171Y04303D01*
Y04293D01*
X066142Y042908D01*
X066046Y042783D01*
X065985Y042637D01*
X065965Y04248D01*
X065985Y042323D01*
X066046Y042177D01*
X066142Y042052D01*
X066171Y04203D01*
Y04193D01*
X066142Y041908D01*
X066046Y041783D01*
X065985Y041637D01*
X065965Y04148D01*
X065985Y041323D01*
X066046Y041177D01*
X066142Y041052D01*
X066171Y04103D01*
Y04093D01*
X066142Y040908D01*
X066046Y040783D01*
X065985Y040637D01*
X065965Y04048D01*
X065985Y040323D01*
X066046Y040177D01*
X066142Y040052D01*
X066171Y04003D01*
Y03993D01*
X066142Y039908D01*
X066046Y039783D01*
X065985Y039637D01*
X065965Y03948D01*
X065985Y039323D01*
X066046Y039177D01*
X066142Y039052D01*
X066171Y03903D01*
Y03893D01*
X066142Y038908D01*
X066046Y038783D01*
X065985Y038637D01*
X065965Y03848D01*
X065985Y038323D01*
X066046Y038177D01*
X066142Y038052D01*
X066171Y03803D01*
Y03793D01*
X066142Y037908D01*
X066046Y037783D01*
X065985Y037637D01*
X065965Y03748D01*
X065985Y037323D01*
X066046Y037177D01*
X066142Y037052D01*
X066171Y03703D01*
Y03693D01*
X066142Y036908D01*
X066046Y036783D01*
X065985Y036637D01*
X065965Y03648D01*
X065985Y036323D01*
X066046Y036177D01*
X066142Y036052D01*
X066171Y03603D01*
Y03593D01*
X066142Y035908D01*
X066046Y035783D01*
X065985Y035637D01*
X065965Y03548D01*
X065985Y035323D01*
X066046Y035177D01*
X066142Y035052D01*
X066171Y03503D01*
Y03493D01*
X066142Y034908D01*
X066046Y034783D01*
X065985Y034637D01*
X065965Y03448D01*
X065985Y034323D01*
X066046Y034177D01*
X066142Y034052D01*
X066171Y03403D01*
Y03393D01*
X066142Y033908D01*
X066046Y033783D01*
X065985Y033637D01*
X065965Y03348D01*
X065985Y033323D01*
X066046Y033177D01*
X066142Y033052D01*
X066171Y03303D01*
Y03293D01*
X066142Y032908D01*
X066046Y032783D01*
X065985Y032637D01*
X065965Y03248D01*
X065985Y032323D01*
X066046Y032177D01*
X066142Y032052D01*
X066171Y03203D01*
Y03193D01*
X066142Y031908D01*
X066046Y031783D01*
X065985Y031637D01*
X065965Y03148D01*
X065985Y031323D01*
X066046Y031177D01*
X066142Y031052D01*
X066171Y03103D01*
Y03093D01*
X066142Y030908D01*
X066046Y030783D01*
X065985Y030637D01*
X065965Y03048D01*
X065985Y030323D01*
X066046Y030177D01*
X066142Y030052D01*
X066267Y029956D01*
X066413Y029895D01*
X06657Y029875D01*
X066727Y029895D01*
X066873Y029956D01*
X066998Y030052D01*
X06702Y030081D01*
X06712D01*
X067142Y030052D01*
X067267Y029956D01*
X067413Y029895D01*
X06757Y029875D01*
X067727Y029895D01*
X067873Y029956D01*
X067998Y030052D01*
X068094Y030177D01*
X068155Y030323D01*
X068175Y03048D01*
X068155Y030637D01*
X068094Y030783D01*
X067998Y030908D01*
X067969Y03093D01*
Y03103D01*
X067998Y031052D01*
X068094Y031177D01*
X068155Y031323D01*
X068175Y03148D01*
X068155Y031637D01*
X068094Y031783D01*
X067998Y031908D01*
X067969Y03193D01*
Y03203D01*
X067998Y032052D01*
X068094Y032177D01*
X068155Y032323D01*
X068175Y03248D01*
X068155Y032637D01*
X068094Y032783D01*
X067998Y032908D01*
X067969Y03293D01*
Y03303D01*
X067998Y033052D01*
X068094Y033177D01*
X068155Y033323D01*
X068175Y03348D01*
X068155Y033637D01*
X068094Y033783D01*
X067998Y033908D01*
X067969Y03393D01*
Y03403D01*
X067998Y034052D01*
X068094Y034177D01*
X068155Y034323D01*
X068175Y03448D01*
X068155Y034637D01*
X068094Y034783D01*
X067998Y034908D01*
X067969Y03493D01*
Y03503D01*
X067998Y035052D01*
X068094Y035177D01*
X068155Y035323D01*
X068175Y03548D01*
X068155Y035637D01*
X068094Y035783D01*
X067998Y035908D01*
X067969Y03593D01*
Y03603D01*
X067998Y036052D01*
X068094Y036177D01*
X068155Y036323D01*
X068175Y03648D01*
X068155Y036637D01*
X068094Y036783D01*
X067998Y036908D01*
X067969Y03693D01*
Y03703D01*
X067998Y037052D01*
X068094Y037177D01*
X068155Y037323D01*
X068175Y03748D01*
X068155Y037637D01*
X068094Y037783D01*
X067998Y037908D01*
X067969Y03793D01*
Y03803D01*
X067998Y038052D01*
X068094Y038177D01*
X068155Y038323D01*
X068175Y03848D01*
X068155Y038637D01*
X068094Y038783D01*
X067998Y038908D01*
X067969Y03893D01*
Y03903D01*
X067998Y039052D01*
X068094Y039177D01*
X068155Y039323D01*
X068175Y03948D01*
X068155Y039637D01*
X068094Y039783D01*
X067998Y039908D01*
X067969Y03993D01*
Y04003D01*
X067998Y040052D01*
X068094Y040177D01*
X068155Y040323D01*
X068175Y04048D01*
X068155Y040637D01*
X068094Y040783D01*
X067998Y040908D01*
X067969Y04093D01*
Y04103D01*
X067998Y041052D01*
X068094Y041177D01*
X068155Y041323D01*
X068175Y04148D01*
X068155Y041637D01*
X068094Y041783D01*
X067998Y041908D01*
X067969Y04193D01*
Y04203D01*
X067998Y042052D01*
X068094Y042177D01*
X068155Y042323D01*
X068175Y04248D01*
X068155Y042637D01*
X068094Y042783D01*
X067998Y042908D01*
X067997Y043018D01*
X068052Y043072D01*
X068451D01*
X068692Y042831D01*
Y0351D01*
X068692Y0351D01*
X068723Y034944D01*
X068812Y034812D01*
X069412Y034212D01*
X069544Y034123D01*
X0697Y034092D01*
X072535D01*
X072633Y034017D01*
X072762Y033964D01*
X0729Y033945D01*
X073038Y033964D01*
X073167Y034017D01*
X073278Y034102D01*
X073327Y034166D01*
X073422Y034163D01*
X073443Y034155D01*
X073522Y034052D01*
X073633Y033967D01*
X073762Y033914D01*
X073817Y033906D01*
X074231Y033493D01*
X074179Y033402D01*
X074043Y033385D01*
X073897Y033324D01*
X073772Y033228D01*
X073676Y033103D01*
X073615Y032957D01*
X073595Y0328D01*
X073615Y032643D01*
X073676Y032497D01*
X073772Y032372D01*
X073897Y032276D01*
X074043Y032215D01*
X0742Y032195D01*
X074357Y032215D01*
X074503Y032276D01*
X074628Y032372D01*
X074724Y032497D01*
X074785Y032643D01*
X074805Y0328D01*
X074785Y032957D01*
X074749Y033043D01*
X074815Y033142D01*
X076885D01*
X07711Y032917D01*
X077095Y0328D01*
X077115Y032643D01*
X077176Y032497D01*
X07719Y032479D01*
Y031011D01*
X075119Y02894D01*
X051499D01*
X04971Y030729D01*
Y058079D01*
X049724Y058097D01*
X049785Y058243D01*
X049805Y0584D01*
X049785Y058557D01*
X049724Y058703D01*
X049628Y058828D01*
X049503Y058924D01*
X049357Y058985D01*
X0492Y059005D01*
X049043Y058985D01*
X048897Y058924D01*
X048772Y058828D01*
X048695Y058728D01*
X048595Y058759D01*
Y058795D01*
X0483D01*
Y0584D01*
Y058005D01*
X048595D01*
Y058005D01*
X04869Y057992D01*
Y030771D01*
X048257Y030338D01*
X048163Y030385D01*
X048175Y03048D01*
X048155Y030637D01*
X048094Y030783D01*
X047998Y030908D01*
X047969Y03093D01*
Y03103D01*
X047998Y031052D01*
X048094Y031177D01*
X048155Y031323D01*
X048175Y03148D01*
X048155Y031637D01*
X048094Y031783D01*
X047998Y031908D01*
X047969Y03193D01*
Y03203D01*
X047998Y032052D01*
X048094Y032177D01*
X048155Y032323D01*
X048175Y03248D01*
X048155Y032637D01*
X048094Y032783D01*
X047998Y032908D01*
X047969Y03293D01*
Y03303D01*
X047998Y033052D01*
X048094Y033177D01*
X048155Y033323D01*
X048175Y03348D01*
X048155Y033637D01*
X048094Y033783D01*
X047998Y033908D01*
X047969Y03393D01*
Y03403D01*
X047998Y034052D01*
X048094Y034177D01*
X048155Y034323D01*
X048175Y03448D01*
X048155Y034637D01*
X048094Y034783D01*
X047998Y034908D01*
X047969Y03493D01*
Y03503D01*
X047998Y035052D01*
X048094Y035177D01*
X048155Y035323D01*
X048175Y03548D01*
X048155Y035637D01*
X048094Y035783D01*
X047998Y035908D01*
X047969Y03593D01*
Y03603D01*
X047998Y036052D01*
X048094Y036177D01*
X048155Y036323D01*
X048175Y03648D01*
X048155Y036637D01*
X048094Y036783D01*
X047998Y036908D01*
X047969Y03693D01*
Y03703D01*
X047998Y037052D01*
X048094Y037177D01*
X048155Y037323D01*
X048175Y03748D01*
X048155Y037637D01*
X048094Y037783D01*
X047998Y037908D01*
X047969Y03793D01*
Y03803D01*
X047998Y038052D01*
X048094Y038177D01*
X048155Y038323D01*
X048175Y03848D01*
X048155Y038637D01*
X048094Y038783D01*
X047998Y038908D01*
X047969Y03893D01*
Y03903D01*
X047998Y039052D01*
X048094Y039177D01*
X048155Y039323D01*
X048175Y03948D01*
X048155Y039637D01*
X048094Y039783D01*
X047998Y039908D01*
X047969Y03993D01*
Y04003D01*
X047998Y040052D01*
X048094Y040177D01*
X048155Y040323D01*
X048175Y04048D01*
X048155Y040637D01*
X048094Y040783D01*
X047998Y040908D01*
X047969Y04093D01*
Y04103D01*
X047998Y041052D01*
X048094Y041177D01*
X048155Y041323D01*
X048175Y04148D01*
X048155Y041637D01*
X048094Y041783D01*
X047998Y041908D01*
X047969Y04193D01*
Y04203D01*
X047998Y042052D01*
X048094Y042177D01*
X048155Y042323D01*
X048175Y04248D01*
X048155Y042637D01*
X048094Y042783D01*
X047998Y042908D01*
X047969Y04293D01*
Y04303D01*
X047998Y043052D01*
X048094Y043177D01*
X048155Y043323D01*
X048175Y04348D01*
X048155Y043637D01*
X048094Y043783D01*
X047998Y043908D01*
X047969Y04393D01*
Y04403D01*
X047998Y044052D01*
X048094Y044177D01*
X048155Y044323D01*
X048175Y04448D01*
X048155Y044637D01*
X048094Y044783D01*
X047998Y044908D01*
X047969Y04493D01*
Y04503D01*
X047998Y045052D01*
X048094Y045177D01*
X048155Y045323D01*
X048175Y04548D01*
X048155Y045637D01*
X048094Y045783D01*
X047998Y045908D01*
X047969Y04593D01*
Y04603D01*
X047998Y046052D01*
X048094Y046177D01*
X048155Y046323D01*
X048175Y04648D01*
X048155Y046637D01*
X048094Y046783D01*
X047998Y046908D01*
X047969Y04693D01*
Y04703D01*
X047998Y047052D01*
X048094Y047177D01*
X048155Y047323D01*
X048175Y04748D01*
X048155Y047637D01*
X048094Y047783D01*
X047998Y047908D01*
X047969Y04793D01*
Y04803D01*
X047998Y048052D01*
X048094Y048177D01*
X048155Y048323D01*
X048175Y04848D01*
X048155Y048637D01*
X048094Y048783D01*
X047998Y048908D01*
X047969Y04893D01*
Y04903D01*
X047998Y049052D01*
X048094Y049177D01*
X048155Y049323D01*
X048175Y04948D01*
X048155Y049637D01*
X048094Y049783D01*
X047998Y049908D01*
X047969Y04993D01*
Y05003D01*
X047998Y050052D01*
X048094Y050177D01*
X048155Y050323D01*
X048175Y05048D01*
X048155Y050637D01*
X048094Y050783D01*
X047998Y050908D01*
X047969Y05093D01*
Y05103D01*
X047998Y051052D01*
X048094Y051177D01*
X048155Y051323D01*
X048175Y05148D01*
X048155Y051637D01*
X048094Y051783D01*
X047998Y051908D01*
X047969Y05193D01*
Y05203D01*
X047998Y052052D01*
X048094Y052177D01*
X048155Y052323D01*
X048175Y05248D01*
X048155Y052637D01*
X048094Y052783D01*
X047998Y052908D01*
X047969Y05293D01*
Y05303D01*
X047998Y053052D01*
X048094Y053177D01*
X048155Y053323D01*
X048175Y05348D01*
X048155Y053637D01*
X048094Y053783D01*
X047998Y053908D01*
X047969Y05393D01*
Y05403D01*
X047998Y054052D01*
X048094Y054177D01*
X048155Y054323D01*
X048175Y05448D01*
X048155Y054637D01*
X048094Y054783D01*
X047998Y054908D01*
X047873Y055004D01*
X047727Y055065D01*
X04757Y055085D01*
X047413Y055065D01*
X047267Y055004D01*
X04726Y054998D01*
X04717Y055042D01*
Y05508D01*
X04597D01*
Y05388D01*
X046008D01*
X046052Y05379D01*
X046046Y053783D01*
X045985Y053637D01*
X045965Y05348D01*
X045985Y053323D01*
X046046Y053177D01*
X046142Y053052D01*
X046171Y05303D01*
Y05293D01*
X046142Y052908D01*
X046046Y052783D01*
X045985Y052637D01*
X045965Y05248D01*
X045985Y052323D01*
X046046Y052177D01*
X046142Y052052D01*
X046171Y05203D01*
Y05193D01*
X046142Y051908D01*
X046046Y051783D01*
X045985Y051637D01*
X045965Y05148D01*
X045985Y051323D01*
X046046Y051177D01*
X046142Y051052D01*
X046171Y05103D01*
Y05093D01*
X046142Y050908D01*
X046046Y050783D01*
X045985Y050637D01*
X045965Y05048D01*
X045985Y050323D01*
X046046Y050177D01*
X046142Y050052D01*
X046171Y05003D01*
Y04993D01*
X046142Y049908D01*
X046046Y049783D01*
X045985Y049637D01*
X045965Y04948D01*
X045985Y049323D01*
X046046Y049177D01*
X046142Y049052D01*
X046171Y04903D01*
Y04893D01*
X046142Y048908D01*
X046046Y048783D01*
X045985Y048637D01*
X045965Y04848D01*
X045985Y048323D01*
X046046Y048177D01*
X046142Y048052D01*
X046171Y04803D01*
Y04793D01*
X046142Y047908D01*
X046046Y047783D01*
X045985Y047637D01*
X045965Y04748D01*
X045985Y047323D01*
X046046Y047177D01*
X046142Y047052D01*
X046171Y04703D01*
Y04693D01*
X046142Y046908D01*
X046046Y046783D01*
X045985Y046637D01*
X045965Y04648D01*
X045985Y046323D01*
X046046Y046177D01*
X046142Y046052D01*
X046171Y04603D01*
Y04593D01*
X046142Y045908D01*
X046046Y045783D01*
X045985Y045637D01*
X045965Y04548D01*
X045985Y045323D01*
X046046Y045177D01*
X046142Y045052D01*
X046171Y04503D01*
Y04493D01*
X046142Y044908D01*
X046046Y044783D01*
X045985Y044637D01*
X045965Y04448D01*
X045985Y044323D01*
X046046Y044177D01*
X046142Y044052D01*
X046171Y04403D01*
Y04393D01*
X046142Y043908D01*
X046046Y043783D01*
X045985Y043637D01*
X045965Y04348D01*
X045985Y043323D01*
X046046Y043177D01*
X046142Y043052D01*
X046171Y04303D01*
Y04293D01*
X046142Y042908D01*
X046046Y042783D01*
X045985Y042637D01*
X045965Y04248D01*
X045985Y042323D01*
X046046Y042177D01*
X046142Y042052D01*
X046171Y04203D01*
Y04193D01*
X046142Y041908D01*
X046046Y041783D01*
X045985Y041637D01*
X045965Y04148D01*
X045985Y041323D01*
X046046Y041177D01*
X046142Y041052D01*
X046171Y04103D01*
Y04093D01*
X046142Y040908D01*
X046046Y040783D01*
X045985Y040637D01*
X045965Y04048D01*
X045985Y040323D01*
X046046Y040177D01*
X046142Y040052D01*
X046171Y04003D01*
Y03993D01*
X046142Y039908D01*
X046046Y039783D01*
X045985Y039637D01*
X045965Y03948D01*
X045985Y039323D01*
X046046Y039177D01*
X046142Y039052D01*
X046171Y03903D01*
Y03893D01*
X046142Y038908D01*
X046046Y038783D01*
X045985Y038637D01*
X045965Y03848D01*
X045985Y038323D01*
X046046Y038177D01*
X046142Y038052D01*
X046171Y03803D01*
Y03793D01*
X046142Y037908D01*
X046046Y037783D01*
X045985Y037637D01*
X045965Y03748D01*
X045985Y037323D01*
X046046Y037177D01*
X046142Y037052D01*
X046143Y036942D01*
X046088Y036888D01*
X04478D01*
X044624Y036857D01*
X044492Y036768D01*
X044492Y036768D01*
X043062Y035338D01*
X042973Y035206D01*
X042942Y03505D01*
X042942Y03505D01*
Y02559D01*
X042942Y02559D01*
X042973Y025434D01*
X043062Y025302D01*
X044526Y023838D01*
X044487Y023745D01*
X044025D01*
Y022655D01*
X045115D01*
Y02274D01*
X045215Y022785D01*
X045295Y022724D01*
X045428Y022669D01*
X04557Y02265D01*
X045712Y022669D01*
X045845Y022724D01*
X045959Y022811D01*
X046046Y022925D01*
X046096Y023045D01*
X046133Y023053D01*
X046199Y023043D01*
X046285Y022915D01*
X046416Y022828D01*
X04647Y022817D01*
Y0232D01*
Y023583D01*
X046416Y023572D01*
X046285Y023485D01*
X046199Y023357D01*
X046133Y023347D01*
X046096Y023355D01*
X046046Y023475D01*
X045959Y023589D01*
X045845Y023676D01*
X045837Y023679D01*
X043758Y025759D01*
Y034881D01*
X044949Y036072D01*
X046127D01*
X046142Y036052D01*
X046143Y035942D01*
X046088Y035888D01*
X04548D01*
X04548Y035888D01*
X045324Y035857D01*
X045192Y035768D01*
X045192Y035768D01*
X044032Y034608D01*
X043943Y034476D01*
X043912Y03432D01*
X043912Y03432D01*
Y02596D01*
X043912Y02596D01*
X043943Y025804D01*
X044032Y025672D01*
X045502Y024202D01*
X045634Y024113D01*
X04579Y024082D01*
X04579Y024082D01*
X048041D01*
X048294Y023829D01*
X048244Y023745D01*
X047165D01*
Y022655D01*
X048255D01*
Y02274D01*
X048355Y022785D01*
X048435Y022724D01*
X048568Y022669D01*
X04871Y02265D01*
X048852Y022669D01*
X048985Y022724D01*
X049099Y022811D01*
X049186Y022925D01*
X049236Y023045D01*
X049273Y023053D01*
X049339Y023043D01*
X049425Y022915D01*
X049556Y022828D01*
X04961Y022817D01*
Y0232D01*
Y023583D01*
X049556Y023572D01*
X049425Y023485D01*
X049339Y023357D01*
X049273Y023347D01*
X049236Y023355D01*
X049186Y023475D01*
X049118Y023564D01*
Y02399D01*
X049118Y02399D01*
X049087Y024146D01*
X048998Y024278D01*
X048998Y024278D01*
X048498Y024778D01*
X048366Y024867D01*
X04821Y024898D01*
X04821Y024898D01*
X045959D01*
X044728Y026129D01*
Y034151D01*
X045649Y035072D01*
X046127D01*
X046142Y035052D01*
X046171Y03503D01*
Y03493D01*
X046142Y034908D01*
X046046Y034783D01*
X045985Y034637D01*
X045965Y03448D01*
X045985Y034323D01*
X046046Y034177D01*
X046142Y034052D01*
X046171Y03403D01*
Y03393D01*
X046142Y033908D01*
X046046Y033783D01*
X045985Y033637D01*
X045965Y03348D01*
X045985Y033323D01*
X046046Y033177D01*
X046142Y033052D01*
X046171Y03303D01*
Y03293D01*
X046142Y032908D01*
X046046Y032783D01*
X045985Y032637D01*
X045965Y03248D01*
X045985Y032323D01*
X046046Y032177D01*
X046142Y032052D01*
X046171Y03203D01*
Y03193D01*
X046142Y031908D01*
X046046Y031783D01*
X045985Y031637D01*
X045965Y03148D01*
X045985Y031323D01*
X046046Y031177D01*
X046142Y031052D01*
X046171Y03103D01*
Y03093D01*
X046142Y030908D01*
X046046Y030783D01*
X045985Y030637D01*
X045965Y03048D01*
X045985Y030323D01*
X046046Y030177D01*
X046142Y030052D01*
X046267Y029956D01*
X046413Y029895D01*
X04657Y029875D01*
X046727Y029895D01*
X046873Y029956D01*
X046998Y030052D01*
X04702Y030081D01*
X04712D01*
X047142Y030052D01*
X047267Y029956D01*
X047413Y029895D01*
X04757Y029875D01*
X047665Y029887D01*
X047712Y029793D01*
X04614Y02822D01*
X046029Y028055D01*
X04599Y02786D01*
Y027644D01*
X045975Y02755D01*
X0456D01*
Y027D01*
Y02645D01*
X045975D01*
Y02645D01*
X046075Y026463D01*
X046185Y026379D01*
X046337Y026316D01*
X0465Y026295D01*
X046663Y026316D01*
X046815Y026379D01*
X046935Y026471D01*
X046976Y026485D01*
X047024D01*
X047065Y026471D01*
X047185Y026379D01*
X047337Y026316D01*
X0475Y026295D01*
X047663Y026316D01*
X047815Y026379D01*
X047935Y026471D01*
X047976Y026485D01*
X048024D01*
X048065Y026471D01*
X048185Y026379D01*
X048337Y026316D01*
X0485Y026295D01*
X048663Y026316D01*
X048815Y026379D01*
X048946Y026479D01*
X049046Y02661D01*
X049109Y026762D01*
X04913Y026925D01*
Y027075D01*
X049109Y027238D01*
X049046Y02739D01*
X048946Y027521D01*
X048815Y027621D01*
X048663Y027684D01*
X0485Y027705D01*
X048337Y027684D01*
X048185Y027621D01*
X048065Y027529D01*
X048024Y027515D01*
X047976D01*
X047935Y027529D01*
X047815Y027621D01*
X047663Y027684D01*
X0475Y027705D01*
X047337Y027684D01*
X047185Y027621D01*
X047176Y027614D01*
X047067Y027657D01*
X04706Y027699D01*
X049179Y029818D01*
X050927Y02807D01*
X051092Y027959D01*
X051287Y02792D01*
X07533D01*
X075525Y027959D01*
X07569Y02807D01*
X07806Y03044D01*
X078171Y030605D01*
X07821Y0308D01*
Y032479D01*
X078224Y032497D01*
X078285Y032643D01*
X078305Y0328D01*
X078285Y032957D01*
X078224Y033103D01*
X078128Y033228D01*
X078003Y033324D01*
X077857Y033385D01*
X077787Y033394D01*
X077342Y033838D01*
X07721Y033927D01*
X077054Y033958D01*
X077054Y033958D01*
X076343D01*
X076309Y034058D01*
X076328Y034072D01*
X076424Y034197D01*
X076485Y034343D01*
X076505Y0345D01*
X076485Y034657D01*
X076424Y034803D01*
X076328Y034928D01*
X076299Y03495D01*
Y03505D01*
X076328Y035072D01*
X076424Y035197D01*
X076485Y035343D01*
X076505Y0355D01*
X076485Y035657D01*
X076424Y035803D01*
X076328Y035928D01*
X076203Y036024D01*
X076057Y036085D01*
X0759Y036105D01*
X075743Y036085D01*
X075597Y036024D01*
X075472Y035928D01*
X07545Y035899D01*
X07535D01*
X075328Y035928D01*
X075203Y036024D01*
X075057Y036085D01*
X0749Y036105D01*
X074743Y036085D01*
X074597Y036024D01*
X074472Y035928D01*
X07445Y035899D01*
X07435D01*
X074328Y035928D01*
X074203Y036024D01*
X074057Y036085D01*
X0739Y036105D01*
X073743Y036085D01*
X073597Y036024D01*
X073472Y035928D01*
X07338Y035808D01*
X07337Y035807D01*
X07328Y035852D01*
Y0359D01*
X073D01*
Y0355D01*
X0729D01*
Y0354D01*
X07252D01*
Y0351D01*
X072654D01*
X072674Y035D01*
X072633Y034983D01*
X072535Y034908D01*
X069869D01*
X069508Y035269D01*
Y043D01*
X069508Y043D01*
X069477Y043156D01*
X069388Y043288D01*
X069388Y043288D01*
X068908Y043768D01*
X068776Y043857D01*
X06862Y043888D01*
X06862Y043888D01*
X068013D01*
X067998Y043908D01*
X067969Y04393D01*
Y04403D01*
X067998Y044052D01*
X068094Y044177D01*
X068155Y044323D01*
X068175Y04448D01*
X068155Y044637D01*
X068094Y044783D01*
X067998Y044908D01*
X067969Y04493D01*
Y04503D01*
X067998Y045052D01*
X068094Y045177D01*
X068155Y045323D01*
X068175Y04548D01*
X068155Y045637D01*
X068094Y045783D01*
X067998Y045908D01*
X067969Y04593D01*
Y04603D01*
X067998Y046052D01*
X068094Y046177D01*
X068155Y046323D01*
X068175Y04648D01*
X068155Y046637D01*
X068094Y046783D01*
X067998Y046908D01*
X067969Y04693D01*
Y04703D01*
X067998Y047052D01*
X068094Y047177D01*
X068155Y047323D01*
X068175Y04748D01*
X068155Y047637D01*
X068094Y047783D01*
X067998Y047908D01*
X067969Y04793D01*
Y04803D01*
X067998Y048052D01*
X068094Y048177D01*
X068155Y048323D01*
X068175Y04848D01*
X068155Y048637D01*
X068094Y048783D01*
X067998Y048908D01*
X067969Y04893D01*
Y04903D01*
X067998Y049052D01*
X068094Y049177D01*
X068155Y049323D01*
X068175Y04948D01*
X068155Y049637D01*
X068094Y049783D01*
X067998Y049908D01*
X067969Y04993D01*
Y05003D01*
X067998Y050052D01*
X068094Y050177D01*
X068155Y050323D01*
X068175Y05048D01*
X068155Y050637D01*
X068094Y050783D01*
X067998Y050908D01*
X067969Y05093D01*
Y05103D01*
X067998Y051052D01*
X068094Y051177D01*
X068155Y051323D01*
X068175Y05148D01*
X068155Y051637D01*
X068094Y051783D01*
X067998Y051908D01*
X067969Y05193D01*
Y05203D01*
X067998Y052052D01*
X068094Y052177D01*
X068155Y052323D01*
X068175Y05248D01*
X068155Y052637D01*
X068094Y052783D01*
X067998Y052908D01*
X067969Y05293D01*
Y05303D01*
X067998Y053052D01*
X068094Y053177D01*
X068155Y053323D01*
X068175Y05348D01*
X068155Y053637D01*
X068094Y053783D01*
X067998Y053908D01*
X067969Y05393D01*
Y05403D01*
X067998Y054052D01*
X068094Y054177D01*
X068155Y054323D01*
X068175Y05448D01*
X068155Y054637D01*
X068094Y054783D01*
X067998Y054908D01*
X067873Y055004D01*
X067727Y055065D01*
X06757Y055085D01*
X067413Y055065D01*
X067267Y055004D01*
X067142Y054908D01*
X06712Y054879D01*
X06702Y054913D01*
Y05493D01*
X06667D01*
Y05448D01*
X06657D01*
Y05438D01*
X06612D01*
Y05403D01*
X066137D01*
X066171Y05393D01*
X066142Y053908D01*
X066046Y053783D01*
X065985Y053637D01*
X065965Y05348D01*
X065985Y053323D01*
X066046Y053177D01*
X066142Y053052D01*
X066171Y05303D01*
Y05293D01*
X066142Y052908D01*
X066046Y052783D01*
X065985Y052637D01*
X065965Y05248D01*
X065985Y052323D01*
X066046Y052177D01*
X066142Y052052D01*
X066171Y05203D01*
Y05193D01*
X066142Y051908D01*
X066046Y051783D01*
X065985Y051637D01*
X065965Y05148D01*
X065985Y051323D01*
X066046Y051177D01*
X066142Y051052D01*
X066171Y05103D01*
Y05093D01*
X066142Y050908D01*
X066046Y050783D01*
X065985Y050637D01*
X065965Y05048D01*
X065985Y050323D01*
X066046Y050177D01*
X066142Y050052D01*
X066171Y05003D01*
Y04993D01*
X066142Y049908D01*
X066046Y049783D01*
X065985Y049637D01*
X065965Y04948D01*
X065985Y049323D01*
X066046Y049177D01*
X066142Y049052D01*
X066171Y04903D01*
Y04893D01*
X066142Y048908D01*
X066046Y048783D01*
X065985Y048637D01*
X065965Y04848D01*
X065985Y048323D01*
X066046Y048177D01*
X066142Y048052D01*
X066171Y04803D01*
Y04793D01*
X066142Y047908D01*
X066046Y047783D01*
X065985Y047637D01*
X065965Y04748D01*
X065985Y047323D01*
X066046Y047177D01*
X066142Y047052D01*
X066171Y04703D01*
Y04693D01*
X066142Y046908D01*
X066046Y046783D01*
X065985Y046637D01*
X065965Y04648D01*
X065985Y046323D01*
X066046Y046177D01*
X066142Y046052D01*
X066143Y045942D01*
X066088Y045888D01*
X065789D01*
X065108Y046569D01*
Y055061D01*
X066839Y056792D01*
X0689D01*
X0689Y056792D01*
X069056Y056823D01*
X069188Y056912D01*
X070069Y057792D01*
X073885D01*
X073914Y057754D01*
X074045Y057654D01*
X074197Y057591D01*
X07436Y05757D01*
X07451D01*
X074673Y057591D01*
X074825Y057654D01*
X074956Y057754D01*
X075056Y057885D01*
X075119Y058037D01*
X07514Y0582D01*
X075119Y058363D01*
X075056Y058515D01*
X074964Y058635D01*
X07495Y058676D01*
Y058724D01*
X074964Y058765D01*
X075056Y058885D01*
X075119Y059037D01*
X07514Y0592D01*
X075119Y059363D01*
X075056Y059515D01*
X074964Y059635D01*
X07495Y059676D01*
Y059724D01*
X074964Y059765D01*
X075056Y059885D01*
X075119Y060037D01*
X07514Y0602D01*
X075119Y060363D01*
X075056Y060515D01*
X074972Y060625D01*
X074985Y060725D01*
X074985D01*
Y0611D01*
X074435D01*
X073885D01*
Y060725D01*
X073791Y06071D01*
X0696D01*
X069405Y060671D01*
X06924Y06056D01*
X068389Y05971D01*
X068254D01*
X068187Y05981D01*
X068218Y059883D01*
X068237Y060034D01*
Y060374D01*
X068218Y060526D01*
X068159Y060667D01*
X068066Y060788D01*
X067945Y060881D01*
X067804Y060939D01*
X067652Y060959D01*
X067501Y060939D01*
X06736Y060881D01*
X067262Y060806D01*
X067162Y06084D01*
Y060902D01*
X067123Y061097D01*
X067013Y061262D01*
X06671Y061565D01*
X066545Y061675D01*
X06635Y061714D01*
X064302D01*
X064107Y061675D01*
X063942Y061565D01*
X063337Y06096D01*
X06218D01*
Y062324D01*
X062141Y062519D01*
X06203Y062684D01*
X061418Y063297D01*
X061475Y063381D01*
X061513Y063365D01*
X06167Y063345D01*
X061827Y063365D01*
X061973Y063426D01*
X062098Y063522D01*
X062194Y063647D01*
X062255Y063793D01*
X062275Y06395D01*
X062255Y064107D01*
X062194Y064253D01*
X062098Y064378D01*
X061973Y064474D01*
X061827Y064535D01*
X06167Y064555D01*
X061513Y064535D01*
X061367Y064474D01*
X061242Y064378D01*
X061146Y064253D01*
X061085Y064107D01*
X061065Y06395D01*
X061085Y063793D01*
X061101Y063755D01*
X061017Y063698D01*
X061005Y06371D01*
X060839Y063821D01*
X060644Y06386D01*
X059298D01*
X059271Y063995D01*
X05916Y06416D01*
X05846Y06486D01*
X058295Y064971D01*
X0581Y06501D01*
X050211D01*
X049708Y065513D01*
Y066827D01*
X049722Y066845D01*
X049783Y066991D01*
X049803Y067148D01*
X049783Y067305D01*
X049722Y067451D01*
X049626Y067576D01*
X049501Y067672D01*
X049355Y067733D01*
X049198Y067753D01*
D02*
G37*
G36*
X075178Y0676D02*
X074895D01*
Y067317D01*
X074949Y067328D01*
X07508Y067415D01*
X075167Y067546D01*
X075178Y0676D01*
D02*
G37*
G36*
X074695D02*
X074412D01*
X074423Y067546D01*
X07451Y067415D01*
X074641Y067328D01*
X074695Y067317D01*
Y0676D01*
D02*
G37*
G36*
X048098Y067543D02*
X047803D01*
Y067248D01*
X048098D01*
Y067543D01*
D02*
G37*
G36*
Y067048D02*
X047803D01*
Y066753D01*
X048098D01*
Y067048D01*
D02*
G37*
G36*
X06825Y066369D02*
Y06603D01*
X068589D01*
X068574Y066106D01*
X068474Y066254D01*
X068326Y066354D01*
X06825Y066369D01*
D02*
G37*
G36*
X06525D02*
Y06603D01*
X065589D01*
X065574Y066106D01*
X065474Y066254D01*
X065326Y066354D01*
X06525Y066369D01*
D02*
G37*
G36*
X06805D02*
X067974Y066354D01*
X067826Y066254D01*
X067726Y066106D01*
X067711Y06603D01*
X06805D01*
Y066369D01*
D02*
G37*
G36*
X06505D02*
X064974Y066354D01*
X064826Y066254D01*
X064726Y066106D01*
X064711Y06603D01*
X06505D01*
Y066369D01*
D02*
G37*
G36*
X068589Y06583D02*
X06825D01*
Y065491D01*
X068326Y065506D01*
X068474Y065606D01*
X068574Y065754D01*
X068589Y06583D01*
D02*
G37*
G36*
X065589D02*
X06525D01*
Y065491D01*
X065326Y065506D01*
X065474Y065606D01*
X065574Y065754D01*
X065589Y06583D01*
D02*
G37*
G36*
X06505D02*
X064711D01*
X064726Y065754D01*
X064826Y065606D01*
X064974Y065506D01*
X06505Y065491D01*
Y06583D01*
D02*
G37*
G36*
X06805D02*
X067711D01*
X067726Y065754D01*
X067826Y065606D01*
X067974Y065506D01*
X06805Y065491D01*
Y06583D01*
D02*
G37*
G36*
X06665Y066535D02*
X066493Y066515D01*
X066347Y066454D01*
X066222Y066358D01*
X066126Y066233D01*
X066065Y066087D01*
X066045Y06593D01*
X066065Y065773D01*
X066126Y065627D01*
X066222Y065502D01*
X066347Y065406D01*
X066493Y065345D01*
X06665Y065325D01*
X066807Y065345D01*
X066953Y065406D01*
X067078Y065502D01*
X067174Y065627D01*
X067235Y065773D01*
X067255Y06593D01*
X067235Y066087D01*
X067174Y066233D01*
X067078Y066358D01*
X066953Y066454D01*
X066807Y066515D01*
X06665Y066535D01*
D02*
G37*
G36*
X075345Y065245D02*
X074255D01*
Y065108D01*
X0691D01*
X0691Y065108D01*
X068944Y065077D01*
X068812Y064988D01*
X067862Y064038D01*
X067773Y063906D01*
X067742Y06375D01*
X067742Y06375D01*
Y062873D01*
X067722Y062858D01*
X067626Y062733D01*
X067565Y062587D01*
X067545Y06243D01*
X067565Y062273D01*
X067626Y062127D01*
X067722Y062002D01*
X067847Y061906D01*
X067993Y061845D01*
X06815Y061825D01*
X068307Y061845D01*
X068453Y061906D01*
X068578Y062002D01*
X068674Y062127D01*
X068735Y062273D01*
X068755Y06243D01*
X068735Y062587D01*
X068674Y062733D01*
X068578Y062858D01*
X068558Y062873D01*
Y063581D01*
X069269Y064292D01*
X074255D01*
Y064155D01*
X075345D01*
Y065245D01*
D02*
G37*
G36*
X0415Y066558D02*
X0401D01*
Y065308D01*
X040284D01*
X040337Y065208D01*
X040278Y065119D01*
X040261Y065033D01*
X0408D01*
X041339D01*
X041322Y065119D01*
X041263Y065208D01*
X041316Y065308D01*
X0415D01*
Y066558D01*
D02*
G37*
G36*
X04535Y065005D02*
X045193Y064985D01*
X045047Y064924D01*
X044922Y064828D01*
X044826Y064703D01*
X044765Y064557D01*
X044745Y0644D01*
X044765Y064243D01*
X044826Y064097D01*
X044922Y063972D01*
X045047Y063876D01*
X045193Y063815D01*
X04535Y063795D01*
X045507Y063815D01*
X045653Y063876D01*
X045778Y063972D01*
X045874Y064097D01*
X045935Y064243D01*
X045955Y0644D01*
X045935Y064557D01*
X045874Y064703D01*
X045778Y064828D01*
X045653Y064924D01*
X045507Y064985D01*
X04535Y065005D01*
D02*
G37*
G36*
X06307Y064005D02*
X062913Y063985D01*
X062767Y063924D01*
X062642Y063828D01*
X062546Y063703D01*
X062485Y063557D01*
X062465Y0634D01*
X062485Y063243D01*
X062546Y063097D01*
X062642Y062972D01*
X062767Y062876D01*
X062913Y062815D01*
X06307Y062795D01*
X063227Y062815D01*
X063373Y062876D01*
X063498Y062972D01*
X063594Y063097D01*
X063655Y063243D01*
X063675Y0634D01*
X063655Y063557D01*
X063594Y063703D01*
X063498Y063828D01*
X063373Y063924D01*
X063227Y063985D01*
X06307Y064005D01*
D02*
G37*
G36*
X0541Y063885D02*
X053943Y063865D01*
X053797Y063804D01*
X053672Y063708D01*
X053576Y063583D01*
X053515Y063437D01*
X053495Y06328D01*
X053515Y063123D01*
X053576Y062977D01*
X053672Y062852D01*
X053797Y062756D01*
X053943Y062695D01*
X0541Y062675D01*
X054257Y062695D01*
X054403Y062756D01*
X054528Y062852D01*
X054624Y062977D01*
X054685Y063123D01*
X054705Y06328D01*
X054685Y063437D01*
X054624Y063583D01*
X054528Y063708D01*
X054403Y063804D01*
X054257Y063865D01*
X0541Y063885D01*
D02*
G37*
G36*
X041339Y064833D02*
X0408D01*
X040261D01*
X040278Y064748D01*
X040383Y064591D01*
X040407Y064574D01*
X040391Y064465D01*
X040279Y064379D01*
X040179Y064249D01*
X040116Y064096D01*
X040095Y063933D01*
X040116Y06377D01*
X040179Y063618D01*
X040271Y063499D01*
X040285Y063458D01*
Y063409D01*
X040271Y063368D01*
X040179Y063249D01*
X040116Y063096D01*
X040095Y062933D01*
X040116Y06277D01*
X040179Y062618D01*
X040279Y062488D01*
X04041Y062387D01*
X040562Y062324D01*
X040725Y062303D01*
X040875D01*
X041038Y062324D01*
X04119Y062387D01*
X041321Y062488D01*
X041421Y062618D01*
X041484Y06277D01*
X041505Y062933D01*
X041484Y063096D01*
X041421Y063249D01*
X041329Y063368D01*
X041315Y063409D01*
Y063458D01*
X041329Y063499D01*
X041421Y063618D01*
X041484Y06377D01*
X041505Y063933D01*
X041484Y064096D01*
X041421Y064249D01*
X041321Y064379D01*
X041209Y064465D01*
X041193Y064574D01*
X041217Y064591D01*
X041322Y064748D01*
X041339Y064833D01*
D02*
G37*
G36*
X06317Y062339D02*
Y062D01*
X063509D01*
X063494Y062076D01*
X063394Y062224D01*
X063246Y062324D01*
X06317Y062339D01*
D02*
G37*
G36*
X06297D02*
X062894Y062324D01*
X062746Y062224D01*
X062646Y062076D01*
X062631Y062D01*
X06297D01*
Y062339D01*
D02*
G37*
G36*
X06665Y063035D02*
X066493Y063015D01*
X066347Y062954D01*
X066222Y062858D01*
X066126Y062733D01*
X066065Y062587D01*
X066045Y06243D01*
X066065Y062273D01*
X066126Y062127D01*
X066222Y062002D01*
X066347Y061906D01*
X066493Y061845D01*
X06665Y061825D01*
X066807Y061845D01*
X066953Y061906D01*
X067078Y062002D01*
X067174Y062127D01*
X067235Y062273D01*
X067255Y06243D01*
X067235Y062587D01*
X067174Y062733D01*
X067078Y062858D01*
X066953Y062954D01*
X066807Y063015D01*
X06665Y063035D01*
D02*
G37*
G36*
X06515D02*
X064993Y063015D01*
X064847Y062954D01*
X064722Y062858D01*
X064626Y062733D01*
X064565Y062587D01*
X064545Y06243D01*
X064565Y062273D01*
X064626Y062127D01*
X064722Y062002D01*
X064847Y061906D01*
X064993Y061845D01*
X06515Y061825D01*
X065307Y061845D01*
X065453Y061906D01*
X065578Y062002D01*
X065674Y062127D01*
X065735Y062273D01*
X065755Y06243D01*
X065735Y062587D01*
X065674Y062733D01*
X065578Y062858D01*
X065453Y062954D01*
X065307Y063015D01*
X06515Y063035D01*
D02*
G37*
G36*
X063509Y0618D02*
X06317D01*
Y061461D01*
X063246Y061476D01*
X063394Y061576D01*
X063494Y061724D01*
X063509Y0618D01*
D02*
G37*
G36*
X06297D02*
X062631D01*
X062646Y061724D01*
X062746Y061576D01*
X062894Y061476D01*
X06297Y061461D01*
Y0618D01*
D02*
G37*
G36*
X074985Y061675D02*
X074535D01*
Y0613D01*
X074985D01*
Y061675D01*
D02*
G37*
G36*
X074335D02*
X073885D01*
Y0613D01*
X074335D01*
Y061675D01*
D02*
G37*
G36*
X055944Y061905D02*
X055787Y061885D01*
X055641Y061824D01*
X055516Y061728D01*
X05542Y061603D01*
X055359Y061457D01*
X055339Y0613D01*
X055359Y061143D01*
X05542Y060997D01*
X055516Y060872D01*
X055641Y060776D01*
X055787Y060715D01*
X055944Y060695D01*
X056101Y060715D01*
X056247Y060776D01*
X056372Y060872D01*
X056468Y060997D01*
X056529Y061143D01*
X056549Y0613D01*
X056529Y061457D01*
X056468Y061603D01*
X056372Y061728D01*
X056247Y061824D01*
X056101Y061885D01*
X055944Y061905D01*
D02*
G37*
G36*
X04535Y061505D02*
X045193Y061485D01*
X045047Y061424D01*
X044922Y061328D01*
X044826Y061203D01*
X044765Y061057D01*
X044745Y0609D01*
X044765Y060743D01*
X044826Y060597D01*
X044922Y060472D01*
X045047Y060376D01*
X045193Y060315D01*
X04535Y060295D01*
X045507Y060315D01*
X045653Y060376D01*
X045778Y060472D01*
X045874Y060597D01*
X045935Y060743D01*
X045955Y0609D01*
X045935Y061057D01*
X045874Y061203D01*
X045778Y061328D01*
X045653Y061424D01*
X045507Y061485D01*
X04535Y061505D01*
D02*
G37*
G36*
X0525Y060314D02*
Y059924D01*
X05289D01*
X052871Y060019D01*
X05276Y060184D01*
X052595Y060295D01*
X0525Y060314D01*
D02*
G37*
G36*
X0523Y060314D02*
X052205Y060295D01*
X05204Y060184D01*
X051929Y060019D01*
X05191Y059924D01*
X0523D01*
Y060314D01*
D02*
G37*
G36*
X05881Y059855D02*
X058658Y059835D01*
X058517Y059777D01*
X058396Y059684D01*
X05836Y059636D01*
X05826D01*
X058223Y059684D01*
X058102Y059777D01*
X057961Y059835D01*
X05781Y059855D01*
X057658Y059835D01*
X057517Y059777D01*
X057396Y059684D01*
X05736Y059636D01*
X05726D01*
X057223Y059684D01*
X057102Y059777D01*
X056961Y059835D01*
X05681Y059855D01*
X056658Y059835D01*
X056517Y059777D01*
X056396Y059684D01*
X056303Y059563D01*
X056245Y059421D01*
X056225Y05927D01*
Y05893D01*
X056245Y058779D01*
X056303Y058637D01*
X056396Y058516D01*
X056517Y058423D01*
X056658Y058365D01*
X05681Y058345D01*
X056961Y058365D01*
X057102Y058423D01*
X057223Y058516D01*
X05726Y058564D01*
X05736D01*
X057396Y058516D01*
X057517Y058423D01*
X057658Y058365D01*
X05781Y058345D01*
X057961Y058365D01*
X058102Y058423D01*
X058223Y058516D01*
X05826Y058564D01*
X05836D01*
X058396Y058516D01*
X058517Y058423D01*
X058658Y058365D01*
X05881Y058345D01*
X058961Y058365D01*
X059102Y058423D01*
X059223Y058516D01*
X059316Y058637D01*
X059375Y058779D01*
X059395Y05893D01*
Y05927D01*
X059375Y059421D01*
X059316Y059563D01*
X059223Y059684D01*
X059102Y059777D01*
X058961Y059835D01*
X05881Y059855D01*
D02*
G37*
G36*
X0523Y059724D02*
X05191D01*
X051929Y059629D01*
X05204Y059464D01*
X052205Y059353D01*
X0523Y059334D01*
Y059724D01*
D02*
G37*
G36*
X05289D02*
X0525D01*
Y059334D01*
X052595Y059353D01*
X05276Y059464D01*
X052871Y059629D01*
X05289Y059724D01*
D02*
G37*
G36*
X0639Y059549D02*
Y05921D01*
X064239D01*
X064224Y059285D01*
X064124Y059434D01*
X063976Y059534D01*
X0639Y059549D01*
D02*
G37*
G36*
X0637D02*
X063624Y059534D01*
X063476Y059434D01*
X063376Y059285D01*
X063361Y05921D01*
X0637D01*
Y059549D01*
D02*
G37*
G36*
X0541Y060385D02*
X053943Y060365D01*
X053797Y060304D01*
X053672Y060208D01*
X053576Y060083D01*
X053515Y059937D01*
X053495Y05978D01*
X053515Y059623D01*
X053576Y059477D01*
X053672Y059352D01*
X053797Y059256D01*
X053943Y059195D01*
X0541Y059175D01*
X054257Y059195D01*
X054403Y059256D01*
X054528Y059352D01*
X054624Y059477D01*
X054685Y059623D01*
X054705Y05978D01*
X054685Y059937D01*
X054624Y060083D01*
X054528Y060208D01*
X054403Y060304D01*
X054257Y060365D01*
X0541Y060385D01*
D02*
G37*
G36*
X064239Y05901D02*
X0639D01*
Y058671D01*
X063976Y058686D01*
X064124Y058785D01*
X064224Y058934D01*
X064239Y05901D01*
D02*
G37*
G36*
X0637D02*
X063361D01*
X063376Y058934D01*
X063476Y058785D01*
X063624Y058686D01*
X0637Y058671D01*
Y05901D01*
D02*
G37*
G36*
X0603Y059715D02*
X060143Y059694D01*
X059997Y059634D01*
X059872Y059538D01*
X059776Y059412D01*
X059715Y059266D01*
X059695Y05911D01*
X059715Y058953D01*
X059776Y058807D01*
X059872Y058682D01*
X059997Y058586D01*
X060143Y058525D01*
X0603Y058505D01*
X060457Y058525D01*
X060603Y058586D01*
X060728Y058682D01*
X060824Y058807D01*
X060885Y058953D01*
X060905Y05911D01*
X060885Y059266D01*
X060824Y059412D01*
X060728Y059538D01*
X060603Y059634D01*
X060457Y059694D01*
X0603Y059715D01*
D02*
G37*
G36*
X0481Y058795D02*
X047805D01*
Y0585D01*
X0481D01*
Y058795D01*
D02*
G37*
G36*
X0415Y059892D02*
X0401D01*
Y058642D01*
X040284D01*
X040337Y058542D01*
X040278Y058452D01*
X040261Y058367D01*
X0408D01*
X041339D01*
X041322Y058452D01*
X041263Y058542D01*
X041316Y058642D01*
X0415D01*
Y059892D01*
D02*
G37*
G36*
X0481Y0583D02*
X047805D01*
Y058005D01*
X0481D01*
Y0583D01*
D02*
G37*
G36*
X041339Y058167D02*
X0408D01*
X040261D01*
X040278Y058081D01*
X040383Y057924D01*
X040407Y057908D01*
X040391Y057798D01*
X040279Y057712D01*
X040179Y057582D01*
X040116Y05743D01*
X040095Y057267D01*
X040116Y057104D01*
X040179Y056951D01*
X040271Y056832D01*
X040285Y056791D01*
Y056742D01*
X040271Y056701D01*
X040179Y056582D01*
X040116Y05643D01*
X040095Y056267D01*
X040116Y056104D01*
X040179Y055951D01*
X040279Y055821D01*
X04041Y055721D01*
X040562Y055658D01*
X040725Y055636D01*
X040875D01*
X041038Y055658D01*
X04119Y055721D01*
X041321Y055821D01*
X041421Y055951D01*
X041484Y056104D01*
X041505Y056267D01*
X041484Y05643D01*
X041421Y056582D01*
X041329Y056701D01*
X041315Y056742D01*
Y056791D01*
X041329Y056832D01*
X041421Y056951D01*
X041484Y057104D01*
X041505Y057267D01*
X041484Y05743D01*
X041421Y057582D01*
X041321Y057712D01*
X041209Y057798D01*
X041193Y057908D01*
X041217Y057924D01*
X041322Y058081D01*
X041339Y058167D01*
D02*
G37*
G36*
X06647Y05493D02*
X06612D01*
Y05458D01*
X06647D01*
Y05493D01*
D02*
G37*
G36*
X0415Y053225D02*
X0401D01*
Y051975D01*
X040108D01*
X040162Y051875D01*
X040116Y051763D01*
X040095Y0516D01*
X040116Y051437D01*
X040179Y051285D01*
X040279Y051154D01*
X040391Y051068D01*
X040407Y050959D01*
X040383Y050942D01*
X040278Y050785D01*
X040261Y0507D01*
X0408D01*
X041339D01*
X041322Y050785D01*
X041217Y050942D01*
X041193Y050959D01*
X041209Y051068D01*
X041321Y051154D01*
X041421Y051285D01*
X041484Y051437D01*
X041505Y0516D01*
X041484Y051763D01*
X041438Y051875D01*
X041492Y051975D01*
X0415D01*
Y053225D01*
D02*
G37*
G36*
X075135Y054625D02*
X073735D01*
Y053375D01*
X073743D01*
X073797Y053275D01*
X073751Y053163D01*
X07373Y053D01*
X073751Y052837D01*
X073814Y052685D01*
X073906Y052565D01*
X07392Y052524D01*
Y052476D01*
X073906Y052435D01*
X073814Y052315D01*
X073751Y052163D01*
X07373Y052D01*
X073751Y051837D01*
X073814Y051685D01*
X073906Y051565D01*
X07392Y051524D01*
Y051476D01*
X073906Y051435D01*
X073814Y051315D01*
X073751Y051163D01*
X07373Y051D01*
X073751Y050837D01*
X073814Y050685D01*
X073914Y050554D01*
X074045Y050454D01*
X074197Y050391D01*
X07436Y05037D01*
X07451D01*
X074673Y050391D01*
X074825Y050454D01*
X074956Y050554D01*
X075056Y050685D01*
X075119Y050837D01*
X07514Y051D01*
X075119Y051163D01*
X075056Y051315D01*
X074964Y051435D01*
X07495Y051476D01*
Y051524D01*
X074964Y051565D01*
X075056Y051685D01*
X075119Y051837D01*
X07514Y052D01*
X075119Y052163D01*
X075056Y052315D01*
X074964Y052435D01*
X07495Y052476D01*
Y052524D01*
X074964Y052565D01*
X075056Y052685D01*
X075119Y052837D01*
X07514Y053D01*
X075119Y053163D01*
X075073Y053275D01*
X075127Y053375D01*
X075135D01*
Y054625D01*
D02*
G37*
G36*
X041339Y0505D02*
X0408D01*
X040261D01*
X040278Y050415D01*
X040383Y050258D01*
X040407Y050241D01*
X040391Y050132D01*
X040279Y050046D01*
X040179Y049915D01*
X040116Y049763D01*
X040095Y0496D01*
X040116Y049437D01*
X040179Y049285D01*
X040279Y049154D01*
X04041Y049054D01*
X040562Y048991D01*
X040725Y04897D01*
X040875D01*
X041038Y048991D01*
X04119Y049054D01*
X041321Y049154D01*
X041421Y049285D01*
X041484Y049437D01*
X041505Y0496D01*
X041484Y049763D01*
X041421Y049915D01*
X041321Y050046D01*
X041209Y050132D01*
X041193Y050241D01*
X041217Y050258D01*
X041322Y050415D01*
X041339Y0505D01*
D02*
G37*
G36*
X075135Y049225D02*
X073735D01*
Y047975D01*
X073743D01*
X073797Y047875D01*
X073751Y047763D01*
X07373Y0476D01*
X073751Y047437D01*
X073814Y047285D01*
X073906Y047165D01*
X07392Y047124D01*
Y047076D01*
X073906Y047035D01*
X073814Y046915D01*
X073751Y046763D01*
X07373Y0466D01*
X073751Y046437D01*
X073814Y046285D01*
X073906Y046165D01*
X07392Y046124D01*
Y046076D01*
X073906Y046035D01*
X073814Y045915D01*
X073751Y045763D01*
X07373Y0456D01*
X073751Y045437D01*
X073814Y045285D01*
X073914Y045154D01*
X074045Y045054D01*
X074197Y044991D01*
X07436Y04497D01*
X07451D01*
X074673Y044991D01*
X074825Y045054D01*
X074956Y045154D01*
X075056Y045285D01*
X075119Y045437D01*
X07514Y0456D01*
X075119Y045763D01*
X075056Y045915D01*
X074964Y046035D01*
X07495Y046076D01*
Y046124D01*
X074964Y046165D01*
X075056Y046285D01*
X075119Y046437D01*
X07514Y0466D01*
X075119Y046763D01*
X075056Y046915D01*
X074964Y047035D01*
X07495Y047076D01*
Y047124D01*
X074964Y047165D01*
X075056Y047285D01*
X075119Y047437D01*
X07514Y0476D01*
X075119Y047763D01*
X075073Y047875D01*
X075127Y047975D01*
X075135D01*
Y049225D01*
D02*
G37*
G36*
X0415Y046725D02*
X0401D01*
Y045475D01*
Y044475D01*
X040284D01*
X040337Y044375D01*
X040278Y044285D01*
X040261Y0442D01*
X0408D01*
X041339D01*
X041322Y044285D01*
X041263Y044375D01*
X041316Y044475D01*
X0415D01*
Y045475D01*
Y046725D01*
D02*
G37*
G36*
X041339Y044D02*
X0408D01*
X040261D01*
X040278Y043915D01*
X040383Y043758D01*
X040407Y043741D01*
X040391Y043632D01*
X040279Y043546D01*
X040179Y043415D01*
X040116Y043263D01*
X040095Y0431D01*
X040116Y042937D01*
X040179Y042785D01*
X040279Y042654D01*
X04041Y042554D01*
X040562Y042491D01*
X040725Y04247D01*
X040875D01*
X041038Y042491D01*
X04119Y042554D01*
X041321Y042654D01*
X041421Y042785D01*
X041484Y042937D01*
X041505Y0431D01*
X041484Y043263D01*
X041421Y043415D01*
X041321Y043546D01*
X041209Y043632D01*
X041193Y043741D01*
X041217Y043758D01*
X041322Y043915D01*
X041339Y044D01*
D02*
G37*
G36*
X04135Y040675D02*
X0409D01*
Y0403D01*
X04135D01*
Y040675D01*
D02*
G37*
G36*
X0407D02*
X04025D01*
Y0403D01*
X0407D01*
Y040675D01*
D02*
G37*
G36*
X04135Y0401D02*
X0408D01*
X04025D01*
Y039725D01*
X04025D01*
X040263Y039625D01*
X040179Y039515D01*
X040116Y039363D01*
X040095Y0392D01*
X040116Y039037D01*
X040179Y038885D01*
X040271Y038765D01*
X040285Y038724D01*
Y038676D01*
X040271Y038635D01*
X040179Y038515D01*
X040116Y038363D01*
X040095Y0382D01*
X040116Y038037D01*
X040179Y037885D01*
X040271Y037765D01*
X040285Y037724D01*
Y037676D01*
X040271Y037635D01*
X040179Y037515D01*
X040116Y037363D01*
X040095Y0372D01*
X040116Y037037D01*
X040179Y036885D01*
X040279Y036754D01*
X04041Y036654D01*
X040562Y036591D01*
X040725Y03657D01*
X040875D01*
X041038Y036591D01*
X04119Y036654D01*
X041321Y036754D01*
X041421Y036885D01*
X041484Y037037D01*
X041505Y0372D01*
X041484Y037363D01*
X041421Y037515D01*
X041329Y037635D01*
X041315Y037676D01*
Y037724D01*
X041329Y037765D01*
X041421Y037885D01*
X041484Y038037D01*
X041505Y0382D01*
X041484Y038363D01*
X041421Y038515D01*
X041329Y038635D01*
X041315Y038676D01*
Y038724D01*
X041329Y038765D01*
X041421Y038885D01*
X041484Y039037D01*
X041505Y0392D01*
X041484Y039363D01*
X041421Y039515D01*
X041337Y039625D01*
X04135Y039725D01*
X04135D01*
Y0401D01*
D02*
G37*
G36*
X05692Y040235D02*
X056763Y040215D01*
X056617Y040154D01*
X056492Y040058D01*
X056396Y039933D01*
X056335Y039787D01*
X056315Y03963D01*
X056335Y039473D01*
X056396Y039327D01*
X056492Y039202D01*
X056617Y039106D01*
X056763Y039045D01*
X05692Y039025D01*
X057077Y039045D01*
X057223Y039106D01*
X057348Y039202D01*
X057444Y039327D01*
X057505Y039473D01*
X057525Y03963D01*
X057505Y039787D01*
X057444Y039933D01*
X057348Y040058D01*
X057223Y040154D01*
X057077Y040215D01*
X05692Y040235D01*
D02*
G37*
G36*
X05512D02*
X054963Y040215D01*
X054817Y040154D01*
X054692Y040058D01*
X054596Y039933D01*
X054535Y039787D01*
X054515Y03963D01*
X054535Y039473D01*
X054596Y039327D01*
X054692Y039202D01*
X054817Y039106D01*
X054963Y039045D01*
X05512Y039025D01*
X055277Y039045D01*
X055423Y039106D01*
X055548Y039202D01*
X055644Y039327D01*
X055705Y039473D01*
X055725Y03963D01*
X055705Y039787D01*
X055644Y039933D01*
X055548Y040058D01*
X055423Y040154D01*
X055277Y040215D01*
X05512Y040235D01*
D02*
G37*
G36*
X053787D02*
X05363Y040215D01*
X053484Y040154D01*
X053359Y040058D01*
X053263Y039933D01*
X053202Y039787D01*
X053181Y03963D01*
X053202Y039473D01*
X053263Y039327D01*
X053359Y039202D01*
X053484Y039106D01*
X05363Y039045D01*
X053787Y039025D01*
X053943Y039045D01*
X054089Y039106D01*
X054215Y039202D01*
X054311Y039327D01*
X054371Y039473D01*
X054392Y03963D01*
X054371Y039787D01*
X054311Y039933D01*
X054215Y040058D01*
X054089Y040154D01*
X053943Y040215D01*
X053787Y040235D01*
D02*
G37*
G36*
X052453D02*
X052297Y040215D01*
X052151Y040154D01*
X052025Y040058D01*
X051929Y039933D01*
X051869Y039787D01*
X051848Y03963D01*
X051869Y039473D01*
X051929Y039327D01*
X052025Y039202D01*
X052151Y039106D01*
X052297Y039045D01*
X052453Y039025D01*
X05261Y039045D01*
X052756Y039106D01*
X052881Y039202D01*
X052977Y039327D01*
X053038Y039473D01*
X053059Y03963D01*
X053038Y039787D01*
X052977Y039933D01*
X052881Y040058D01*
X052756Y040154D01*
X05261Y040215D01*
X052453Y040235D01*
D02*
G37*
G36*
X05112D02*
X050963Y040215D01*
X050817Y040154D01*
X050692Y040058D01*
X050596Y039933D01*
X050535Y039787D01*
X050515Y03963D01*
X050535Y039473D01*
X050596Y039327D01*
X050692Y039202D01*
X050817Y039106D01*
X050963Y039045D01*
X05112Y039025D01*
X051277Y039045D01*
X051423Y039106D01*
X051548Y039202D01*
X051644Y039327D01*
X051705Y039473D01*
X051725Y03963D01*
X051705Y039787D01*
X051644Y039933D01*
X051548Y040058D01*
X051423Y040154D01*
X051277Y040215D01*
X05112Y040235D01*
D02*
G37*
G36*
X05913Y039585D02*
X05879D01*
X058639Y039565D01*
X058498Y039507D01*
X058376Y039414D01*
X058283Y039293D01*
X058225Y039151D01*
X058205Y039D01*
X058225Y038849D01*
X058283Y038707D01*
X058376Y038586D01*
X058424Y03855D01*
Y03845D01*
X058376Y038414D01*
X058283Y038293D01*
X058225Y038151D01*
X058205Y038D01*
X058225Y037849D01*
X058283Y037708D01*
X058376Y037586D01*
X058498Y037493D01*
X058545Y037474D01*
X058556Y037361D01*
X05848Y03731D01*
X058385Y037168D01*
X058371Y0371D01*
X05896D01*
X059549D01*
X059535Y037168D01*
X05944Y03731D01*
X059364Y037361D01*
X059375Y037474D01*
X059422Y037493D01*
X059544Y037586D01*
X059637Y037708D01*
X059695Y037849D01*
X059715Y038D01*
X059695Y038151D01*
X059637Y038293D01*
X059544Y038414D01*
X059496Y03845D01*
Y03855D01*
X059544Y038586D01*
X059637Y038707D01*
X059695Y038849D01*
X059715Y039D01*
X059695Y039151D01*
X059637Y039293D01*
X059544Y039414D01*
X059422Y039507D01*
X059281Y039565D01*
X05913Y039585D01*
D02*
G37*
G36*
X059549Y0369D02*
X05906D01*
Y036562D01*
X05913D01*
X059298Y036595D01*
X05944Y03669D01*
X059535Y036832D01*
X059549Y0369D01*
D02*
G37*
G36*
X05886D02*
X058371D01*
X058385Y036832D01*
X05848Y03669D01*
X058622Y036595D01*
X05879Y036562D01*
X05886D01*
Y0369D01*
D02*
G37*
G36*
X0728Y0359D02*
X07252D01*
Y0356D01*
X0728D01*
Y0359D01*
D02*
G37*
G36*
X05692Y036735D02*
X056763Y036715D01*
X056617Y036654D01*
X056492Y036558D01*
X056396Y036433D01*
X056335Y036287D01*
X056315Y03613D01*
X056335Y035973D01*
X056396Y035827D01*
X056492Y035702D01*
X056617Y035606D01*
X056763Y035545D01*
X05692Y035525D01*
X057077Y035545D01*
X057223Y035606D01*
X057348Y035702D01*
X057444Y035827D01*
X057505Y035973D01*
X057525Y03613D01*
X057505Y036287D01*
X057444Y036433D01*
X057348Y036558D01*
X057223Y036654D01*
X057077Y036715D01*
X05692Y036735D01*
D02*
G37*
G36*
X05512D02*
X054963Y036715D01*
X054817Y036654D01*
X054692Y036558D01*
X054596Y036433D01*
X054535Y036287D01*
X054515Y03613D01*
X054535Y035973D01*
X054596Y035827D01*
X054692Y035702D01*
X054817Y035606D01*
X054963Y035545D01*
X05512Y035525D01*
X055277Y035545D01*
X055423Y035606D01*
X055548Y035702D01*
X055644Y035827D01*
X055705Y035973D01*
X055725Y03613D01*
X055705Y036287D01*
X055644Y036433D01*
X055548Y036558D01*
X055423Y036654D01*
X055277Y036715D01*
X05512Y036735D01*
D02*
G37*
G36*
X053787D02*
X05363Y036715D01*
X053484Y036654D01*
X053359Y036558D01*
X053263Y036433D01*
X053202Y036287D01*
X053181Y03613D01*
X053202Y035973D01*
X053263Y035827D01*
X053359Y035702D01*
X053484Y035606D01*
X05363Y035545D01*
X053787Y035525D01*
X053943Y035545D01*
X054089Y035606D01*
X054215Y035702D01*
X054311Y035827D01*
X054371Y035973D01*
X054392Y03613D01*
X054371Y036287D01*
X054311Y036433D01*
X054215Y036558D01*
X054089Y036654D01*
X053943Y036715D01*
X053787Y036735D01*
D02*
G37*
G36*
X052453D02*
X052297Y036715D01*
X052151Y036654D01*
X052025Y036558D01*
X051929Y036433D01*
X051869Y036287D01*
X051848Y03613D01*
X051869Y035973D01*
X051929Y035827D01*
X052025Y035702D01*
X052151Y035606D01*
X052297Y035545D01*
X052453Y035525D01*
X05261Y035545D01*
X052756Y035606D01*
X052881Y035702D01*
X052977Y035827D01*
X053038Y035973D01*
X053059Y03613D01*
X053038Y036287D01*
X052977Y036433D01*
X052881Y036558D01*
X052756Y036654D01*
X05261Y036715D01*
X052453Y036735D01*
D02*
G37*
G36*
X05112D02*
X050963Y036715D01*
X050817Y036654D01*
X050692Y036558D01*
X050596Y036433D01*
X050535Y036287D01*
X050515Y03613D01*
X050535Y035973D01*
X050596Y035827D01*
X050692Y035702D01*
X050817Y035606D01*
X050963Y035545D01*
X05112Y035525D01*
X051277Y035545D01*
X051423Y035606D01*
X051548Y035702D01*
X051644Y035827D01*
X051705Y035973D01*
X051725Y03613D01*
X051705Y036287D01*
X051644Y036433D01*
X051548Y036558D01*
X051423Y036654D01*
X051277Y036715D01*
X05112Y036735D01*
D02*
G37*
G36*
X0611Y036836D02*
X06093Y036813D01*
X060772Y036748D01*
X060636Y036644D01*
X060532Y036508D01*
X060467Y03635D01*
X060444Y03618D01*
X060467Y03601D01*
X060532Y035852D01*
X060636Y035716D01*
X060772Y035612D01*
X06093Y035547D01*
X0611Y035524D01*
X06127Y035547D01*
X061428Y035612D01*
X061564Y035716D01*
X061668Y035852D01*
X061733Y03601D01*
X061756Y03618D01*
X061733Y03635D01*
X061668Y036508D01*
X061564Y036644D01*
X061428Y036748D01*
X06127Y036813D01*
X0611Y036836D01*
D02*
G37*
G36*
X04197Y035135D02*
X041813Y035115D01*
X041667Y035054D01*
X041542Y034958D01*
X04152Y034929D01*
X04142D01*
X041398Y034958D01*
X041273Y035054D01*
X041127Y035115D01*
X04097Y035135D01*
X040813Y035115D01*
X040667Y035054D01*
X040542Y034958D01*
X040465Y034858D01*
X040365Y034889D01*
Y034925D01*
X04007D01*
Y03453D01*
Y034135D01*
X040365D01*
Y034171D01*
X040465Y034202D01*
X040542Y034102D01*
X040667Y034006D01*
X040813Y033945D01*
X04097Y033925D01*
X041127Y033945D01*
X041273Y034006D01*
X041398Y034102D01*
X04142Y034131D01*
X04152D01*
X041542Y034102D01*
X041667Y034006D01*
X041813Y033945D01*
X04197Y033925D01*
X042127Y033945D01*
X042273Y034006D01*
X042398Y034102D01*
X042494Y034227D01*
X042555Y034373D01*
X042575Y03453D01*
X042555Y034687D01*
X042494Y034833D01*
X042398Y034958D01*
X042273Y035054D01*
X042127Y035115D01*
X04197Y035135D01*
D02*
G37*
G36*
X03987Y034925D02*
X039575D01*
Y03463D01*
X03987D01*
Y034925D01*
D02*
G37*
G36*
Y03443D02*
X039575D01*
Y034135D01*
X03987D01*
Y03443D01*
D02*
G37*
G36*
X057148Y034595D02*
X056992Y034575D01*
X056846Y034514D01*
X05672Y034418D01*
X056624Y034293D01*
X056564Y034147D01*
X056543Y03399D01*
X056564Y033833D01*
X056624Y033687D01*
X05672Y033562D01*
X056846Y033466D01*
X056992Y033405D01*
X057148Y033385D01*
X057305Y033405D01*
X057451Y033466D01*
X057576Y033562D01*
X057672Y033687D01*
X057733Y033833D01*
X057754Y03399D01*
X057733Y034147D01*
X057672Y034293D01*
X057576Y034418D01*
X057451Y034514D01*
X057305Y034575D01*
X057148Y034595D01*
D02*
G37*
G36*
X0611Y034536D02*
X06093Y034513D01*
X060772Y034448D01*
X060636Y034344D01*
X060532Y034208D01*
X060467Y03405D01*
X060444Y03388D01*
X060467Y03371D01*
X060532Y033552D01*
X060636Y033416D01*
X060772Y033312D01*
X06093Y033247D01*
X0611Y033224D01*
X06127Y033247D01*
X061428Y033312D01*
X061564Y033416D01*
X061668Y033552D01*
X061733Y03371D01*
X061756Y03388D01*
X061733Y03405D01*
X061668Y034208D01*
X061564Y034344D01*
X061428Y034448D01*
X06127Y034513D01*
X0611Y034536D01*
D02*
G37*
G36*
X0728Y033385D02*
X072643Y033365D01*
X072497Y033304D01*
X072372Y033208D01*
X072276Y033083D01*
X072264Y033054D01*
X072165Y033044D01*
X072124Y033104D01*
X071976Y033204D01*
X0719Y033219D01*
Y03278D01*
Y032341D01*
X071976Y032356D01*
X072124Y032456D01*
X072165Y032516D01*
X072264Y032506D01*
X072276Y032477D01*
X072372Y032352D01*
X072497Y032256D01*
X072643Y032195D01*
X0728Y032175D01*
X072957Y032195D01*
X073103Y032256D01*
X073228Y032352D01*
X073324Y032477D01*
X073385Y032623D01*
X073405Y03278D01*
X073385Y032937D01*
X073324Y033083D01*
X073228Y033208D01*
X073103Y033304D01*
X072957Y033365D01*
X0728Y033385D01*
D02*
G37*
G36*
X0717Y033219D02*
X071624Y033204D01*
X071476Y033104D01*
X071376Y032956D01*
X071361Y03288D01*
X0717D01*
Y033219D01*
D02*
G37*
G36*
X04197Y033035D02*
X041813Y033015D01*
X041667Y032954D01*
X041542Y032858D01*
X04152Y032829D01*
X04142D01*
X041398Y032858D01*
X041273Y032954D01*
X041127Y033015D01*
X04097Y033035D01*
X040813Y033015D01*
X040667Y032954D01*
X040542Y032858D01*
X040465Y032758D01*
X040365Y032789D01*
Y032825D01*
X04007D01*
Y03243D01*
Y032035D01*
X040365D01*
Y032071D01*
X040465Y032102D01*
X040542Y032002D01*
X040667Y031906D01*
X040813Y031845D01*
X04097Y031825D01*
X041127Y031845D01*
X041273Y031906D01*
X041398Y032002D01*
X04142Y032031D01*
X04152D01*
X041542Y032002D01*
X041667Y031906D01*
X041813Y031845D01*
X04197Y031825D01*
X042127Y031845D01*
X042273Y031906D01*
X042398Y032002D01*
X042494Y032127D01*
X042555Y032273D01*
X042575Y03243D01*
X042555Y032587D01*
X042494Y032733D01*
X042398Y032858D01*
X042273Y032954D01*
X042127Y033015D01*
X04197Y033035D01*
D02*
G37*
G36*
X05909Y032835D02*
X058939Y032815D01*
X058797Y032757D01*
X058676Y032664D01*
X05864Y032616D01*
X05854D01*
X058504Y032664D01*
X058383Y032757D01*
X058241Y032815D01*
X05809Y032835D01*
X057939Y032815D01*
X057797Y032757D01*
X057676Y032664D01*
X057583Y032543D01*
X057525Y032401D01*
X057505Y03225D01*
Y03191D01*
X057525Y031759D01*
X057583Y031618D01*
X057676Y031496D01*
X057797Y031403D01*
X057939Y031345D01*
X05809Y031325D01*
X058241Y031345D01*
X058383Y031403D01*
X058504Y031496D01*
X05854Y031544D01*
X05864D01*
X058676Y031496D01*
X058797Y031403D01*
X058939Y031345D01*
X05909Y031325D01*
X059241Y031345D01*
X059383Y031403D01*
X059504Y031496D01*
X059597Y031618D01*
X059616Y031665D01*
X059729Y031676D01*
X05978Y0316D01*
X059922Y031505D01*
X05999Y031491D01*
Y03208D01*
Y032669D01*
X059922Y032655D01*
X05978Y03256D01*
X059729Y032484D01*
X059616Y032495D01*
X059597Y032543D01*
X059504Y032664D01*
X059383Y032757D01*
X059241Y032815D01*
X05909Y032835D01*
D02*
G37*
G36*
X03987Y032825D02*
X039575D01*
Y03253D01*
X03987D01*
Y032825D01*
D02*
G37*
G36*
X0717Y03268D02*
X071361D01*
X071376Y032604D01*
X071476Y032456D01*
X071624Y032356D01*
X0717Y032341D01*
Y03268D01*
D02*
G37*
G36*
X06019Y032669D02*
Y03218D01*
X060528D01*
Y03225D01*
X060495Y032418D01*
X0604Y03256D01*
X060258Y032655D01*
X06019Y032669D01*
D02*
G37*
G36*
X03987Y03233D02*
X039575D01*
Y032035D01*
X03987D01*
Y03233D01*
D02*
G37*
G36*
X060528Y03198D02*
X06019D01*
Y031491D01*
X060258Y031505D01*
X0604Y0316D01*
X060495Y031742D01*
X060528Y03191D01*
Y03198D01*
D02*
G37*
G36*
X07313Y031364D02*
Y031D01*
X073494D01*
X073477Y031085D01*
X073372Y031242D01*
X073215Y031347D01*
X07313Y031364D01*
D02*
G37*
G36*
X07293D02*
X072845Y031347D01*
X072688Y031242D01*
X072583Y031085D01*
X072566Y031D01*
X07293D01*
Y031364D01*
D02*
G37*
G36*
X04197Y030835D02*
X041813Y030815D01*
X041667Y030754D01*
X041542Y030658D01*
X04152Y030629D01*
X04142D01*
X041398Y030658D01*
X041273Y030754D01*
X041127Y030815D01*
X04097Y030835D01*
X040813Y030815D01*
X040667Y030754D01*
X040542Y030658D01*
X040465Y030558D01*
X040365Y030589D01*
Y030625D01*
X04007D01*
Y03023D01*
Y029835D01*
X040365D01*
Y029871D01*
X040465Y029902D01*
X040542Y029802D01*
X040667Y029706D01*
X040813Y029645D01*
X04097Y029625D01*
X041127Y029645D01*
X041273Y029706D01*
X041398Y029802D01*
X04142Y029831D01*
X04152D01*
X041542Y029802D01*
X041667Y029706D01*
X041813Y029645D01*
X04197Y029625D01*
X042127Y029645D01*
X042273Y029706D01*
X042398Y029802D01*
X042494Y029927D01*
X042555Y030073D01*
X042575Y03023D01*
X042555Y030387D01*
X042494Y030533D01*
X042398Y030658D01*
X042273Y030754D01*
X042127Y030815D01*
X04197Y030835D01*
D02*
G37*
G36*
X073494Y0308D02*
X07313D01*
Y030436D01*
X073215Y030453D01*
X073372Y030558D01*
X073477Y030715D01*
X073494Y0308D01*
D02*
G37*
G36*
X07293D02*
X072566D01*
X072583Y030715D01*
X072688Y030558D01*
X072845Y030453D01*
X07293Y030436D01*
Y0308D01*
D02*
G37*
G36*
X03987Y030625D02*
X039575D01*
Y03033D01*
X03987D01*
Y030625D01*
D02*
G37*
G36*
X07503Y03153D02*
X074867Y031509D01*
X074715Y031446D01*
X074584Y031346D01*
X074484Y031215D01*
X074421Y031063D01*
X0744Y0309D01*
X074421Y030737D01*
X074484Y030585D01*
X074584Y030454D01*
X074715Y030354D01*
X074867Y030291D01*
X07503Y03027D01*
X075193Y030291D01*
X075345Y030354D01*
X075476Y030454D01*
X075576Y030585D01*
X075639Y030737D01*
X07566Y0309D01*
X075639Y031063D01*
X075576Y031215D01*
X075476Y031346D01*
X075345Y031446D01*
X075193Y031509D01*
X07503Y03153D01*
D02*
G37*
G36*
X057148Y031095D02*
X056992Y031075D01*
X056846Y031014D01*
X05672Y030918D01*
X056624Y030793D01*
X056564Y030647D01*
X056543Y03049D01*
X056564Y030333D01*
X056624Y030187D01*
X05672Y030062D01*
X056846Y029966D01*
X056992Y029905D01*
X057148Y029885D01*
X057305Y029905D01*
X057451Y029966D01*
X057576Y030062D01*
X057672Y030187D01*
X057733Y030333D01*
X057754Y03049D01*
X057733Y030647D01*
X057672Y030793D01*
X057576Y030918D01*
X057451Y031014D01*
X057305Y031075D01*
X057148Y031095D01*
D02*
G37*
G36*
X03987Y03013D02*
X039575D01*
Y029835D01*
X03987D01*
Y03013D01*
D02*
G37*
G36*
X04197Y028735D02*
X041813Y028715D01*
X041667Y028654D01*
X041542Y028558D01*
X04152Y028529D01*
X04142D01*
X041398Y028558D01*
X041273Y028654D01*
X041127Y028715D01*
X04097Y028735D01*
X040813Y028715D01*
X040667Y028654D01*
X040542Y028558D01*
X040465Y028458D01*
X040365Y028489D01*
Y028525D01*
X04007D01*
Y02813D01*
Y027735D01*
X040365D01*
Y027771D01*
X040465Y027802D01*
X040542Y027702D01*
X040562Y027687D01*
Y02703D01*
X040562Y02703D01*
X040593Y026874D01*
X040682Y026742D01*
X040775Y026648D01*
X040752Y02653D01*
X040695Y026506D01*
X040581Y026419D01*
X040494Y026305D01*
X040444Y026185D01*
X040407Y026177D01*
X040341Y026187D01*
X040255Y026315D01*
X040124Y026402D01*
X04007Y026413D01*
Y02603D01*
Y025647D01*
X040124Y025658D01*
X040255Y025745D01*
X040341Y025873D01*
X040407Y025883D01*
X040444Y025875D01*
X040494Y025755D01*
X040581Y025641D01*
X040695Y025554D01*
X040828Y025499D01*
X04097Y02548D01*
X041112Y025499D01*
X041245Y025554D01*
X041325Y025615D01*
X041425Y02557D01*
Y025485D01*
X042515D01*
Y026575D01*
X042001D01*
X041378Y027199D01*
Y027687D01*
X041398Y027702D01*
X04142Y027731D01*
X04152D01*
X041542Y027702D01*
X041667Y027606D01*
X041813Y027545D01*
X04197Y027525D01*
X042127Y027545D01*
X042273Y027606D01*
X042398Y027702D01*
X042494Y027827D01*
X042555Y027973D01*
X042575Y02813D01*
X042555Y028287D01*
X042494Y028433D01*
X042398Y028558D01*
X042273Y028654D01*
X042127Y028715D01*
X04197Y028735D01*
D02*
G37*
G36*
X03987Y028525D02*
X039575D01*
Y02823D01*
X03987D01*
Y028525D01*
D02*
G37*
G36*
Y02803D02*
X039575D01*
Y027735D01*
X03987D01*
Y02803D01*
D02*
G37*
G36*
X0454Y02755D02*
X045025D01*
Y0271D01*
X0454D01*
Y02755D01*
D02*
G37*
G36*
Y0269D02*
X045025D01*
Y02645D01*
X0454D01*
Y0269D01*
D02*
G37*
G36*
X03987Y026413D02*
X039816Y026402D01*
X039685Y026315D01*
X039598Y026184D01*
X039587Y02613D01*
X03987D01*
Y026413D01*
D02*
G37*
G36*
Y02593D02*
X039587D01*
X039598Y025876D01*
X039685Y025745D01*
X039816Y025658D01*
X03987Y025647D01*
Y02593D01*
D02*
G37*
G36*
X07724Y024465D02*
X077077Y024444D01*
X076965Y024398D01*
X076865Y024452D01*
Y02446D01*
X075615D01*
Y02306D01*
X076865D01*
Y023068D01*
X076965Y023122D01*
X077077Y023076D01*
X07724Y023055D01*
X077403Y023076D01*
X077555Y023139D01*
X077686Y023239D01*
X077786Y02337D01*
X077849Y023522D01*
X07787Y023685D01*
Y023835D01*
X077849Y023998D01*
X077786Y02415D01*
X077686Y024281D01*
X077555Y024381D01*
X077403Y024444D01*
X07724Y024465D01*
D02*
G37*
G36*
X073108D02*
X072945Y024444D01*
X072833Y024398D01*
X072733Y024452D01*
Y02446D01*
X071483D01*
Y02306D01*
X072733D01*
Y023068D01*
X072833Y023122D01*
X072945Y023076D01*
X073108Y023055D01*
X073271Y023076D01*
X073423Y023139D01*
X073554Y023239D01*
X073654Y02337D01*
X073717Y023522D01*
X073738Y023685D01*
Y023835D01*
X073717Y023998D01*
X073654Y02415D01*
X073554Y024281D01*
X073423Y024381D01*
X073271Y024444D01*
X073108Y024465D01*
D02*
G37*
G36*
X068716Y024299D02*
Y02386D01*
X069095D01*
X069063Y02402D01*
X068958Y024177D01*
X068801Y024282D01*
X068716Y024299D01*
D02*
G37*
G36*
X064584D02*
Y02386D01*
X064963D01*
X064931Y02402D01*
X064826Y024177D01*
X064669Y024282D01*
X064584Y024299D01*
D02*
G37*
G36*
X060452D02*
Y02386D01*
X060831D01*
X060799Y02402D01*
X060694Y024177D01*
X060537Y024282D01*
X060452Y024299D01*
D02*
G37*
G36*
X05632D02*
Y02386D01*
X056699D01*
X056667Y02402D01*
X056562Y024177D01*
X056405Y024282D01*
X05632Y024299D01*
D02*
G37*
G36*
X04253Y023935D02*
X042367Y023914D01*
X042215Y023851D01*
X042095Y023759D01*
X042054Y023745D01*
X042006D01*
X041965Y023759D01*
X041845Y023851D01*
X041693Y023914D01*
X04153Y023935D01*
X041367Y023914D01*
X041215Y023851D01*
X041095Y023759D01*
X041054Y023745D01*
X041006D01*
X040965Y023759D01*
X040845Y023851D01*
X040693Y023914D01*
X04053Y023935D01*
X040367Y023914D01*
X040215Y023851D01*
X040105Y023767D01*
X040005Y02378D01*
Y02378D01*
X03963D01*
Y02323D01*
Y02268D01*
X040005D01*
Y02268D01*
X040105Y022693D01*
X040215Y022609D01*
X040367Y022546D01*
X04053Y022525D01*
X040693Y022546D01*
X040845Y022609D01*
X040965Y022701D01*
X041006Y022715D01*
X041054D01*
X041095Y022701D01*
X041215Y022609D01*
X041367Y022546D01*
X04153Y022525D01*
X041693Y022546D01*
X041845Y022609D01*
X041965Y022701D01*
X042006Y022715D01*
X042054D01*
X042095Y022701D01*
X042215Y022609D01*
X042367Y022546D01*
X04253Y022525D01*
X042693Y022546D01*
X042845Y022609D01*
X042976Y022709D01*
X043076Y02284D01*
X043139Y022992D01*
X04316Y023155D01*
Y023305D01*
X043139Y023468D01*
X043076Y02362D01*
X042976Y023751D01*
X042845Y023851D01*
X042693Y023914D01*
X04253Y023935D01*
D02*
G37*
G36*
X05284Y023805D02*
X052683Y023785D01*
X052537Y023724D01*
X052412Y023628D01*
X052316Y023503D01*
X052304Y023474D01*
X052205Y023464D01*
X052164Y023524D01*
X052016Y023624D01*
X05194Y023639D01*
Y0232D01*
Y022761D01*
X052016Y022776D01*
X052164Y022876D01*
X052205Y022936D01*
X052304Y022926D01*
X052316Y022897D01*
X052412Y022772D01*
X052537Y022676D01*
X052683Y022615D01*
X05284Y022595D01*
X052997Y022615D01*
X053143Y022676D01*
X053268Y022772D01*
X053364Y022897D01*
X053425Y023043D01*
X053445Y0232D01*
X053425Y023357D01*
X053364Y023503D01*
X053268Y023628D01*
X053143Y023724D01*
X052997Y023785D01*
X05284Y023805D01*
D02*
G37*
G36*
X03943Y02378D02*
X039055D01*
Y02333D01*
X03943D01*
Y02378D01*
D02*
G37*
G36*
X04981Y023583D02*
Y0233D01*
X050093D01*
X050082Y023354D01*
X049995Y023485D01*
X049864Y023572D01*
X04981Y023583D01*
D02*
G37*
G36*
X04667D02*
Y0233D01*
X046953D01*
X046942Y023354D01*
X046855Y023485D01*
X046724Y023572D01*
X04667Y023583D01*
D02*
G37*
G36*
X069095Y02366D02*
X068716D01*
Y023221D01*
X068801Y023238D01*
X068958Y023343D01*
X069063Y0235D01*
X069095Y02366D01*
D02*
G37*
G36*
X068241Y02446D02*
X066991D01*
Y02306D01*
X068241D01*
Y023244D01*
X068341Y023297D01*
X068431Y023238D01*
X068516Y023221D01*
Y02376D01*
Y024299D01*
X068431Y024282D01*
X068341Y024223D01*
X068241Y024276D01*
Y02446D01*
D02*
G37*
G36*
X064963Y02366D02*
X064584D01*
Y023221D01*
X064669Y023238D01*
X064826Y023343D01*
X064931Y0235D01*
X064963Y02366D01*
D02*
G37*
G36*
X064109Y02446D02*
X062859D01*
Y02306D01*
X064109D01*
Y023244D01*
X064209Y023297D01*
X064299Y023238D01*
X064384Y023221D01*
Y02376D01*
Y024299D01*
X064299Y024282D01*
X064209Y024223D01*
X064109Y024276D01*
Y02446D01*
D02*
G37*
G36*
X060831Y02366D02*
X060452D01*
Y023221D01*
X060537Y023238D01*
X060694Y023343D01*
X060799Y0235D01*
X060831Y02366D01*
D02*
G37*
G36*
X059977Y02446D02*
X058727D01*
Y02306D01*
X059977D01*
Y023244D01*
X060077Y023297D01*
X060167Y023238D01*
X060252Y023221D01*
Y02376D01*
Y024299D01*
X060167Y024282D01*
X060077Y024223D01*
X059977Y024276D01*
Y02446D01*
D02*
G37*
G36*
X056699Y02366D02*
X05632D01*
Y023221D01*
X056405Y023238D01*
X056562Y023343D01*
X056667Y0235D01*
X056699Y02366D01*
D02*
G37*
G36*
X055845Y02446D02*
X054595D01*
Y02306D01*
X055845D01*
Y023244D01*
X055945Y023297D01*
X056035Y023238D01*
X05612Y023221D01*
Y02376D01*
Y024299D01*
X056035Y024282D01*
X055945Y024223D01*
X055845Y024276D01*
Y02446D01*
D02*
G37*
G36*
X050093Y0231D02*
X04981D01*
Y022817D01*
X049864Y022828D01*
X049995Y022915D01*
X050082Y023046D01*
X050093Y0231D01*
D02*
G37*
G36*
X046953D02*
X04667D01*
Y022817D01*
X046724Y022828D01*
X046855Y022915D01*
X046942Y023046D01*
X046953Y0231D01*
D02*
G37*
G36*
X051385Y023745D02*
X050295D01*
Y022655D01*
X051385D01*
Y022891D01*
X051485Y022921D01*
X051516Y022876D01*
X051664Y022776D01*
X05174Y022761D01*
Y0232D01*
Y023639D01*
X051664Y023624D01*
X051516Y023524D01*
X051485Y023479D01*
X051385Y023509D01*
Y023745D01*
D02*
G37*
G36*
X03943Y02313D02*
X039055D01*
Y02268D01*
X03943D01*
Y02313D01*
D02*
G37*
G36*
X078525Y021932D02*
X077275D01*
X07665Y021307D01*
Y020057D01*
X077275Y019432D01*
X078525D01*
X07915Y020057D01*
Y021307D01*
X078525Y021932D01*
D02*
G37*
G36*
X037925D02*
X036675D01*
X03605Y021307D01*
Y020057D01*
X036675Y019432D01*
X037925D01*
X03855Y020057D01*
Y021307D01*
X037925Y021932D01*
D02*
G37*
%LPD*%
D45*
X07533Y02843D02*
X0777Y0308D01*
X051287Y02843D02*
X07533D01*
X064302Y061204D02*
X06635D01*
X063548Y06045D02*
X064302Y061204D01*
X06167Y06045D02*
X063548D01*
X0777Y0308D02*
Y0328D01*
X066652Y060204D02*
Y060902D01*
X06635Y061204D02*
X066652Y060902D01*
X05Y0645D02*
X0581D01*
X0588Y06335D02*
Y0638D01*
X0581Y0645D02*
X0588Y0638D01*
X0631Y055648D02*
X065252Y0578D01*
X0611Y03968D02*
X0631Y04168D01*
Y055648D01*
X065252Y0578D02*
X066652Y0592D01*
X0492Y03056D02*
Y0584D01*
X0465Y02786D02*
X0492Y03056D01*
X0465Y027D02*
Y02786D01*
X0492Y030517D02*
X051287Y02843D01*
X0696Y0602D02*
X074435D01*
X0686Y0592D02*
X0696Y0602D01*
X066652Y0592D02*
Y060204D01*
Y0592D02*
X0686D01*
X049198Y065302D02*
Y067148D01*
Y065302D02*
X05Y0645D01*
X06167Y06045D02*
Y062324D01*
X0588Y06335D02*
X060644D01*
X06167Y062324D01*
X057675Y0613D02*
X059444D01*
X0568Y062175D02*
X057675Y0613D01*
X0568Y062175D02*
Y06335D01*
D46*
X0777Y0328D02*
Y032904D01*
X077054Y03355D02*
X0777Y032904D01*
X07475Y03355D02*
X077054D01*
X04657Y02267D02*
Y0232D01*
Y02267D02*
Y02267D01*
X04686Y02238D02*
X04889D01*
X04657Y02267D02*
X04686Y02238D01*
X0457Y0218D02*
X04657Y02267D01*
X040085Y0218D02*
X0457D01*
X03953Y022355D02*
X040085Y0218D01*
X03953Y022355D02*
Y02323D01*
X0739Y0344D02*
X07475Y03355D01*
X0739Y0344D02*
Y0345D01*
X0408Y0441D02*
X0419D01*
X04097Y02703D02*
X04197Y02603D01*
X04097Y02703D02*
Y02813D01*
X0699Y0582D02*
X074435D01*
X0689Y0572D02*
X0699Y0582D01*
X06667Y0572D02*
X0689D01*
X06968Y03278D02*
X0718D01*
X0689Y032D02*
X06968Y03278D01*
X0689Y0301D02*
Y032D01*
X0682Y0294D02*
X0689Y0301D01*
X060606Y0294D02*
X0682D01*
X04908Y06947D02*
X05282D01*
X048198Y068588D02*
X04908Y06947D01*
X048198Y067148D02*
Y068588D01*
X04478Y03648D02*
X04657D01*
X04335Y03505D02*
X04478Y03648D01*
X04335Y02559D02*
Y03505D01*
X0611Y0386D02*
X0624Y0373D01*
Y03168D02*
Y0373D01*
X0611Y03038D02*
X0624Y03168D01*
X0647Y05523D02*
X06667Y0572D01*
X0647Y0464D02*
Y05523D01*
X0426Y0448D02*
Y0499D01*
X0419Y0441D02*
X0426Y0448D01*
X0419Y0506D02*
X0426Y0499D01*
X0408Y0506D02*
X0419D01*
X04548Y03548D02*
X04657D01*
X04432Y03432D02*
X04548Y03548D01*
X04432Y02596D02*
Y03432D01*
X04871Y0232D02*
Y02399D01*
X04821Y02449D02*
X04871Y02399D01*
X04579Y02449D02*
X04821D01*
X039867Y058267D02*
X0408D01*
X0391Y0575D02*
X039867Y058267D01*
X0391Y0511D02*
Y0575D01*
X0396Y0506D02*
X0408D01*
X06009Y029916D02*
X060606Y0294D01*
X06009Y029916D02*
Y03208D01*
X06562Y04548D02*
X06657D01*
X0647Y0464D02*
X06562Y04548D01*
X0691Y0647D02*
X0748D01*
X06815Y06375D02*
X0691Y0647D01*
X06815Y06243D02*
Y06375D01*
X05184Y0232D02*
Y02446D01*
X05089Y02541D02*
X05184Y02446D01*
X0462Y02541D02*
X05089D01*
X06006Y069016D02*
Y07088D01*
X05946Y07148D02*
X06006Y07088D01*
X05695Y07148D02*
X05946D01*
X06085Y06593D02*
X06515D01*
X06006Y06672D02*
X06085Y06593D01*
X06006Y06672D02*
Y069016D01*
X0455Y02611D02*
X0462Y02541D01*
X0455Y02611D02*
Y027D01*
X04432Y02596D02*
X04579Y02449D01*
X04557Y0232D02*
Y02337D01*
X04335Y02559D02*
X04557Y02337D01*
X04889Y02238D02*
X04971Y0232D01*
X0611Y0386D02*
Y03968D01*
X0391Y0511D02*
X0396Y0506D01*
X048198Y058402D02*
X0482Y0584D01*
X048198Y058402D02*
Y067148D01*
X0697Y0345D02*
X0729D01*
X0691Y0351D02*
X0697Y0345D01*
X0691Y0351D02*
Y043D01*
X06862Y04348D02*
X0691Y043D01*
X06757Y04348D02*
X06862D01*
D47*
X0408Y0402D02*
D03*
X074435Y054D02*
D03*
Y0486D02*
D03*
X0408Y0526D02*
D03*
Y059267D02*
D03*
Y0726D02*
D03*
X0408Y065933D02*
D03*
X0408Y0451D02*
D03*
Y0461D02*
D03*
X074435Y0612D02*
D03*
D48*
X0408Y0392D02*
D03*
Y0382D02*
D03*
Y0372D02*
D03*
X074435Y053D02*
D03*
Y052D02*
D03*
Y051D02*
D03*
Y0476D02*
D03*
Y0466D02*
D03*
Y0456D02*
D03*
X0408Y0496D02*
D03*
Y0506D02*
D03*
Y0516D02*
D03*
Y056267D02*
D03*
Y057267D02*
D03*
Y058267D02*
D03*
Y0696D02*
D03*
Y0706D02*
D03*
Y0716D02*
D03*
X0408Y062933D02*
D03*
Y063933D02*
D03*
Y064933D02*
D03*
X0408Y0431D02*
D03*
Y0441D02*
D03*
X074435Y0582D02*
D03*
Y0592D02*
D03*
Y0602D02*
D03*
D49*
X03953Y02323D02*
D03*
X072108Y02376D02*
D03*
X063484D02*
D03*
X067616D02*
D03*
X05522D02*
D03*
X059352D02*
D03*
X07624D02*
D03*
X0455Y027D02*
D03*
D50*
X04053Y02323D02*
D03*
X04153D02*
D03*
X04253D02*
D03*
X073108Y02376D02*
D03*
X064484D02*
D03*
X068616D02*
D03*
X05622D02*
D03*
X060352D02*
D03*
X07724D02*
D03*
X0485Y027D02*
D03*
X0475D02*
D03*
X0465D02*
D03*
D51*
X03997Y02603D02*
D03*
X04097D02*
D03*
X04557Y0232D02*
D03*
X04657D02*
D03*
X04871D02*
D03*
X04971D02*
D03*
X074795Y0677D02*
D03*
D52*
X04197Y02603D02*
D03*
X03997Y02813D02*
D03*
Y03023D02*
D03*
Y03243D02*
D03*
Y03453D02*
D03*
X04457Y0232D02*
D03*
X04771D02*
D03*
X0605Y07248D02*
D03*
X05084Y0232D02*
D03*
X048198Y067148D02*
D03*
X0482Y0584D02*
D03*
D53*
X04197Y02813D02*
D03*
X04097D02*
D03*
X04197Y03023D02*
D03*
X04097D02*
D03*
X04197Y03243D02*
D03*
X04097D02*
D03*
Y03453D02*
D03*
X04197D02*
D03*
X05512Y03963D02*
D03*
Y03613D02*
D03*
X052453Y03963D02*
D03*
Y03613D02*
D03*
X05112Y03963D02*
D03*
Y03613D02*
D03*
X053787Y03963D02*
D03*
Y03613D02*
D03*
X059444Y0613D02*
D03*
X055944D02*
D03*
X0541Y05978D02*
D03*
Y06328D02*
D03*
X0638Y05911D02*
D03*
X0603D02*
D03*
X04757Y05448D02*
D03*
X04657Y05348D02*
D03*
X04757D02*
D03*
X04657Y05248D02*
D03*
X04757D02*
D03*
X04657Y05148D02*
D03*
X04757D02*
D03*
X04657Y05048D02*
D03*
X04757D02*
D03*
X04657Y04948D02*
D03*
X04757D02*
D03*
X04657Y04848D02*
D03*
X04757D02*
D03*
X04657Y04748D02*
D03*
X04757D02*
D03*
X04657Y04648D02*
D03*
X04757D02*
D03*
X04657Y04548D02*
D03*
X04757D02*
D03*
X04657Y04448D02*
D03*
X04757D02*
D03*
X04657Y04348D02*
D03*
X04757D02*
D03*
X04657Y04248D02*
D03*
X04757D02*
D03*
X04657Y04148D02*
D03*
X04757D02*
D03*
X04657Y04048D02*
D03*
X04757D02*
D03*
X04657Y03948D02*
D03*
X04757D02*
D03*
X04657Y03848D02*
D03*
X04757D02*
D03*
X04657Y03748D02*
D03*
X04757D02*
D03*
X04657Y03648D02*
D03*
X04757D02*
D03*
X04657Y03548D02*
D03*
X04757D02*
D03*
X04657Y03448D02*
D03*
X04757D02*
D03*
X04657Y03348D02*
D03*
X04757D02*
D03*
X04657Y03248D02*
D03*
X04757D02*
D03*
X04657Y03148D02*
D03*
X04757D02*
D03*
X04657Y03048D02*
D03*
X04757D02*
D03*
X06757Y05448D02*
D03*
X06657Y05348D02*
D03*
X06757D02*
D03*
X06657Y05248D02*
D03*
X06757D02*
D03*
X06657Y05148D02*
D03*
X06757D02*
D03*
X06657Y05048D02*
D03*
X06757D02*
D03*
X06657Y04948D02*
D03*
X06757D02*
D03*
X06657Y04848D02*
D03*
X06757D02*
D03*
X06657Y04748D02*
D03*
X06757D02*
D03*
X06657Y04648D02*
D03*
X06757D02*
D03*
X06657Y04548D02*
D03*
X06757D02*
D03*
X06657Y04448D02*
D03*
X06757D02*
D03*
X06657Y04348D02*
D03*
X06757D02*
D03*
X06657Y04248D02*
D03*
X06757D02*
D03*
X06657Y04148D02*
D03*
X06757D02*
D03*
X06657Y04048D02*
D03*
X06757D02*
D03*
X06657Y03948D02*
D03*
X06757D02*
D03*
X06657Y03848D02*
D03*
X06757D02*
D03*
X06657Y03748D02*
D03*
X06757D02*
D03*
X06657Y03648D02*
D03*
X06757D02*
D03*
X06657Y03548D02*
D03*
X06757D02*
D03*
X06657Y03448D02*
D03*
X06757D02*
D03*
X06657Y03348D02*
D03*
X06757D02*
D03*
X06657Y03248D02*
D03*
X06757D02*
D03*
X06657Y03148D02*
D03*
X06757D02*
D03*
X06657Y03048D02*
D03*
X06757D02*
D03*
X0615Y07248D02*
D03*
X0625D02*
D03*
X05184Y0232D02*
D03*
X05284D02*
D03*
X06665Y06593D02*
D03*
Y06243D02*
D03*
X06815Y06593D02*
D03*
Y06243D02*
D03*
X06515Y06593D02*
D03*
Y06243D02*
D03*
X05692Y03963D02*
D03*
Y03613D02*
D03*
X057148Y03399D02*
D03*
Y03049D02*
D03*
X049198Y067148D02*
D03*
X0492Y0584D02*
D03*
X0718Y03278D02*
D03*
X0728D02*
D03*
X0777Y0328D02*
D03*
X0742D02*
D03*
X06307Y0619D02*
D03*
Y0634D02*
D03*
X0739Y0355D02*
D03*
X0749D02*
D03*
X0759D02*
D03*
Y0345D02*
D03*
X0749D02*
D03*
X06167Y06395D02*
D03*
Y06045D02*
D03*
X04535Y0609D02*
D03*
Y0644D02*
D03*
D54*
X0748Y0647D02*
D03*
D55*
X0588Y06335D02*
D03*
X0578D02*
D03*
X0568D02*
D03*
X05881Y0591D02*
D03*
X05781D02*
D03*
X05681D02*
D03*
X065652Y060204D02*
D03*
X066652D02*
D03*
X067652D02*
D03*
X05809Y03208D02*
D03*
X05909D02*
D03*
X06009D02*
D03*
D56*
X0524Y063324D02*
D03*
X0611Y03038D02*
D03*
Y03968D02*
D03*
D57*
X0524Y059824D02*
D03*
X0611Y03388D02*
D03*
Y03618D02*
D03*
D58*
X0779Y020682D02*
D03*
X0373D02*
D03*
X0778Y0742D02*
D03*
X0373D02*
D03*
D59*
X04657Y05448D02*
D03*
X06657D02*
D03*
D60*
X05896Y039D02*
D03*
Y038D02*
D03*
Y037D02*
D03*
D61*
X07503Y0309D02*
D03*
X07303D02*
D03*
D62*
X05175Y07278D02*
D03*
D63*
X05325D02*
D03*
D64*
X0729Y0355D02*
D03*
D65*
X0739Y0345D02*
D03*
D66*
X0729D02*
D03*
D67*
X05695Y06898D02*
D03*
Y07148D02*
D03*
D68*
X05495Y06998D02*
D03*
D69*
X06006Y069016D02*
D03*
D70*
X06106D02*
D03*
D71*
X05282Y06947D02*
D03*
D72*
Y06847D02*
D03*
M02*
